<?xml version="1.0" encoding="UTF-8"?>
<svg width="14px" height="16px" viewBox="0 0 14 16" version="1.1" xmlns="http://www.w3.org/2000/svg" xmlns:xlink="http://www.w3.org/1999/xlink">
    <!-- Generator: Sketch 50.2 (55047) - http://www.bohemiancoding.com/sketch -->
    <title>menu_message_hover</title>
    <desc>Created with Sketch.</desc>
    <defs></defs>
    <g id="切图" stroke="none" stroke-width="1" fill="none" fill-rule="evenodd">
        <g id="Artboard" transform="translate(-681.000000, -440.000000)" fill="#FF9E2F" fill-rule="nonzero">
            <path d="M691.913974,450.735 C691.483974,450.111 691.166974,449.093 691.166974,448.335 L691.166974,444.998 C691.166974,443.342 689.826974,442 688.171974,442 L687.828974,442 C687.033774,442.000265 686.271277,442.316548 685.70936,442.879215 C685.147444,443.441882 684.832178,444.2048 684.832974,445 L684.832974,448.334 C684.832974,449.094 684.516974,450.111 684.085974,450.734 L683.904974,451 L692.096974,451 L691.913974,450.735 Z M682.833974,444.999 C682.833974,442.238 685.069974,440 687.829974,440 L688.171974,440 C689.497434,440.00053 690.768382,440.527644 691.705155,441.465355 C692.641928,442.403066 693.16777,443.67454 693.166974,445 L693.166974,448.334 C693.166974,448.687 693.360974,449.31 693.560974,449.6 L694.823974,451.432 C695.035086,451.737899 695.059124,452.135648 694.88639,452.464745 C694.713656,452.793843 694.37265,452.999989 694.000974,453 L682.000974,453 C681.629119,453.000361 681.287773,452.794359 681.114791,452.465188 C680.941808,452.136018 680.96576,451.738047 681.176974,451.432 L682.440974,449.6 C682.640974,449.31 682.833974,448.688 682.833974,448.334 L682.833974,445 L682.833974,444.999 Z M686.000974,455 C686.000961,454.733042 686.107689,454.477161 686.297394,454.289334 C686.487099,454.101508 686.744029,453.99733 687.010974,454 L688.990974,454 C689.543259,454 689.990974,454.447715 689.990974,455 C689.990974,455.552285 689.543259,456 688.990974,456 L687.010974,456 C686.452974,456 686.000974,455.556 686.000974,455 Z" id="menu_message_hover"></path>
        </g>
    </g>
</svg>