<?xml version="1.0" encoding="UTF-8"?>
<svg width="14px" height="16px" viewBox="0 0 14 16" version="1.1" xmlns="http://www.w3.org/2000/svg" xmlns:xlink="http://www.w3.org/1999/xlink">
    <!-- Generator: Sketch 50.2 (55047) - http://www.bohemiancoding.com/sketch -->
    <title>menu_message_normal_white</title>
    <desc>Created with Sketch.</desc>
    <defs></defs>
    <g id="切图" stroke="none" stroke-width="1" fill="none" fill-rule="evenodd">
        <g id="Artboard" transform="translate(-591.000000, -440.000000)" fill="#FFFFFF" fill-rule="nonzero">
            <path d="M601.913974,450.735 C601.483974,450.111 601.166974,449.093 601.166974,448.335 L601.166974,444.998 C601.166974,443.342 599.826974,442 598.171974,442 L597.828974,442 C597.033774,442.000265 596.271277,442.316548 595.70936,442.879215 C595.147444,443.441882 594.832178,444.2048 594.832974,445 L594.832974,448.334 C594.832974,449.094 594.516974,450.111 594.085974,450.734 L593.904974,451 L602.096974,451 L601.913974,450.735 Z M592.833974,444.999 C592.833974,442.238 595.069974,440 597.829974,440 L598.171974,440 C599.497434,440.00053 600.768382,440.527644 601.705155,441.465355 C602.641928,442.403066 603.16777,443.67454 603.166974,445 L603.166974,448.334 C603.166974,448.687 603.360974,449.31 603.560974,449.6 L604.823974,451.432 C605.035086,451.737899 605.059124,452.135648 604.88639,452.464745 C604.713656,452.793843 604.37265,452.999989 604.000974,453 L592.000974,453 C591.629119,453.000361 591.287773,452.794359 591.114791,452.465188 C590.941808,452.136018 590.96576,451.738047 591.176974,451.432 L592.440974,449.6 C592.640974,449.31 592.833974,448.688 592.833974,448.334 L592.833974,445 L592.833974,444.999 Z M596.000974,455 C596.000961,454.733042 596.107689,454.477161 596.297394,454.289334 C596.487099,454.101508 596.744029,453.99733 597.010974,454 L598.990974,454 C599.543259,454 599.990974,454.447715 599.990974,455 C599.990974,455.552285 599.543259,456 598.990974,456 L597.010974,456 C596.452974,456 596.000974,455.556 596.000974,455 Z" id="menu_message_normal_white"></path>
        </g>
    </g>
</svg>