<?xml version="1.0" encoding="UTF-8"?>
<svg width="14px" height="16px" viewBox="0 0 14 16" version="1.1" xmlns="http://www.w3.org/2000/svg" xmlns:xlink="http://www.w3.org/1999/xlink">
    <!-- Generator: Sketch 50.2 (55047) - http://www.bohemiancoding.com/sketch -->
    <title>menu_message_normal_gary</title>
    <desc>Created with Sketch.</desc>
    <defs></defs>
    <g id="切图" stroke="none" stroke-width="1" fill="none" fill-rule="evenodd">
        <g id="Artboard" transform="translate(-636.000000, -440.000000)" fill="#D1D1D5" fill-rule="nonzero">
            <path d="M646.913974,450.735 C646.483974,450.111 646.166974,449.093 646.166974,448.335 L646.166974,444.998 C646.166974,443.342 644.826974,442 643.171974,442 L642.828974,442 C642.033774,442.000265 641.271277,442.316548 640.70936,442.879215 C640.147444,443.441882 639.832178,444.2048 639.832974,445 L639.832974,448.334 C639.832974,449.094 639.516974,450.111 639.085974,450.734 L638.904974,451 L647.096974,451 L646.913974,450.735 Z M637.833974,444.999 C637.833974,442.238 640.069974,440 642.829974,440 L643.171974,440 C644.497434,440.00053 645.768382,440.527644 646.705155,441.465355 C647.641928,442.403066 648.16777,443.67454 648.166974,445 L648.166974,448.334 C648.166974,448.687 648.360974,449.31 648.560974,449.6 L649.823974,451.432 C650.035086,451.737899 650.059124,452.135648 649.88639,452.464745 C649.713656,452.793843 649.37265,452.999989 649.000974,453 L637.000974,453 C636.629119,453.000361 636.287773,452.794359 636.114791,452.465188 C635.941808,452.136018 635.96576,451.738047 636.176974,451.432 L637.440974,449.6 C637.640974,449.31 637.833974,448.688 637.833974,448.334 L637.833974,445 L637.833974,444.999 Z M641.000974,455 C641.000961,454.733042 641.107689,454.477161 641.297394,454.289334 C641.487099,454.101508 641.744029,453.99733 642.010974,454 L643.990974,454 C644.543259,454 644.990974,454.447715 644.990974,455 C644.990974,455.552285 644.543259,456 643.990974,456 L642.010974,456 C641.452974,456 641.000974,455.556 641.000974,455 Z" id="menu_message_normal_gary"></path>
        </g>
    </g>
</svg>