<?xml version="1.0" encoding="UTF-8"?>
<svg width="14px" height="14px" viewBox="0 0 14 14" version="1.1" xmlns="http://www.w3.org/2000/svg" xmlns:xlink="http://www.w3.org/1999/xlink">
    <!-- Generator: Sketch 52.3 (67297) - http://www.bohemiancoding.com/sketch -->
    <title>otc_dolllar_small</title>
    <desc>Created with Sketch.</desc>
    <g id="***切图" stroke="none" stroke-width="1" fill="none" fill-rule="evenodd">
        <g id="OTC" transform="translate(-105.000000, -85.000000)" fill="#F54832">
            <path d="M107,85 L117,85 C118.104569,85 119,85.8954305 119,87 L119,97 C119,98.1045695 118.104569,99 117,99 L107,99 C105.895431,99 105,98.1045695 105,97 L105,87 C105,85.8954305 105.895431,85 107,85 Z M115.896033,88.5 L108.093988,88.5 C107.671897,88.5 107.33,88.8234931 107.33,89.2231039 L107.33,94.7743759 C107.33,95.1732316 107.671897,95.4975 108.093988,95.4975 L115.896033,95.4975 C116.318124,95.4975 116.66,95.1732316 116.66,94.7743759 L116.66,89.2231039 C116.660011,88.8234931 116.318124,88.5 115.896033,88.5 Z M112.441209,89.964872 C113.170225,89.964872 113.702048,90.6884854 113.702048,91.226712 L112.92944,91.226712 C112.92944,91.0265566 112.655888,90.5728824 112.441209,90.5989461 L112.441209,89.964872 Z M112.441209,91.9453279 C113.077553,92.114923 113.701398,92.5719537 113.701398,93.1101697 C113.701398,94.186655 112.631412,94.2886614 112.441209,94.3391584 L112.445472,93.6980516 C112.635494,93.5794224 113.017732,93.6007444 112.993651,93.1422431 C112.973075,92.7505101 112.630581,92.7314152 112.441209,92.6127861 L112.441209,91.9453279 Z M111.598914,89.7589413 L111.598914,89.7589519 L112.319458,89.7589413 L112.311424,94.5765872 L111.764364,94.5759905 L111.764364,94.3228872 C111.004329,94.2163522 110.261301,93.7139178 110.261866,93.1088697 L111.043617,93.1095197 C111.043617,93.3856604 111.273757,93.6209474 111.597699,93.712767 L111.597699,92.4394402 C110.837654,92.3329159 110.261855,91.8298102 110.261855,91.2254121 C110.262505,90.6210139 110.838315,90.1185795 111.598349,90.0120445 L111.598914,89.7589413 Z M111.597688,91.8291495 L111.598338,90.6221541 C111.275057,90.7139843 111.044256,90.9492607 111.044256,91.2254014 C111.044256,91.5020323 111.274396,91.7373299 111.597688,91.8291495 Z M115.392059,94.914375 L114.3275,94.914375 L116.076875,93.165 L116.076875,94.1787149 C116.076875,94.5845858 115.770203,94.914375 115.392059,94.914375 Z M115.392059,89.083125 C115.770203,89.083125 116.076875,89.4129084 116.076875,89.8188028 L116.076875,90.8325 L114.3275,89.083125 L115.392059,89.083125 Z M107.913125,89.8189056 C107.913125,89.4120074 108.220506,89.083125 108.598465,89.083125 L109.6625,89.083125 L107.913125,90.8325 L107.913125,89.8189056 Z M107.913125,94.1787149 L107.913125,93.165 L109.6625,94.914375 L108.598465,94.914375 C108.220506,94.914375 107.913125,94.5846011 107.913125,94.1787149 Z" id="otc_dolllar_small"></path>
        </g>
    </g>
</svg>