<?xml version="1.0" encoding="UTF-8"?>
<svg width="190px" height="130px" viewBox="0 0 190 130" version="1.1" xmlns="http://www.w3.org/2000/svg" xmlns:xlink="http://www.w3.org/1999/xlink">
    <!-- Generator: Sketch 50.2 (55047) - http://www.bohemiancoding.com/sketch -->
    <title>upload_passport_two</title>
    <desc>Created with Sketch.</desc>
    <defs></defs>
    <g id="切图" stroke="none" stroke-width="1" fill="none" fill-rule="evenodd" opacity="0.5">
        <g id="upload_passport_two">
            <g id="path-1-link" fill="#FFFFFF">
                <rect id="path-1" x="0" y="0" width="190" height="130" rx="2"></rect>
            </g>
            <rect id="Rectangle-path" stroke="#EEEEEE" x="0.5" y="0.5" width="189" height="129" rx="2"></rect>
            <path d="M46.866304,20.9314113 C37.6423963,22.1480031 27.4836332,23.2398162 21.0331302,29.9466682 C13.4608006,37.8389173 13.9905521,50.5663388 17.32487,60.9853554 C20.659188,71.404372 26.268321,81.2618847 27.3278239,92.1800159 C27.6394424,95.299482 27.5771187,98.4813374 28.6989454,101.413635 C29.7896101,104.18996 31.8774541,106.46717 34.1211073,108.432434 C47.8323214,120.3176 67.464287,121.627775 85.6004838,122.345253 C106.4166,123.187508 127.232716,124.060959 148.048831,124.903215 C156.088589,125.246356 165.405982,124.996799 170.329554,118.664283 C172.136942,116.355878 173.071797,113.485969 173.975491,110.67845 C175.502421,105.936861 177.060514,101.101689 176.99819,96.1105432 C176.873543,87.2200649 171.700676,79.2342318 165.935733,72.4649905 C159.48523,64.9158826 152.037548,58.2090306 143.873144,52.5627971 C136.082681,47.1973155 126.734126,41.4263033 125.674623,32.0367105 C124.802091,24.4252133 129.507531,15.0668151 121.311964,10.2316427 C115.453536,6.80023009 105.793363,6.30111552 99.280536,7.79845923 C81.5806051,11.8225704 65.15831,18.5294224 46.866304,20.9314113 Z" id="Shape" fill="#F6FAFF" fill-rule="nonzero"></path>
            <path d="M67.9713656,111.12 L67.9713656,110.31 C67.9713656,110.07 67.8462555,109.83 67.6273128,109.71 L66.9392071,109.32 C66.7202643,109.2 66.4387665,109.2 66.1885463,109.32 L65.5004405,109.71 C65.2814978,109.83 65.1563877,110.07 65.1563877,110.31 L65.1563877,111.12 C65.1563877,111.36 65.2814978,111.6 65.5004405,111.72 L66.1885463,112.11 C66.407489,112.23 66.6889868,112.23 66.9392071,112.11 L67.6273128,111.72 C67.814978,111.6 67.9713656,111.36 67.9713656,111.12 Z" id="Shape" fill="#FFAB9F" fill-rule="nonzero"></path>
            <path d="M71.9436123,111.12 L71.9436123,110.31 C71.9436123,110.07 71.8185022,109.83 71.5995595,109.71 L70.9114537,109.32 C70.692511,109.2 70.4110132,109.2 70.1607929,109.32 L69.4726872,109.71 C69.2537445,109.83 69.1286344,110.07 69.1286344,110.31 L69.1286344,111.12 C69.1286344,111.36 69.2537445,111.6 69.4726872,111.72 L70.1607929,112.11 C70.3797357,112.23 70.6612335,112.23 70.9114537,112.11 L71.5995595,111.72 C71.8185022,111.6 71.9436123,111.36 71.9436123,111.12 Z" id="Shape" fill="#FFAB9F" fill-rule="nonzero"></path>
            <path d="M75.9471366,111.12 L75.9471366,110.31 C75.9471366,110.07 75.8220264,109.83 75.6030837,109.71 L74.914978,109.32 C74.6960352,109.2 74.4145374,109.2 74.1643172,109.32 L73.4762115,109.71 C73.2572687,109.83 73.1321586,110.07 73.1321586,110.31 L73.1321586,111.12 C73.1321586,111.36 73.2572687,111.6 73.4762115,111.72 L74.1643172,112.11 C74.3832599,112.23 74.6647577,112.23 74.914978,112.11 L75.6030837,111.72 C75.7907489,111.6 75.9471366,111.36 75.9471366,111.12 Z" id="Shape" fill="#FFAB9F" fill-rule="nonzero"></path>
            <path d="M79.9193833,111.12 L79.9193833,110.31 C79.9193833,110.07 79.7942731,109.83 79.5753304,109.71 L78.8872247,109.32 C78.6682819,109.2 78.3867841,109.2 78.1365639,109.32 L77.4484581,109.71 C77.2295154,109.83 77.1044053,110.07 77.1044053,110.31 L77.1044053,111.12 C77.1044053,111.36 77.2295154,111.6 77.4484581,111.72 L78.1365639,112.11 C78.3555066,112.23 78.6370044,112.23 78.8872247,112.11 L79.5753304,111.72 C79.7942731,111.6 79.9193833,111.36 79.9193833,111.12 Z" id="Shape" fill="#FFAB9F" fill-rule="nonzero"></path>
            <path d="M91.8986784,111.12 L91.8986784,110.31 C91.8986784,110.07 91.7735683,109.83 91.5546256,109.71 L90.8665198,109.32 C90.6475771,109.2 90.3660793,109.2 90.115859,109.32 L89.4277533,109.71 C89.2088106,109.83 89.0837004,110.07 89.0837004,110.31 L89.0837004,111.12 C89.0837004,111.36 89.2088106,111.6 89.4277533,111.72 L90.115859,112.11 C90.3348018,112.23 90.6162996,112.23 90.8665198,112.11 L91.5546256,111.72 C91.7735683,111.6 91.8986784,111.36 91.8986784,111.12 Z" id="Shape" fill="#FFAB9F" fill-rule="nonzero"></path>
            <path d="M95.8709251,111.12 L95.8709251,110.31 C95.8709251,110.07 95.745815,109.83 95.5268722,109.71 L94.8387665,109.32 C94.6198238,109.2 94.338326,109.2 94.0881057,109.32 L93.4,109.71 C93.1810573,109.83 93.0559471,110.07 93.0559471,110.31 L93.0559471,111.12 C93.0559471,111.36 93.1810573,111.6 93.4,111.72 L94.0881057,112.11 C94.3070485,112.23 94.5885463,112.23 94.8387665,112.11 L95.5268722,111.72 C95.745815,111.6 95.8709251,111.36 95.8709251,111.12 Z" id="Shape" fill="#FFAB9F" fill-rule="nonzero"></path>
            <path d="M99.8744493,111.12 L99.8744493,110.31 C99.8744493,110.07 99.7493392,109.83 99.5303965,109.71 L98.8422907,109.32 C98.623348,109.2 98.3418502,109.2 98.09163,109.32 L97.4035242,109.71 C97.1845815,109.83 97.0594714,110.07 97.0594714,110.31 L97.0594714,111.12 C97.0594714,111.36 97.1845815,111.6 97.4035242,111.72 L98.09163,112.11 C98.3105727,112.23 98.5920705,112.23 98.8422907,112.11 L99.5303965,111.72 C99.7493392,111.6 99.8744493,111.36 99.8744493,111.12 Z" id="Shape" fill="#FFAB9F" fill-rule="nonzero"></path>
            <path d="M103.846696,111.12 L103.846696,110.31 C103.846696,110.07 103.721586,109.83 103.502643,109.71 L102.814537,109.32 C102.595595,109.2 102.314097,109.2 102.063877,109.32 L101.375771,109.71 C101.156828,109.83 101.031718,110.07 101.031718,110.31 L101.031718,111.12 C101.031718,111.36 101.156828,111.6 101.375771,111.72 L102.063877,112.11 C102.282819,112.23 102.564317,112.23 102.814537,112.11 L103.502643,111.72 C103.721586,111.6 103.846696,111.36 103.846696,111.12 Z" id="Shape" fill="#FFAB9F" fill-rule="nonzero"></path>
            <path d="M107.85022,111.12 L107.85022,110.31 C107.85022,110.07 107.72511,109.83 107.506167,109.71 L106.818062,109.32 C106.599119,109.2 106.317621,109.2 106.067401,109.32 L105.379295,109.71 C105.160352,109.83 105.035242,110.07 105.035242,110.31 L105.035242,111.12 C105.035242,111.36 105.160352,111.6 105.379295,111.72 L106.067401,112.11 C106.286344,112.23 106.567841,112.23 106.818062,112.11 L107.506167,111.72 C107.72511,111.6 107.85022,111.36 107.85022,111.12 Z" id="Shape" fill="#FFAB9F" fill-rule="nonzero"></path>
            <path d="M111.853744,111.12 L111.853744,110.31 C111.853744,110.07 111.728634,109.83 111.509692,109.71 L110.821586,109.32 C110.602643,109.2 110.321145,109.2 110.070925,109.32 L109.382819,109.71 C109.163877,109.83 109.038766,110.07 109.038766,110.31 L109.038766,111.12 C109.038766,111.36 109.163877,111.6 109.382819,111.72 L110.070925,112.11 C110.289868,112.23 110.571366,112.23 110.821586,112.11 L111.509692,111.72 C111.697357,111.6 111.853744,111.36 111.853744,111.12 Z" id="Shape" fill="#FFAB9F" fill-rule="nonzero"></path>
            <path d="M123.801762,111.12 L123.801762,110.31 C123.801762,110.07 123.676652,109.83 123.457709,109.71 L122.769603,109.32 C122.550661,109.2 122.269163,109.2 122.018943,109.32 L121.330837,109.71 C121.111894,109.83 120.986784,110.07 120.986784,110.31 L120.986784,111.12 C120.986784,111.36 121.111894,111.6 121.330837,111.72 L122.018943,112.11 C122.237885,112.23 122.519383,112.23 122.769603,112.11 L123.457709,111.72 C123.676652,111.6 123.801762,111.36 123.801762,111.12 Z" id="Shape" fill="#FFAB9F" fill-rule="nonzero"></path>
            <path d="M127.805286,111.12 L127.805286,110.31 C127.805286,110.07 127.680176,109.83 127.461233,109.71 L126.773128,109.32 C126.554185,109.2 126.272687,109.2 126.022467,109.32 L125.334361,109.71 C125.115418,109.83 124.990308,110.07 124.990308,110.31 L124.990308,111.12 C124.990308,111.36 125.115418,111.6 125.334361,111.72 L126.022467,112.11 C126.24141,112.23 126.522908,112.23 126.773128,112.11 L127.461233,111.72 C127.648899,111.6 127.805286,111.36 127.805286,111.12 Z" id="Shape" fill="#FFAB9F" fill-rule="nonzero"></path>
            <path d="M131.777533,111.12 L131.777533,110.31 C131.777533,110.07 131.652423,109.83 131.43348,109.71 L130.745374,109.32 C130.526432,109.2 130.244934,109.2 129.994714,109.32 L129.306608,109.71 C129.087665,109.83 128.962555,110.07 128.962555,110.31 L128.962555,111.12 C128.962555,111.36 129.087665,111.6 129.306608,111.72 L129.994714,112.11 C130.213656,112.23 130.495154,112.23 130.745374,112.11 L131.43348,111.72 C131.652423,111.6 131.777533,111.36 131.777533,111.12 Z" id="Shape" fill="#FFAB9F" fill-rule="nonzero"></path>
            <path d="M135.781057,111.12 L135.781057,110.31 C135.781057,110.07 135.655947,109.83 135.437004,109.71 L134.748899,109.32 C134.529956,109.2 134.248458,109.2 133.998238,109.32 L133.310132,109.71 C133.091189,109.83 132.966079,110.07 132.966079,110.31 L132.966079,111.12 C132.966079,111.36 133.091189,111.6 133.310132,111.72 L133.998238,112.11 C134.217181,112.23 134.498678,112.23 134.748899,112.11 L135.437004,111.72 C135.62467,111.6 135.781057,111.36 135.781057,111.12 Z" id="Shape" fill="#FFAB9F" fill-rule="nonzero"></path>
            <path d="M83.2660793,113.49 C83.2348018,113.49 83.1722467,113.49 83.1409692,113.46 C82.953304,113.4 82.8594714,113.19 82.953304,113.01 L84.9550661,108.3 C85.0176211,108.12 85.2365639,108.03 85.4242291,108.12 C85.6118943,108.18 85.7057269,108.39 85.6118943,108.57 L83.6101322,113.28 C83.5475771,113.4 83.422467,113.49 83.2660793,113.49 Z" id="Shape" fill="#40527C" fill-rule="nonzero"></path>
            <path d="M115.388106,113.85 C115.356828,113.85 115.294273,113.85 115.262996,113.82 C115.07533,113.76 114.981498,113.55 115.07533,113.37 L117.077093,108.66 C117.139648,108.48 117.35859,108.39 117.546256,108.48 C117.733921,108.54 117.827753,108.75 117.733921,108.93 L115.732159,113.64 C115.669604,113.76 115.544493,113.85 115.388106,113.85 Z" id="Shape" fill="#40527C" fill-rule="nonzero"></path>
            <path d="M54.1244147,49.0625 C54,50.53125 54.5287625,52.25 56.4571906,53 C57.5769231,53.4375 58.945485,53.4375 60.2518395,53.46875 C84.1083612,53.59375 107.964883,53.6875 131.821405,53.8125 C135.522743,53.84375 139.441806,53.8125 142.645485,52.59375 C145.849164,51.375 147.964214,48.5 146.097993,46.40625 C144.107358,44.15625 139.317391,44.09375 135.367224,44.28125 C120.313044,45 105.196656,45.3125 90.0802676,45.25 C82.677592,45.21875 75.2438127,45.09375 67.8411371,44.875 C64.9173913,44.78125 58.945485,43.75 56.3016722,44.46875 C53.6578595,45.15625 54.3110368,46.9375 54.1244147,49.0625 Z" id="Shape" fill="#D4E1F9" fill-rule="nonzero"></path>
            <path d="M80.7802676,44.46875 L131.10602,44.46875" id="Shape" stroke="#40527C" stroke-width="0.6" stroke-linecap="round" stroke-linejoin="round" stroke-dasharray="2,3"></path>
            <polyline id="Shape" stroke="#40527C" stroke-width="0.6" stroke-linecap="round" stroke-linejoin="round" points="133.81204 44.46875 146.844482 44.46875 146.844482 53.53125 54.0622074 53.53125 54.0622074 44.46875 77.9498328 44.46875"></polyline>
            <path d="M146.813378,67.969697 C146.937793,69.3939394 146.40903,71.0606061 144.511706,71.7878788 C143.391973,72.2121212 142.023411,72.2121212 140.74816,72.2424242 C117.078261,72.3636364 93.3772575,72.4545455 69.7073579,72.5757576 C66.0371237,72.6060606 59.5675585,73.5151515 56.3949833,72.3333333 C53.222408,71.1515152 53.6889632,67.4545455 55.5551839,65.3939394 C57.5458194,63.2121212 62.3046823,63.1515152 66.2237458,63.3333333 C81.1846154,64.030303 96.1765886,64.3333333 111.168562,64.2727273 C118.540134,64.2424242 125.880602,64.1212121 133.252174,63.9090909 C136.144816,63.8181818 142.085619,62.8181818 144.729431,63.5151515 C147.279933,64.1515152 146.65786,65.9090909 146.813378,67.969697 Z" id="Shape" fill="#D4E1F9" fill-rule="nonzero"></path>
            <polyline id="Shape" stroke="#40527C" stroke-width="0.6" stroke-linecap="round" stroke-linejoin="round" points="54.6842809 65.0606061 54.6842809 63.4848485 146.844482 63.4848485 146.844482 72.3030303 83.2063545 72.3030303"></polyline>
            <path d="M82.0866221,72.3030303 L54.6842809,72.3030303 L54.6842809,66.2424242" id="Shape" stroke="#40527C" stroke-width="0.6" stroke-linecap="round" stroke-linejoin="round" stroke-dasharray="2,3"></path>
            <path d="M54.1244147,88.0645161 C54,89.5806452 54.5287625,91.3548387 56.4571906,92.1290323 C57.5769231,92.5806452 58.945485,92.5806452 60.2518395,92.6129032 C84.1083612,92.7419355 107.964883,92.8387097 131.821405,92.9677419 C135.522743,93 139.441806,92.9677419 142.645485,91.7096774 C145.849164,90.4516129 147.964214,87.483871 146.097993,85.3225807 C144.107358,83 139.317391,82.9354839 135.367224,83.1290323 C120.313044,83.8709677 105.196656,84.1935484 90.0802676,84.1290323 C82.677592,84.0967742 75.2438127,83.9677419 67.8411371,83.7419355 C64.9173913,83.6451613 58.945485,82.5806452 56.3016722,83.3225806 C53.6578595,84.0322581 54.3110368,85.8709677 54.1244147,88.0645161 Z" id="Shape" fill="#D4E1F9" fill-rule="nonzero"></path>
            <path d="M80.7802676,83.2903226 L131.10602,83.2903226" id="Shape" stroke="#40527C" stroke-width="0.6" stroke-linecap="round" stroke-linejoin="round" stroke-dasharray="2,3"></path>
            <polyline id="Shape" stroke="#40527C" stroke-width="0.6" stroke-linecap="round" stroke-linejoin="round" points="133.81204 83.2903226 146.844482 83.2903226 146.844482 92.6774194 54.0622074 92.6774194 54.0622074 83.2903226 77.9498328 83.2903226"></polyline>
            <path d="M57,28 L57,27.2197309 C57.8827586,27.2197309 58.462069,26.8161435 58.7655172,26.0358744 L62.462069,16.1076233 L64.0344828,16 L67.4827586,25.9820628 C67.8137931,26.735426 68.3103448,27.1390135 69,27.2197309 L69,28 L63.6206897,28 L63.6206897,27.2197309 C64.5862069,27.2466368 64.9448276,26.9775785 64.6413793,26.3318386 L64.0344828,24.3946188 L60.6413793,24.3946188 L59.9793103,26.3318386 C59.6206897,26.9506726 60.0068966,27.2466368 61.137931,27.2197309 L61.137931,28 L57,28 Z M62.4344828,19.2017937 L61,23.3452915 L63.7310345,23.3452915 L62.4344828,19.2017937 Z" id="Shape" stroke="#40527C" stroke-width="0.8" stroke-linecap="round" stroke-linejoin="round"></path>
            <path d="M73.7341772,19.8769231 L73.7341772,18.7692308 C73.7594937,17.8461539 73.4303797,17.3978022 72.721519,17.4505495 L72.721519,16.632967 L76.164557,16 C76.164557,16.2373626 76.1392405,16.5802198 76.1139241,17.0549451 C76.0886076,18.2153846 76.0632911,18.9538462 76.0632911,19.243956 L76.0632911,25.5472527 C76.0379747,26.5494505 76.3417722,27.0241758 77,26.9978022 L77,27.7626374 L73.8860759,27.8681319 L73.8860759,27.2351648 C73.3291139,27.7362637 72.6708861,28 71.8860759,28 C69.9873418,27.9736264 69.0253165,26.6021978 69,23.9384615 C69.0759494,21.0373626 70.1392405,19.5604396 72.164557,19.4813187 C72.8481013,19.454945 73.3544304,19.5868132 73.7341772,19.8769231 Z M72.5696203,27.2087912 C73.3797468,27.1824176 73.7848101,26.021978 73.7848101,23.7802198 C73.7848101,21.4593407 73.4050633,20.2989011 72.6202532,20.2461538 C71.835443,20.2461538 71.4556962,21.4593407 71.4556962,23.8857143 C71.4556962,26.1274725 71.8101266,27.2087912 72.5696203,27.2087912 Z" id="Shape" stroke="#40527C" stroke-width="0.8" stroke-linecap="round" stroke-linejoin="round"></path>
            <path d="M83.7341772,19.8769231 L83.7341772,18.7692308 C83.7594937,17.8461539 83.4303797,17.3978022 82.721519,17.4505495 L82.721519,16.632967 L86.164557,16 C86.164557,16.2373626 86.1392405,16.5802198 86.1139241,17.0549451 C86.0886076,18.2153846 86.0632911,18.9538462 86.0632911,19.243956 L86.0632911,25.5472527 C86.0379747,26.5494505 86.3417722,27.0241758 87,26.9978022 L87,27.7626374 L83.8860759,27.8681319 L83.8860759,27.2351648 C83.3291139,27.7362637 82.6708861,28 81.8860759,28 C79.9873418,27.9736264 79.0253165,26.6021978 79,23.9384615 C79.0759494,21.0373626 80.1392405,19.5604396 82.164557,19.4813187 C82.8481013,19.454945 83.3797468,19.5868132 83.7341772,19.8769231 Z M82.5696203,27.2087912 C83.3797468,27.1824176 83.7848101,26.021978 83.7848101,23.7802198 C83.7848101,21.4593407 83.4050633,20.2989011 82.6202532,20.2461538 C81.835443,20.2461538 81.4556962,21.4593407 81.4556962,23.8857143 C81.4556962,26.1274725 81.835443,27.2087912 82.5696203,27.2087912 Z" id="Shape" stroke="#40527C" stroke-width="0.8" stroke-linecap="round" stroke-linejoin="round"></path>
            <path d="M88.1106719,27 L88.1106719,26.2611465 C88.7470356,26.2866242 89.0513834,25.8280255 89.0237154,24.8598726 L89.0237154,21.8535032 C89.0513834,20.8089172 88.7193676,20.3248408 88,20.4012739 L88,19.611465 L91.6521739,19 L91.6521739,20.2229299 C92.1778656,19.4076433 92.8142292,19 93.5335968,19 C94.4743083,19.0254777 94.944664,19.4585987 95,20.2229299 C94.972332,21.0382166 94.5019763,21.4713376 93.6719368,21.4968153 C92.9525692,21.4968153 92.5652174,21.2675159 92.5098814,20.8343949 C92.5098814,20.6815287 92.5375494,20.5796178 92.5652174,20.5031847 C92.5652174,20.3503185 92.5098814,20.2738854 92.3715415,20.2738854 C92.0118577,20.5286624 91.7628458,21.2420382 91.6521739,22.388535 L91.6521739,24.9617834 C91.6245059,25.9044586 91.9565217,26.3121019 92.6758893,26.2356688 L92.6758893,26.9745223 L88.1106719,26.9745223 L88.1106719,27 Z" id="Shape" stroke="#40527C" stroke-width="0.8" stroke-linecap="round" stroke-linejoin="round"></path>
            <path d="M103,26.9748284 L103,26.2448513 C103.926154,26.3203661 104.376,25.8421053 104.323076,24.8100686 L104.323076,18.3157895 C104.402461,17.208238 103.979077,16.7048055 103.052923,16.7803204 L103.052923,16 L107.710152,16 C110.620921,16 112.049844,17.0823799 111.99692,19.2471396 C112.076305,21.4874142 110.620921,22.5949657 107.630768,22.569794 L106.81046,22.569794 L106.81046,24.784897 C106.731076,25.8421053 107.233845,26.3455378 108.318768,26.2700229 L108.318768,27 L103,27 L103,26.9748284 Z M106.836922,21.7391304 L107.180922,21.7391304 C108.609845,21.7391304 109.324306,20.9084668 109.324306,19.2471396 C109.324306,17.5858124 108.609845,16.7551487 107.180922,16.7551487 L106.836922,16.7551487 L106.836922,21.7391304 Z" id="Shape" stroke="#40527C" stroke-width="0.8" stroke-linecap="round" stroke-linejoin="round"></path>
            <path d="M112.110672,27 L112.110672,26.2611465 C112.747036,26.2866242 113.051383,25.8280255 113.023715,24.8598726 L113.023715,21.8535032 C113.051383,20.8089172 112.719368,20.3248408 112,20.4012739 L112,19.611465 L115.652174,19 L115.652174,20.2229299 C116.177866,19.4076433 116.814229,19 117.533597,19 C118.474308,19.0254777 118.944664,19.4585987 119,20.2229299 C118.972332,21.0382166 118.501976,21.4713376 117.671937,21.4968153 C116.952569,21.4968153 116.565217,21.2675159 116.509881,20.8343949 C116.509881,20.6815287 116.537549,20.5796178 116.565217,20.5031847 C116.565217,20.3503185 116.509881,20.2738854 116.371542,20.2738854 C116.011858,20.5286624 115.762846,21.2420382 115.652174,22.388535 L115.652174,24.9617834 C115.624506,25.9044586 115.956522,26.3121019 116.675889,26.2356688 L116.675889,26.9745223 L112.110672,26.9745223 L112.110672,27 Z" id="Shape" stroke="#40527C" stroke-width="0.8" stroke-linecap="round" stroke-linejoin="round"></path>
            <path d="M124.027027,27 C121.378378,26.9752322 120.027027,25.6873065 120,23.1362229 C120.081081,20.4860681 121.432432,19.123839 124.027027,19 C126.648649,19.0247678 127.972973,20.4117647 128,23.1362229 C127.972973,25.6873065 126.648649,26.9752322 124.027027,27 Z M124.027027,26.2817337 C124.945946,26.2817337 125.378378,25.2414861 125.378378,23.1362229 C125.405405,20.7832817 124.972973,19.6687307 124.027027,19.7678019 C123.027027,19.6687307 122.567568,20.7832817 122.594595,23.1362229 C122.567568,25.3157895 123.027027,26.3560372 124.027027,26.2817337 Z" id="Shape" stroke="#40527C" stroke-width="0.8" stroke-linecap="round" stroke-linejoin="round"></path>
            <path d="M131.6,28 L129.107692,21.8031746 C128.858462,21.1428571 128.498462,20.7873016 128,20.7873016 L128,20 L132.375385,20 L132.375385,20.7873016 C131.683077,20.7873016 131.461539,21.0920635 131.710769,21.6761905 L133.178461,25.6380952 L134.563077,21.7269841 C134.84,21.0666667 134.452308,20.7365079 133.4,20.7873016 L133.4,20 L137,20 L137,20.7873016 C136.224615,20.7873016 135.753846,21.1174603 135.532308,21.8031746 L133.150769,28 L131.6,28 Z" id="Shape" stroke="#40527C" stroke-width="0.8" stroke-linecap="round" stroke-linejoin="round"></path>
            <path d="M144.948718,23.0123839 L140.512821,23.0123839 C140.538461,24.993808 141.128205,26.0092879 142.25641,26.0092879 C143,26.0092879 143.717949,25.5139319 144.384615,24.5479876 L145,25.0433437 C144.205128,26.3560372 143.102564,27 141.666667,27 C139.307692,26.9256966 138.076923,25.6625387 138,23.1857585 C138.076923,20.4613003 139.25641,19.0743034 141.538461,19 C143.769231,19.0495356 144.897436,20.3869969 144.948718,23.0123839 Z M140.487179,22.2941177 L142.512821,22.2941177 C142.538461,20.5603715 142.205128,19.6934984 141.435897,19.7430341 C140.769231,19.6687307 140.461538,20.5356037 140.487179,22.2941177 Z" id="Shape" stroke="#40527C" stroke-width="0.8" stroke-linecap="round" stroke-linejoin="round"></path>
        </g>
    </g>
</svg>