<?xml version="1.0" encoding="UTF-8"?>
<svg width="190px" height="130px" viewBox="0 0 190 130" version="1.1" xmlns="http://www.w3.org/2000/svg" xmlns:xlink="http://www.w3.org/1999/xlink">
    <!-- Generator: Sketch 50.2 (55047) - http://www.bohemiancoding.com/sketch -->
    <title>upload_passport_one</title>
    <desc>Created with Sketch.</desc>
    <defs></defs>
    <g id="切图" stroke="none" stroke-width="1" fill="none" fill-rule="evenodd" opacity="0.5">
        <g id="upload_passport_one">
            <rect id="path-1" fill="#FFFFFF" x="0" y="0" width="190" height="130" rx="2"></rect>
            <rect id="Rectangle-path" stroke="#EEEEEE" x="0.5" y="0.5" width="189" height="129" rx="2"></rect>
            <path d="M54.4612844,16.5115317 C43.8296502,19.278586 34.9699549,26.4857972 26.8512524,33.8538836 C20.8910938,39.2592921 14.9953693,44.9542759 10.9682351,51.9362618 C8.84190827,55.6042175 7.26327167,59.5617486 5.74906921,63.5514548 C3.30057162,69.9542898 0.94872525,76.8397505 2.49514478,83.4999858 C4.58925456,92.5411749 13.1912132,98.4935591 21.5998694,102.45109 C35.5820793,109.079151 50.756321,112.747106 65.8339114,116.286362 C95.5380532,123.203998 126.079839,129.671183 156.363888,125.874527 C162.29183,125.134501 168.380857,123.911849 173.245635,120.404768 C179.914569,115.610686 183.232927,107.212998 183.877269,99.040535 C184.682696,89.0662695 181.55764,78.1589275 173.503371,72.2065433 C163.129474,64.5488814 147.020937,66.4472093 138.547846,56.7303442 C133.521983,50.9710103 132.748773,42.6376723 133.328681,35.0121854 C133.908588,27.3866986 135.64831,19.7290367 134.649581,12.1678999 C134.262976,9.17562028 133.360898,6.08681548 131.170137,4.02761228 C128.109515,1.13185777 123.405822,0.970982524 119.185385,1.00315757 C107.555022,1.06750767 95.4091849,1.19620787 84.487597,5.63636478 C80.0094238,7.47034263 76.175592,10.4304472 71.79407,12.3609502 C66.2849504,14.7419039 60.2281406,15.0314794 54.4612844,16.5115317 Z" id="Shape" fill="#F6FAFF" fill-rule="nonzero"></path>
            <path d="M21.0502979,107.82276 C24.4162071,107.55895 27.7821164,107.257453 31.1480256,106.880582 C30.2233253,105.938403 29.8904331,104.543979 29.9274212,103.187242 C29.9644092,101.868192 30.4082653,100.586829 30.7781455,99.3054665 C31.7028458,96.478931 32.5905582,93.6147083 33.5152585,90.7881727 C33.6262225,94.8960711 33.7001986,98.9662823 33.8111626,103.074181 C33.8111626,103.488739 33.8111626,103.940985 33.7001986,104.317856 C33.3673064,105.297722 32.146702,105.863029 31.9617619,106.918269 C38.5456284,106.993643 45.1294948,107.106705 51.6763733,107.785073 C53.8956541,108.011196 56.262887,108.275006 58.2972277,107.332827 C58.5561438,107.219766 58.8150599,107.069017 58.926024,106.805208 C59.036988,106.541398 59,106.277588 58.963012,106.013778 C58.6671079,104.468605 58.4081918,102.885745 58.1122877,101.340572 C57.8903596,100.059209 57.6314435,98.7401594 57.0396353,97.5718581 C56.5218031,96.5543053 55.7820428,95.687501 55.2642106,94.6322611 C54.8573425,93.8408311 54.6354144,92.9363397 54.3025222,92.1072226 C53.9326421,91.127357 53.4887859,90.2228656 52.9709538,89.3560614 C52.5270976,88.6400057 51.9722774,87.8862629 51.2325171,87.5093915 C50.4927568,87.0948329 49.6420325,87.0571458 48.8282962,87.0194586 C45.610339,86.9063972 42.3923818,87.1702072 39.2484006,86.6049001 C38.0277962,86.3787772 36.8441797,86.039593 35.5865873,86.0019058 C33.8851386,85.9642187 32.220678,86.4918387 30.6301934,87.0194586 C29.2616369,87.4717043 27.8560924,87.92395 26.5984999,88.6776928 C26.0436797,89.0168771 25.4888595,89.3937485 24.8600633,89.5821842 C24.3052431,89.7329328 24.009339,89.6198714 23.8243989,90.2228656 C23.3805427,91.6172898 23.0846386,93.0870883 22.7517465,94.5191997 C22.0489742,97.3457352 21.457166,100.209958 21.1612619,103.111868 C21.1242739,103.375678 20.9023458,107.82276 21.0502979,107.82276 Z" id="Shape" fill="#75C6F7" fill-rule="nonzero"></path>
            <path d="M58.7119673,106 C58.6764176,106 58.6764176,106 58.7119673,106 C58.5697684,106 58.4275695,105.850336 58.4631192,105.700673 C58.6408678,101.697168 52.0997192,87.5539452 52.0286197,87.4042815 C51.9575203,87.2546177 52.0286197,87.104954 52.1352689,87.0301221 C52.2774678,86.9552903 52.4196666,87.0301221 52.4907661,87.1423699 C52.7751639,87.7410248 59.1741136,101.547504 58.996365,105.700673 C58.9608153,105.887752 58.8541662,106 58.7119673,106 Z" id="Shape" fill="#40527C" fill-rule="nonzero"></path>
            <path d="M30.8080048,106 C30.8080048,106 30.7723791,106 30.7723791,106 C30.7011277,106 30.6298763,105.926941 30.5942506,105.853881 L29.0267193,102.785388 C28.9910936,102.712329 28.9910936,102.639269 29.0267193,102.56621 C29.062345,102.493151 31.8411505,94.2739726 32.019279,92.5205479 C32.019279,92.3744292 32.1617818,92.2648402 32.3042847,92.2648402 C32.4467875,92.2648402 32.5536647,92.4109589 32.5536647,92.5570776 C32.3755361,94.2739726 29.9173621,101.579909 29.5967307,102.60274 L30.9861334,105.269406 L33.4086817,103.077626 C32.6605418,100.776256 32.9811732,90.6940639 33.0167989,90.2557078 C33.0167989,90.109589 33.123676,90 33.3018046,90 C33.4443074,90 33.5511846,90.1461187 33.5511846,90.2922374 C33.4086817,94.0913242 33.3374303,101.652968 33.9786931,103.041096 C34.0143188,103.150685 34.0143188,103.296804 33.9074417,103.369863 L31.0930105,105.890411 C30.914882,106 30.8792563,106 30.8080048,106 Z" id="Shape" fill="#40527C" fill-rule="nonzero"></path>
            <path d="M26.2594528,107 C26.1127647,107 26.0027486,106.890244 26.0027486,106.743902 C25.8927325,105.207317 29.1198712,98.8780488 29.4865916,98.1463415 C29.5599356,98 29.7066237,97.9634146 29.8533119,98.0365854 C30,98.1097561 30.036672,98.2560976 29.963328,98.402439 C28.9731831,100.304878 26.442813,105.536585 26.5528291,106.707317 C26.5528291,106.853659 26.442813,106.963415 26.2594528,107 C26.2961248,106.963415 26.2961248,107 26.2594528,107 Z" id="Shape" fill="#40527C" fill-rule="nonzero"></path>
            <path d="M20.2822803,108 C20.145011,108 20.042059,107.888933 20.042059,107.777866 C19.6302512,105.371419 22.375637,90.8586877 22.478589,90.2293091 C22.5129063,90.08122 22.6501756,89.9701532 22.7874449,90.0071755 C22.9247142,90.0441977 23.0276661,90.1922868 22.9933488,90.3403759 C22.9590315,90.488465 20.1793283,105.371419 20.5568189,107.6668 C20.5911362,107.814889 20.4881842,107.962978 20.350915,108 C20.3165976,108 20.2822803,108 20.2822803,108 Z" id="Shape" fill="#40527C" fill-rule="nonzero"></path>
            <path d="M36.9994072,58.2941041 C37.109919,58.4771099 37.2204308,58.6967168 37.1467563,58.9163238 C37.0362445,59.209133 36.6310346,59.2457342 36.3731738,59.3921388 C35.967964,59.6117457 35.7469404,60.0875608 35.5995914,60.5267746 C34.3102872,64.2966938 34.1997755,68.4692256 35.268056,72.3123471 C35.9311267,69.0914453 38.2518741,66.5659655 40.0568998,63.8208787 C40.9409941,62.4666359 41.7145765,61.075792 42.635508,59.7215492 C43.7406258,58.1110983 45.0667672,56.647052 46.5402576,55.3660116 C46.7612812,55.1830058 46.9823047,55 47.2401655,55 C47.5717009,55 47.8295617,55.2562081 48.0874225,55.5124162 C49.1188658,56.6104509 50.2608209,57.6718844 51.5869622,58.3673064 C52.8394291,59.0261272 54.2392449,59.3921388 55.5285491,59.9411561 C56.8178532,60.4901735 58.1071573,61.3686012 58.6597162,62.6496417 C59.3596241,64.2234915 58.8439025,66.0535493 58.3281808,67.7006013 C57.5914356,70.0796765 56.8546904,72.4953529 56.1179452,74.874428 C54.9391529,78.7541506 53.6498488,82.7436767 50.7765425,85.6351681 C50.3713326,86.0377808 49.9661228,86.4037924 49.4504011,86.6600005 C48.8241677,86.9528097 48.1242598,87.026012 47.4611891,87.0992143 C42.9302061,87.5750294 38.3623859,87.721434 33.8314029,87.5384282 C33.278844,87.5018271 32.6526105,87.5018271 32.1737262,87.721434 C30.6265612,88.4900583 30.8844221,91.1619427 29.2635826,91.8573647 C28.2689766,92.2965786 27.1638588,91.6377578 26.2797646,91.0155381 C25.0272977,90.1371103 23.8116681,89.2952837 22.5592013,88.416856 C21.7856188,87.8678386 20.9751991,87.3188213 20.3121284,86.6233993 C19.7227323,86.0011796 19.2438479,85.3057577 18.7649635,84.6103357 C17.5861712,82.9266825 16.3705416,81.169827 16.0758435,79.1201622 C15.7443082,76.8874916 16.5547279,74.6914223 17.4388221,72.6417575 C19.3543597,68.1764164 21.6014325,63.8574799 24.216878,59.7581504 C24.4747388,59.3555376 24.7325996,58.9163238 25.1378095,58.6601157 C25.5798566,58.3307053 26.1324155,58.2209018 26.6849744,58.0744972 C28.89521,57.562081 31.1054456,57.0862659 33.278844,56.5738497 C33.8682401,56.4274451 34.8996834,55.9516301 35.4890796,56.1346359 C36.2258248,56.390844 36.6678719,57.7084856 36.9994072,58.2941041 Z" id="Shape" fill="#75C6F7" fill-rule="nonzero"></path>
            <path d="M33.0378251,39.0351783 C33.0378251,38.6199059 33.2269504,37.9403692 33.3782506,37.5628489 C33.4917258,37.1853285 33.7565012,36.8833122 33.9834515,36.5812959 C34.3995272,36.0527674 34.3238771,35.561991 34.7399527,35.0334625 C35.3451537,34.2784217 36.4042553,33.0703566 37.2364066,32.6173322 C38.3711584,31.9755475 40.1489362,31.9755475 41.4349882,32.0132996 C43.0992908,32.0888036 44.6122931,32.466324 46.0496454,33.3723729 C47.108747,34.0519095 47.7895981,35.3354788 48.2813239,36.5057919 C48.7730496,37.676105 48.9621749,38.9596742 49,40.2054914 C49,40.7340199 48.9621749,41.2625484 48.8486998,41.7533249 C48.7730496,42.0930932 48.6217494,42.4706136 48.4704492,42.8103819 C48.1678487,43.5276706 47.8652482,44.2827113 47.5626478,45 C47.3735225,44.5469756 47.5248227,44.0561991 47.4869976,43.6031747 C47.3735225,42.885886 46.8061466,42.3196054 46.5791962,41.6023167 C46.2387707,40.4697557 46.2387707,40.1677394 46.1631206,38.8841702 C46.1631206,38.770914 46.1631206,38.3556416 46.0496454,38.3178896 C45.8983452,38.2423855 45.4822695,38.2423855 45.3309693,38.2801376 C42.6453901,38.8841702 40.2624113,37.8271131 37.5390071,37.4495928 C36.820331,37.3363367 35.9881797,37.2608326 35.3829787,37.676105 C34.5886525,38.2046335 34.5130024,39.752467 34.3238771,40.6962679 C34.2104019,41.3003005 33.9078014,42.5083656 33.3404255,42.8481339 C33,42.5838697 33,41.3758045 33,40.9982842 C33.0378251,40.3564996 33.0378251,39.6769629 33.0378251,39.0351783 Z" id="Shape" fill="#FFD2B3" fill-rule="nonzero"></path>
            <path d="M23,88 C22.44,88 22,87.56 22,87 C22,86.44 22.44,86 23,86 C23.56,86 24,86.44 24,87 C24,87.56 23.56,88 23,88 Z M23,86.56 C22.76,86.56 22.6,86.76 22.6,86.96 C22.6,87.2 22.8,87.36 23,87.36 C23.2,87.36 23.4,87.16 23.4,86.96 C23.4,86.76 23.2,86.56 23,86.56 Z" id="Shape" fill="#40527C" fill-rule="nonzero"></path>
            <path d="M25,90 C24.44,90 24,89.56 24,89 C24,88.44 24.44,88 25,88 C25.56,88 26,88.44 26,89 C26,89.56 25.52,90 25,90 Z M25,88.6 C24.76,88.6 24.6,88.8 24.6,89 C24.6,89.24 24.8,89.4 25,89.4 C25.2,89.4 25.4,89.2 25.4,89 C25.4,88.76 25.2,88.6 25,88.6 Z" id="Shape" fill="#40527C" fill-rule="nonzero"></path>
            <path d="M27.9988347,91 C27.4394873,91 27,90.56 27,90 C27,89.44 27.4394873,89 27.9988347,89 C28.5581821,89 28.9976694,89.44 28.9976694,90 C29.0376227,90.56 28.5581821,91 27.9988347,91 Z M27.9988347,89.6 C27.7591144,89.6 27.5993008,89.8 27.5993008,90 C27.5993008,90.24 27.7990677,90.4 27.9988347,90.4 C28.1986016,90.4 28.3983686,90.2 28.3983686,90 C28.4383219,89.76 28.238555,89.6 27.9988347,89.6 Z" id="Shape" fill="#40527C" fill-rule="nonzero"></path>
            <path d="M30.9988347,87 C30.4394873,87 30,86.56 30,86 C30,85.44 30.4394873,85 30.9988347,85 C31.5581821,85 31.9976694,85.44 31.9976694,86 C32.0376227,86.52 31.5581821,87 30.9988347,87 Z M30.9988347,85.56 C30.7591144,85.56 30.5993008,85.76 30.5993008,85.96 C30.5993008,86.2 30.7990677,86.36 30.9988347,86.36 C31.238555,86.36 31.3983686,86.16 31.3983686,85.96 C31.4383219,85.76 31.238555,85.56 30.9988347,85.56 Z" id="Shape" fill="#40527C" fill-rule="nonzero"></path>
            <path d="M33,87 C32.44,87 32,86.56 32,86 C32,85.44 32.44,85 33,85 C33.56,85 34,85.44 34,86 C34,86.56 33.56,87 33,87 Z M33,85.6 C32.76,85.6 32.6,85.8 32.6,86 C32.6,86.24 32.8,86.4 33,86.4 C33.24,86.4 33.4,86.2 33.4,86 C33.4,85.76 33.24,85.6 33,85.6 Z" id="Shape" fill="#40527C" fill-rule="nonzero"></path>
            <path d="M36,88 C35.44,88 35,87.56 35,87 C35,86.44 35.44,86 36,86 C36.56,86 37,86.44 37,87 C37,87.56 36.56,88 36,88 Z M36,86.6 C35.76,86.6 35.6,86.8 35.6,87 C35.6,87.24 35.8,87.4 36,87.4 C36.24,87.4 36.4,87.2 36.4,87 C36.44,86.76 36.24,86.6 36,86.6 Z" id="Shape" fill="#40527C" fill-rule="nonzero"></path>
            <path d="M48.3821505,43 C48.3445005,43 48.3445005,43 48.3068505,43 C48.1562504,42.9623218 48.0809504,42.8116092 48.1186004,42.6608965 C48.9092507,40.0611032 47.8550503,36.3309649 47.8550503,36.2932867 C47.02675,33.7688497 45.3701494,32.2240449 42.8852485,31.7342288 C41.0027478,31.3574471 39.3837973,31.7342288 39.3461473,31.7342288 C39.1955472,31.7719069 39.0449471,31.6588724 39.0072971,31.5081598 C38.9696471,31.3574471 39.0825972,31.2067345 39.2331972,31.1690563 C39.3084972,31.1690563 46.2737497,29.5865734 48.4198005,36.1048959 C48.4574505,36.2556085 49.5116509,40.023425 48.6833506,42.773931 C48.6080506,42.9246437 48.4951005,43 48.3821505,43 Z" id="Shape" fill="#40527C" fill-rule="nonzero"></path>
            <path d="M37.1892562,31.9276923 C37.038843,31.9276923 36.8884298,31.8117308 36.8132231,31.6571154 C36.7756198,31.4638462 36.8884298,31.2319231 37.0764463,31.1932692 C37.3396694,31.1159615 37.4900826,31.1159615 37.4900826,31.1159615 C37.6780992,31.0773077 37.8661157,31.2319231 37.903719,31.4251923 C37.9413223,31.6184615 37.7909091,31.8117308 37.6028926,31.8503846 C37.6028926,31.8503846 37.4900826,31.8890385 37.2644628,31.9276923 C37.2644628,31.9276923 37.2268595,31.9276923 37.1892562,31.9276923 Z" id="Shape" fill="#40527C" fill-rule="nonzero"></path>
            <path d="M33.1280992,35.02 C33.0528926,35.02 33.0152893,35.02 32.9400826,34.9813462 C32.7520661,34.8653846 32.6768595,34.6721154 32.7896694,34.4788462 C32.9024793,34.2469231 33.0528926,34.015 33.1657025,33.8217308 C33.2785124,33.6671154 33.5041322,33.5898077 33.6921488,33.7444231 C33.842562,33.8603846 33.9177686,34.0923077 33.7673554,34.2855769 C33.6545454,34.4788462 33.5417355,34.6721154 33.4289256,34.8653846 C33.3913223,34.9426923 33.2409091,35.02 33.1280992,35.02 Z M34.1433884,33.5898077 C34.0305785,33.5898077 33.9553719,33.5511539 33.8801653,33.4738462 C33.7297521,33.3192308 33.7297521,33.0873077 33.8801653,32.9326923 C34.0681818,32.7780769 34.2561983,32.5848077 34.4442149,32.4301923 C34.5946281,32.3142308 34.8578512,32.3528846 34.9706612,32.5075 C35.0834711,32.6621154 35.0458678,32.9326923 34.8954545,33.0486539 C34.707438,33.2032692 34.5570248,33.3192308 34.4066116,33.4738462 C34.331405,33.5511539 34.2561983,33.5898077 34.1433884,33.5898077 Z M35.572314,32.5461539 C35.4219008,32.5461539 35.3090909,32.4688462 35.2338843,32.3528846 C35.1210744,32.1596154 35.196281,31.9276923 35.3842975,31.8503846 C35.6099174,31.7344231 35.8355372,31.6184615 36.061157,31.5411538 C36.2491735,31.4638462 36.4747934,31.5411538 36.55,31.7344231 C36.6252066,31.9276923 36.55,32.1596154 36.3619835,32.2369231 C36.1739669,32.3142308 35.9483471,32.4301923 35.7603306,32.5075 C35.685124,32.5461539 35.6099174,32.5461539 35.572314,32.5461539 Z" id="Shape" fill="#40527C" fill-rule="nonzero"></path>
            <path d="M32.6392562,36.4115385 C32.6016529,36.4115385 32.6016529,36.4115385 32.5640496,36.4115385 C32.3760331,36.3728846 32.2256198,36.1796154 32.2632231,35.9476923 C32.3008264,35.7930769 32.3384298,35.6771154 32.3760331,35.5611538 C32.4512397,35.3678846 32.6392562,35.2519231 32.8272727,35.2905769 C33.0152893,35.3678846 33.1280992,35.5611538 33.0904959,35.7544231 C33.0528926,35.8703846 33.0152893,35.9863461 33.0152893,36.1023077 C32.9400826,36.2955769 32.7896694,36.4115385 32.6392562,36.4115385 Z" id="Shape" fill="#40527C" fill-rule="nonzero"></path>
            <path d="M32.4118457,43 C32.2829201,43 32.1862259,42.8846154 32.1862259,42.7692308 C31.7672176,39.4615385 32.1862259,37.3461539 32.1862259,37.2307692 C32.2184573,37.0769231 32.3473829,37 32.4763085,37 C32.6052342,37.0384615 32.669697,37.1923077 32.669697,37.3461539 C32.669697,37.3846154 32.2829201,39.4615385 32.669697,42.6538462 C32.7019284,42.8076923 32.6052342,42.9615385 32.4763085,42.9615385 C32.4118457,43 32.4118457,43 32.4118457,43 Z" id="Shape" fill="#40527C" fill-rule="nonzero"></path>
            <path d="M33.3312372,43 C33.2973212,43 33.2294892,43 33.1955733,42.9640045 C33.0259934,42.8920135 32.9581615,42.6760405 33.0259934,42.496063 C33.0938254,42.352081 33.1955733,42.136108 33.2973212,41.848144 C33.3651531,41.6681665 33.5686489,41.56018 33.7382288,41.6681665 C33.9078086,41.7401575 33.9756406,41.9561305 33.9078086,42.136108 C33.8060607,42.424072 33.7043128,42.640045 33.6364809,42.8200225 C33.5686489,42.928009 33.4329851,43 33.3312372,43 Z M33.9078086,41.344207 C33.8738927,41.344207 33.8399767,41.344207 33.8060607,41.344207 C33.6364809,41.3082115 33.534733,41.0922385 33.5686489,40.912261 C33.6364809,40.6602925 33.6703968,40.4443195 33.7043128,40.264342 C33.7382288,40.0843644 33.9078086,39.9403824 34.0773885,39.9763779 C34.2469683,40.0123734 34.3826322,40.192351 34.3487162,40.3723285 C34.3148003,40.5883015 34.2808843,40.84027 34.2130524,41.128234 C34.2130524,41.2362205 34.0773885,41.344207 33.9078086,41.344207 Z M34.1452204,39.5804274 C34.1113045,39.5804274 34.0773885,39.5804274 34.0434725,39.5804274 C33.8738927,39.5084364 33.7721448,39.3284589 33.8060607,39.1484814 C33.8738927,38.8965129 33.9756406,38.6445444 34.1452204,38.4285714 C34.2469683,38.2485939 34.4504641,38.2125984 34.620044,38.3205849 C34.7896238,38.4285714 34.8235398,38.6445444 34.7217919,38.8245219 C34.620044,39.0044994 34.5182961,39.1844769 34.4843801,39.3644544 C34.4165482,39.4724409 34.2808843,39.5804274 34.1452204,39.5804274 Z M35.0948676,38.1406074 C34.9931197,38.1406074 34.9252877,38.1046119 34.8574558,38.0326209 C34.7217919,37.8886389 34.7557079,37.6726659 34.8913717,37.5286839 C35.1966155,37.2407199 35.4679432,37.0607424 35.4679432,37.0607424 C35.6375231,36.9527559 35.8410189,36.9887514 35.9427668,37.1687289 C36.0445147,37.3487064 36.0105987,37.5646794 35.8410189,37.6726659 C35.8410189,37.6726659 35.6036071,37.8166479 35.3661953,38.0686164 C35.2644474,38.1046119 35.1966155,38.1406074 35.0948676,38.1406074 Z" id="Shape" fill="#40527C" fill-rule="nonzero"></path>
            <path d="M46.6103081,45 C46.5721682,45 46.5721682,45 46.5340282,45 C46.3814682,44.9622986 46.3051883,44.8114931 46.3433282,44.6606876 C46.3433282,44.6606876 46.6484481,43.4542434 45.9237884,42.8133199 C45.0847087,42.0592922 45.0084287,39.4201955 45.0084287,38.477661 C41.4995501,38.7038693 36.4650719,37.6105292 36.236232,37.5728278 C36.0836721,37.5351264 35.9692521,37.3843209 36.0073921,37.2335154 C36.0455321,37.0827099 36.198092,36.9696057 36.350652,37.0073071 C36.388792,37.0073071 41.8809499,38.2137513 45.2754086,37.8744389 C45.3516886,37.8744389 45.4279686,37.9121403 45.5042486,37.9498416 C45.5805285,37.987543 45.5805285,38.0629458 45.5805285,38.1760499 C45.5423885,39.5332997 45.6949485,41.8707853 46.3051883,42.3986047 C47.3349679,43.3034378 46.915428,44.7737917 46.915428,44.8114931 C46.8391481,44.8868959 46.7247281,45 46.6103081,45 Z" id="Shape" fill="#40527C" fill-rule="nonzero"></path>
            <path d="M47.1096389,48 C46.8440843,48 46.4647206,47.8880209 46.0853568,47.4401047 C45.9715477,47.3281256 45.9715477,47.1414938 46.0853568,47.0668411 C46.199166,46.9548621 46.3888478,46.9548621 46.4647206,47.0668411 C46.7302752,47.365452 46.9958298,47.477431 47.1855116,47.4027783 C47.6786844,47.2534729 48.2097936,46.0590296 48.3615391,44.6406281 C48.5132846,43.4835111 48.3236028,42.736984 48.1718573,42.6250049 C48.0201118,42.5130259 47.9063027,42.5503522 47.8304299,42.5876786 C47.4510662,42.736984 47.1475752,43.4461847 47.0337661,43.8567746 C46.9958298,44.00608 46.8440843,44.0807328 46.6923388,44.0434064 C46.5405933,44.00608 46.4647206,43.8567746 46.5026569,43.7074692 C46.5405933,43.5581638 46.919957,42.3637204 47.6407481,42.0651096 C47.9063027,41.9531305 48.2097936,41.9904569 48.4753482,42.1397623 C49.1582029,42.5503522 49.0064574,44.1927118 48.9305847,44.6779544 C48.7788392,45.9843768 48.2856664,47.5894101 47.3751935,47.8880209 C47.2993207,47.9626736 47.223448,48 47.1096389,48 Z" id="Shape" fill="#40527C" fill-rule="nonzero"></path>
            <path d="M33.7333333,49 C33.7,49 33.6666667,49 33.6333333,48.9626268 C33.5666667,48.9252537 32.8666667,48.514149 32.8,47.8788053 C32.8,47.7293127 32.6666667,47.1313422 32.5333333,46.5333716 C32.2333333,45.1131917 32,43.991997 32,43.5435191 C32,43.2071607 32.1333333,43.057668 32.2666667,43.0202949 C32.5666667,42.9081754 32.9666667,43.281907 33.2333333,43.6182654 C33.3333333,43.7303849 33.3,43.9172507 33.2,43.991997 C33.1,44.0667433 32.9333333,44.0667433 32.8666667,43.9546238 C32.7666667,43.8051312 32.6333333,43.6930117 32.5333333,43.5808922 C32.5666667,44.0667433 32.8333333,45.4121769 33.0333333,46.383879 C33.2,47.1313422 33.3,47.6171932 33.3,47.804059 C33.3333333,48.0656711 33.7,48.3646563 33.8666667,48.4394026 C34,48.514149 34.0333333,48.6636416 33.9666667,48.8131342 C33.9,48.9626268 33.8333333,49 33.7333333,49 Z" id="Shape" fill="#40527C" fill-rule="nonzero"></path>
            <path d="M38.609649,50 C38.578923,50 38.548197,50 38.486745,50 C38.3023891,49.9611033 38.1794851,49.8444133 38.0873071,49.6110333 C37.7493212,48.7942031 38.486745,45.2546058 38.7018269,44.2043956 C38.7325529,44.0488089 38.8554569,43.9710155 38.9783608,44.0099122 C39.1012648,44.0488089 39.1627168,44.2043956 39.1319908,44.3599823 C38.6711009,46.421506 38.3023891,48.9108931 38.486745,49.3387565 C38.517471,49.4165499 38.548197,49.4165499 38.578923,49.4165499 C38.8247309,49.4554466 39.3470727,49.0275831 39.6236066,48.6775131 C39.7157846,48.5608231 39.8694145,48.5608231 39.9308665,48.6775131 C40.0230445,48.7942031 40.0230445,48.9886865 39.9308665,49.0664798 C39.8079626,49.2609632 39.1627168,50 38.609649,50 Z" id="Shape" fill="#40527C" fill-rule="nonzero"></path>
            <path d="M39.03027,55 C38.9207978,55 38.8113256,55 38.7383441,55 C34.6513821,54.7547514 33.0822805,49.5344608 33.0092991,49.3242478 C32.9728083,49.1841058 33.0457898,49.0439637 33.1917527,49.0089282 C33.3377157,48.9738927 33.4836786,49.0439637 33.5201693,49.1841058 C33.5201693,49.2191413 35.0527801,54.2642543 38.7748349,54.4744674 C40.5263901,54.5795739 42.0225101,53.6686507 42.9347784,52.862834 C44.5403707,51.4964493 45.4161483,49.7797094 45.452639,49.2541768 C45.452639,49.1140348 45.5986019,49.0089282 45.7445649,49.0089282 C45.8905278,49.0089282 46,49.1490703 46,49.2892123 C45.9635093,49.9899224 44.9782595,51.8468043 43.2996858,53.2832601 C42.3509267,54.0540413 40.8548067,55 39.03027,55 Z" id="Shape" fill="#40527C" fill-rule="nonzero"></path>
            <path d="M40.9525791,62.9623531 C40.7689081,62.9623531 40.6219713,62.8494126 40.5852371,62.6611783 C40.5485029,62.4729441 40.4750345,62.247063 40.4015661,62.0588287 C40.3280978,61.8705945 40.4383003,61.6447133 40.6219713,61.5694196 C40.8056423,61.4941259 41.0260475,61.6070665 41.0995159,61.7953007 C41.2097185,62.0588287 41.2831869,62.2847098 41.3199211,62.5482378 C41.3566553,62.736472 41.2464527,62.9623531 41.0260475,63 C40.9893133,62.9623531 40.9893133,62.9623531 40.9525791,62.9623531 Z M40.2546294,61.2682448 C40.1444268,61.2682448 39.99749,61.1929511 39.9240216,61.0800106 C39.813819,60.8917763 39.6668822,60.6658952 39.5566796,60.4776609 C39.446477,60.3270735 39.4832112,60.0635456 39.6668822,59.950605 C39.813819,59.8376645 40.0709584,59.8753113 40.181161,60.0635456 C40.3280978,60.2894267 40.4750345,60.5153078 40.5852371,60.7035421 C40.6954397,60.8917763 40.6219713,61.1176574 40.4383003,61.230598 C40.4015661,61.2682448 40.3280978,61.2682448 40.2546294,61.2682448 Z M39.3730086,59.8376645 C39.1893376,59.8376645 39.0424009,59.7247239 39.0056667,59.5364897 C38.9689325,59.3482554 39.1158693,59.1223743 39.2995402,59.0847274 C39.5199454,59.0470806 39.7403506,58.9717869 39.99749,58.93414 C40.181161,58.8964932 40.4015661,59.0094337 40.4383003,59.197668 C40.4750345,59.3859022 40.364832,59.6117834 40.181161,59.6494302 C39.9240216,59.7247239 39.7036164,59.7623708 39.446477,59.8000176 C39.446477,59.8376645 39.4097428,59.8376645 39.3730086,59.8376645 Z M41.1362501,59.3106085 C40.9893133,59.3106085 40.8423765,59.2353148 40.8056423,59.0847274 C40.7321739,58.8964932 40.8423765,58.6706121 41.0260475,58.5953184 C41.2464527,58.5200247 41.4668579,58.4070841 41.687263,58.3317904 C41.870934,58.2564967 42.0913392,58.3317904 42.1648076,58.5200247 C42.238276,58.7082589 42.1648076,58.93414 41.9811366,59.0094337 C41.7607314,59.1223743 41.5403263,59.2353148 41.2831869,59.3106085 C41.2097185,59.3106085 41.1729843,59.3106085 41.1362501,59.3106085 Z M42.7525548,58.5200247 C42.6423522,58.5200247 42.4954154,58.444731 42.4586812,58.3317904 C42.3484786,58.1435561 42.421947,57.917675 42.5688838,57.8047345 C42.7525548,57.6917939 42.9729599,57.5412065 43.1566309,57.3906191 C43.3035677,57.2776786 43.5607071,57.3153254 43.6709097,57.4659128 C43.7811123,57.6165002 43.7443781,57.8800282 43.5974413,57.9929687 C43.3770361,58.1435561 43.1933651,58.2941436 42.9729599,58.4070841 C42.8994915,58.4823778 42.8260232,58.5200247 42.7525548,58.5200247 Z M44.1851884,57.3906191 C44.0749858,57.3906191 44.0015175,57.3529723 43.9280491,57.2776786 C43.7811123,57.1270912 43.8178465,56.90121 43.9647833,56.7506226 C44.1484542,56.6000352 44.295391,56.411801 44.4423278,56.2612136 C44.5892646,56.1106262 44.8096698,56.1106262 44.9566066,56.2235667 C45.1035434,56.3741541 45.1035434,56.6000352 44.9933408,56.7506226 C44.8096698,56.9388569 44.6259988,57.1270912 44.4423278,57.2776786 C44.3688594,57.3529723 44.295391,57.3906191 44.1851884,57.3906191 Z M45.3974169,55.9976856 C45.3239485,55.9976856 45.2504802,55.9600388 45.1770118,55.9223919 C45.030075,55.8094513 44.9933408,55.5835702 45.1035434,55.395336 C45.2504802,55.2071017 45.3606827,55.0188675 45.5076195,54.7929864 C45.6178221,54.6047521 45.8382273,54.5671052 46.0218983,54.6800458 C46.2055693,54.7929864 46.2423035,55.0188675 46.1321009,55.2071017 C45.9851641,55.4329828 45.8382273,55.6212171 45.6912905,55.8470982 C45.6178221,55.9223919 45.5076195,55.9976856 45.3974169,55.9976856 Z M46.3525061,54.4165178 C46.3157719,54.4165178 46.2423035,54.4165178 46.2055693,54.378871 C46.0218983,54.3035773 45.9484299,54.0776962 46.0218983,53.8894619 C46.2055693,53.5129934 46.2790377,53.2494654 46.2790377,53.2494654 C46.3525061,53.0612312 46.536177,52.9482906 46.7565822,53.0235843 C46.9402532,53.098878 47.0504558,53.2871123 46.9769874,53.4753465 C46.9769874,53.4753465 46.8667848,53.7765214 46.6831138,54.1906367 C46.6096454,54.3412241 46.4994429,54.4165178 46.3525061,54.4165178 Z" id="Shape" fill="#40527C" fill-rule="nonzero"></path>
            <path d="M35.2890876,63 C35.2890876,63 35.2519518,63 35.2519518,63 C35.1034087,62.9629207 34.9920013,62.8146035 35.0291371,62.6662864 C35.2890876,61.1831146 36.4774328,60.1819737 37.1458769,59.7370221 C36.1432107,58.9954363 35.2519518,56.8819165 35.0291371,56.3998857 C34.9548655,56.2515685 35.0291371,56.1032514 35.1776802,56.0290928 C35.3262234,55.9549342 35.4747665,56.0290928 35.5490381,56.1774099 C36.0318033,57.3639473 37.0716053,59.3291499 37.7771853,59.4403878 C37.8885926,59.4774671 38,59.5516257 38,59.6628636 C38,59.7741014 37.9628642,59.8853393 37.8514569,59.9594979 C37.8143211,59.9594979 35.8832602,60.9606388 35.5490381,62.7404449 C35.5490381,62.8887621 35.4376307,63 35.2890876,63 Z" id="Shape" fill="#40527C" fill-rule="nonzero"></path>
            <path d="M59.5964365,66 C59.5601158,66 59.5601158,66 59.5237951,66 C59.3785123,65.9622418 59.3058708,65.8112088 59.3421916,65.6601758 C59.5601158,64.7917362 59.3421916,63.054857 59.3421916,63.0170987 C59.2332294,62.2241756 56.1822896,60.7138458 54.1483297,59.6943732 C53.0950291,59.1657578 52.0780492,58.6749006 51.3879556,58.2595599 C49.1723922,56.9002632 47.1384323,54.5214938 47.0657909,54.4459773 C46.9568288,54.3327026 46.9931495,54.1439113 47.1021116,54.0683948 C47.2110738,53.9551201 47.3926773,53.9928784 47.4653187,54.1061531 C47.5016395,54.1439113 49.4992786,56.5226807 51.6785213,57.806461 C52.3322941,58.2218017 53.3492741,58.7126589 54.4025747,59.203516 C57.6351181,60.7893623 59.7780401,61.9221096 59.8870022,62.9415822 C59.8870022,63.0170987 60.1412472,64.8294944 59.8870022,65.7734505 C59.8143608,65.9244835 59.7053987,66 59.5964365,66 Z" id="Shape" fill="#40527C" fill-rule="nonzero"></path>
            <path d="M42.138229,89 C41.2024577,89 40.2292556,88.9623687 39.1811917,88.9247375 C33.9783033,88.6236873 29.2994468,87.7205368 29.2245851,87.7205368 C29.0748617,87.6829055 29,87.5700117 29,87.4571179 C29,87.1184365 29.262016,78.7266631 32.7056543,76.9203621 C32.8553777,76.8450995 33.0051011,76.9203621 33.0799629,77.0332559 C33.1548246,77.1837809 33.0799629,77.334306 32.9676703,77.4095686 C30.0854947,78.8771881 29.6363245,85.8389732 29.5614628,87.2313303 C31.7324522,87.6452742 48.1645962,90.5052508 52.2071282,85.8389732 C56.549107,80.7963829 59.3938517,66.3836062 59.4312826,66.2330811 C59.4687134,66.082556 59.6184368,65.9696622 59.7681602,66.0072935 C59.9178836,66.0449248 60.0301762,66.1954499 59.9927453,66.3459749 C59.8804528,66.9480753 57.0731389,81.0598018 52.6562984,86.1776547 C51.0093409,88.021587 47.4908408,89 42.138229,89 Z" id="Shape" fill="#40527C" fill-rule="nonzero"></path>
            <path d="M42.9012878,79 C42.8652209,79 42.8652209,79 42.9012878,79 C42.6488198,79 42.4324187,79 42.1799507,78.9674934 C41.9996164,78.9674934 41.8192822,78.8049604 41.855349,78.6424274 C41.855349,78.4798943 42.0356833,78.3498679 42.2160175,78.3498679 C42.4684855,78.3498679 42.6848867,78.3823745 42.9012878,78.3823745 C43.081622,78.3823745 43.2619563,78.5449076 43.2619563,78.7074406 C43.2258895,78.8699736 43.081622,79 42.9012878,79 Z M43.9472265,79 C43.7668923,79 43.6226249,78.8699736 43.586558,78.7074406 C43.586558,78.5449076 43.7308254,78.3823745 43.9111597,78.3498679 C44.1636277,78.3173613 44.3800288,78.3173613 44.5603631,78.2523481 C44.7406973,78.2198415 44.9570985,78.3173613 44.9931653,78.5124009 C45.0292322,78.674934 44.9210316,78.8699736 44.7046305,78.9024802 C44.5242962,78.9349868 44.2718282,78.9674934 43.9472265,79 C43.9832934,79 43.9472265,79 43.9472265,79 Z M41.0979451,78.9024802 C41.0979451,78.9024802 41.0618782,78.9024802 41.0979451,78.9024802 C40.8094102,78.8699736 40.5930091,78.8699736 40.3405411,78.837467 C40.1602069,78.8049604 40.0159394,78.6424274 40.0159394,78.4798943 C40.0520063,78.3173613 40.2323406,78.1873349 40.4126748,78.1873349 C40.6651428,78.2198415 40.8815439,78.2523481 41.0979451,78.2523481 C41.2782793,78.2848547 41.4225468,78.4148811 41.4225468,78.6099208 C41.4225468,78.7724538 41.2782793,78.9024802 41.0979451,78.9024802 Z M39.3306692,78.7074406 C39.3306692,78.7074406 39.2946024,78.7074406 39.2946024,78.7074406 C39.0421344,78.674934 38.8257333,78.6424274 38.5732653,78.6099208 C38.392931,78.5774142 38.2486636,78.4148811 38.2847304,78.2523481 C38.3207973,78.0898151 38.5011316,77.9597887 38.6814658,77.9922953 C38.897867,78.0248019 39.1503349,78.0573085 39.3667361,78.0898151 C39.5470703,78.1223217 39.6913378,78.2848547 39.6552709,78.4473877 C39.6552709,78.6099208 39.5110035,78.7074406 39.3306692,78.7074406 Z M37.5633934,78.4473877 C37.5273265,78.4473877 37.5273265,78.4473877 37.4912597,78.4473877 C37.2387917,78.4148811 37.0223906,78.3823745 36.7699226,78.3173613 C36.5895883,78.2848547 36.4453209,78.1223217 36.4813877,77.9272821 C36.5174546,77.7647491 36.6977889,77.6347227 36.91419,77.6672293 C37.1305911,77.6997359 37.3830591,77.7322425 37.5994602,77.7972557 C37.7797945,77.8297623 37.9240619,77.9922953 37.8879951,78.1548283 C37.8879951,78.3498679 37.7437276,78.4473877 37.5633934,78.4473877 Z M35.8321844,78.1548283 C35.7961175,78.1548283 35.7961175,78.1548283 35.7600507,78.1548283 C35.5075827,78.1223217 35.2911816,78.0573085 35.0747804,78.0248019 C34.8944462,77.9922953 34.7501787,77.8297623 34.7862456,77.6347227 C34.8223125,77.4721896 35.0026467,77.3421632 35.2190478,77.3746698 C35.435449,77.4071764 35.6518501,77.4721896 35.9043181,77.5046962 C36.0846523,77.5372028 36.2289198,77.6997359 36.1928529,77.8947755 C36.1207192,78.0573085 35.9764518,78.1548283 35.8321844,78.1548283 Z M34.0649085,77.7972557 C34.0288417,77.7972557 34.0288417,77.7972557 33.9927748,77.7972557 C33.5599726,77.6997359 33.2714377,77.6347227 33.2714377,77.6347227 C33.0911035,77.6022161 32.946836,77.4071764 33.0189697,77.2446434 C33.0550366,77.0821104 33.2714377,76.952084 33.451772,77.0170972 C33.451772,77.0170972 33.70424,77.0821104 34.1370422,77.1796302 C34.3173765,77.2121368 34.4616439,77.4071764 34.3895102,77.5697095 C34.3895102,77.6997359 34.2452428,77.7972557 34.0649085,77.7972557 Z" id="Shape" fill="#40527C" fill-rule="nonzero"></path>
            <path d="M48.2770609,74 C48.2377086,74 48.1590039,74 48.1196515,73.9653798 C48.0015945,73.8961393 47.9622421,73.723038 48.0409468,73.6191773 C49.4576314,71.8535446 50.4020877,67.2836719 50.4020877,67.2144314 C50.4414401,67.0759504 50.5988495,66.9720897 50.7562588,67.0067099 C50.9136682,67.0413302 51.0317253,67.1798112 50.9923729,67.3182921 C50.9530206,67.5260136 50.0085642,72.0612661 48.513175,73.9307595 C48.4738227,73.9307595 48.3557656,74 48.2770609,74 Z" id="Shape" fill="#40527C" fill-rule="nonzero"></path>
            <path d="M29.3169434,93 C29.2793706,93 29.2417979,93 29.2042252,92.9628981 C29.1666525,92.9628981 25.5972434,91.256213 22.065407,88.7332872 C17.2936706,85.282815 14.9265888,81.9436485 15.0017343,78.7899912 C15.0768797,75.7105376 16.7300797,71.2954173 19.9237615,65.655936 C22.2908434,61.5005287 24.6579252,58.1613622 24.6954979,58.1242603 C24.7330706,58.0500566 24.8457888,58.0129548 24.9209343,58.0129548 C26.4238434,58.0129548 34.5395525,56.0094548 34.6522706,56.0094548 C34.8025616,55.972353 34.9528525,56.0465567 34.9904252,56.1949641 C35.0279979,56.3433715 34.9528525,56.4917789 34.8025616,56.5288807 C34.464407,56.6030844 26.9498615,58.458177 25.1087979,58.5323807 C24.2070524,59.8309454 15.7531888,71.9632506 15.5653252,78.7528893 C15.4150343,85.3199169 27.438307,91.4417223 29.2417979,92.3321667 L31.9094616,88.1396576 C31.984607,88.028352 32.1724706,87.9541483 32.2851888,88.0654539 C32.397907,88.1396576 32.4730525,88.3251668 32.3603343,88.4364724 L29.5799525,92.8515926 C29.504807,92.9628981 29.4296615,93 29.3169434,93 Z" id="Shape" fill="#40527C" fill-rule="nonzero"></path>
            <path d="M24.8407817,74 C24.7656868,74 24.6905918,73.9231406 24.6655602,73.8078515 C23.6642944,69.8495915 24.0898323,65.430175 24.0898323,65.2380265 C24.114864,65.0843077 24.1899589,64.9690185 24.2900855,65.0074482 C24.3902121,65.045878 24.465307,65.1611671 24.4402754,65.3148859 C24.4402754,65.3533156 24.0147374,69.7727321 24.9909716,73.6157029 C25.0160032,73.7694217 24.9909716,73.9231406 24.890845,74 C24.890845,73.9615703 24.8658134,74 24.8407817,74 Z" id="Shape" fill="#40527C" fill-rule="nonzero"></path>
            <path d="M35.2802688,74 C35.1662614,74 35.0522539,73.9258383 35.0142515,73.8145958 C34.9382465,73.6291915 33.4561499,69.587379 34.2161994,67.2142046 C34.9382465,64.9522728 34.7862366,57.4619413 34.7482341,57.3877796 C34.7482341,57.2394562 34.8622415,57.0911328 35.0142515,57.0911328 C35.1662614,57.0911328 35.2802688,57.2023754 35.3182713,57.3506988 C35.3182713,57.6473456 35.5082837,64.9893537 34.7482341,67.3254472 C34.2542019,68.845762 34.8242391,71.2189363 35.2042638,72.5538469 C35.9263109,69.7727832 37.9024397,66.13886 41.1326502,61.726239 C43.8688286,58.0181541 46.4909995,55.1258478 46.529002,55.088767 C46.6430094,54.9775244 46.7950193,54.9775244 46.9090267,55.0516861 C47.0230342,55.1629287 47.0230342,55.3112521 46.9470292,55.4224946 C46.8330218,55.5337372 36.4963481,66.9175578 35.5462861,73.6662724 C35.5462861,73.8887575 35.4322787,74 35.2802688,74 C35.3182713,74 35.3182713,74 35.2802688,74 Z" id="Shape" fill="#40527C" fill-rule="nonzero"></path>
            <path d="M35.2621338,80 C35.2621338,80 35.2621338,80 35.2621338,80 C35.1155965,80 34.9690593,79.8494272 35.0056936,79.6988543 C35.2621338,74.2782324 45.812815,63.0605565 47.2049188,61.5924714 L46.5455012,60.1620295 C46.5088669,60.086743 46.5088669,60.0114566 46.5455012,59.9361702 C46.5821355,59.8608838 46.6554042,59.8232406 46.7286728,59.7855974 L48.2306795,59.4091653 L48.4504854,57.2635025 C48.4504854,57.1129296 48.5970226,57 48.7435598,57 C48.8900971,57 49,57.1505728 49,57.3011457 L48.7435598,59.6726678 C48.7435598,59.7855974 48.6336569,59.898527 48.523754,59.898527 L47.1682845,60.2373159 L47.7910678,61.5548282 C47.8277021,61.6677578 47.8277021,61.7806874 47.7544335,61.8559738 C47.6445305,61.9689034 35.8482827,74.2405892 35.5918426,79.7364975 C35.518574,79.8870704 35.408671,80 35.2621338,80 Z" id="Shape" fill="#40527C" fill-rule="nonzero"></path>
            <path d="M33.7531397,78 C33.6830142,78 33.5778258,77.9626894 33.542763,77.8507576 C32.4908791,76.0225375 31.3688697,63.5234824 31.3338069,62.9638232 C31.3338069,62.9265126 31.3338069,62.9265126 31.3338069,62.889202 L31.6493721,61.1356032 L30.0364835,58.4119285 C29.9663579,58.2999967 30.0014207,58.1134436 30.1066091,58.0388224 C30.2117975,57.9642012 30.3871114,58.0015118 30.457237,58.1134436 L32.1051884,60.9490501 C32.1402512,61.0236714 32.1402512,61.060982 32.1402512,61.1356032 L31.824686,62.9265126 C32.2103768,67.4037861 33.192135,76.17178 33.9635165,77.514962 C34.0336421,77.6268939 33.9985793,77.8134469 33.8933909,77.8880682 C33.8583281,77.9626894 33.7882025,78 33.7531397,78 Z" id="Shape" fill="#40527C" fill-rule="nonzero"></path>
            <path d="M42.284637,79 C42.2117595,79 42.1753208,78.9629741 42.1024434,78.9259482 C41.9931272,78.8148704 41.9566885,78.6667667 42.0660047,78.5556889 C42.5032693,78.0003 43.5599921,76.6673668 43.7786244,76.5192631 C43.8879405,76.4081853 44.6167148,75.556589 45.236173,74.7790446 C45.2726117,74.7420187 45.2726117,74.7420187 45.3090505,74.7049928 L46.4386507,74.0385262 C46.5479668,73.9644743 46.7301604,74.0015002 46.8030379,74.112578 C46.8394766,74.1496039 47.0581089,74.5198632 46.9852314,75.0012002 C46.912354,75.4455113 46.4750894,75.7417187 46.3293345,75.8157705 L45.4183666,76.7784445 C45.3090505,76.8895223 45.1268569,76.8895223 45.0539794,76.7784445 C44.9446633,76.6673668 44.9446633,76.4822372 45.0539794,76.4081853 L46.0013861,75.4084854 C46.0378248,75.3714594 46.0378248,75.3714594 46.0742635,75.3344335 C46.1835797,75.2974076 46.4386507,75.112278 46.4750894,74.8901224 C46.4750894,74.7790446 46.4750894,74.7049928 46.4750894,74.6309409 L45.6369989,75.112278 C45.1997343,75.6306409 44.2887664,76.8154705 44.1065728,76.9265482 C43.9972567,77.037626 43.1956049,78.0003 42.5032693,78.8518963 C42.4668306,78.9629741 42.3939531,79 42.284637,79 Z" id="Shape" fill="#40527C" fill-rule="nonzero"></path>
            <path d="M47.5107389,77 C47.4652262,77 47.4197136,77 47.3742009,77 C47.1921502,76.9545455 47.1011249,76.7272727 47.1921502,76.5454545 C47.3286882,76.2272727 47.3286882,75.9545455 47.2376629,75.7727273 C47.1921502,75.6818182 47.1011249,75.6363636 47.0556123,75.6363636 L46.3729223,75.7272727 C46.1908717,75.7727273 46.008821,75.6363636 46.008821,75.4545455 C45.9633084,75.2727273 46.0998464,75.0909091 46.281897,75.0909091 L47.0556123,75 C47.1011249,75 47.1011249,75 47.1466376,75 C47.1921502,75 47.6017642,75.0909091 47.8293275,75.4545455 C48.0568908,75.7727273 48.0568908,76.2272727 47.8293275,76.7727273 C47.7838149,76.9090909 47.6472769,77 47.5107389,77 Z" id="Shape" fill="#40527C" fill-rule="nonzero"></path>
            <path d="M43.2653085,79 C43.1899423,79 43.076893,78.9585786 43.0392099,78.8343146 C42.9638438,78.7100505 43.0015269,78.5029437 43.1145761,78.420101 C43.3783578,78.2544155 44.0943365,77.7573592 44.282752,77.5502524 C44.5465336,77.2603029 45.2248293,76.8875107 45.3755617,76.804668 C46.3930052,75.9348194 46.6191037,75.9762408 46.732153,76.0176621 C46.8075192,76.0176621 46.9582515,76.1005048 46.9959346,76.3904544 C47.0336177,76.804668 46.8075192,77.8816233 46.3930052,78.0887301 C46.1669066,78.2129942 45.6016602,78.5857864 45.4509279,78.6686291 L45.3001955,78.8757359 C45.1871462,79 45.0364138,79 44.9233646,78.8757359 C44.8103153,78.7514718 44.8103153,78.5857864 44.9233646,78.4615223 L45.11178,78.2544155 C45.1494631,78.2129942 45.1494631,78.2129942 45.1871462,78.2129942 C45.1871462,78.2129942 45.903125,77.7573592 46.1669066,77.5916738 C46.2799559,77.5088311 46.3930052,77.0946175 46.4306882,76.7632466 C46.2045897,76.8875107 45.940808,77.1360388 45.6770264,77.3431456 C45.6770264,77.3431456 45.6393433,77.384567 45.6393433,77.384567 C45.4509279,77.5088311 44.8479984,77.8402019 44.6595829,78.0473087 C44.3958013,78.3372583 43.4914071,78.9171573 43.4160409,79 C43.3783578,78.9585786 43.3029916,79 43.2653085,79 Z" id="Shape" fill="#40527C" fill-rule="nonzero"></path>
            <path d="M29.546585,84 C29.0424586,84 28.672766,83.8409091 28.4038986,83.4829545 C27.9669891,82.9659091 28.0005975,82.2102273 28.0005975,82.1704545 C28.0005975,80.0625 30.9917473,77.1988636 31.0925725,77.0795455 C31.126181,77.0397727 31.1933978,77 31.2606147,77 L31.764741,77 C31.8991747,77 32,77.1193182 32,77.2784091 C32,77.4375 31.8991747,77.5568182 31.764741,77.5568182 L31.3614399,77.5568182 C30.5212293,78.3920455 28.5047239,80.6590909 28.5047239,82.1704545 C28.5047239,82.1704545 28.5047239,82.7272727 28.7735912,83.0852273 C28.9416334,83.2840909 29.2105008,83.4034091 29.546585,83.4034091 C29.6810187,83.4034091 29.781844,83.5227273 29.781844,83.6818182 C29.8154524,83.8806818 29.6810187,84 29.546585,84 Z" id="Shape" fill="#40527C" fill-rule="nonzero"></path>
            <path d="M23.290653,79 C23.1816582,79 23.1089949,78.9595618 23.0363316,78.8382472 C22.9636684,78.6764943 23,78.5147415 23.1453265,78.4338651 C23.2179898,78.3934269 23.4359795,78.2316741 23.3269847,77.827292 C23.2179898,77.4633481 23.290653,77.2207189 23.3633163,77.058966 C23.4359795,76.9376514 23.5449744,76.8163368 23.6539693,76.7758986 C23.6176377,76.3715165 23.6539693,75.684067 24.0899489,75.2796849 C24.4169335,74.9966175 24.6712549,74.9561793 24.8892447,74.9157411 C25.1072345,74.8753029 25.252561,74.8348646 25.4705508,74.4709208 C26.0518568,73.3790892 27.8684383,74.511359 28.0500964,74.6326736 C28.0500964,74.6326736 28.0864281,74.6326736 28.0864281,74.6731118 C28.5950709,75.1179321 30.048336,76.3310783 30.7749686,76.4928311 C30.9202951,76.5332694 31.02929,76.6950222 30.9929584,76.856775 C30.9566268,77.0185278 30.8113002,77.1398425 30.6659737,77.0994043 C29.6850197,76.8972132 27.9411016,75.3605613 27.7594434,75.1583703 C27.2871322,74.8348646 26.1608517,74.3496062 25.9065303,74.7944264 C25.5795457,75.4009996 25.252561,75.481876 24.961908,75.5223142 C24.7802498,75.5627524 24.5985917,75.5627524 24.3806019,75.7649434 C24.0899489,76.0075727 24.1262805,76.6950222 24.1626121,76.9376514 C24.1626121,77.0185278 24.1626121,77.0994043 24.1262805,77.1802807 C24.0899489,77.2611571 24.0172856,77.3015953 23.9446224,77.3015953 C23.9082907,77.3015953 23.8356275,77.3420335 23.7992958,77.4229099 C23.7629642,77.5037863 23.7992958,77.5846627 23.7992958,77.6655392 C24.0172856,78.3529887 23.6176377,78.8382472 23.3633163,78.9595618 C23.3996479,79 23.3269847,79 23.290653,79 Z" id="Shape" fill="#40527C" fill-rule="nonzero"></path>
            <path d="M27.6373287,82 C27.5996543,82 27.5619799,82 27.5243055,81.9602893 C27.4866311,81.9602893 27.4112822,81.9205786 27.3736078,81.8808679 C27.1852358,81.8014465 27.0722125,81.5631823 27.1475614,81.3646289 C27.2229102,81.1660754 27.4489566,81.0469433 27.6373287,81.1263647 C27.6750031,81.1263647 27.7126775,81.1660754 27.7503519,81.1660754 C27.938724,81.2454968 28.0517472,81.483761 27.9763984,81.6823144 C27.938724,81.8808679 27.7880263,82 27.6373287,82 Z M26.5070964,81.4043396 C26.4317475,81.4043396 26.3940731,81.4043396 26.3187243,81.3646289 C26.0926778,81.2454968 25.8666314,81.086654 25.6782593,80.9278112 C25.4898873,80.8086791 25.4522128,80.570415 25.5652361,80.3718615 C25.6782593,80.173308 25.9043058,80.1335973 26.0926778,80.2527294 C26.2810499,80.3718615 26.5070964,80.5307043 26.6954684,80.6498364 C26.8838405,80.7689684 26.9215149,81.0072326 26.8084917,81.2057861 C26.7708172,81.3249182 26.6201196,81.4043396 26.5070964,81.4043396 Z M24.9624455,80.2924401 C24.8870967,80.2924401 24.8117479,80.2527294 24.736399,80.2130187 C24.3596549,79.9350438 24.1336085,79.6967797 24.1336085,79.6967797 C23.9829108,79.5379369 23.9452364,79.2996727 24.095934,79.1408299 C24.2466317,78.9819871 24.4726782,78.9422764 24.6233758,79.1011192 C24.6233758,79.1011192 24.8494223,79.2996727 25.188492,79.5776476 C25.3391896,79.6967797 25.376864,79.9747545 25.2638408,80.1335973 C25.188492,80.2527294 25.0754687,80.2924401 24.9624455,80.2924401 Z" id="Shape" fill="#40527C" fill-rule="nonzero"></path>
            <path d="M38.7067552,63 C38.6328555,63 38.5589558,62.961726 38.4850561,62.8851781 C38.2264071,62.6172603 37.3396107,62.6938082 36.9331624,62.6938082 C36.6006137,62.7320822 36.4528143,62.7320822 36.3419647,62.5789863 C36.3050149,62.5407123 36.268065,62.4641644 36.0094161,61.3542192 C35.9724662,61.2011234 36.0463659,61.0480275 36.1941653,61.0097535 C36.3419647,60.9714795 36.4897641,61.0480275 36.526714,61.2011234 C36.6006137,61.5455891 36.7114632,61.9283288 36.785363,62.1579726 C36.8223128,62.1579726 36.8592627,62.1579726 36.8962125,62.1579726 C37.52436,62.1196987 38.1894573,62.0814247 38.6328555,62.3110685 C38.8545546,62.0048768 39.261003,61.5455891 39.7044012,61.5455891 C39.8522006,61.5455891 40,61.660411 40,61.8135069 C40,61.9666028 39.8891504,62.1196987 39.741351,62.1196987 C39.5196519,62.1196987 39.1501534,62.5789863 38.9654042,62.8851781 C38.8915045,62.9234521 38.8176048,62.961726 38.7067552,63 C38.7437051,63 38.7067552,63 38.7067552,63 Z" id="Shape" fill="#40527C" fill-rule="nonzero"></path>
            <path d="M35.234174,67 C35.1003603,67 35,66.8853076 35,66.7323844 C35,66.3500764 35.9366959,63.7503822 36.5054042,62.1829194 C36.572311,62.0299963 36.7061247,61.9535347 36.8399384,62.0299963 C36.9737521,62.1064579 37.040659,62.259381 36.9737521,62.4123042 C36.2712302,64.3238441 35.5352548,66.426538 35.5018014,66.7323844 C35.5018014,66.8853076 35.4014411,67 35.234174,67 C35.2676274,67 35.2676274,67 35.234174,67 Z" id="Shape" fill="#40527C" fill-rule="nonzero"></path>
            <path d="M38.4648373,65 C38.3681431,65 38.3036803,64.9354839 38.2392175,64.8709677 C37.9169034,64.1612903 38.0135976,62.4193548 38.0135976,62.2258065 C38.0135976,62.0967742 38.1425232,62 38.2714489,62 C38.4003745,62 38.4970687,62.1290323 38.4970687,62.2580645 C38.4648373,62.7419355 38.4326059,64.1612903 38.6582257,64.6451613 C38.7226885,64.7741935 38.6582257,64.9032258 38.5615315,64.9677419 C38.5293001,65 38.4970687,65 38.4648373,65 Z" id="Shape" fill="#40527C" fill-rule="nonzero"></path>
            <path d="M36.232,65 C36.168,65 36.104,64.9678715 36.072,64.935743 C35.976,64.8393574 35.976,64.6787149 36.072,64.6144578 L37.608,63.0722892 C37.704,62.9759036 37.864,62.9759036 37.928,63.0722892 C38.024,63.1686747 38.024,63.3293173 37.928,63.3935743 L36.392,64.935743 C36.36,64.9678715 36.296,65 36.232,65 Z" id="Shape" fill="#40527C" fill-rule="nonzero"></path>
            <path d="M35.2377049,68 C35.1721311,68 35.1065574,67.9671233 35.0737705,67.9342466 C34.9754098,67.8356164 34.9754098,67.6712329 35.0737705,67.6054795 L37.5983607,65.0739726 C37.6967213,64.9753425 37.8606557,64.9753425 37.9262295,65.0739726 C38.0245902,65.1726027 38.0245902,65.3369863 37.9262295,65.4027397 L35.4016393,67.9342466 C35.3688525,67.9671233 35.3032787,68 35.2377049,68 Z" id="Shape" fill="#40527C" fill-rule="nonzero"></path>
            <path d="M35.2357724,70 C35.1707317,70 35.1056911,69.9673469 35.0731707,69.9346939 C34.9756098,69.8367347 34.9756098,69.6734694 35.0731707,69.6081633 L36.601626,68.0734694 C36.699187,67.9755102 36.8617886,67.9755102 36.9268293,68.0734694 C37.0243902,68.1714286 37.0243902,68.3346939 36.9268293,68.4 L35.398374,69.9346939 C35.3658537,69.9673469 35.300813,70 35.2357724,70 Z" id="Shape" fill="#40527C" fill-rule="nonzero"></path>
            <path d="M30.268796,103 C30.1952913,103 30.0850342,102.968411 30.0482819,102.905234 C29.9747772,102.810468 29.9747772,102.652524 30.1217866,102.589346 L32.5841945,101.041498 C32.6944516,100.978321 32.8782134,100.978321 32.9517181,101.104676 C33.0252228,101.199442 33.0252228,101.357386 32.8782134,101.420563 L30.4158055,102.968411 C30.3790531,102.968411 30.3055484,103 30.268796,103 Z" id="Shape" fill="#40527C" fill-rule="nonzero"></path>
            <path d="M31.3309541,100 C31.2462178,100 31.1614815,99.9543498 31.0767452,99.8630493 C30.9496407,99.7260986 30.9920089,99.4978475 31.1191133,99.406547 L32.5172625,98.0826903 C32.6443669,97.9457396 32.8562077,97.9913898 32.940944,98.1283405 C33.0256803,98.2652912 33.0256803,98.4935424 32.8985759,98.5848428 L31.5004267,99.9086995 C31.4580586,100 31.3733223,100 31.3309541,100 Z" id="Shape" fill="#40527C" fill-rule="nonzero"></path>
            <path d="M31.2453136,105 C31.1782304,105 31.0776055,104.957729 31.0440639,104.873187 C30.9769807,104.746374 30.9769807,104.535019 31.1111471,104.450476 L32.6205199,103.055532 C32.7211448,102.97099 32.8888529,102.97099 32.9559361,103.140074 C33.0230193,103.266887 33.0230193,103.478242 32.8888529,103.562784 L31.3794801,104.957729 C31.3459385,104.957729 31.3123968,105 31.2453136,105 Z" id="Shape" fill="#40527C" fill-rule="nonzero"></path>
            <path d="M83.7409594,53.3184713 C83.6765282,54.7197452 83.9020376,56.3121019 84.7396439,57.0127388 C85.2228783,57.4267516 85.8027596,57.4267516 86.3504253,57.4585987 C96.4339167,57.5541401 106.517408,57.6815287 116.633115,57.7770701 C118.211681,57.8089172 119.854678,57.7770701 121.207734,56.6305732 C122.560791,55.4840764 123.462828,52.7770701 122.657437,50.8025478 C121.819831,48.7006369 119.790247,48.6369427 118.115034,48.7961783 C111.73634,49.4649681 105.357645,49.7834395 98.9467356,49.7197452 C95.8218197,49.6878981 92.6646882,49.5605095 89.5397724,49.3694267 C88.3155785,49.2738853 85.770544,48.3184713 84.642997,48.9872611 C83.5476657,49.6242038 83.8376063,51.3121019 83.7409594,53.3184713 Z" id="Shape" fill="#EAEFF9" fill-rule="nonzero"></path>
            <path d="M83.6765282,73.0955414 C83.6120969,74.4968153 83.9342532,76.089172 85.1262314,76.7898089 C85.8349752,77.2038217 86.7047972,77.2038217 87.5101878,77.2356688 C102.490455,77.3312102 117.470721,77.4585987 132.450988,77.5541401 C134.770513,77.5859873 137.218901,77.5541401 139.248486,76.4076433 C141.27807,75.2611465 142.598911,72.5541401 141.406933,70.5796178 C140.150523,68.477707 137.15447,68.4140127 134.673866,68.5732484 C125.202472,69.2420382 115.731077,69.5605096 106.227467,69.4968153 C101.556201,69.4649682 96.9171511,69.3375796 92.2458851,69.1464968 C90.4095943,69.0509554 86.6403659,68.0955414 84.9973689,68.7643312 C83.3865875,69.4012739 83.8053907,71.089172 83.6765282,73.0955414 Z" id="Shape" fill="#D4E1F9" fill-rule="nonzero"></path>
            <path d="M171.786269,93.1592357 C171.915132,94.5605096 171.399682,96.1528662 169.563391,96.8535032 C168.500275,97.2675159 167.179435,97.2675159 165.955241,97.2993631 C143.307655,97.3949045 120.660069,97.522293 98.0124824,97.6178344 C94.500979,97.6496815 88.3155785,98.5095541 85.2550939,97.3630573 C82.1946093,96.2165605 82.6456281,92.6178344 84.4497032,90.6433121 C86.3504253,88.5414013 90.8928287,88.477707 94.6298415,88.6369427 C108.93358,89.3057325 123.269534,89.6242038 137.605489,89.5605096 C144.660711,89.5286624 151.683718,89.4012739 158.706725,89.2101911 C161.477269,89.1146497 167.147219,88.1592357 169.660038,88.8280255 C172.205073,89.4649682 171.592976,91.1528662 171.786269,93.1592357 Z" id="Shape" fill="#D4E1F9" fill-rule="nonzero"></path>
            <path d="M83.6443125,53.7643312 C83.3865875,53.7643312 83.1932938,53.5732484 83.1932938,53.3184713 L83.1932938,48.7006369 C83.1932938,48.4458599 83.3865875,48.2547771 83.6443125,48.2547771 L105.712017,48.2547771 C105.969742,48.2547771 106.163036,48.4458599 106.163036,48.7006369 C106.163036,48.955414 105.969742,49.1464968 105.712017,49.1464968 L84.0953313,49.1464968 L84.0953313,53.2866242 C84.0953313,53.5732484 83.9020376,53.7643312 83.6443125,53.7643312 Z" id="Shape" fill="#40527C" fill-rule="nonzero"></path>
            <path d="M87.8967754,57.7133758 L86.9947378,57.7133758 C86.7370128,57.7133758 86.543719,57.522293 86.543719,57.2675159 C86.543719,57.0127388 86.7370128,56.821656 86.9947378,56.821656 L87.8967754,56.821656 C88.1545004,56.821656 88.3477942,57.0127388 88.3477942,57.2675159 C88.3477942,57.522293 88.1545004,57.7133758 87.8967754,57.7133758 Z M85.6094658,57.7133758 L84.7074283,57.7133758 C84.4497032,57.7133758 84.2564095,57.522293 84.2564095,57.2675159 C84.2564095,57.0127388 84.4497032,56.821656 84.7074283,56.821656 L85.6094658,56.821656 C85.8671908,56.821656 86.0604846,57.0127388 86.0604846,57.2675159 C86.0604846,57.522293 85.8671908,57.7133758 85.6094658,57.7133758 Z M83.6443125,57.3630573 C83.3865875,57.3630573 83.1932938,57.1719745 83.1932938,56.9171974 L83.1932938,56.0254777 C83.1932938,55.7707006 83.3865875,55.5796178 83.6443125,55.5796178 C83.9020376,55.5796178 84.0953313,55.7707006 84.0953313,56.0254777 L84.0953313,56.9171974 C84.0953313,57.1719745 83.9020376,57.3630573 83.6443125,57.3630573 Z" id="Shape" fill="#40527C" fill-rule="nonzero"></path>
            <path d="M122.882947,57.7133758 L91.0216912,57.7133758 C90.7639662,57.7133758 90.5706725,57.522293 90.5706725,57.2675159 C90.5706725,57.0127388 90.7639662,56.8216561 91.0216912,56.8216561 L122.431928,56.8216561 L122.431928,54.9426752 C122.431928,54.6878981 122.625222,54.4968153 122.882947,54.4968153 C123.140672,54.4968153 123.333966,54.6878981 123.333966,54.9426752 L123.333966,57.2675159 C123.366181,57.4904459 123.140672,57.7133758 122.882947,57.7133758 Z" id="Shape" fill="#40527C" fill-rule="nonzero"></path>
            <path d="M122.882947,52.4904459 C122.625222,52.4904459 122.431928,52.2993631 122.431928,52.044586 L122.431928,51.1528662 C122.431928,50.8980892 122.625222,50.7070064 122.882947,50.7070064 C123.140672,50.7070064 123.333966,50.8980892 123.333966,51.1528662 L123.333966,52.044586 C123.366181,52.2993631 123.140672,52.4904459 122.882947,52.4904459 Z M122.882947,50.2292994 C122.625222,50.2292994 122.431928,50.0382166 122.431928,49.7834395 L122.431928,48.8917197 C122.431928,48.6369427 122.625222,48.4458599 122.882947,48.4458599 C123.140672,48.4458599 123.333966,48.6369427 123.333966,48.8917197 L123.333966,49.7834395 C123.366181,50.0382166 123.140672,50.2292994 122.882947,50.2292994 Z M121.690969,49.1464968 L120.788931,49.1464968 C120.531206,49.1464968 120.337912,48.955414 120.337912,48.7006369 C120.337912,48.4458599 120.531206,48.2547771 120.788931,48.2547771 L121.690969,48.2547771 C121.948694,48.2547771 122.141987,48.4458599 122.141987,48.7006369 C122.141987,48.955414 121.948694,49.1464968 121.690969,49.1464968 Z M119.403659,49.1464968 L118.501621,49.1464968 C118.243897,49.1464968 118.050603,48.955414 118.050603,48.7006369 C118.050603,48.4458599 118.243897,48.2547771 118.501621,48.2547771 L119.403659,48.2547771 C119.661384,48.2547771 119.854678,48.4458599 119.854678,48.7006369 C119.854678,48.955414 119.661384,49.1464968 119.403659,49.1464968 Z M117.116349,49.1464968 L116.182096,49.1464968 C115.924371,49.1464968 115.731077,48.955414 115.731077,48.7006369 C115.731077,48.4458599 115.924371,48.2547771 116.182096,48.2547771 L117.084134,48.2547771 C117.341859,48.2547771 117.535153,48.4458599 117.535153,48.7006369 C117.535153,48.955414 117.341859,49.1464968 117.116349,49.1464968 Z M114.82904,49.1464968 L113.927002,49.1464968 C113.669277,49.1464968 113.475984,48.955414 113.475984,48.7006369 C113.475984,48.4458599 113.669277,48.2547771 113.927002,48.2547771 L114.82904,48.2547771 C115.086765,48.2547771 115.280059,48.4458599 115.280059,48.7006369 C115.280059,48.955414 115.054549,49.1464968 114.82904,49.1464968 Z M112.509515,49.1464968 L111.607477,49.1464968 C111.349752,49.1464968 111.156458,48.955414 111.156458,48.7006369 C111.156458,48.4458599 111.349752,48.2547771 111.607477,48.2547771 L112.509515,48.2547771 C112.76724,48.2547771 112.960534,48.4458599 112.960534,48.7006369 C112.960534,48.955414 112.76724,49.1464968 112.509515,49.1464968 Z M110.222205,49.1464968 L109.320168,49.1464968 C109.062443,49.1464968 108.869149,48.955414 108.869149,48.7006369 C108.869149,48.4458599 109.062443,48.2547771 109.320168,48.2547771 L110.222205,48.2547771 C110.47993,48.2547771 110.673224,48.4458599 110.673224,48.7006369 C110.673224,48.955414 110.47993,49.1464968 110.222205,49.1464968 Z M107.934896,49.1464968 L107.032858,49.1464968 C106.775133,49.1464968 106.581839,48.955414 106.581839,48.7006369 C106.581839,48.4458599 106.775133,48.2547771 107.032858,48.2547771 L107.934896,48.2547771 C108.192621,48.2547771 108.385914,48.4458599 108.385914,48.7006369 C108.385914,48.955414 108.192621,49.1464968 107.934896,49.1464968 Z" id="Shape" fill="#40527C" fill-rule="nonzero"></path>
            <path d="M131.130148,69.2101911 L130.22811,69.2101911 C129.970385,69.2101911 129.777091,69.0191083 129.777091,68.7643312 C129.777091,68.5095541 129.970385,68.3184713 130.22811,68.3184713 L131.130148,68.3184713 C131.387873,68.3184713 131.581166,68.5095541 131.581166,68.7643312 C131.581166,69.0191083 131.387873,69.2101911 131.130148,69.2101911 Z M128.842838,69.2101911 L127.9408,69.2101911 C127.683075,69.2101911 127.489782,69.0191083 127.489782,68.7643312 C127.489782,68.5095541 127.683075,68.3184713 127.9408,68.3184713 L128.842838,68.3184713 C129.100563,68.3184713 129.293857,68.5095541 129.293857,68.7643312 C129.293857,69.0191083 129.100563,69.2101911 128.842838,69.2101911 Z M126.555528,69.2101911 L125.653491,69.2101911 C125.395766,69.2101911 125.202472,69.0191083 125.202472,68.7643312 C125.202472,68.5095541 125.395766,68.3184713 125.653491,68.3184713 L126.555528,68.3184713 C126.813253,68.3184713 127.006547,68.5095541 127.006547,68.7643312 C127.006547,69.0191083 126.813253,69.2101911 126.555528,69.2101911 Z M124.268219,69.2101911 L123.366181,69.2101911 C123.108456,69.2101911 122.915163,69.0191083 122.915163,68.7643312 C122.915163,68.5095541 123.108456,68.3184713 123.366181,68.3184713 L124.268219,68.3184713 C124.525944,68.3184713 124.719238,68.5095541 124.719238,68.7643312 C124.719238,69.0191083 124.525944,69.2101911 124.268219,69.2101911 Z M121.980909,69.2101911 L121.078872,69.2101911 C120.821147,69.2101911 120.627853,69.0191083 120.627853,68.7643312 C120.627853,68.5095541 120.821147,68.3184713 121.078872,68.3184713 L121.980909,68.3184713 C122.238634,68.3184713 122.431928,68.5095541 122.431928,68.7643312 C122.431928,69.0191083 122.206419,69.2101911 121.980909,69.2101911 Z M119.661384,69.2101911 L118.759347,69.2101911 C118.501621,69.2101911 118.308328,69.0191083 118.308328,68.7643312 C118.308328,68.5095541 118.501621,68.3184713 118.759347,68.3184713 L119.661384,68.3184713 C119.919109,68.3184713 120.112403,68.5095541 120.112403,68.7643312 C120.112403,69.0191083 119.919109,69.2101911 119.661384,69.2101911 Z M117.374074,69.2101911 L116.472037,69.2101911 C116.214312,69.2101911 116.021018,69.0191083 116.021018,68.7643312 C116.021018,68.5095541 116.214312,68.3184713 116.472037,68.3184713 L117.374074,68.3184713 C117.631799,68.3184713 117.825093,68.5095541 117.825093,68.7643312 C117.825093,69.0191083 117.631799,69.2101911 117.374074,69.2101911 Z M115.086765,69.2101911 L114.184727,69.2101911 C113.927002,69.2101911 113.733709,69.0191083 113.733709,68.7643312 C113.733709,68.5095541 113.927002,68.3184713 114.184727,68.3184713 L115.086765,68.3184713 C115.34449,68.3184713 115.537784,68.5095541 115.537784,68.7643312 C115.537784,69.0191083 115.34449,69.2101911 115.086765,69.2101911 Z M112.799455,69.2101911 L111.897418,69.2101911 C111.639693,69.2101911 111.446399,69.0191083 111.446399,68.7643312 C111.446399,68.5095541 111.639693,68.3184713 111.897418,68.3184713 L112.799455,68.3184713 C113.05718,68.3184713 113.250474,68.5095541 113.250474,68.7643312 C113.250474,69.0191083 113.05718,69.2101911 112.799455,69.2101911 Z M110.512146,69.2101911 L109.610108,69.2101911 C109.352383,69.2101911 109.159089,69.0191083 109.159089,68.7643312 C109.159089,68.5095541 109.352383,68.3184713 109.610108,68.3184713 L110.512146,68.3184713 C110.769871,68.3184713 110.963165,68.5095541 110.963165,68.7643312 C110.963165,69.0191083 110.769871,69.2101911 110.512146,69.2101911 Z M108.224836,69.2101911 L107.322799,69.2101911 C107.065074,69.2101911 106.87178,69.0191083 106.87178,68.7643312 C106.87178,68.5095541 107.065074,68.3184713 107.322799,68.3184713 L108.224836,68.3184713 C108.482561,68.3184713 108.675855,68.5095541 108.675855,68.7643312 C108.675855,69.0191083 108.482561,69.2101911 108.224836,69.2101911 Z M105.937527,69.2101911 L105.035489,69.2101911 C104.777764,69.2101911 104.58447,69.0191083 104.58447,68.7643312 C104.58447,68.5095541 104.777764,68.3184713 105.035489,68.3184713 L105.937527,68.3184713 C106.195252,68.3184713 106.388546,68.5095541 106.388546,68.7643312 C106.388546,69.0191083 106.195252,69.2101911 105.937527,69.2101911 Z M103.650217,69.2101911 L102.74818,69.2101911 C102.490455,69.2101911 102.297161,69.0191083 102.297161,68.7643312 C102.297161,68.5095541 102.490455,68.3184713 102.74818,68.3184713 L103.650217,68.3184713 C103.907942,68.3184713 104.101236,68.5095541 104.101236,68.7643312 C104.101236,69.0191083 103.907942,69.2101911 103.650217,69.2101911 Z M101.362908,69.2101911 L100.46087,69.2101911 C100.203145,69.2101911 100.009851,69.0191083 100.009851,68.7643312 C100.009851,68.5095541 100.203145,68.3184713 100.46087,68.3184713 L101.362908,68.3184713 C101.620633,68.3184713 101.813926,68.5095541 101.813926,68.7643312 C101.813926,69.0191083 101.620633,69.2101911 101.362908,69.2101911 Z" id="Shape" fill="#40527C" fill-rule="nonzero"></path>
            <path d="M141.922383,77.7770701 L83.6443125,77.7770701 C83.3865875,77.7770701 83.1932938,77.5859873 83.1932938,77.3312102 L83.1932938,68.7961783 C83.1932938,68.5414013 83.3865875,68.3503185 83.6443125,68.3503185 L98.656795,68.3503185 C98.91452,68.3503185 99.1078137,68.5414013 99.1078137,68.7961783 C99.1078137,69.0509554 98.91452,69.2420382 98.656795,69.2420382 L84.0953313,69.2420382 L84.0953313,76.8853503 L141.471364,76.8853503 L141.471364,69.2420382 L133.739613,69.2420382 C133.481888,69.2420382 133.288594,69.0509554 133.288594,68.7961783 C133.288594,68.5414013 133.481888,68.3503185 133.739613,68.3503185 L141.922383,68.3503185 C142.180108,68.3503185 142.373401,68.5414013 142.373401,68.7961783 L142.373401,77.2993631 C142.373401,77.5541401 142.180108,77.7770701 141.922383,77.7770701 Z" id="Shape" fill="#40527C" fill-rule="nonzero"></path>
            <path d="M171.786269,97.8089172 L110.930949,97.8089172 C110.673224,97.8089172 110.47993,97.6178344 110.47993,97.3630573 C110.47993,97.1082803 110.673224,96.9171975 110.930949,96.9171975 L171.335251,96.9171975 L171.335251,89.2738854 L84.0953313,89.2738854 L84.0953313,90.3248408 C84.0953313,90.5796178 83.9020376,90.7707006 83.6443125,90.7707006 C83.3865875,90.7707006 83.1932938,90.5796178 83.1932938,90.3248408 L83.1932938,88.8280255 C83.1932938,88.5732484 83.3865875,88.3821656 83.6443125,88.3821656 L171.786269,88.3821656 C172.043994,88.3821656 172.237288,88.5732484 172.237288,88.8280255 L172.237288,97.3630573 C172.237288,97.6178344 172.043994,97.8089172 171.786269,97.8089172 Z" id="Shape" fill="#40527C" fill-rule="nonzero"></path>
            <path d="M109.835618,97.8089172 L108.93358,97.8089172 C108.675855,97.8089172 108.482561,97.6178344 108.482561,97.3630573 C108.482561,97.1082803 108.675855,96.9171975 108.93358,96.9171975 L109.835618,96.9171975 C110.093343,96.9171975 110.286636,97.1082803 110.286636,97.3630573 C110.318852,97.6178344 110.093343,97.8089172 109.835618,97.8089172 Z M107.548308,97.8089172 L106.646271,97.8089172 C106.388546,97.8089172 106.195252,97.6178344 106.195252,97.3630573 C106.195252,97.1082803 106.388546,96.9171975 106.646271,96.9171975 L107.548308,96.9171975 C107.806033,96.9171975 107.999327,97.1082803 107.999327,97.3630573 C108.031543,97.6178344 107.806033,97.8089172 107.548308,97.8089172 Z M105.260999,97.8089172 L104.358961,97.8089172 C104.101236,97.8089172 103.907942,97.6178344 103.907942,97.3630573 C103.907942,97.1082803 104.101236,96.9171975 104.358961,96.9171975 L105.260999,96.9171975 C105.518724,96.9171975 105.712017,97.1082803 105.712017,97.3630573 C105.744233,97.6178344 105.518724,97.8089172 105.260999,97.8089172 Z M102.973689,97.8089172 L102.071651,97.8089172 C101.813926,97.8089172 101.620633,97.6178344 101.620633,97.3630573 C101.620633,97.1082803 101.813926,96.9171975 102.071651,96.9171975 L102.973689,96.9171975 C103.231414,96.9171975 103.424708,97.1082803 103.424708,97.3630573 C103.424708,97.6178344 103.231414,97.8089172 102.973689,97.8089172 Z M100.686379,97.8089172 L99.7843419,97.8089172 C99.5266169,97.8089172 99.3333231,97.6178344 99.3333231,97.3630573 C99.3333231,97.1082803 99.5266169,96.9171975 99.7843419,96.9171975 L100.686379,96.9171975 C100.944104,96.9171975 101.137398,97.1082803 101.137398,97.3630573 C101.137398,97.6178344 100.944104,97.8089172 100.686379,97.8089172 Z M98.3990699,97.8089172 L97.4970324,97.8089172 C97.2393073,97.8089172 97.0460136,97.6178344 97.0460136,97.3630573 C97.0460136,97.1082803 97.2393073,96.9171975 97.4970324,96.9171975 L98.3990699,96.9171975 C98.656795,96.9171975 98.8500887,97.1082803 98.8500887,97.3630573 C98.8500887,97.6178344 98.656795,97.8089172 98.3990699,97.8089172 Z M96.1117604,97.8089172 L95.2097228,97.8089172 C94.9519978,97.8089172 94.758704,97.6178344 94.758704,97.3630573 C94.758704,97.1082803 94.9519978,96.9171975 95.2097228,96.9171975 L96.1117604,96.9171975 C96.3694854,96.9171975 96.5627792,97.1082803 96.5627792,97.3630573 C96.5627792,97.6178344 96.3694854,97.8089172 96.1117604,97.8089172 Z M93.8244508,97.8089172 L92.9224133,97.8089172 C92.6646882,97.8089172 92.4713945,97.6178344 92.4713945,97.3630573 C92.4713945,97.1082803 92.6646882,96.9171975 92.9224133,96.9171975 L93.8244508,96.9171975 C94.0821759,96.9171975 94.2754696,97.1082803 94.2754696,97.3630573 C94.2754696,97.6178344 94.0821759,97.8089172 93.8244508,97.8089172 Z M91.5371413,97.8089172 L90.6351037,97.8089172 C90.3773787,97.8089172 90.1840849,97.6178344 90.1840849,97.3630573 C90.1840849,97.1082803 90.3773787,96.9171975 90.6351037,96.9171975 L91.5371413,96.9171975 C91.7948663,96.9171975 91.9881601,97.1082803 91.9881601,97.3630573 C91.9881601,97.6178344 91.7948663,97.8089172 91.5371413,97.8089172 Z M89.2498317,97.8089172 L88.3477942,97.8089172 C88.0900691,97.8089172 87.8967754,97.6178344 87.8967754,97.3630573 C87.8967754,97.1082803 88.0900691,96.9171975 88.3477942,96.9171975 L89.2498317,96.9171975 C89.5075567,96.9171975 89.7008505,97.1082803 89.7008505,97.3630573 C89.7008505,97.6178344 89.5075567,97.8089172 89.2498317,97.8089172 Z M86.9625222,97.8089172 L86.0604846,97.8089172 C85.8027596,97.8089172 85.6094658,97.6178344 85.6094658,97.3630573 C85.6094658,97.1082803 85.8027596,96.9171975 86.0604846,96.9171975 L86.9625222,96.9171975 C87.2202472,96.9171975 87.413541,97.1082803 87.413541,97.3630573 C87.413541,97.6178344 87.1880316,97.8089172 86.9625222,97.8089172 Z M84.642997,97.8089172 L83.7409594,97.8089172 C83.4832344,97.8089172 83.2899406,97.6178344 83.2899406,97.3630573 C83.2899406,97.1082803 83.4832344,96.9171975 83.7409594,96.9171975 L84.642997,96.9171975 C84.900722,96.9171975 85.0940158,97.1082803 85.0940158,97.3630573 C85.1262314,97.6178344 84.900722,97.8089172 84.642997,97.8089172 Z M83.6443125,96.566879 C83.3865875,96.566879 83.1932938,96.3757962 83.1932938,96.1210191 L83.1932938,95.2292994 C83.1932938,94.9745223 83.3865875,94.7834395 83.6443125,94.7834395 C83.9020376,94.7834395 84.0953313,94.9745223 84.0953313,95.2292994 L84.0953313,96.1210191 C84.0953313,96.343949 83.9020376,96.566879 83.6443125,96.566879 Z M83.6443125,94.3057325 C83.3865875,94.3057325 83.1932938,94.1146497 83.1932938,93.8598726 L83.1932938,92.9681529 C83.1932938,92.7133758 83.3865875,92.522293 83.6443125,92.522293 C83.9020376,92.522293 84.0953313,92.7133758 84.0953313,92.9681529 L84.0953313,93.8598726 C84.0953313,94.0828025 83.9020376,94.3057325 83.6443125,94.3057325 Z M83.6443125,92.0127389 C83.3865875,92.0127389 83.1932938,91.8216561 83.1932938,91.566879 L83.1932938,91.5031847 C83.1932938,91.2484076 83.3865875,91.0573248 83.6443125,91.0573248 C83.9020376,91.0573248 84.0953313,91.2484076 84.0953313,91.5031847 L84.0953313,91.566879 C84.0953313,91.8216561 83.9020376,92.0127389 83.6443125,92.0127389 Z" id="Shape" fill="#40527C" fill-rule="nonzero"></path>
            <path d="M86.9406393,116.189474 L86.9406393,115.368421 C86.9406393,115.115789 86.8127854,114.894737 86.5890411,114.768421 L85.9178082,114.357895 C85.6940639,114.231579 85.4063927,114.231579 85.1826484,114.357895 L84.5114155,114.768421 C84.2876712,114.894737 84.1598174,115.115789 84.1598174,115.368421 L84.1598174,116.189474 C84.1598174,116.442105 84.2876712,116.663158 84.5114155,116.789474 L85.1826484,117.2 C85.4063927,117.326316 85.6940639,117.326316 85.9178082,117.2 L86.5890411,116.789474 C86.7808219,116.694737 86.9406393,116.442105 86.9406393,116.189474 Z" id="Shape" fill="#FFAB9F" fill-rule="nonzero"></path>
            <path d="M90.8721461,116.189474 L90.8721461,115.368421 C90.8721461,115.115789 90.7442922,114.894737 90.5205479,114.768421 L89.8493151,114.357895 C89.6255708,114.231579 89.3378995,114.231579 89.1141552,114.357895 L88.4429224,114.768421 C88.2191781,114.894737 88.0913242,115.115789 88.0913242,115.368421 L88.0913242,116.189474 C88.0913242,116.442105 88.2191781,116.663158 88.4429224,116.789474 L89.1141552,117.2 C89.3378995,117.326316 89.6255708,117.326316 89.8493151,117.2 L90.5205479,116.789474 C90.7442922,116.694737 90.8721461,116.442105 90.8721461,116.189474 Z" id="Shape" fill="#FFAB9F" fill-rule="nonzero"></path>
            <path d="M94.803653,116.189474 L94.803653,115.368421 C94.803653,115.115789 94.6757991,114.894737 94.4520548,114.768421 L93.7808219,114.357895 C93.5570776,114.231579 93.2694064,114.231579 93.0456621,114.357895 L92.3744292,114.768421 C92.1506849,114.894737 92.022831,115.115789 92.022831,115.368421 L92.022831,116.189474 C92.022831,116.442105 92.1506849,116.663158 92.3744292,116.789474 L93.0456621,117.2 C93.2694064,117.326316 93.5570776,117.326316 93.7808219,117.2 L94.4520548,116.789474 C94.6757991,116.694737 94.803653,116.442105 94.803653,116.189474 Z" id="Shape" fill="#FFAB9F" fill-rule="nonzero"></path>
            <path d="M98.7671233,116.189474 L98.7671233,115.368421 C98.7671233,115.115789 98.6392694,114.894737 98.4155251,114.768421 L97.7442922,114.357895 C97.5205479,114.231579 97.2328767,114.231579 97.0091324,114.357895 L96.3378995,114.768421 C96.1141553,114.894737 95.9863014,115.115789 95.9863014,115.368421 L95.9863014,116.189474 C95.9863014,116.442105 96.1141553,116.663158 96.3378995,116.789474 L97.0091324,117.2 C97.2328767,117.326316 97.5205479,117.326316 97.7442922,117.2 L98.4155251,116.789474 C98.6073059,116.694737 98.7671233,116.442105 98.7671233,116.189474 Z" id="Shape" fill="#FFAB9F" fill-rule="nonzero"></path>
            <path d="M110.593607,116.189474 L110.593607,115.368421 C110.593607,115.115789 110.465753,114.894737 110.242009,114.768421 L109.570776,114.357895 C109.347032,114.231579 109.059361,114.231579 108.835616,114.357895 L108.164384,114.768421 C107.940639,114.894737 107.812785,115.115789 107.812785,115.368421 L107.812785,116.189474 C107.812785,116.442105 107.940639,116.663158 108.164384,116.789474 L108.835616,117.2 C109.059361,117.326316 109.347032,117.326316 109.570776,117.2 L110.242009,116.789474 C110.465753,116.694737 110.593607,116.442105 110.593607,116.189474 Z" id="Shape" fill="#FFAB9F" fill-rule="nonzero"></path>
            <path d="M114.525114,116.189474 L114.525114,115.368421 C114.525114,115.115789 114.39726,114.894737 114.173516,114.768421 L113.502283,114.357895 C113.278539,114.231579 112.990868,114.231579 112.767123,114.357895 L112.09589,114.768421 C111.872146,114.894737 111.744292,115.115789 111.744292,115.368421 L111.744292,116.189474 C111.744292,116.442105 111.872146,116.663158 112.09589,116.789474 L112.767123,117.2 C112.990868,117.326316 113.278539,117.326316 113.502283,117.2 L114.173516,116.789474 C114.39726,116.694737 114.525114,116.442105 114.525114,116.189474 Z" id="Shape" fill="#FFAB9F" fill-rule="nonzero"></path>
            <path d="M118.488585,116.189474 L118.488585,115.368421 C118.488585,115.115789 118.360731,114.894737 118.136986,114.768421 L117.465753,114.357895 C117.242009,114.231579 116.954338,114.231579 116.730594,114.357895 L116.059361,114.768421 C115.835616,114.894737 115.707763,115.115789 115.707763,115.368421 L115.707763,116.189474 C115.707763,116.442105 115.835616,116.663158 116.059361,116.789474 L116.730594,117.2 C116.954338,117.326316 117.242009,117.326316 117.465753,117.2 L118.136986,116.789474 C118.328767,116.694737 118.488585,116.442105 118.488585,116.189474 Z" id="Shape" fill="#FFAB9F" fill-rule="nonzero"></path>
            <path d="M122.420091,116.189474 L122.420091,115.368421 C122.420091,115.115789 122.292237,114.894737 122.068493,114.768421 L121.39726,114.357895 C121.173516,114.231579 120.885845,114.231579 120.662101,114.357895 L119.990868,114.768421 C119.767123,114.894737 119.639269,115.115789 119.639269,115.368421 L119.639269,116.189474 C119.639269,116.442105 119.767123,116.663158 119.990868,116.789474 L120.662101,117.2 C120.885845,117.326316 121.173516,117.326316 121.39726,117.2 L122.068493,116.789474 C122.292237,116.694737 122.420091,116.442105 122.420091,116.189474 Z" id="Shape" fill="#FFAB9F" fill-rule="nonzero"></path>
            <path d="M126.351598,116.189474 L126.351598,115.368421 C126.351598,115.115789 126.223744,114.894737 126,114.768421 L125.328767,114.357895 C125.105023,114.231579 124.817352,114.231579 124.593607,114.357895 L123.922374,114.768421 C123.69863,114.894737 123.570776,115.115789 123.570776,115.368421 L123.570776,116.189474 C123.570776,116.442105 123.69863,116.663158 123.922374,116.789474 L124.593607,117.2 C124.817352,117.326316 125.105023,117.326316 125.328767,117.2 L126,116.789474 C126.223744,116.694737 126.351598,116.442105 126.351598,116.189474 Z" id="Shape" fill="#FFAB9F" fill-rule="nonzero"></path>
            <path d="M130.315068,116.189474 L130.315068,115.368421 C130.315068,115.115789 130.187215,114.894737 129.96347,114.768421 L129.292237,114.357895 C129.068493,114.231579 128.780822,114.231579 128.557078,114.357895 L127.885845,114.768421 C127.6621,114.894737 127.534247,115.115789 127.534247,115.368421 L127.534247,116.189474 C127.534247,116.442105 127.6621,116.663158 127.885845,116.789474 L128.557078,117.2 C128.780822,117.326316 129.068493,117.326316 129.292237,117.2 L129.96347,116.789474 C130.155251,116.694737 130.315068,116.442105 130.315068,116.189474 Z" id="Shape" fill="#FFAB9F" fill-rule="nonzero"></path>
            <path d="M142.141552,116.189474 L142.141552,115.368421 C142.141552,115.115789 142.013699,114.894737 141.789954,114.768421 L141.118721,114.357895 C140.894977,114.231579 140.607306,114.231579 140.383562,114.357895 L139.712329,114.768421 C139.488584,114.894737 139.360731,115.115789 139.360731,115.368421 L139.360731,116.189474 C139.360731,116.442105 139.488584,116.663158 139.712329,116.789474 L140.383562,117.2 C140.607306,117.326316 140.894977,117.326316 141.118721,117.2 L141.789954,116.789474 C141.981735,116.694737 142.141552,116.442105 142.141552,116.189474 Z" id="Shape" fill="#FFAB9F" fill-rule="nonzero"></path>
            <path d="M146.073059,116.189474 L146.073059,115.368421 C146.073059,115.115789 145.945206,114.894737 145.721461,114.768421 L145.050228,114.357895 C144.826484,114.231579 144.538813,114.231579 144.315068,114.357895 L143.643836,114.768421 C143.420091,114.894737 143.292237,115.115789 143.292237,115.368421 L143.292237,116.189474 C143.292237,116.442105 143.420091,116.663158 143.643836,116.789474 L144.315068,117.2 C144.538813,117.326316 144.826484,117.326316 145.050228,117.2 L145.721461,116.789474 C145.945206,116.694737 146.073059,116.442105 146.073059,116.189474 Z" id="Shape" fill="#FFAB9F" fill-rule="nonzero"></path>
            <path d="M150.004566,116.189474 L150.004566,115.368421 C150.004566,115.115789 149.876712,114.894737 149.652968,114.768421 L148.981735,114.357895 C148.757991,114.231579 148.47032,114.231579 148.246575,114.357895 L147.575342,114.768421 C147.351598,114.894737 147.223744,115.115789 147.223744,115.368421 L147.223744,116.189474 C147.223744,116.442105 147.351598,116.663158 147.575342,116.789474 L148.246575,117.2 C148.47032,117.326316 148.757991,117.326316 148.981735,117.2 L149.652968,116.789474 C149.876712,116.694737 150.004566,116.442105 150.004566,116.189474 Z" id="Shape" fill="#FFAB9F" fill-rule="nonzero"></path>
            <path d="M153.968037,116.189474 L153.968037,115.368421 C153.968037,115.115789 153.840183,114.894737 153.616438,114.768421 L152.945206,114.357895 C152.721461,114.231579 152.43379,114.231579 152.210046,114.357895 L151.538813,114.768421 C151.315069,114.894737 151.187215,115.115789 151.187215,115.368421 L151.187215,116.189474 C151.187215,116.442105 151.315069,116.663158 151.538813,116.789474 L152.210046,117.2 C152.43379,117.326316 152.721461,117.326316 152.945206,117.2 L153.616438,116.789474 C153.840183,116.694737 153.968037,116.442105 153.968037,116.189474 Z" id="Shape" fill="#FFAB9F" fill-rule="nonzero"></path>
            <path d="M102.059361,118.621053 C102.027397,118.621053 101.96347,118.621053 101.931507,118.589474 C101.739726,118.526316 101.675799,118.305263 101.739726,118.147368 L103.721461,113.378947 C103.785388,113.189474 104.009132,113.126316 104.16895,113.189474 C104.360731,113.252632 104.424657,113.473684 104.360731,113.631579 L102.378995,118.4 C102.347032,118.526316 102.187215,118.621053 102.059361,118.621053 Z" id="Shape" fill="#40527C" fill-rule="nonzero"></path>
            <path d="M133.83105,118.968421 C133.799087,118.968421 133.73516,118.968421 133.703196,118.936842 C133.511416,118.873684 133.447489,118.652632 133.511416,118.494737 L135.493151,113.726316 C135.557078,113.536842 135.780822,113.473684 135.940639,113.536842 C136.13242,113.6 136.196347,113.821053 136.13242,113.978947 L134.150685,118.747368 C134.086758,118.905263 133.958904,118.968421 133.83105,118.968421 Z" id="Shape" fill="#40527C" fill-rule="nonzero"></path>
            <path d="M56,25 L56,24.2791262 C56.8221155,24.3592233 57.220717,23.8786408 57.1958044,22.8373786 L57.1958044,16.3228155 C57.2705422,15.2281553 56.8968533,14.6941748 56.0747378,14.7742718 L56.0747378,14 L60.1853155,14 C62.7513124,14 64.0218546,15.0946602 63.996942,17.2572816 C64.0716798,19.5 62.776225,20.5946602 60.1354903,20.5679612 L59.4130251,20.5679612 L59.4130251,22.7839806 C59.3382873,23.8519418 59.786714,24.3592233 60.7583051,24.2791262 L60.7583051,25 L56,25 Z M59.4130251,19.7402913 L59.7119762,19.7402913 C60.9825184,19.7402913 61.6302458,18.9126214 61.6302458,17.2572816 C61.6302458,15.6019417 60.9825184,14.7742718 59.7119762,14.7742718 L59.4130251,14.7742718 L59.4130251,19.7402913 Z" id="Shape" stroke="#40527C" stroke-width="0.8" stroke-linecap="round" stroke-linejoin="round"></path>
            <path d="M65,25 L65,24.2911695 C65.7317073,24.2911695 66.2195122,23.9236277 66.4634146,23.2147971 L69.5365854,14.1050119 L70.8536585,14 L73.7317073,23.1622912 C74,23.8448687 74.4146341,24.2386635 75,24.2911695 L75,25 L70.5121951,25 L70.5121951,24.2911695 C71.3170732,24.3174224 71.6097561,24.0548926 71.3658537,23.477327 L70.8536585,21.6921241 L68.0243902,21.6921241 L67.4634146,23.477327 C67.1707317,24.0548926 67.4878049,24.3174224 68.4146341,24.2911695 L68.4146341,25 L65,25 Z M69.5365854,16.9140812 L68.3170732,20.7207637 L70.5853659,20.7207637 L69.5365854,16.9140812 Z" id="Shape" stroke="#40527C" stroke-width="0.8" stroke-linecap="round" stroke-linejoin="round"></path>
            <path d="M77.1977186,24.587822 L76.2661597,24.8454333 L76.0532319,21.4449649 L76.7718631,21.2903981 C77.1711027,23.3770492 77.9695817,24.4074941 79.1939163,24.3302108 C80.2319392,24.3044496 80.7642586,23.763466 80.7908745,22.7330211 C80.8707224,21.9086651 79.9923954,21.1100703 78.2091255,20.2857143 C76.7718631,19.6416862 76.0532319,18.6112412 76,17.1428571 C76.1064639,15.1592506 77.2509506,14.1030445 79.4068441,14 C80.0988593,14 80.8174905,14.1288056 81.5627376,14.3606557 L82.3878327,14.1030445 L82.6007605,17.4004684 L81.8288973,17.6065574 C81.3231939,15.6229508 80.5779468,14.6697892 79.6197719,14.7213115 C78.7414449,14.7470726 78.2889734,15.236534 78.2357414,16.1639344 C78.2091255,17.0398127 78.8479087,17.7868853 80.2053232,18.35363 C82.0684411,19.1264637 83,20.2599532 83,21.7540984 C82.973384,23.8922717 81.7224335,24.9742389 79.2471483,25 C78.634981,25 77.9429658,24.8711944 77.1977186,24.587822 Z" id="Shape" stroke="#40527C" stroke-width="0.8" stroke-linecap="round" stroke-linejoin="round"></path>
            <path d="M85.1977186,24.587822 L84.2661597,24.8454333 L84.0532319,21.4449649 L84.7718631,21.2903981 C85.1711027,23.3770492 85.9695817,24.4074941 87.1939163,24.3302108 C88.2319392,24.3044496 88.7642586,23.763466 88.7908745,22.7330211 C88.8707224,21.9086651 87.9923954,21.1100703 86.2091255,20.2857143 C84.7718631,19.6416862 84.0532319,18.6112412 84,17.1428571 C84.1064639,15.1592506 85.2509506,14.1030445 87.4068441,14 C88.0988593,14 88.8174905,14.1288056 89.5627376,14.3606557 L90.3878327,14.1030445 L90.6007605,17.4004684 L89.8288973,17.6065574 C89.3231939,15.6229508 88.5779468,14.6697892 87.6197719,14.7213115 C86.7414449,14.7470726 86.2889734,15.236534 86.2357414,16.1639344 C86.2091255,17.0398127 86.8479087,17.7868853 88.2053232,18.35363 C90.0684411,19.1264637 91,20.2599532 91,21.7540984 C90.973384,23.8922717 89.7224335,24.9742389 87.2471483,25 C86.634981,25 85.9163498,24.8711944 85.1977186,24.587822 Z" id="Shape" stroke="#40527C" stroke-width="0.8" stroke-linecap="round" stroke-linejoin="round"></path>
            <path d="M92,25 L92,24.2791262 C92.8221155,24.3592233 93.220717,23.8786408 93.1958044,22.8373786 L93.1958044,16.3228155 C93.2705422,15.2281553 92.8968533,14.6941748 92.0747378,14.7742718 L92.0747378,14 L96.1853155,14 C98.7513124,14 100.021855,15.0946602 99.996942,17.2572816 C100.07168,19.5 98.776225,20.5946602 96.1354903,20.5679612 L95.4130251,20.5679612 L95.4130251,22.7839806 C95.3382873,23.8519418 95.786714,24.3592233 96.7583051,24.2791262 L96.7583051,25 L92,25 Z M95.4130251,19.7402913 L95.7119762,19.7402913 C96.9825184,19.7402913 97.6302458,18.9126214 97.6302458,17.2572816 C97.6302458,15.6019417 96.9825184,14.7742718 95.7119762,14.7742718 L95.4130251,14.7742718 L95.4130251,19.7402913 Z" id="Shape" stroke="#40527C" stroke-width="0.8" stroke-linecap="round" stroke-linejoin="round"></path>
            <path d="M105.5,25 C102.524193,24.9742991 101.024193,23.1495327 101,19.5771028 C101.024193,15.9275701 102.524193,14.0771028 105.5,14 C108.475807,14.0771028 109.975807,15.9275701 110,19.5771028 C110,23.2009346 108.5,25 105.5,25 Z M105.5,24.3060748 C106.975806,24.3060748 107.701613,22.7383178 107.701613,19.5771028 C107.725806,16.3130841 107,14.6939252 105.5,14.7453271 C104,14.6682243 103.274193,16.2873832 103.298387,19.5771028 C103.274193,22.7640187 104,24.3574766 105.5,24.3060748 Z" id="Shape" stroke="#40527C" stroke-width="0.8" stroke-linecap="round" stroke-linejoin="round"></path>
            <path d="M111,25 L111,24.2791617 C111.836066,24.3592548 112.229508,23.8786959 112.180328,22.837485 L112.180328,16.3232423 C112.254098,15.228636 111.860656,14.6946817 111,14.7747748 L111,14.000541 L114.909836,14.000541 C117.565574,13.9738433 118.868853,14.9349611 118.819672,16.9372898 C118.844262,18.5925482 117.860656,19.5002705 115.819672,19.6337591 C117.098361,19.8473408 117.983607,20.6215746 118.47541,21.9564604 C118.745902,22.5171124 118.967213,23.0510667 119.139344,23.6117188 C119.311475,23.9854868 119.606557,24.1990685 120,24.2791617 L120,25 L117.147541,25 C117.122951,24.8932091 117.07377,24.7330228 117,24.4927434 C116.434426,22.7306941 116.016393,21.5559946 115.770492,21.0220403 C115.52459,20.3545974 115.155738,20.0342248 114.663934,20.0342248 L114.368853,20.0342248 L114.368853,22.837485 C114.295082,23.8786959 114.713115,24.3592548 115.647541,24.2791617 L115.647541,25 L111,25 Z M114.344262,19.2599911 L114.639344,19.2599911 C115.868853,19.2599911 116.459016,18.512455 116.459016,16.9906852 C116.459016,15.5223108 115.844262,14.7747748 114.639344,14.7747748 L114.344262,14.7747748 L114.344262,19.2599911 Z" id="Shape" stroke="#40527C" stroke-width="0.8" stroke-linecap="round" stroke-linejoin="round"></path>
            <path d="M123.128205,25 L123.128205,24.2791262 C124,24.3592233 124.410256,23.8786408 124.358974,22.8373786 L124.358974,14.7742718 L123.820513,14.7742718 C122.871795,14.6941748 122.179487,15.815534 121.74359,18.0849515 L121,17.9781553 L121.205128,14 L129.794872,14 L130,17.9247573 L129.25641,18.0849515 C128.769231,15.842233 128.076923,14.7475728 127.179487,14.7742718 L126.589744,14.7742718 L126.589744,22.8907767 C126.512821,23.8786408 126.948718,24.3325243 127.871795,24.2791262 L127.871795,25 L123.128205,25 Z" id="Shape" stroke="#40527C" stroke-width="0.8" stroke-linecap="round" stroke-linejoin="round"></path>
        </g>
    </g>
</svg>