<?xml version="1.0" encoding="UTF-8"?>
<svg width="14px" height="14px" viewBox="0 0 14 14" version="1.1" xmlns="http://www.w3.org/2000/svg" xmlns:xlink="http://www.w3.org/1999/xlink">
    <!-- Generator: Sketch 52.3 (67297) - http://www.bohemiancoding.com/sketch -->
    <title>otc_wechat_small</title>
    <desc>Created with Sketch.</desc>
    <g id="***切图" stroke="none" stroke-width="1" fill="none" fill-rule="evenodd">
        <g id="OTC" transform="translate(-83.000000, -85.000000)" fill="#00C800">
            <path d="M85,85 L95,85 C96.1045695,85 97,85.8954305 97,87 L97,97 C97,98.1045695 96.1045695,99 95,99 L85,99 C83.8954305,99 83,98.1045695 83,97 L83,87 C83,85.8954305 83.8954305,85 85,85 Z M88.7550984,93.0597058 C88.6095793,93.1332456 88.4314685,93.0794678 88.351968,92.9379867 L88.3321896,92.8947217 L87.5003333,91.0833574 C87.4773003,91.0363143 87.4807463,90.9807529 87.5094191,90.9368635 C87.538092,90.8929741 87.5878179,90.8671452 87.6405273,90.8687626 C87.6734114,90.868884 87.7054014,90.879391 87.731857,90.8987597 L88.7137964,91.5910009 C88.7881136,91.6393134 88.8750726,91.664983 88.963935,91.6648399 C89.0171468,91.6648542 89.0699365,91.6554782 89.1198354,91.6371503 L93.738674,89.5985001 C92.9079811,88.6345544 91.5444348,88 90.0017194,88 C87.4764829,88 85.43,89.6913758 85.43,91.777906 C85.43,92.9160658 86.046039,93.9417364 87.0093636,94.6339775 C87.0896791,94.6904706 87.1373849,94.7820762 87.1373415,94.8797231 C87.1365186,94.9123916 87.131235,94.9447988 87.1216351,94.97606 C87.0442666,95.2610326 86.9215242,95.716758 86.915707,95.7381021 C86.9025135,95.7737759 86.8941036,95.8110141 86.8906932,95.8488607 C86.8910121,95.9322013 86.9590619,95.9996837 87.0431032,96 C87.074611,95.9986734 87.1051674,95.9889051 87.1315243,95.9717335 L88.1320787,95.398904 C88.2048381,95.3534039 88.2886621,95.328287 88.374655,95.3262186 C88.4201735,95.3262043 88.4654479,95.3328125 88.5090318,95.3458321 C88.9942167,95.4849609 89.4966579,95.5560288 90.0017194,95.5569657 C92.5263743,95.5569657 94.5728571,93.8655898 94.5728571,91.7790597 C94.5704621,91.1582786 94.389876,90.5510058 94.0522198,90.0282665 L88.788838,93.0406692 L88.7550984,93.0597058 Z" id="otc_wechat_small"></path>
        </g>
    </g>
</svg>