<?xml version="1.0" encoding="UTF-8"?>
<svg width="14px" height="14px" viewBox="0 0 14 14" version="1.1" xmlns="http://www.w3.org/2000/svg" xmlns:xlink="http://www.w3.org/1999/xlink">
    <!-- Generator: Sketch 52.3 (67297) - http://www.bohemiancoding.com/sketch -->
    <title>otc_alipay_small</title>
    <desc>Created with Sketch.</desc>
    <g id="***切图" stroke="none" stroke-width="1" fill="none" fill-rule="evenodd">
        <g id="OTC" transform="translate(-51.000000, -85.000000)" fill="#01A0E9">
            <path d="M53,85 L63,85 C64.1045695,85 65,85.8954305 65,87 L65,97 C65,98.1045695 64.1045695,99 63,99 L53,99 C51.8954305,99 51,98.1045695 51,97 L51,87 C51,85.8954305 51.8954305,85 53,85 Z M61.2457068,93.601076 C60.7925746,93.4490849 60.1831899,93.2161266 59.5056223,92.9732251 C59.932253,92.227011 60.2507773,91.4240043 60.45166,90.5882439 L58.2172495,90.5882439 L58.2172495,89.7856744 L60.9545089,89.7856744 L60.9545089,89.3382241 L58.2172495,89.3382241 L58.2172495,88.0001346 L57.099334,88.0001346 C57.0475125,87.9981786 56.9971653,88.0176104 56.9600951,88.0538747 C56.9230249,88.090139 56.9024914,88.140047 56.9033082,88.191899 L56.9033082,89.3382241 L54.1347982,89.3382241 L54.1347982,89.7856744 L56.9033082,89.7856744 L56.9033082,90.5882439 L54.6177604,90.5882439 L54.6177604,91.0371147 L59.0510696,91.0371147 C58.8952851,91.5795933 58.6809529,92.1035165 58.4118549,92.5996396 C56.974332,92.1195183 55.4387962,91.7359895 54.4742922,91.9774706 C53.8563847,92.1280412 53.4600716,92.4036137 53.2256928,92.6877092 C52.1560736,93.9874457 52.9245517,95.9548066 55.1859513,95.9548066 C56.5226203,95.9548066 57.8124135,95.2104765 58.8110089,93.9860253 C60.3010895,94.6962638 63.25,95.926397 63.25,95.926397 L63.25,94.1735282 C63.25,94.1735282 62.8792555,94.1451187 61.2457068,93.6053374 L61.2457068,93.601076 Z M54.9743002,95.1962718 C53.2114881,95.1962718 52.6887525,93.8098861 53.5609255,93.0513513 C53.8521233,92.7956654 54.3848022,92.6706634 54.6674771,92.6422539 C55.7157893,92.5385591 56.6859752,92.9391336 57.8294592,93.4945402 C57.0240487,94.5414318 55.9998847,95.1962718 54.9743002,95.1962718 Z" id="otc_alipay_small"></path>
        </g>
    </g>
</svg>