<?xml version="1.0" encoding="UTF-8"?>
<svg width="14px" height="14px" viewBox="0 0 14 14" version="1.1" xmlns="http://www.w3.org/2000/svg" xmlns:xlink="http://www.w3.org/1999/xlink">
    <!-- Generator: Sketch 52.3 (67297) - http://www.bohemiancoding.com/sketch -->
    <title>otc_bank_small</title>
    <desc>Created with Sketch.</desc>
    <g id="***切图" stroke="none" stroke-width="1" fill="none" fill-rule="evenodd">
        <g id="OTC" transform="translate(-103.000000, -85.000000)" fill="#FF9E2F">
            <path d="M105,85 L115,85 C116.104569,85 117,85.8954305 117,87 L117,97 C117,98.1045695 116.104569,99 115,99 L105,99 C103.895431,99 103,98.1045695 103,97 L103,87 C103,85.8954305 103.895431,85 105,85 Z M106.333333,88.5 C105.781049,88.5 105.333333,88.9477153 105.333333,89.5 L105.333333,90.25 L114.666667,90.25 L114.666667,89.5 C114.666667,88.9477153 114.218951,88.5 113.666667,88.5 L106.333333,88.5 Z M105.333333,90.8333333 L105.333333,94.5 C105.333333,95.0522847 105.781049,95.5 106.333333,95.5 L113.666667,95.5 C114.218951,95.5 114.666667,95.0522847 114.666667,94.5 L114.666667,90.8333333 L105.333333,90.8333333 Z M106.5,92 L107.083333,92 L107.083333,92.5833333 L106.5,92.5833333 L106.5,92 Z M107.666667,92 L108.25,92 L108.25,92.5833333 L107.666667,92.5833333 L107.666667,92 Z M108.833333,92 L109.416667,92 L109.416667,92.5833333 L108.833333,92.5833333 L108.833333,92 Z M110,92 L110.583333,92 L110.583333,92.5833333 L110,92.5833333 L110,92 Z M111.166667,93.75 L113.5,93.75 L113.5,94.3333333 L111.166667,94.3333333 L111.166667,93.75 Z" id="otc_bank_small"></path>
        </g>
    </g>
</svg>