<?xml version="1.0" encoding="UTF-8"?>
<svg width="20px" height="20px" viewBox="0 0 20 20" version="1.1" xmlns="http://www.w3.org/2000/svg" xmlns:xlink="http://www.w3.org/1999/xlink">
    <!-- Generator: Sketch 52.3 (67297) - http://www.bohemiancoding.com/sketch -->
    <title>tlb_qa_questions_en</title>
    <desc>Created with Sketch.</desc>
    <g id="***切图" stroke="none" stroke-width="1" fill="none" fill-rule="evenodd">
        <g id="套利宝-copy-2" transform="translate(-903.000000, -276.000000)" fill="#FF9E2F">
            <g id="tlb_qa_questions_en" transform="translate(903.000000, 276.000000)">
                <rect id="Rectangle-12" fill-opacity="0.2" x="0" y="0" width="20" height="20" rx="2"></rect>
                <path d="M9.99379509,5 C11.3340548,5 12.4012987,5.43478261 13.1831169,6.31677019 C13.9277056,7.14906832 14.3,8.25465839 14.3,9.62111801 C14.3,10.9503106 13.9401154,12.0310559 13.2203463,12.8757764 C13.5430014,13.310559 13.8780664,13.757764 14.2007215,14.2298137 L13.3320346,15 C12.9969697,14.515528 12.6743146,14.0559006 12.3516595,13.621118 C11.6939394,14.0186335 10.9121212,14.2173913 9.99379509,14.2173913 C8.64112554,14.2173913 7.57388167,13.7701863 6.8044733,12.9006211 C6.05988456,12.0559006 5.7,10.9627329 5.7,9.62111801 C5.7,8.26708075 6.05988456,7.17391304 6.8044733,6.32919255 C7.57388167,5.43478261 8.64112554,5 9.99379509,5 Z M9.99379509,6.19254658 C9.05064935,6.19254658 8.31847042,6.50310559 7.7972583,7.14906832 C7.3008658,7.75776398 7.05266955,8.57763975 7.05266955,9.62111801 C7.05266955,10.6521739 7.3008658,11.4720497 7.7972583,12.0807453 C8.31847042,12.7018634 9.05064935,13.0248447 9.99379509,13.0248447 C10.6142857,13.0248447 11.1479076,12.8881988 11.5822511,12.6273292 C11.1354978,12.068323 10.6887446,11.5590062 10.2544012,11.0993789 L11.0362193,10.3291925 C11.4829726,10.8012422 11.9297258,11.310559 12.3764791,11.8322981 C12.7487734,11.2608696 12.9349206,10.5279503 12.9349206,9.62111801 C12.9349206,8.55279503 12.6743146,7.72049689 12.1779221,7.11180124 C11.6691198,6.49068323 10.9369408,6.19254658 9.99379509,6.19254658 Z" id="Q"></path>
            </g>
        </g>
    </g>
</svg>