<?xml version="1.0" encoding="UTF-8"?>
<svg width="52px" height="52px" viewBox="0 0 52 52" version="1.1" xmlns="http://www.w3.org/2000/svg" xmlns:xlink="http://www.w3.org/1999/xlink">
    <!-- Generator: Sketch 50.2 (55047) - http://www.bohemiancoding.com/sketch -->
    <title>tlb_step_one_white</title>
    <desc>Created with Sketch.</desc>
    <defs></defs>
    <g id="***切图" stroke="none" stroke-width="1" fill="none" fill-rule="evenodd" opacity="0.8">
        <g id="其他" transform="translate(-553.000000, -305.000000)">
            <g id="tlb_step_one_white" transform="translate(549.000000, 301.000000)">
                <rect id="Rectangle-26" fill="#D8D8D8" opacity="0" x="0" y="0" width="60" height="60"></rect>
                <g id="Group-26" transform="translate(4.000000, 4.000000)" fill="#FFFFFF">
                    <path d="M48,-0.0001 L4,-0.0001 C1.791,-0.0001 0,1.7909 0,3.9999 L0,47.9999 C0,50.2089 1.791,51.9999 4,51.9999 L48,51.9999 C50.209,51.9999 52,50.2089 52,47.9999 L52,3.9999 C52,1.7909 50.209,-0.0001 48,-0.0001 M48,1.9999 C49.103,1.9999 50,2.8969 50,3.9999 L50,47.9999 C50,49.1029 49.103,49.9999 48,49.9999 L4,49.9999 C2.897,49.9999 2,49.1029 2,47.9999 L2,3.9999 C2,2.8969 2.897,1.9999 4,1.9999 L48,1.9999" id="Fill-1" fill-opacity="0.8"></path>
                    <path d="M34.216,23.686 C33.169,21.88 31.549,20.451 29.6,19.651 C30.762,18.643 31.5,17.159 31.5,15.5 C31.5,12.462 29.037,10 26,10 C22.962,10 20.5,12.462 20.5,15.5 C20.5,17.159 21.237,18.643 22.399,19.651 C20.45,20.451 18.831,21.88 17.783,23.686 C16.662,22.07 16,20.113 16,18 C16,12.487 20.486,8 26,8 C31.514,8 36,12.487 36,18 C36,20.113 35.338,22.07 34.216,23.686 M22.5,15.5 C22.5,13.57 24.07,12 26,12 C27.929,12 29.5,13.57 29.5,15.5 C29.5,17.295 28.136,18.761 26.394,18.96 C26.263,18.975 26.134,19 26,19 C25.865,19 25.737,18.975 25.606,18.96 C23.863,18.761 22.5,17.295 22.5,15.5 M26,28 C23.37,28 20.982,26.972 19.195,25.307 C20.307,22.9 22.655,21.182 25.423,20.969 C25.614,20.955 25.805,20.94 26,20.94 C26.194,20.94 26.385,20.955 26.576,20.969 C29.344,21.181 31.692,22.9 32.805,25.307 C31.018,26.972 28.63,28 26,28 M26,6 C19.372,6 14,11.373 14,18 C14,20.976 15.089,23.693 16.882,25.79 C17.392,26.387 17.961,26.931 18.578,27.418 C20.621,29.031 23.195,30 26,30 C28.804,30 31.379,29.031 33.422,27.418 C34.039,26.931 34.607,26.387 35.117,25.79 C36.911,23.693 38,20.976 38,18 C38,11.373 32.627,6 26,6" id="Fill-4"></path>
                    <path d="M45,33 L7,33 C5.896,33 5,33.896 5,35 L5,44 C5,45.104 5.896,46 7,46 L45,46 C46.104,46 47,45.104 47,44 L47,35 C47,33.896 46.104,33 45,33 Z M7,44 L45,44 L45,35 L7,35 L7,44 Z" id="Fill-6"></path>
                    <path d="M14,39.5 C14,40.604 13.104,41.5 12,41.5 C10.896,41.5 10,40.604 10,39.5 C10,38.395 10.896,37.5 12,37.5 C13.104,37.5 14,38.395 14,39.5 Z M21,39.5 C21,40.604 20.104,41.5 19,41.5 C17.896,41.5 17,40.604 17,39.5 C17,38.395 17.896,37.5 19,37.5 C20.104,37.5 21,38.395 21,39.5 Z M28,39.5 C28,40.604 27.104,41.5 26,41.5 C24.896,41.5 24,40.604 24,39.5 C24,38.395 24.896,37.5 26,37.5 C27.104,37.5 28,38.395 28,39.5 Z M35,39.5 C35,40.604 34.104,41.5 33,41.5 C31.896,41.5 31,40.604 31,39.5 C31,38.395 31.896,37.5 33,37.5 C34.104,37.5 35,38.395 35,39.5 Z M42,39.5 C42,40.604 41.104,41.5 40,41.5 C38.896,41.5 38,40.604 38,39.5 C38,38.395 38.896,37.5 40,37.5 C41.104,37.5 42,38.395 42,39.5 Z" id="Combined-Shape"></path>
                </g>
            </g>
        </g>
    </g>
</svg>