<?xml version="1.0" encoding="UTF-8"?>
<svg width="14px" height="14px" viewBox="0 0 14 14" version="1.1" xmlns="http://www.w3.org/2000/svg" xmlns:xlink="http://www.w3.org/1999/xlink">
    <!-- Generator: Sketch 50.2 (55047) - http://www.bohemiancoding.com/sketch -->
    <title>tlb_wechat_hover</title>
    <desc>Created with Sketch.</desc>
    <defs></defs>
    <g id="***切图" stroke="none" stroke-width="1" fill="none" fill-rule="evenodd">
        <g id="其他" transform="translate(-463.000000, -606.000000)" fill="#FFFFFF" fill-rule="nonzero">
            <g id="tlb_wechat_hover" transform="translate(463.000000, 606.000000)">
                <path d="M13.2919141,3.90372899 C12.9429678,3.19544865 12.4448424,2.56055549 11.8113746,2.01671652 C10.5218897,0.909677893 8.81150706,0.299987793 6.99529555,0.299987793 C5.17909925,0.299987793 3.46871659,0.909662359 2.17923167,2.01670099 C1.54576393,2.56053996 1.04763852,3.19543313 0.698692229,3.90371346 C0.334616681,4.64268187 0.150024414,5.42834272 0.150024414,6.23886479 C0.150024414,7.17997038 0.409746039,8.11677186 0.90108989,8.94800642 C1.33766428,9.68655528 1.95919587,10.3472575 2.70656646,10.8692497 L2.67951624,13.6040761 L5.05940318,11.937163 C5.68570922,12.0968652 6.33602442,12.1777418 6.99526514,12.1777418 C8.81147664,12.1777418 10.5218441,11.5680672 11.811329,10.4610441 C12.4447968,9.91720517 12.9429374,9.28232756 13.2918837,8.57404721 C13.655944,7.8350788 13.8405515,7.04941795 13.8405515,6.23889588 C13.8405819,5.42835827 13.6559744,4.6426974 13.2919141,3.90372899 Z M6.99528034,11.400829 C6.34329255,11.400829 5.70165959,11.3136904 5.08820201,11.1418218 L4.91819162,11.094197 L3.45449964,12.1193956 L3.47099739,10.4501829 L3.29321709,10.3342675 C1.77883068,9.34685793 0.910289098,7.85414425 0.910289098,6.23888033 C0.910289098,3.39255143 3.64000422,1.0769006 6.99529555,1.07690062 C8.63290566,1.07690062 10.1695983,1.6219205 11.322342,2.61156759 C12.4560031,3.58482182 13.0803172,4.87303652 13.080302,6.23888033 C13.080302,9.08519368 10.3505565,11.400829 6.99528034,11.400829 Z" id="Shape" stroke="#FFFFFF" stroke-width="0.25"></path>
                <path d="M2.81005859,6.24886627 C2.81005859,5.83527885 3.14584503,5.5 3.56005859,5.5 C3.97427216,5.5 4.31005859,5.83527885 4.31005859,6.24886627 C4.31005859,6.66245369 3.97427216,6.99773254 3.56005859,6.99773254 C3.14584503,6.99773254 2.81005859,6.66245369 2.81005859,6.24886627 Z M6.24869014,6.24886627 C6.24869014,5.83527885 6.58447657,5.5 6.99869014,5.5 C7.4129037,5.5 7.74869014,5.83527885 7.74869014,6.24886627 C7.74869014,6.66245369 7.4129037,6.99773254 6.99869014,6.99773254 C6.58447657,6.99773254 6.24869014,6.66245369 6.24869014,6.24886627 Z M9.68735208,6.24886627 C9.68735208,5.83529601 10.0231385,5.50003107 10.4373521,5.50003107 C10.8515656,5.50003107 11.1873521,5.83529601 11.1873521,6.24886627 C11.1873521,6.66243653 10.8515656,6.99770147 10.4373521,6.99770147 C10.0231385,6.99770147 9.68735208,6.66243653 9.68735208,6.24886627 Z" id="Combined-Shape"></path>
            </g>
        </g>
    </g>
</svg>