<?xml version="1.0" encoding="UTF-8"?>
<svg width="20px" height="20px" viewBox="0 0 20 20" version="1.1" xmlns="http://www.w3.org/2000/svg" xmlns:xlink="http://www.w3.org/1999/xlink">
    <!-- Generator: Sketch 52.3 (67297) - http://www.bohemiancoding.com/sketch -->
    <title>tlb_time</title>
    <desc>Created with Sketch.</desc>
    <g id="***切图" stroke="none" stroke-width="1" fill="none" fill-rule="evenodd">
        <g id="套利宝-copy-2" transform="translate(-621.000000, -426.000000)" fill="#F25C48" fill-rule="nonzero">
            <path d="M632,435.750555 L632,429 C632,428.447715 631.552285,428 631,428 C630.447715,428 630,428.447715 630,429 L630,436.5 C630,436.679497 630.094585,436.836903 630.236632,436.925095 C630.318959,437.047423 630.429725,437.153358 630.566025,437.232051 L634.896152,439.732051 C635.374445,440.008193 635.986035,439.844318 636.262178,439.366025 C636.53832,438.887733 636.374445,438.276142 635.896152,438 L632,435.750555 Z M631,446 C625.477153,446 621,441.522847 621,436 C621,430.477153 625.477153,426 631,426 C636.522847,426 641,430.477153 641,436 C641,441.522847 636.522847,446 631,446 Z" id="tlb_time"></path>
        </g>
    </g>
</svg>