<?xml version="1.0" encoding="UTF-8"?>
<svg width="54px" height="54px" viewBox="0 0 54 54" version="1.1" xmlns="http://www.w3.org/2000/svg" xmlns:xlink="http://www.w3.org/1999/xlink">
    <!-- Generator: Sketch 50.2 (55047) - http://www.bohemiancoding.com/sketch -->
    <title>tlb_step_three_white</title>
    <desc>Created with Sketch.</desc>
    <defs></defs>
    <g id="***切图" stroke="none" stroke-width="1" fill="none" fill-rule="evenodd" opacity="0.8">
        <g id="其他" transform="translate(-695.000000, -304.000000)">
            <g id="tlb_step_three_white" transform="translate(692.000000, 301.000000)">
                <rect id="Rectangle-25" fill-opacity="0" fill="#D8D8D8" x="0" y="0" width="60" height="60"></rect>
                <g id="Group-28" transform="translate(3.000000, 3.000000)">
                    <path d="M10,27 L2,27 C0.896,27 0,27.896 0,29 L0,49 C0,50.104 0.896,51 2,51 L10,51 C11.104,51 12,50.104 12,49 L12,29 C12,27.896 11.104,27 10,27 Z M2,49 L10,49 L10,29 L2,29 L2,49 Z" id="Fill-1" fill="#FFFFFF"></path>
                    <path d="M33,0 C25.268,0 19,6.268 19,14 C19,21.731 25.268,28 33,28 C40.732,28 47,21.731 47,14 C47,6.268 40.732,0 33,0 M33,2 C39.617,2 45,7.383 45,14 C45,20.616 39.617,26 33,26 C26.383,26 21,20.616 21,14 C21,7.383 26.383,2 33,2" id="Fill-4" fill="#FFFFFF"></path>
                    <path d="M31.5857,11.2293997 L28.672,8.38253994 L30.086,7 L32.9999,9.84772637 L35.9138,7 L37.3278,8.38253994 L34.4141,11.2293997 L39,11.2293997 L39,13.1835198 L34,13.1835198 L34,15.1376398 L39,15.1376398 L39,17.0917599 L34,17.0917599 L34,21 L32,21 L32,17.0917599 L27,17.0917599 L27,15.1376398 L32,15.1376398 L32,13.1835198 L27,13.1835198 L27,11.2293997 L31.5857,11.2293997 Z" id="Combined-Shape" fill="#FFFFFF"></path>
                    <path d="M12.0712105,47.1535024 C12.0712105,47.1535024 27.8483027,52.7037323 29.9292332,52.9957966 C31.3920165,53.2012488 43.9755135,45.8251131 51.1143708,41.8490094 C52.966834,40.8187272 53.5652004,38.4016429 52.4100071,36.5999079 C51.5238314,35.2181414 49.8454384,34.6037991 48.2995761,35.0993014 C43.9497985,36.4951676 36.8574259,39.1962593 36.8574259,39.1962593 C36.8574259,39.1962593 39.0501173,34.6088347 33.5144864,34.6662405 C29.7106563,34.7055181 24.7644905,34.6662405 24.7644905,34.6662405 C24.7644905,34.6662405 19.745136,31.0879485 17.3783743,31.015436 C15.0116127,30.9409092 12,31.1604611 12,31.1604611" id="Stroke-12" stroke="#FFFFFF" stroke-width="2" stroke-linecap="round" stroke-linejoin="round"></path>
                    <path d="M21,40.5576987 C21,40.5576987 36.471908,42.572997 37,38" id="Stroke-13" stroke="#FFFFFF" stroke-width="2" stroke-linecap="round" stroke-linejoin="round"></path>
                </g>
            </g>
        </g>
    </g>
</svg>