<?xml version="1.0" encoding="UTF-8"?>
<svg width="56px" height="58px" viewBox="0 0 56 58" version="1.1" xmlns="http://www.w3.org/2000/svg" xmlns:xlink="http://www.w3.org/1999/xlink">
    <!-- Generator: Sketch 50.2 (55047) - http://www.bohemiancoding.com/sketch -->
    <title>tlb_step_four_white</title>
    <desc>Created with Sketch.</desc>
    <defs></defs>
    <g id="***切图" stroke="none" stroke-width="1" fill="none" fill-rule="evenodd" opacity="0.8">
        <g id="其他" transform="translate(-775.000000, -302.000000)">
            <g id="tlb_step_four_white" transform="translate(773.000000, 301.000000)">
                <rect id="Rectangle-26-Copy" fill="#D8D8D8" opacity="0" x="0" y="0" width="60" height="60"></rect>
                <path d="M43,29 C34.716,29 28,35.716 28,44 C28,52.284 34.716,59 43,59 C51.284,59 58,52.284 58,44 C58,35.716 51.284,29 43,29 M39.096,48.51 L39,48.606 L40.414,50.02 L51.021,39.414 L49.606,38 L40.51,47.096 L35.414,42 L34,43.414 L39.096,48.51 Z M43,31 C50.168,31 56,36.832 56,44 C56,51.168 50.168,57 43,57 C35.832,57 30,51.168 30,44 C30,36.832 35.832,31 43,31 Z M29,1 C31.2,1 33,2.8 33,5 C33,7.2 31.2,9 29,9 L23,9 C20.8,9 19,7.2 19,5 C19,2.8 20.8,1 23,1 L29,1 Z M29,3 L23,3 C21.897,3 21,3.897 21,5 C21,6.103 21.897,7 23,7 L29,7 C30.103,7 31,6.103 31,5 C31,3.897 30.103,3 29,3 Z M11,19 L11,17 L41,17 L41,19 L11,19 Z M11,30 L11,28 L32,28 L32,30 L11,30 Z M11,41 L11,39 L25,39 L25,41 L11,41 Z M46,8 C46,6.897 45.103,6 44,6 L35,6 L35,4 L44,4 C46.209,4 48,5.791 48,8 L48,27.857 C47.351,27.658 46.68,27.509 46,27.388 L46,8 Z M27.95,52 C28.317,52.699 28.736,53.363 29.193,54 L6,54 C3.791,54 2,52.209 2,50 L2,8 C2,5.791 3.791,4 6,4 L17,4 L17,6 L6,6 C4.897,6 4,6.897 4,8 L4,50 C4,51.103 4.897,52 6,52 L27.95,52 Z" id="Combined-Shape" fill="#FFFFFF"></path>
            </g>
        </g>
    </g>
</svg>