<?xml version="1.0" encoding="UTF-8"?>
<svg width="14px" height="14px" viewBox="0 0 14 14" version="1.1" xmlns="http://www.w3.org/2000/svg" xmlns:xlink="http://www.w3.org/1999/xlink">
    <!-- Generator: Sketch 50.2 (55047) - http://www.bohemiancoding.com/sketch -->
    <title>code_hover</title>
    <desc>Created with Sketch.</desc>
    <defs></defs>
    <g id="切图" stroke="none" stroke-width="1" fill="none" fill-rule="evenodd">
        <g id="Artboard" transform="translate(-175.000000, -101.000000)" stroke="#FF9E2F">
            <path d="M175.5,101.5 L175.5,106.5 L180.5,106.5 L180.5,101.5 L175.5,101.5 Z M175.5,109.5 L175.5,114.5 L180.5,114.5 L180.5,109.5 L175.5,109.5 Z M183.5,101.5 L183.5,106.5 L188.5,106.5 L188.5,101.5 L183.5,101.5 Z M186,109.5 L189,109.5 L188.5,109 L188.5,110 L189,109.5 L186,109.5 Z M186,109.5 L183,109.5 L183.5,110 L183.5,109 L183,109.5 L186,109.5 Z M183.5,113 L183.5,115 L184,114.5 L183,114.5 L183.5,115 L183.5,113 Z M183.5,113 L183.5,111 L183,111.5 L184,111.5 L183.5,111 L183.5,113 Z M188.5,112.5 L188.5,114 L189,113.5 L188,113.5 L188.5,114 L188.5,112.5 Z M188.5,112.5 L188.5,111 L188,111.5 L189,111.5 L188.5,111 L188.5,112.5 Z M186,112 L186,113 L186.5,112.5 L185.5,112.5 L186,113 L186,112 Z M186,112 L186,111 L185.5,111.5 L186.5,111.5 L186,111 L186,112 Z" id="code_hover"></path>
        </g>
    </g>
</svg>