<?xml version="1.0" encoding="UTF-8"?>
<svg width="14px" height="14px" viewBox="0 0 14 14" version="1.1" xmlns="http://www.w3.org/2000/svg" xmlns:xlink="http://www.w3.org/1999/xlink">
    <!-- Generator: Sketch 50.2 (55047) - http://www.bohemiancoding.com/sketch -->
    <title>code_normal</title>
    <desc>Created with Sketch.</desc>
    <defs></defs>
    <g id="切图" stroke="none" stroke-width="1" fill="none" fill-rule="evenodd">
        <g id="Artboard" transform="translate(-149.000000, -101.000000)" stroke="#999999">
            <path d="M149.5,101.5 L149.5,106.5 L154.5,106.5 L154.5,101.5 L149.5,101.5 Z M149.5,109.5 L149.5,114.5 L154.5,114.5 L154.5,109.5 L149.5,109.5 Z M157.5,101.5 L157.5,106.5 L162.5,106.5 L162.5,101.5 L157.5,101.5 Z M160,109.5 L163,109.5 L162.5,109 L162.5,110 L163,109.5 L160,109.5 Z M160,109.5 L157,109.5 L157.5,110 L157.5,109 L157,109.5 L160,109.5 Z M157.5,113 L157.5,115 L158,114.5 L157,114.5 L157.5,115 L157.5,113 Z M157.5,113 L157.5,111 L157,111.5 L158,111.5 L157.5,111 L157.5,113 Z M162.5,112.5 L162.5,114 L163,113.5 L162,113.5 L162.5,114 L162.5,112.5 Z M162.5,112.5 L162.5,111 L162,111.5 L163,111.5 L162.5,111 L162.5,112.5 Z M160,112 L160,113 L160.5,112.5 L159.5,112.5 L160,113 L160,112 Z M160,112 L160,111 L159.5,111.5 L160.5,111.5 L160,111 L160,112 Z" id="code_normal"></path>
        </g>
    </g>
</svg>