<?xml version="1.0" encoding="UTF-8"?>
<svg width="20px" height="20px" viewBox="0 0 20 20" version="1.1" xmlns="http://www.w3.org/2000/svg" xmlns:xlink="http://www.w3.org/1999/xlink">
    <!-- Generator: Sketch 50.2 (55047) - http://www.bohemiancoding.com/sketch -->
    <title>news</title>
    <desc>Created with Sketch.</desc>
    <defs></defs>
    <g id="切图" stroke="none" stroke-width="1" fill="none" fill-rule="evenodd">
        <g id="Artboard" transform="translate(-350.000000, -78.000000)">
            <g id="news" transform="translate(350.000000, 78.000000)">
                <circle id="Oval" fill="#FF9E2F" cx="10" cy="10" r="10"></circle>
                <path d="M10.3333333,4 C11.069713,4 11.6666667,4.59695367 11.6666667,5.33333333 L11.6666667,10.6666667 C11.6666667,11.4030463 11.069713,12 10.3333333,12 C9.59695367,12 9,11.4030463 9,10.6666667 L9,5.33333333 C9,4.59695367 9.59695367,4 10.3333333,4 Z M10.3333333,16 C9.59695367,16 9,15.4030463 9,14.6666667 C9,13.930287 9.59695367,13.3333333 10.3333333,13.3333333 C11.069713,13.3333333 11.6666667,13.930287 11.6666667,14.6666667 C11.6666667,15.4030463 11.069713,16 10.3333333,16 Z" id="Combined-Shape" fill="#FFFFFF"></path>
            </g>
        </g>
    </g>
</svg>