<?xml version="1.0" encoding="UTF-8"?>
<svg width="14px" height="15px" viewBox="0 0 14 15" version="1.1" xmlns="http://www.w3.org/2000/svg" xmlns:xlink="http://www.w3.org/1999/xlink">
    <!-- Generator: Sketch 49 (51002) - http://www.bohemiancoding.com/sketch -->
    <title>full screen</title>
    <desc>Created with Sketch.</desc>
    <defs></defs>
    <g id="切图" stroke="none" stroke-width="1" fill="none" fill-rule="evenodd" opacity="0.800000012">
        <g id="Artboard" transform="translate(-147.000000, -555.000000)" fill="#FFFFFF" fill-rule="nonzero">
            <path d="M147.233,555.040305 C147.156,555.040305 147.117,555.080611 147.078,555.120916 C147.038,555.161222 147,555.200494 147,555.281105 L147,560.425732 C147,560.466038 147,560.506343 147.039,560.506343 L147.117,560.506343 L148.789,558.778377 L151.044,561.107824 C151.08695,561.15033 151.141327,561.178429 151.2,561.188435 C151.278,561.188435 151.317,561.14813 151.356,561.107824 L152.872,559.540046 C152.912951,559.495939 152.940127,559.440128 152.95,559.379858 C152.95,559.299247 152.911,559.258941 152.872,559.218636 L150.694,556.808577 L152.328,555.120916 C152.367,555.079577 152.367,555.079577 152.328,555.040305 C152.328,555 152.288,555 152.288,555 L147.233,555.040305 Z M147.233,569.468619 C147.156,569.468619 147.117,569.428314 147.078,569.388008 C147.037049,569.343901 147.009873,569.28809 147,569.22782 L147,564.042887 C147,564.002582 147,563.962276 147.039,563.962276 L147.117,563.962276 L148.789,565.690243 L151.044,563.359762 C151.08695,563.317256 151.141327,563.289157 151.2,563.279151 C151.278,563.279151 151.317,563.319456 151.356,563.359762 L152.872,564.92754 C152.912951,564.971647 152.940127,565.027458 152.95,565.087728 C152.940318,565.148365 152.913129,565.204562 152.872,565.24895 L150.617,567.579431 L152.25,569.268126 C152.289,569.307397 152.289,569.307397 152.25,569.347703 C152.25,569.389042 152.211,569.389042 152.172,569.389042 L147.233,569.468619 Z M160.767,555.040305 C160.844,555.040305 160.883,555.080611 160.922,555.120916 C160.962,555.161222 161,555.200494 161,555.281105 L161,560.425732 C161,560.466038 161,560.506343 160.961,560.506343 L160.883,560.506343 L159.211,558.778377 L156.956,561.108858 C156.91305,561.151364 156.858673,561.179462 156.8,561.189469 C156.722,561.189469 156.683,561.149163 156.644,561.108858 L155.128,559.541079 C155.087049,559.496972 155.059873,559.441161 155.05,559.380891 C155.05,559.30028 155.089,559.259975 155.128,559.219669 L157.383,556.889188 L155.75,555.200494 C155.711,555.161222 155.711,555.161222 155.75,555.120916 C155.672,555 155.711,555 155.711,555 L160.767,555.040305 Z M160.767,569.468619 C160.844,569.468619 160.883,569.428314 160.922,569.388008 C160.962951,569.343901 160.990127,569.28809 161,569.22782 L161,564.042887 C161,564.002582 161,563.962276 160.961,563.962276 L160.883,563.962276 L159.211,565.690243 L156.956,563.359762 C156.91305,563.317256 156.858673,563.289157 156.8,563.279151 C156.722,563.279151 156.683,563.319456 156.644,563.359762 L155.128,564.92754 C155.087049,564.971647 155.059873,565.027458 155.05,565.087728 C155.05,565.128033 155.089,565.208644 155.128,565.24895 L157.383,567.579431 L155.75,569.268126 C155.711,569.307397 155.711,569.307397 155.75,569.347703 C155.75,569.389042 155.789,569.389042 155.828,569.389042 L160.767,569.468619 Z" id="full-screen"></path>
        </g>
    </g>
</svg>