<?xml version="1.0" encoding="UTF-8"?>
<svg width="699px" height="237px" viewBox="0 0 699 237" version="1.1" xmlns="http://www.w3.org/2000/svg" xmlns:xlink="http://www.w3.org/1999/xlink">
    <!-- Generator: Sketch 51.3 (57544) - http://www.bohemiancoding.com/sketch -->
    <title>banner_</title>
    <desc>Created with Sketch.</desc>
    <defs>
        <path d="M233.728952,111.639818 L237.47646,111.639818 L237.47646,144.270559 L232.495016,144.270559 L232.495016,117.626691 C230.529859,119.500445 228.016287,120.871485 225,121.73981 L225,116.804067 C226.462442,116.438457 227.970586,115.798638 229.615833,114.884612 C231.261081,113.879183 232.63212,112.828053 233.728952,111.639818 Z M257.114969,111 C260.95388,111 263.924465,112.599546 266.026726,115.84434 C267.946181,118.860627 268.905909,122.882343 268.905909,127.955189 C268.905909,132.982334 267.946181,137.049751 266.026726,140.066038 C263.924465,143.26513 260.95388,144.910378 257.114969,144.910378 C253.276058,144.910378 250.305473,143.26513 248.203212,140.066038 C246.283757,137.049751 245.324029,133.028035 245.324029,127.955189 C245.324029,122.836641 246.283757,118.814925 248.203212,115.84434 C250.305473,112.599546 253.276058,111 257.114969,111 Z M257.114969,115.204521 C254.418591,115.204521 252.544837,116.666963 251.448006,119.637549 C250.625382,121.648407 250.259771,124.436187 250.259771,127.955189 C250.259771,131.428489 250.625382,134.21627 251.448006,136.272829 C252.544837,139.197713 254.418591,140.705857 257.114969,140.705857 C259.765645,140.705857 261.685101,139.197713 262.781932,136.272829 C263.558855,134.21627 263.970167,131.428489 263.970167,127.955189 C263.970167,124.436187 263.558855,121.648407 262.781932,119.637549 C261.685101,116.666963 259.765645,115.204521 257.114969,115.204521 Z M286.16795,111 C290.00686,111 292.977446,112.599546 295.079707,115.84434 C296.999162,118.860627 297.95889,122.882343 297.95889,127.955189 C297.95889,132.982334 296.999162,137.049751 295.079707,140.066038 C292.977446,143.26513 290.00686,144.910378 286.16795,144.910378 C282.329039,144.910378 279.358453,143.26513 277.256193,140.066038 C275.336737,137.049751 274.37701,133.028035 274.37701,127.955189 C274.37701,122.836641 275.336737,118.814925 277.256193,115.84434 C279.358453,112.599546 282.329039,111 286.16795,111 Z M286.16795,115.204521 C283.471572,115.204521 281.597818,116.666963 280.500986,119.637549 C279.678363,121.648407 279.312752,124.436187 279.312752,127.955189 C279.312752,131.428489 279.678363,134.21627 280.500986,136.272829 C281.597818,139.197713 283.471572,140.705857 286.16795,140.705857 C288.818626,140.705857 290.738082,139.197713 291.834913,136.272829 C292.611836,134.21627 293.023147,131.428489 293.023147,127.955189 C293.023147,124.436187 292.611836,121.648407 291.834913,119.637549 C290.738082,116.666963 288.818626,115.204521 286.16795,115.204521 Z M319.151244,111 C324.086986,111 328.017299,112.599546 330.896482,115.84434 C333.638562,118.906328 335.009601,122.973745 335.009601,128.00089 C335.009601,132.890931 333.684263,136.866946 331.033586,139.974636 C332.221821,141.574182 333.455756,143.219429 334.643991,144.956079 L331.444898,147.789561 C330.210963,146.00721 329.022728,144.316261 327.834494,142.716715 C325.412324,144.179157 322.533141,144.910378 319.151244,144.910378 C314.1698,144.910378 310.239487,143.26513 307.406005,140.066038 C304.663926,136.958349 303.338588,132.936633 303.338588,128.00089 C303.338588,123.019447 304.663926,118.997731 307.406005,115.890041 C310.239487,112.599546 314.1698,111 319.151244,111 Z M319.151244,115.387327 C315.677944,115.387327 312.981566,116.529859 311.062111,118.906328 C309.234058,121.145693 308.320031,124.16198 308.320031,128.00089 C308.320031,131.7941 309.234058,134.810387 311.062111,137.049751 C312.981566,139.334817 315.677944,140.523051 319.151244,140.523051 C321.43631,140.523051 323.401466,140.020337 325.001012,139.060609 C323.355765,137.00405 321.710518,135.130296 320.110971,133.439347 L322.990154,130.605865 C324.635402,132.342515 326.280649,134.21627 327.925897,136.135725 C329.296936,134.033464 329.982456,131.337086 329.982456,128.00089 C329.982456,124.070577 329.022728,121.008589 327.194676,118.769224 C325.320922,116.484158 322.624544,115.387327 319.151244,115.387327 Z M341.668936,111.639818 L356.567566,111.639818 C359.766658,111.639818 362.234529,112.37104 364.062582,113.924884 C365.799232,115.387327 366.667557,117.352483 366.667557,119.866056 C366.667557,121.694108 366.210544,123.247953 365.296517,124.52759 C364.382491,125.715824 363.148555,126.629851 361.503308,127.223968 C363.65127,127.63528 365.296517,128.503605 366.393349,129.828943 C367.490181,131.154281 368.038596,132.936633 368.038596,135.130296 C368.038596,138.420791 366.896064,140.797259 364.656699,142.351104 C362.737244,143.630741 360.040866,144.270559 356.567566,144.270559 L341.668936,144.270559 L341.668936,111.639818 Z M346.65038,115.752937 L346.65038,125.487318 L355.242227,125.487318 C357.527293,125.487318 359.172541,125.076006 360.17797,124.299084 C361.183399,123.47646 361.686113,122.196823 361.686113,120.460173 C361.686113,118.814925 361.183399,117.626691 360.17797,116.89547 C359.172541,116.118548 357.527293,115.752937 355.33363,115.752937 L346.65038,115.752937 Z M346.65038,129.554735 L346.65038,140.157441 L355.882046,140.157441 C357.984307,140.157441 359.629554,139.79183 360.817788,139.152012 C362.28023,138.283687 363.057153,136.912647 363.057153,135.038893 C363.057153,133.119438 362.463036,131.702697 361.320503,130.834372 C360.17797,129.966047 358.395618,129.554735 356.01915,129.554735 L346.65038,129.554735 Z M378.308336,124.16198 C379.816479,124.16198 381.553129,124.756097 383.472584,126.035734 C385.39204,127.223968 386.763079,127.863786 387.540002,127.863786 C388.454028,127.863786 389.55086,126.812656 390.739094,124.801798 L393.70968,126.858357 C391.698822,130.011748 389.642262,131.611294 387.540002,131.611294 C386.031858,131.611294 384.340909,130.971476 382.421454,129.783242 C380.456297,128.503605 379.085258,127.909488 378.308336,127.909488 C377.348608,127.909488 376.297478,128.914917 375.109243,130.925775 L372.138658,128.869215 C374.149516,125.715824 376.206075,124.16198 378.308336,124.16198 Z M406.584394,111.639818 L410.331902,111.639818 L410.331902,144.270559 L405.350458,144.270559 L405.350458,117.626691 C403.385302,119.500445 400.871729,120.871485 397.855442,121.73981 L397.855442,116.804067 C399.317884,116.438457 400.826028,115.798638 402.471275,114.884612 C404.116523,113.879183 405.487562,112.828053 406.584394,111.639818 Z M429.970411,111 C433.809322,111 436.779907,112.599546 438.882168,115.84434 C440.801623,118.860627 441.761351,122.882343 441.761351,127.955189 C441.761351,132.982334 440.801623,137.049751 438.882168,140.066038 C436.779907,143.26513 433.809322,144.910378 429.970411,144.910378 C426.1315,144.910378 423.160915,143.26513 421.058654,140.066038 C419.139199,137.049751 418.179471,133.028035 418.179471,127.955189 C418.179471,122.836641 419.139199,118.814925 421.058654,115.84434 C423.160915,112.599546 426.1315,111 429.970411,111 Z M429.970411,115.204521 C427.274033,115.204521 425.400279,116.666963 424.303448,119.637549 C423.480824,121.648407 423.115213,124.436187 423.115213,127.955189 C423.115213,131.428489 423.480824,134.21627 424.303448,136.272829 C425.400279,139.197713 427.274033,140.705857 429.970411,140.705857 C432.621088,140.705857 434.540543,139.197713 435.637375,136.272829 C436.414297,134.21627 436.825609,131.428489 436.825609,127.955189 C436.825609,124.436187 436.414297,121.648407 435.637375,119.637549 C434.540543,116.666963 432.621088,115.204521 429.970411,115.204521 Z M459.023392,111 C462.862303,111 465.832888,112.599546 467.935149,115.84434 C469.854604,118.860627 470.814332,122.882343 470.814332,127.955189 C470.814332,132.982334 469.854604,137.049751 467.935149,140.066038 C465.832888,143.26513 462.862303,144.910378 459.023392,144.910378 C455.184481,144.910378 452.213895,143.26513 450.111635,140.066038 C448.192179,137.049751 447.232452,133.028035 447.232452,127.955189 C447.232452,122.836641 448.192179,118.814925 450.111635,115.84434 C452.213895,112.599546 455.184481,111 459.023392,111 Z M459.023392,115.204521 C456.327014,115.204521 454.45326,116.666963 453.356428,119.637549 C452.533805,121.648407 452.168194,124.436187 452.168194,127.955189 C452.168194,131.428489 452.533805,134.21627 453.356428,136.272829 C454.45326,139.197713 456.327014,140.705857 459.023392,140.705857 C461.674068,140.705857 463.593524,139.197713 464.690355,136.272829 C465.467278,134.21627 465.87859,131.428489 465.87859,127.955189 C465.87859,124.436187 465.467278,121.648407 464.690355,119.637549 C463.593524,116.666963 461.674068,115.204521 459.023392,115.204521 Z M488.076373,111 C491.915283,111 494.885869,112.599546 496.98813,115.84434 C498.907585,118.860627 499.867313,122.882343 499.867313,127.955189 C499.867313,132.982334 498.907585,137.049751 496.98813,140.066038 C494.885869,143.26513 491.915283,144.910378 488.076373,144.910378 C484.237462,144.910378 481.266876,143.26513 479.164616,140.066038 C477.24516,137.049751 476.285432,133.028035 476.285432,127.955189 C476.285432,122.836641 477.24516,118.814925 479.164616,115.84434 C481.266876,112.599546 484.237462,111 488.076373,111 Z M488.076373,115.204521 C485.379995,115.204521 483.506241,116.666963 482.409409,119.637549 C481.586785,121.648407 481.221175,124.436187 481.221175,127.955189 C481.221175,131.428489 481.586785,134.21627 482.409409,136.272829 C483.506241,139.197713 485.379995,140.705857 488.076373,140.705857 C490.727049,140.705857 492.646504,139.197713 493.743336,136.272829 C494.520258,134.21627 494.93157,131.428489 494.93157,127.955189 C494.93157,124.436187 494.520258,121.648407 493.743336,119.637549 C492.646504,116.666963 490.727049,115.204521 488.076373,115.204521 Z M517.129353,111 C520.968264,111 523.93885,112.599546 526.04111,115.84434 C527.960566,118.860627 528.920293,122.882343 528.920293,127.955189 C528.920293,132.982334 527.960566,137.049751 526.04111,140.066038 C523.93885,143.26513 520.968264,144.910378 517.129353,144.910378 C513.290443,144.910378 510.319857,143.26513 508.217596,140.066038 C506.298141,137.049751 505.338413,133.028035 505.338413,127.955189 C505.338413,122.836641 506.298141,118.814925 508.217596,115.84434 C510.319857,112.599546 513.290443,111 517.129353,111 Z M517.129353,115.204521 C514.432975,115.204521 512.559221,116.666963 511.46239,119.637549 C510.639766,121.648407 510.274156,124.436187 510.274156,127.955189 C510.274156,131.428489 510.639766,134.21627 511.46239,136.272829 C512.559221,139.197713 514.432975,140.705857 517.129353,140.705857 C519.78003,140.705857 521.699485,139.197713 522.796317,136.272829 C523.573239,134.21627 523.984551,131.428489 523.984551,127.955189 C523.984551,124.436187 523.573239,121.648407 522.796317,119.637549 C521.699485,116.666963 519.78003,115.204521 517.129353,115.204521 Z M550.112647,111 C555.04839,111 558.978703,112.599546 561.857886,115.84434 C564.599965,118.906328 565.971005,122.973745 565.971005,128.00089 C565.971005,132.890931 564.645666,136.866946 561.99499,139.974636 C563.183224,141.574182 564.41716,143.219429 565.605394,144.956079 L562.406302,147.789561 C561.172366,146.00721 559.984132,144.316261 558.795898,142.716715 C556.373728,144.179157 553.494545,144.910378 550.112647,144.910378 C545.131204,144.910378 541.20089,143.26513 538.367409,140.066038 C535.625329,136.958349 534.299991,132.936633 534.299991,128.00089 C534.299991,123.019447 535.625329,118.997731 538.367409,115.890041 C541.20089,112.599546 545.131204,111 550.112647,111 Z M550.112647,115.387327 C546.639347,115.387327 543.942969,116.529859 542.023514,118.906328 C540.195461,121.145693 539.281435,124.16198 539.281435,128.00089 C539.281435,131.7941 540.195461,134.810387 542.023514,137.049751 C543.942969,139.334817 546.639347,140.523051 550.112647,140.523051 C552.397713,140.523051 554.36287,140.020337 555.962416,139.060609 C554.317169,137.00405 552.671921,135.130296 551.072375,133.439347 L553.951558,130.605865 C555.596805,132.342515 557.242053,134.21627 558.8873,136.135725 C560.25834,134.033464 560.94386,131.337086 560.94386,128.00089 C560.94386,124.070577 559.984132,121.008589 558.156079,118.769224 C556.282325,116.484158 553.585947,115.387327 550.112647,115.387327 Z M572.63034,111.639818 L587.528969,111.639818 C590.728061,111.639818 593.195933,112.37104 595.023985,113.924884 C596.760635,115.387327 597.62896,117.352483 597.62896,119.866056 C597.62896,121.694108 597.171947,123.247953 596.257921,124.52759 C595.343895,125.715824 594.109959,126.629851 592.464712,127.223968 C594.612673,127.63528 596.257921,128.503605 597.354753,129.828943 C598.451584,131.154281 599,132.936633 599,135.130296 C599,138.420791 597.857467,140.797259 595.618102,142.351104 C593.698647,143.630741 591.002269,144.270559 587.528969,144.270559 L572.63034,144.270559 L572.63034,111.639818 Z M577.611783,115.752937 L577.611783,125.487318 L586.203631,125.487318 C588.488697,125.487318 590.133944,125.076006 591.139373,124.299084 C592.144802,123.47646 592.647517,122.196823 592.647517,120.460173 C592.647517,118.814925 592.144802,117.626691 591.139373,116.89547 C590.133944,116.118548 588.488697,115.752937 586.295034,115.752937 L577.611783,115.752937 Z M577.611783,129.554735 L577.611783,140.157441 L586.843449,140.157441 C588.94571,140.157441 590.590957,139.79183 591.779192,139.152012 C593.241634,138.283687 594.018556,136.912647 594.018556,135.038893 C594.018556,133.119438 593.424439,131.702697 592.281906,130.834372 C591.139373,129.966047 589.357022,129.554735 586.980553,129.554735 L577.611783,129.554735 Z" id="path-1"></path>
        <filter x="-2.3%" y="-12.2%" width="104.5%" height="146.2%" filterUnits="objectBoundingBox" id="filter-2">
            <feMorphology radius="0.5" operator="dilate" in="SourceAlpha" result="shadowSpreadOuter1"></feMorphology>
            <feOffset dx="0" dy="4" in="shadowSpreadOuter1" result="shadowOffsetOuter1"></feOffset>
            <feGaussianBlur stdDeviation="2" in="shadowOffsetOuter1" result="shadowBlurOuter1"></feGaussianBlur>
            <feComposite in="shadowBlurOuter1" in2="SourceAlpha" operator="out" result="shadowBlurOuter1"></feComposite>
            <feColorMatrix values="0 0 0 0 0.823529412   0 0 0 0 0.482352941   0 0 0 0 0  0 0 0 1 0" type="matrix" in="shadowBlurOuter1"></feColorMatrix>
        </filter>
        <path d="M219.112186,164.568665 L236.781431,164.568665 L236.781431,168.752418 L222.930368,168.752418 L222.117988,176.713733 L222.239845,176.713733 C223.133467,175.820112 224.16247,175.170215 225.326886,174.764023 C226.382984,174.357832 227.560922,174.154739 228.860735,174.154739 C231.595758,174.154739 233.816239,175.048347 235.522244,176.83559 C237.255328,178.649912 238.121857,181.114104 238.121857,184.22824 C238.121857,187.206978 236.984537,189.657631 234.709865,191.580271 C232.597668,193.286275 230.106397,194.139265 227.235977,194.139265 C224.609271,194.139265 222.348172,193.421671 220.452611,191.98646 C218.367494,190.415853 217.216636,188.276609 217,185.568665 L221.67118,185.568665 C221.887815,187.166352 222.510633,188.34429 223.539652,189.102515 C224.460353,189.7795 225.705988,190.117988 227.276596,190.117988 C229.00968,190.117988 230.458408,189.589947 231.622824,188.533849 C232.78724,187.450672 233.369439,186.029022 233.369439,184.268859 C233.369439,182.346219 232.868477,180.816253 231.866538,179.678917 C230.918757,178.56866 229.483569,178.01354 227.560928,178.01354 C226.261115,178.01354 225.177954,178.230172 224.311412,178.663443 C223.309473,179.150873 222.524181,179.895546 221.955513,180.897485 L217.528046,180.897485 L219.112186,164.568665 Z M251.932302,164 C255.317232,164 257.957437,165.40811 259.852998,168.224371 C261.640241,170.905236 262.533849,174.520287 262.533849,179.069632 C262.533849,183.618978 261.640241,187.234029 259.852998,189.914894 C257.930358,192.731155 255.290152,194.139265 251.932302,194.139265 C248.520292,194.139265 245.880087,192.731155 244.011605,189.914894 C242.224362,187.234029 241.330754,183.618978 241.330754,179.069632 C241.330754,174.520287 242.224362,170.905236 244.011605,168.224371 C245.853007,165.40811 248.493213,164 251.932302,164 Z M251.932302,168.021277 C249.60347,168.021277 247.978728,169.307531 247.058027,171.880077 C246.408121,173.613161 246.083172,176.009656 246.083172,179.069632 C246.083172,182.07545 246.408121,184.471945 247.058027,186.259188 C248.005807,188.831734 249.630549,190.117988 251.932302,190.117988 C254.206975,190.117988 255.831717,188.831734 256.806576,186.259188 C257.456483,184.471945 257.781431,182.07545 257.781431,179.069632 C257.781431,176.009656 257.456483,173.613161 256.806576,171.880077 C255.831717,169.307531 254.206975,168.021277 251.932302,168.021277 Z M279.837524,164 C284.278552,164 287.771747,165.435189 290.317215,168.305609 C292.754364,171.013553 293.972921,174.615065 293.972921,179.110251 C293.972921,183.442962 292.822062,186.963236 290.520309,189.67118 C291.847202,191.377185 292.916824,192.839452 293.729207,194.058027 L290.642166,196.738878 C289.315274,194.816238 288.245652,193.326891 287.433269,192.270793 C285.266914,193.516447 282.735024,194.139265 279.837524,194.139265 C275.396496,194.139265 271.903301,192.704076 269.357834,189.833656 C266.947764,187.098632 265.742747,183.5242 265.742747,179.110251 C265.742747,174.669223 266.947764,171.081252 269.357834,168.346228 C271.849142,165.448728 275.342337,164 279.837524,164 Z M279.837524,168.183752 C276.858786,168.183752 274.529989,169.199216 272.851064,171.230174 C271.280456,173.152814 270.495164,175.77948 270.495164,179.110251 C270.495164,182.413943 271.280456,185.02707 272.851064,186.94971 C274.47583,188.953588 276.804627,189.955513 279.837524,189.955513 C281.706005,189.955513 283.344287,189.562867 284.752418,188.777563 C283.290128,186.99032 281.895558,185.392657 280.568665,183.984526 L283.330754,181.303675 C284.765965,182.820124 286.174074,184.390708 287.555126,186.015474 C288.638303,184.174072 289.179884,181.872354 289.179884,179.110251 C289.179884,175.725322 288.381052,173.044497 286.783366,171.067698 C285.185679,169.145058 282.870421,168.183752 279.837524,168.183752 Z M298.441006,164.568665 L311.723404,164.568665 C314.620904,164.568665 316.882003,165.259181 318.50677,166.640232 C320.023218,167.940045 320.781431,169.686643 320.781431,171.880077 C320.781431,173.477764 320.388785,174.858795 319.603482,176.023211 C318.845257,177.05223 317.735017,177.851061 316.272727,178.419729 C318.168288,178.771762 319.603477,179.543514 320.578337,180.73501 C321.526117,181.899426 322,183.45647 322,185.40619 C322,188.330769 320.998076,190.483552 318.994197,191.864603 C317.288193,193.00194 314.878159,193.5706 311.764023,193.5706 L298.441006,193.5706 L298.441006,164.568665 Z M303.193424,168.468085 L303.193424,176.754352 L310.464217,176.754352 C312.441016,176.754352 313.876204,176.415864 314.769826,175.738878 C315.609289,175.034813 316.029014,173.938112 316.029014,172.448743 C316.029014,171.067691 315.609289,170.065767 314.769826,169.44294 C313.876204,168.793034 312.468095,168.468085 310.545455,168.468085 L303.193424,168.468085 Z M303.193424,180.653772 L303.193424,189.67118 L311.073501,189.67118 C312.887823,189.67118 314.295933,189.38685 315.297872,188.818182 C316.597685,188.087037 317.247582,186.922639 317.247582,185.324952 C317.247582,183.673106 316.773699,182.481628 315.825919,181.750484 C314.851059,181.019339 313.307554,180.653772 311.195358,180.653772 L303.193424,180.653772 Z" id="path-3"></path>
        <filter x="-8.1%" y="-13.7%" width="116.2%" height="151.9%" filterUnits="objectBoundingBox" id="filter-4">
            <feMorphology radius="0.5" operator="dilate" in="SourceAlpha" result="shadowSpreadOuter1"></feMorphology>
            <feOffset dx="0" dy="4" in="shadowSpreadOuter1" result="shadowOffsetOuter1"></feOffset>
            <feGaussianBlur stdDeviation="2" in="shadowOffsetOuter1" result="shadowBlurOuter1"></feGaussianBlur>
            <feComposite in="shadowBlurOuter1" in2="SourceAlpha" operator="out" result="shadowBlurOuter1"></feComposite>
            <feColorMatrix values="0 0 0 0 0.666507228   0 0 0 0 0.383241656   0 0 0 0 0  0 0 0 1 0" type="matrix" in="shadowBlurOuter1"></feColorMatrix>
        </filter>
        <path d="M489.389578,163 C495.295315,163 498.627788,165.741908 499.387097,171.225806 L494.578164,171.225806 C493.98759,168.441673 492.244018,167.049628 489.347395,167.049628 C487.322571,167.049628 485.719609,168.033902 484.538462,170.002481 C483.385437,171.802325 482.808933,174.122401 482.808933,176.962779 L482.808933,177.342432 L483.019851,177.342432 C483.835405,176.105039 484.889985,175.19107 486.183623,174.600496 C487.308525,174.038045 488.658387,173.756824 490.233251,173.756824 C493.186119,173.756824 495.548378,174.698915 497.320099,176.583127 C499.09182,178.467338 499.977667,180.899902 499.977667,183.880893 C499.977667,186.890007 498.95121,189.378816 496.898263,191.347395 C494.845316,193.315973 492.328385,194.300248 489.347395,194.300248 C485.635217,194.300248 482.808943,192.964447 480.868486,190.292804 C478.956153,187.705529 478,184.105896 478,179.493797 C478,174.544227 479.026458,170.564945 481.079404,167.555831 C483.104228,164.518595 485.874259,163 489.389578,163 Z M489.17866,177.764268 C487.322571,177.764268 485.888343,178.326711 484.875931,179.451613 C483.835396,180.52027 483.315136,182.052926 483.315136,184.049628 C483.315136,185.961962 483.863518,187.466496 484.960298,188.563275 C486.057077,189.660055 487.463184,190.208437 489.17866,190.208437 C490.922259,190.208437 492.342426,189.617872 493.439206,188.436725 C494.535986,187.255577 495.084367,185.736982 495.084367,183.880893 C495.084367,182.052927 494.564108,180.576515 493.523573,179.451613 C492.426794,178.326711 490.978504,177.764268 489.17866,177.764268 Z M514.277916,163 C517.793235,163 520.535143,164.462351 522.503722,167.387097 C524.359811,170.17123 525.287841,173.925535 525.287841,178.650124 C525.287841,183.374713 524.359811,187.129018 522.503722,189.913151 C520.507021,192.837897 517.765113,194.300248 514.277916,194.300248 C510.734474,194.300248 507.992566,192.837897 506.052109,189.913151 C504.19602,187.129018 503.26799,183.374713 503.26799,178.650124 C503.26799,173.925535 504.19602,170.17123 506.052109,167.387097 C507.964443,164.462351 510.706351,163 514.277916,163 Z M514.277916,167.176179 C511.859376,167.176179 510.172048,168.51198 509.215881,171.183623 C508.54094,172.983466 508.203474,175.472275 508.203474,178.650124 C508.203474,181.771728 508.54094,184.260537 509.215881,186.116625 C510.20017,188.788268 511.887498,190.124069 514.277916,190.124069 C516.64021,190.124069 518.327538,188.788268 519.33995,186.116625 C520.014892,184.260537 520.352357,181.771728 520.352357,178.650124 C520.352357,175.472275 520.014892,172.983466 519.33995,171.183623 C518.327538,168.51198 516.64021,167.176179 514.277916,167.176179 Z M543.258065,163 C547.870164,163 551.497919,164.490473 554.141439,167.471464 C556.672469,170.28372 557.937965,174.023963 557.937965,178.692308 C557.937965,183.191917 556.742775,186.847794 554.352357,189.66005 C555.730363,191.431771 556.841187,192.950366 557.684864,194.215881 L554.478908,197 C553.100903,195.003299 551.990079,193.456581 551.146402,192.359801 C548.896598,193.653439 546.267178,194.300248 543.258065,194.300248 C538.645965,194.300248 535.01821,192.809775 532.37469,189.828784 C529.871782,186.988406 528.620347,183.276284 528.620347,178.692308 C528.620347,174.080209 529.871782,170.354026 532.37469,167.513648 C534.961965,164.504534 538.58972,163 543.258065,163 Z M543.258065,167.344913 C540.164583,167.344913 537.74608,168.399493 536.002481,170.508685 C534.371373,172.505386 533.555831,175.233233 533.555831,178.692308 C533.555831,182.12326 534.371373,184.837045 536.002481,186.833747 C537.689835,188.914816 540.108338,189.955335 543.258065,189.955335 C545.198521,189.955335 546.89991,189.547564 548.362283,188.73201 C546.843665,186.875921 545.395375,185.216715 544.01737,183.754342 L546.885856,180.970223 C548.376352,182.545086 549.838703,184.17617 551.272953,185.863524 C552.397855,183.95119 552.960298,181.560808 552.960298,178.692308 C552.960298,175.176988 552.130695,172.392897 550.471464,170.33995 C548.812233,168.343249 546.407791,167.344913 543.258065,167.344913 Z M562.578164,163.590571 L576.372208,163.590571 C579.381322,163.590571 581.72952,164.307685 583.416873,165.741935 C584.991737,167.091818 585.779156,168.905696 585.779156,171.183623 C585.779156,172.842854 585.371385,174.277082 584.555831,175.486352 C583.7684,176.555009 582.615392,177.384612 581.096774,177.975186 C583.065353,178.340779 584.555826,179.14226 585.568238,180.379653 C586.552528,181.588923 587.044665,183.205945 587.044665,185.230769 C587.044665,188.268005 586.004146,190.503715 583.923077,191.937965 C582.151356,193.119113 579.648486,193.709677 576.414392,193.709677 L562.578164,193.709677 L562.578164,163.590571 Z M567.513648,167.640199 L567.513648,176.245658 L575.064516,176.245658 C577.117463,176.245658 578.607936,175.894131 579.53598,175.191067 C580.407779,174.459881 580.843672,173.320934 580.843672,171.774194 C580.843672,170.339943 580.407779,169.299424 579.53598,168.652605 C578.607936,167.977664 577.145585,167.640199 575.148883,167.640199 L567.513648,167.640199 Z M567.513648,180.295285 L567.513648,189.66005 L575.69727,189.66005 C577.581482,189.66005 579.043833,189.364767 580.084367,188.774194 C581.43425,188.014885 582.109181,186.805633 582.109181,185.146402 C582.109181,183.430926 581.617044,182.193552 580.632754,181.434243 C579.620342,180.674934 578.017381,180.295285 575.823821,180.295285 L567.513648,180.295285 Z" id="path-5"></path>
        <filter x="-7.8%" y="-13.2%" width="115.6%" height="150.0%" filterUnits="objectBoundingBox" id="filter-6">
            <feMorphology radius="0.5" operator="dilate" in="SourceAlpha" result="shadowSpreadOuter1"></feMorphology>
            <feOffset dx="0" dy="4" in="shadowSpreadOuter1" result="shadowOffsetOuter1"></feOffset>
            <feGaussianBlur stdDeviation="2" in="shadowOffsetOuter1" result="shadowBlurOuter1"></feGaussianBlur>
            <feComposite in="shadowBlurOuter1" in2="SourceAlpha" operator="out" result="shadowBlurOuter1"></feComposite>
            <feColorMatrix values="0 0 0 0 0.666507228   0 0 0 0 0.383241656   0 0 0 0 0  0 0 0 1 0" type="matrix" in="shadowBlurOuter1"></feColorMatrix>
        </filter>
        <linearGradient x1="50%" y1="0%" x2="51.2879073%" y2="86.8034982%" id="linearGradient-7">
            <stop stop-color="#FFE376" offset="0%"></stop>
            <stop stop-color="#FFC73E" offset="100%"></stop>
        </linearGradient>
        <path d="M11.0037879,37.7272727 C11.6325789,52.1894663 17.3964102,59.8396423 28.2954545,60.6780303 C39.82329,60.0492393 45.7967151,52.3990633 46.2159091,37.7272727 C45.7967151,22.4266912 39.9280869,14.4621244 28.6098485,13.8333333 C17.7108041,14.8813184 11.8421759,22.8458852 11.0037879,37.7272727 Z M39.9280303,68.2234848 L53.7613636,80.1704545 L40.5568182,83 L28.9242424,70.4242424 L28.2954545,70.4242424 C10.2701119,69.5858544 0.83838803,58.7917704 0,38.0416667 C1.04798504,16.2435779 10.6893028,4.71591538 28.9242424,3.45833333 C46.9495851,4.50631837 56.3813089,15.9291839 57.219697,37.7272727 C57.0101,53.2374513 51.2462687,63.4027537 39.9280303,68.2234848 Z M88.344697,41.8143939 L76.0833333,41.8143939 L76.0833333,60.3636364 L89.2878788,60.3636364 C96.20458,60.1540394 99.7676757,57.1149283 99.9772727,51.2462121 C99.7676757,45.1678989 95.8901892,42.0239909 88.344697,41.8143939 Z M76.0833333,15.405303 L76.0833333,31.125 L87.7159091,31.125 C94.0038193,30.915403 97.2525242,28.0858858 97.4621212,22.6363636 C97.0429272,18.0252295 93.7942223,15.6149 87.7159091,15.405303 L76.0833333,15.405303 Z M90.8598485,70.1098485 L65.0795455,70.1098485 L65.0795455,5.03030303 L89.2878788,5.03030303 C101.444505,5.65909405 107.837118,11.4229253 108.465909,22.3219697 C108.465909,28.1906859 106.36997,32.592157 102.17803,35.5265152 C107.83715,39.0896643 110.771464,44.3295109 110.981061,51.2462121 C110.981061,63.8220326 104.274057,70.1098485 90.8598485,70.1098485 Z M181.405303,35.5265152 L190.837121,73.8825758 L178.261364,73.8825758 L172.287879,49.9886364 L166.314394,73.8825758 L141.791667,73.8825758 L135.818182,49.9886364 L129.844697,73.8825758 L117.268939,73.8825758 L126.700758,35.5265152 L118.526515,2.51515152 L152.795455,2.51515152 L144.935606,35.5265152 L154.05303,73.5681818 L163.170455,35.5265152 L155.310606,2.51515152 L189.265152,2.51515152 L181.405303,35.5265152 Z M172.287879,25.1515152 L176.375,7.85984848 L168.200758,7.85984848 L172.287879,25.1515152 Z M135.818182,25.1515152 L139.905303,7.85984848 L131.416667,7.85984848 L135.818182,25.1515152 Z M226.992424,73.8825758 L226.992424,31.7537879 L197.753788,31.7537879 L197.753788,25.4659091 L226.992424,25.4659091 L226.992424,1.88636364 L241.768939,0 L241.768939,25.4659091 L271.007576,25.4659091 L271.007576,31.7537879 L241.768939,31.7537879 L241.768939,73.8825758 L226.992424,73.8825758 Z M350.549242,29.8674242 L350.549242,37.4128788 L277.295455,37.4128788 L277.295455,29.8674242 L350.549242,29.8674242 Z" id="path-8"></path>
        <filter x="-3.1%" y="-9.6%" width="109.1%" height="138.6%" filterUnits="objectBoundingBox" id="filter-9">
            <feOffset dx="5" dy="8" in="SourceAlpha" result="shadowOffsetOuter1"></feOffset>
            <feGaussianBlur stdDeviation="4" in="shadowOffsetOuter1" result="shadowBlurOuter1"></feGaussianBlur>
            <feColorMatrix values="0 0 0 0 0.652317177   0 0 0 0 0.383221432   0 0 0 0 0.00379643243  0 0 0 1 0" type="matrix" in="shadowBlurOuter1"></feColorMatrix>
        </filter>
        <path d="M389.152542,52.2542373 L380,52.2542373 L392.20339,14.7288136 L381.830508,14.7288136 L381.830508,9.23728814 L405.322034,9.23728814 L400.440678,24.4915254 L405.932203,24.4915254 L408.677966,46.7627119 L408.677966,33.6440678 L452.610169,33.6440678 L452.610169,73 L408.677966,73 L408.677966,52.2542373 L402.881356,52.2542373 L400.135593,31.2033898 L400.135593,72.6949153 L389.152542,72.6949153 L389.152542,52.2542373 Z M451.389831,11.3728814 L451.389831,30.5932203 L410.20339,30.5932203 L410.20339,11.3728814 L451.389831,11.3728814 Z M452.610169,2.83050847 L452.610169,8.01694915 L408.677966,8.01694915 L408.677966,2.83050847 L452.610169,2.83050847 Z M439.79661,25.4067797 L439.79661,16.559322 L421.491525,16.559322 L421.491525,25.4067797 L439.79661,25.4067797 Z M436.745763,53.779661 L436.745763,67.8135593 L441.322034,67.8135593 L441.322034,53.779661 L436.745763,53.779661 Z M419.966102,53.779661 L419.966102,67.8135593 L424.542373,67.8135593 L424.542373,53.779661 L419.966102,53.779661 Z M436.745763,38.8305085 L436.745763,48.5932203 L441.322034,48.5932203 L441.322034,38.8305085 L436.745763,38.8305085 Z M419.966102,38.8305085 L419.966102,48.5932203 L424.542373,48.5932203 L424.542373,38.8305085 L419.966102,38.8305085 Z M400.745763,1.61016949 L400.745763,7.10169492 L387.932203,7.10169492 L400.745763,1.61016949 Z M498.067797,72.3898305 L489.220339,72.3898305 L485.559322,26.9322034 L494.711864,26.9322034 L498.067797,72.3898305 Z M467.559322,72.3898305 L458.711864,72.3898305 L462.372881,26.9322034 L471.220339,26.9322034 L467.559322,72.3898305 Z M516.372881,65.6779661 L516.372881,2.83050847 L527.966102,1 L527.966102,72.3898305 L513.322034,72.3898305 L516.372881,65.6779661 Z M511.79661,4.05084746 L511.79661,65.3728814 L500.508475,65.3728814 L500.508475,5.88135593 L511.79661,4.05084746 Z M484.644068,72.3898305 L472.440678,72.3898305 L472.440678,22.3559322 L458.711864,22.3559322 L458.711864,17.779661 L472.440678,17.779661 L472.440678,7.71186441 L459.932203,8.3220339 L459.932203,3.44067797 L495.322034,1.91525424 L495.322034,6.79661017 L484.644068,7.40677966 L484.644068,17.779661 L496.237288,17.779661 L496.237288,22.3559322 L484.644068,22.3559322 L484.644068,72.3898305 Z M537.118644,72.6949153 L547.491525,38.8305085 L536.508475,38.8305085 L536.508475,33.0338983 L565.79661,33.0338983 L565.79661,13.2033898 L538.033898,13.2033898 L538.033898,7.71186441 L565.79661,7.71186441 L565.79661,3.74576271 L578.305085,1.61016949 L578.305085,7.71186441 L605.762712,7.71186441 L605.762712,13.2033898 L578.305085,13.2033898 L578.305085,33.0338983 L607.59322,33.0338983 L607.59322,38.8305085 L596.610169,38.8305085 L606.677966,72.6949153 L593.864407,72.6949153 L583.491525,38.8305085 L578.305085,38.8305085 L578.305085,72.6949153 L565.79661,72.6949153 L565.79661,38.8305085 L560.305085,38.8305085 L550.237288,72.6949153 L537.118644,72.6949153 Z M596.915254,30.2881356 L584.40678,30.2881356 L588.372881,15.3389831 L600.576271,15.3389831 L596.915254,30.2881356 Z M555.728814,15.3389831 L559.694915,30.2881356 L547.186441,30.2881356 L543.525424,15.3389831 L555.728814,15.3389831 Z M684.474576,2.83050847 L661.59322,27.5423729 L661.59322,72.6949153 L642.983051,72.6949153 L646.644068,64.1525424 L646.644068,27.5423729 L664.338983,8.3220339 L615.830508,8.3220339 L615.830508,2.83050847 L684.474576,2.83050847 Z" id="path-10"></path>
        <filter x="-3.6%" y="-11.1%" width="110.5%" height="144.4%" filterUnits="objectBoundingBox" id="filter-11">
            <feOffset dx="5" dy="8" in="SourceAlpha" result="shadowOffsetOuter1"></feOffset>
            <feGaussianBlur stdDeviation="4" in="shadowOffsetOuter1" result="shadowBlurOuter1"></feGaussianBlur>
            <feColorMatrix values="0 0 0 0 0.652317177   0 0 0 0 0.383221432   0 0 0 0 0.00379643243  0 0 0 1 0" type="matrix" in="shadowBlurOuter1"></feColorMatrix>
        </filter>
        <path d="M181.382131,217.719053 L189.694295,217.719053 L189.694295,213.156082 C187.485468,213.359526 185.131324,213.47578 182.631862,213.47578 L181.992465,211.586652 C188.32831,211.586652 193.617869,210.860065 197.803014,209.435953 L198.820237,211.23789 C196.785791,211.964478 194.46071,212.516685 191.815931,212.89451 L191.815931,217.719053 L200.186222,217.719053 L200.186222,219.724435 L191.815931,219.724435 L191.815931,224.229279 L198.355221,224.229279 L198.355221,235.883746 L196.291712,235.883746 L196.291712,234.34338 L185.392896,234.34338 L185.392896,235.941873 L183.329386,235.941873 L183.329386,224.229279 L189.694295,224.229279 L189.694295,219.724435 L181.382131,219.724435 L181.382131,217.719053 Z M185.392896,232.367061 L196.291712,232.367061 L196.291712,226.205597 L185.392896,226.205597 L185.392896,232.367061 Z M176.121636,209.668461 C178.068891,210.947255 179.725511,212.22605 181.062433,213.504844 L179.638321,214.928956 C178.446717,213.708288 176.790097,212.429494 174.697524,211.034446 L176.121636,209.668461 Z M175.453175,216.614639 C177.429494,218.038751 179.115178,219.462863 180.452099,220.916039 L178.998924,222.369214 C177.778256,221.003229 176.121636,219.550054 174,218.038751 L175.453175,216.614639 Z M178.88267,224.345533 L180.771798,225.072121 C179.493003,228.79225 178.097955,232.308934 176.586652,235.564047 L174.49408,234.663079 C176.179763,231.291712 177.662002,227.862217 178.88267,224.345533 Z M204.109795,211.296017 L214.630786,211.296017 L214.630786,213.301399 L204.109795,213.301399 L204.109795,211.296017 Z M202.976319,219.143165 L215.735199,219.143165 L215.735199,221.17761 L209.021529,221.17761 C207.858988,225.595264 206.841765,228.734123 205.96986,230.652314 C208.265877,230.187298 210.561895,229.518837 212.828848,228.675996 C212.073197,227.106566 211.346609,225.682454 210.590958,224.345533 L212.363832,223.473628 C213.758881,225.973089 215.066738,228.675996 216.287406,231.61141 L214.485468,232.541442 C214.194833,231.785791 213.904198,231.088267 213.613563,230.419806 C210.532831,231.52422 207.161464,232.396125 203.557589,233.035522 L203.063509,231.059203 C203.266954,231.001076 203.412271,230.942949 203.528525,230.884822 C204.400431,229.693219 205.562971,226.467169 207.016146,221.17761 L202.976319,221.17761 L202.976319,219.143165 Z M220.094726,209.348762 L222.187298,209.348762 L222.187298,215.219591 L228.523143,215.219591 C228.523143,224.316469 228.377826,229.925727 228.116254,232.076426 C227.825619,234.430571 226.401507,235.622174 223.902045,235.622174 C223.407966,235.622174 222.565124,235.593111 221.344456,235.534984 L220.87944,233.674919 C221.925727,233.733046 222.855759,233.791173 223.640474,233.791173 C225.064586,233.791173 225.907427,232.948332 226.139935,231.291712 C226.314316,229.751346 226.430571,225.072121 226.488698,217.254037 L222.187298,217.254037 L222.187298,217.602799 C222.100108,225.973089 220.065662,232.10549 216.113025,235.970936 L214.543595,234.604952 C218.176534,231.088267 220.036598,225.420883 220.094726,217.602799 L220.094726,217.254037 L216.171152,217.254037 L216.171152,215.219591 L220.094726,215.219591 L220.094726,209.348762 Z M241.311087,211.441335 L241.311087,232.861141 L239.276642,232.861141 L239.276642,230.913886 L234.975242,230.913886 L234.975242,233.558665 L232.940797,233.558665 L232.940797,211.441335 L241.311087,211.441335 Z M234.975242,228.966631 L239.276642,228.966631 L239.276642,221.962325 L234.975242,221.962325 L234.975242,228.966631 Z M234.975242,220.01507 L239.276642,220.01507 L239.276642,213.359526 L234.975242,213.359526 L234.975242,220.01507 Z M245.496233,220.10226 C247.29817,222.83423 248.693219,225.217438 249.652314,227.251884 L247.908504,228.472551 C246.891281,226.292788 245.525296,223.851453 243.781485,221.17761 L245.496233,220.10226 Z M252.122713,235.622174 L247.036598,235.622174 L246.600646,233.587729 C248.286329,233.645856 249.884822,233.703983 251.425188,233.703983 C252.26803,233.703983 252.703983,233.238967 252.703983,232.337998 L252.703983,216.614639 L242.648009,216.614639 L242.648009,214.609257 L252.703983,214.609257 L252.703983,209.49408 L254.825619,209.49408 L254.825619,214.609257 L258.400431,214.609257 L258.400431,216.614639 L254.825619,216.614639 L254.825619,232.861141 C254.825619,234.692142 253.92465,235.622174 252.122713,235.622174 Z M268.514532,217.137783 L279.558665,217.137783 L279.558665,230.681378 L268.514532,230.681378 L268.514532,217.137783 Z M277.61141,228.821313 L277.61141,224.839612 L270.49085,224.839612 L270.49085,228.821313 L277.61141,228.821313 Z M270.49085,222.979548 L277.61141,222.979548 L277.61141,218.997847 L270.49085,218.997847 L270.49085,222.979548 Z M282.813778,235.680301 L280.372443,235.680301 L279.8493,233.733046 L282.377826,233.791173 C283.249731,233.791173 283.714747,233.18084 283.714747,232.018299 L283.714747,212.662002 L272.438105,212.662002 L272.438105,210.714747 L285.749193,210.714747 L285.749193,232.599569 C285.749193,234.634015 284.761033,235.680301 282.813778,235.680301 Z M262.498385,214.086114 L264.532831,214.086114 L264.532831,235.941873 L262.498385,235.941873 L262.498385,214.086114 Z M266.712594,209 C268.049516,210.598493 269.241119,212.342304 270.258342,214.260495 L268.398278,215.248654 C267.293864,213.214209 266.10226,211.412271 264.794403,209.842842 L266.712594,209 Z M291.906002,218.006395 L294.871956,218.006395 L294.871956,221.10007 L291.906002,221.10007 L291.906002,218.006395 Z M291.906002,229.912784 L294.871956,229.912784 L294.871956,233.006459 L291.906002,233.006459 L291.906002,229.912784 Z M307.615623,218.616616 L307.615623,216.658235 C309.460484,216.478479 310.747137,216.178102 311.475621,215.757096 C312.204104,215.336089 312.748093,214.340352 313.107605,212.769855 L315.12275,212.769855 L315.12275,233.006459 L312.398046,233.006459 L312.398046,218.616616 L307.615623,218.616616 Z M321.636496,218.616616 L321.636496,216.658235 C323.481357,216.478479 324.76801,216.178102 325.496493,215.757096 C326.224977,215.336089 326.768966,214.340352 327.128477,212.769855 L329.143623,212.769855 L329.143623,233.006459 L326.418919,233.006459 L326.418919,218.616616 L321.636496,218.616616 Z M344.115644,219.462863 L344.115644,224.694295 L356.525763,224.694295 L356.525763,219.462863 L344.115644,219.462863 Z M356.525763,217.515608 L356.525763,212.429494 L344.115644,212.429494 L344.115644,217.515608 L356.525763,217.515608 Z M343.99939,226.64155 C343.650628,230.419806 342.546215,233.529602 340.657087,236 L339.058594,234.546825 C340.976785,231.931109 341.935881,228.617869 341.994008,224.607104 L341.994008,210.424112 L358.647399,210.424112 L358.647399,233.151776 C358.647399,234.808396 357.804557,235.651238 356.177001,235.651238 L352.427808,235.651238 L351.846538,233.587729 C353.183459,233.645856 354.404127,233.703983 355.50854,233.703983 C356.177001,233.703983 356.525763,233.26803 356.525763,232.425188 L356.525763,226.64155 L343.99939,226.64155 Z M366.863744,218.616616 L366.863744,216.658235 C368.708605,216.478479 369.995258,216.178102 370.723741,215.757096 C371.452225,215.336089 371.996214,214.340352 372.355725,212.769855 L374.370871,212.769855 L374.370871,233.006459 L371.646167,233.006459 L371.646167,218.616616 L366.863744,218.616616 Z M380.884616,218.616616 L380.884616,216.658235 C382.729477,216.478479 384.01613,216.178102 384.744614,215.757096 C385.473097,215.336089 386.017086,214.340352 386.376598,212.769855 L388.391743,212.769855 L388.391743,233.006459 L385.667039,233.006459 L385.667039,218.616616 L380.884616,218.616616 Z M418.0699,210.424112 L418.0699,235.767492 L415.948264,235.767492 L415.948264,233.558665 L402.201224,233.558665 L402.201224,235.796555 L400.108652,235.796555 L400.108652,210.424112 L418.0699,210.424112 Z M402.201224,231.52422 L415.948264,231.52422 L415.948264,222.776103 L402.201224,222.776103 L402.201224,231.52422 Z M402.201224,220.741658 L415.948264,220.741658 L415.948264,212.458558 L402.201224,212.458558 L402.201224,220.741658 Z M427.999289,223.186171 C428.273653,223.186171 428.562204,223.209823 428.864951,223.257127 C429.404218,223.332814 429.924555,223.469994 430.425979,223.668671 L433.576418,224.903302 C434.05892,225.092519 434.456269,225.234429 434.768476,225.329037 C435.2699,225.47095 435.709821,225.541905 436.088254,225.541905 C436.778895,225.541905 437.365457,225.26991 437.847959,224.725913 C438.330461,224.181915 438.656855,223.512572 438.827149,222.717863 L440.473325,222.717863 C440.236804,224.0613 439.770866,225.286458 439.075495,226.393375 C438.380124,227.500291 437.327623,228.053741 435.91796,228.053741 C435.492223,228.053741 434.986077,227.968595 434.399506,227.7983 C434.058916,227.694231 433.552769,227.514478 432.881051,227.259036 L429.986053,226.152125 C429.626541,226.010213 429.25521,225.901415 428.872046,225.825728 C428.488883,225.750042 428.174315,225.712199 427.928334,225.712199 C427.133624,225.712199 426.509219,226.019671 426.0551,226.634625 C425.790196,226.994136 425.520567,227.60435 425.246203,228.465285 L423.585837,228.465285 C423.746671,227.680037 423.921693,227.010693 424.11091,226.457235 C424.300126,225.903777 424.63125,225.277007 425.104291,224.576906 C425.501646,224.103864 425.929742,223.753819 426.388592,223.526759 C426.847442,223.299699 427.384336,223.186171 427.999289,223.186171 Z M443.084499,218.616616 L443.084499,216.658235 C444.92936,216.478479 446.216013,216.178102 446.944497,215.757096 C447.67298,215.336089 448.21697,214.340352 448.576481,212.769855 L450.591627,212.769855 L450.591627,233.006459 L447.866923,233.006459 L447.866923,218.616616 L443.084499,218.616616 Z M464.01647,233.559914 C461.613421,233.559914 459.87029,232.900031 458.787025,231.580246 C457.703761,230.260461 457.162137,228.65451 457.162137,226.762345 L459.830076,226.762345 C459.943606,228.0774 460.189584,229.032929 460.568017,229.628961 C461.230274,230.698034 462.427051,231.232563 464.158382,231.232563 C465.501819,231.232563 466.580337,230.873057 467.393968,230.154034 C468.207599,229.435011 468.614408,228.507864 468.614408,227.372565 C468.614408,225.972363 468.186312,224.993183 467.330108,224.434994 C466.473903,223.876805 465.284222,223.597715 463.761029,223.597715 C463.590734,223.597715 463.418077,223.60008 463.243052,223.604811 C463.068026,223.609541 462.890639,223.616637 462.710883,223.626097 L462.710883,221.369702 C462.975786,221.398084 463.198112,221.417006 463.377868,221.426467 C463.557623,221.435927 463.751567,221.440658 463.959705,221.440658 C464.915249,221.440658 465.700486,221.289287 466.315439,220.98654 C467.393973,220.456734 467.933232,219.510666 467.933232,218.148307 C467.933232,217.135999 467.573726,216.355493 466.854703,215.806765 C466.135681,215.258037 465.29841,214.983677 464.342867,214.983677 C462.639918,214.983677 461.462063,215.551318 460.809267,216.686617 C460.449755,217.311031 460.24635,218.200336 460.199046,219.354556 L457.673019,219.354556 C457.673019,217.840824 457.975761,216.554171 458.581253,215.494559 C459.621944,213.602394 461.452586,212.656326 464.073235,212.656326 C466.145156,212.656326 467.748741,213.117534 468.88404,214.039964 C470.019339,214.962395 470.58698,216.298716 470.58698,218.048969 C470.58698,219.297798 470.251126,220.310091 469.579407,221.085879 C469.163131,221.568381 468.623872,221.946808 467.961614,222.221172 C469.030688,222.514458 469.865593,223.079733 470.466355,223.917016 C471.067118,224.754299 471.367494,225.778418 471.367494,226.989404 C471.367494,228.928873 470.728898,230.508807 469.451687,231.729254 C468.174476,232.9497 466.362755,233.559914 464.01647,233.559914 Z M496.433522,210.424112 L496.433522,235.767492 L494.311886,235.767492 L494.311886,233.558665 L480.564846,233.558665 L480.564846,235.796555 L478.472274,235.796555 L478.472274,210.424112 L496.433522,210.424112 Z M480.564846,231.52422 L494.311886,231.52422 L494.311886,222.776103 L480.564846,222.776103 L480.564846,231.52422 Z M480.564846,220.741658 L494.311886,220.741658 L494.311886,212.458558 L480.564846,212.458558 L480.564846,220.741658 Z" id="path-12"></path>
        <path d="M92.3005405,166.665946 C94.3891892,168.179459 96.1448649,169.662703 97.5675676,171.145946 L96.0237838,172.68973 C94.7524324,171.267027 92.9664865,169.753514 90.7264865,168.179459 L92.3005405,166.665946 Z M91.5437838,173.80973 C93.5416216,175.292973 95.2064865,176.776216 96.5383784,178.28973 L94.9945946,179.833514 C93.7837838,178.441081 92.1189189,176.927568 90,175.292973 L91.5437838,173.80973 Z M95.3578378,182.164324 L97.2951351,182.951351 C95.932973,186.765405 94.4194595,190.367568 92.7545946,193.727568 L90.5751351,192.789189 C92.3913514,189.338378 93.9956757,185.796757 95.3578378,182.164324 Z M98.7481081,171.327568 L106.890811,171.327568 C106.285405,169.692973 105.619459,168.149189 104.832432,166.635676 L106.890811,166.060541 C107.738378,167.816216 108.404324,169.39027 108.858378,170.843243 L107.617297,171.327568 L116.637838,171.327568 L116.637838,173.476757 L108.828108,173.476757 L108.828108,180.741622 L115.820541,180.741622 L115.820541,182.83027 L108.828108,182.83027 L108.828108,190.791351 L117.212973,190.791351 L117.212973,192.940541 L97.9913514,192.940541 L97.9913514,190.791351 L106.618378,190.791351 L106.618378,182.83027 L99.5956757,182.83027 L99.5956757,180.741622 L106.618378,180.741622 L106.618378,173.476757 L98.7481081,173.476757 L98.7481081,171.327568 Z M119.997838,178.28973 L123.56973,178.28973 L123.56973,167.392432 L132.166486,167.392432 L132.166486,178.28973 L135.556757,178.28973 L135.556757,167.392432 L144.214054,167.392432 L144.214054,178.28973 L147.483243,178.28973 L147.483243,180.378378 L144.214054,180.378378 L144.214054,191.184865 C144.214054,192.819459 143.305946,193.636757 141.55027,193.636757 L138.735135,193.636757 L138.16,191.578378 C139.128649,191.638919 140.036757,191.669189 140.884324,191.669189 C141.671351,191.669189 142.064865,191.245405 142.064865,190.397838 L142.064865,180.378378 L137.645405,180.378378 L137.645405,181.922162 C137.584865,186.886486 136.676757,190.882162 134.890811,193.939459 L133.286486,192.516757 C134.739459,189.792432 135.496216,186.311351 135.556757,182.073514 L135.556757,180.378378 L132.166486,180.378378 L132.166486,191.124324 C132.166486,192.789189 131.379459,193.636757 129.805405,193.636757 L126.96,193.636757 L126.415135,191.578378 C127.383784,191.638919 128.291892,191.669189 129.139459,191.669189 C129.744865,191.669189 130.077838,191.245405 130.077838,190.397838 L130.077838,180.378378 L125.688649,180.378378 L125.688649,181.861622 C125.628108,186.856216 124.598919,190.882162 122.601081,193.96973 L120.996757,192.486486 C122.661622,189.762162 123.509189,186.281081 123.56973,182.043243 L123.56973,180.378378 L119.997838,180.378378 L119.997838,178.28973 Z M142.064865,178.28973 L142.064865,169.39027 L137.645405,169.39027 L137.645405,178.28973 L142.064865,178.28973 Z M130.077838,178.28973 L130.077838,169.39027 L125.688649,169.39027 L125.688649,178.28973 L130.077838,178.28973 Z M160.953514,167.422703 L177.420541,167.422703 L177.420541,169.36 L160.953514,169.36 L160.953514,167.422703 Z M162.709189,171.478919 L175.604324,171.478919 L175.604324,178.168649 L162.709189,178.168649 L162.709189,171.478919 Z M173.545946,176.412973 L173.545946,173.234595 L164.767568,173.234595 L164.767568,176.412973 L173.545946,176.412973 Z M176.966486,180.348108 L176.966486,194 L174.908108,194 L174.908108,192.758919 L163.344865,192.758919 L163.344865,194 L161.286486,194 L161.286486,180.348108 L176.966486,180.348108 Z M163.344865,190.851892 L168.097297,190.851892 L168.097297,187.401081 L163.344865,187.401081 L163.344865,190.851892 Z M170.155676,190.851892 L174.908108,190.851892 L174.908108,187.401081 L170.155676,187.401081 L170.155676,190.851892 Z M163.344865,185.584865 L168.097297,185.584865 L168.097297,182.164324 L163.344865,182.164324 L163.344865,185.584865 Z M170.155676,182.164324 L170.155676,185.584865 L174.908108,185.584865 L174.908108,182.164324 L170.155676,182.164324 Z M154.384865,181.468108 C153.295135,182.648649 152.114595,183.798919 150.843243,184.949189 L150.177297,182.648649 C153.991351,179.197838 156.564324,175.837838 157.835676,172.568649 L150.782703,172.568649 L150.782703,170.48 L155.171892,170.48 C154.717838,169.148108 154.172973,167.846486 153.567568,166.605405 L155.625946,166 C156.261622,167.513514 156.776216,168.875676 157.139459,170.147027 L156.261622,170.48 L160.015135,170.48 L160.015135,172.326486 C159.288649,174.536216 158.108108,176.715676 156.503784,178.895135 L156.503784,178.955676 C157.956757,179.924324 159.318919,181.014054 160.52973,182.255135 L159.349189,184.041081 C158.410811,182.921081 157.472432,181.952432 156.503784,181.135135 L156.503784,193.96973 L154.384865,193.96973 L154.384865,181.468108 Z M180.901622,174.384865 L186.925405,174.384865 L186.925405,170.268108 C185.2,170.570811 183.444324,170.812973 181.658378,170.934054 L180.992432,168.905946 C185.926486,168.512432 190.043243,167.664865 193.342703,166.332973 L194.402162,168.179459 C192.707027,168.845405 190.951351,169.39027 189.135135,169.814054 L189.135135,174.384865 L194.735135,174.384865 L194.735135,176.473514 L189.135135,176.473514 L189.135135,177.865946 C191.011892,179.500541 192.949189,181.347027 194.947027,183.435676 L193.645405,185.372973 C191.88973,183.132973 190.376216,181.377297 189.135135,180.105946 L189.135135,193.96973 L186.925405,193.96973 L186.925405,180.378378 C185.472432,183.314595 183.565405,185.978378 181.204324,188.36973 L180.235676,185.857297 C183.353514,183.132973 185.593514,180.015135 186.925405,176.534054 L186.925405,176.473514 L180.901622,176.473514 L180.901622,174.384865 Z M197.247568,169.057297 L199.427027,169.057297 L199.427027,187.764324 L197.247568,187.764324 L197.247568,169.057297 Z M203.755676,193.697297 L199.305946,193.697297 L198.851892,191.578378 C200.304865,191.638919 201.697297,191.699459 203.029189,191.699459 C203.907027,191.699459 204.361081,191.184865 204.361081,190.216216 L204.361081,166.302703 L206.570811,166.302703 L206.570811,190.761081 C206.570811,192.698378 205.632432,193.697297 203.755676,193.697297 Z" id="path-13"></path>
        <filter x="-7.3%" y="-16.1%" width="114.6%" height="160.7%" filterUnits="objectBoundingBox" id="filter-14">
            <feMorphology radius="0.5" operator="dilate" in="SourceAlpha" result="shadowSpreadOuter1"></feMorphology>
            <feOffset dx="0" dy="4" in="shadowSpreadOuter1" result="shadowOffsetOuter1"></feOffset>
            <feGaussianBlur stdDeviation="2" in="shadowOffsetOuter1" result="shadowBlurOuter1"></feGaussianBlur>
            <feComposite in="shadowBlurOuter1" in2="SourceAlpha" operator="out" result="shadowBlurOuter1"></feComposite>
            <feColorMatrix values="0 0 0 0 0.666507228   0 0 0 0 0.383241656   0 0 0 0 0  0 0 0 1 0" type="matrix" in="shadowBlurOuter1"></feColorMatrix>
        </filter>
        <path d="M352.868155,166.735012 C354.766935,168.358162 356.328835,169.981313 357.58448,171.604464 L356.083831,173.105113 C354.920062,171.573839 353.358162,169.920062 351.398131,168.143784 L352.868155,166.735012 Z M371.090319,193.807942 C369.344666,193.807942 367.445886,193.777316 365.393979,193.746691 C363.311446,193.716065 361.627044,193.532312 360.340773,193.195432 C359.085128,192.827926 357.982611,192.062289 357.002595,190.959772 C356.573839,190.439138 356.145082,190.194134 355.74695,190.194134 C355.134441,190.194134 354.062549,191.572281 352.5619,194.389826 L351,192.950428 C352.408772,190.408513 353.664417,188.846613 354.766935,188.295354 L354.766935,178.89333 L351.030625,178.89333 L351.030625,176.841422 L356.849468,176.841422 L356.849468,188.356605 C357.094472,188.540358 357.370101,188.754737 357.645731,189.060991 C358.441993,189.949131 359.299507,190.592266 360.157021,190.990397 C361.167662,191.419154 362.607059,191.664158 364.475214,191.725409 C366.190241,191.756034 368.272774,191.78666 370.784064,191.78666 C372.223462,191.78666 373.693486,191.756034 375.194134,191.725409 C376.664158,191.694783 377.827926,191.664158 378.624189,191.602907 L378.103556,193.807942 L371.090319,193.807942 Z M359.973268,168.388788 L362.913314,168.388788 C363.127693,167.623151 363.28082,166.826888 363.403322,166 L365.608357,166.306255 C365.424604,167.041267 365.210226,167.745653 364.965222,168.388788 L368.609655,168.388788 L368.609655,176.075785 C370.049053,173.503244 371.029068,170.195692 371.580327,166.091876 L373.601609,166.459382 C373.356605,168.021282 373.05035,169.46068 372.682845,170.808201 L378.532312,170.808201 L378.532312,172.860109 L377.001038,172.860109 C376.878536,176.290164 376.419154,179.322087 375.592266,181.925253 C376.633532,183.701531 377.674799,185.692188 378.654814,187.927848 L377.215417,189.367246 C376.419154,187.468466 375.592266,185.692188 374.734752,184.099663 C373.632235,186.549702 372.131586,188.540358 370.294057,190.132883 L369.160914,188.356605 C371.090319,186.76408 372.529717,184.620296 373.509733,181.955879 C372.590968,180.45523 371.610953,179.077083 370.569686,177.821438 L371.702829,176.535167 C372.560343,177.453932 373.387231,178.495199 374.183493,179.720218 C374.673501,177.66831 374.979756,175.371399 375.041007,172.860109 L372.070335,172.860109 C371.365949,174.789515 370.508435,176.443291 369.497794,177.821438 L368.609655,176.71892 L368.609655,176.872048 L364.750843,176.872048 L365.516481,178.740202 L369.681547,178.740202 L369.681547,180.608357 L363.678951,180.608357 C363.55645,181.282118 363.464573,181.925253 363.372697,182.476512 L368.732157,182.476512 C368.732157,185.937192 368.517778,188.05035 368.089022,188.785362 C367.629639,189.520374 366.864002,189.918505 365.761485,189.949131 L364.015832,189.949131 L363.464573,188.142227 L365.240851,188.142227 C365.853361,188.111601 366.282118,187.866597 366.465871,187.407215 C366.618998,186.947833 366.710875,185.875941 366.7415,184.222165 L362.974565,184.222165 C362.821438,184.742798 362.66831,185.20218 362.515183,185.630937 C361.902673,187.039709 361.014534,188.32598 359.850766,189.459123 L358.595121,187.835972 C359.544511,186.917207 360.279522,185.875941 360.76953,184.742798 C361.198287,183.670906 361.504542,182.292759 361.71892,180.608357 L358.962627,180.608357 L358.962627,178.740202 L363.433948,178.740202 L362.66831,176.872048 L359.973268,176.872048 L359.973268,168.388788 Z M366.7415,175.340773 L366.7415,173.380742 L361.841422,173.380742 L361.841422,175.340773 L366.7415,175.340773 Z M361.841422,171.849468 L366.7415,171.849468 L366.7415,169.920062 L361.841422,169.920062 L361.841422,171.849468 Z M398.806385,166.275629 L400.919543,166.275629 L400.919543,168.266286 L408.514664,168.266286 L408.514664,170.07319 L400.919543,170.07319 L400.919543,172.125097 L407.412146,172.125097 L407.412146,173.901376 L400.919543,173.901376 L400.919543,175.983909 L409.280301,175.983909 L409.280301,177.821438 L390.537503,177.821438 L390.537503,175.983909 L398.806385,175.983909 L398.806385,173.901376 L392.620036,173.901376 L392.620036,172.125097 L398.806385,172.125097 L398.806385,170.07319 L391.395017,170.07319 L391.395017,168.266286 L398.806385,168.266286 L398.806385,166.275629 Z M394.978199,189.489748 L394.978199,194.359201 L392.86504,194.359201 L392.86504,179.750843 L406.98339,179.750843 L406.98339,191.694783 C406.98339,193.34856 406.09525,194.175448 404.380223,194.175448 L401.807682,194.175448 L401.287049,192.215417 L403.737088,192.307293 C404.4721,192.307293 404.870231,191.939787 404.870231,191.235401 L404.870231,189.489748 L394.978199,189.489748 Z M394.978199,185.53906 L394.978199,187.774721 L404.870231,187.774721 L404.870231,185.53906 L394.978199,185.53906 Z M404.870231,183.824033 L404.870231,181.557747 L394.978199,181.557747 L394.978199,183.824033 L404.870231,183.824033 Z M384.99429,166.61251 C387.046198,168.143784 388.761225,169.705684 390.169997,171.267584 L388.669349,172.798858 C387.383078,171.328835 385.637425,169.766935 383.43239,168.113159 L384.99429,166.61251 Z M381.288606,175.647028 L387.781209,175.647028 L387.781209,189.091617 C388.699974,188.234103 389.649364,187.284713 390.690631,186.212821 L391.272515,188.540358 C389.557488,190.316636 387.719958,191.909162 385.821178,193.287309 L384.963665,191.327277 C385.423047,190.898521 385.668051,190.439138 385.668051,189.918505 L385.668051,177.760187 L381.288606,177.760187 L381.288606,175.647028 Z M422.847392,167.500649 L439.507656,167.500649 L439.507656,169.46068 L422.847392,169.46068 L422.847392,167.500649 Z M424.62367,171.604464 L437.670127,171.604464 L437.670127,178.372697 L424.62367,178.372697 L424.62367,171.604464 Z M439.048274,180.577732 L439.048274,194.389826 L436.965741,194.389826 L436.965741,193.134181 L425.266805,193.134181 L425.266805,194.389826 L423.184272,194.389826 L423.184272,180.577732 L439.048274,180.577732 Z M435.587594,176.596418 L435.587594,173.380742 L426.706203,173.380742 L426.706203,176.596418 L435.587594,176.596418 Z M425.266805,191.204775 L430.075006,191.204775 L430.075006,187.71347 L425.266805,187.71347 L425.266805,191.204775 Z M432.15754,191.204775 L436.965741,191.204775 L436.965741,187.71347 L432.15754,187.71347 L432.15754,191.204775 Z M425.266805,185.875941 L430.075006,185.875941 L430.075006,182.415261 L425.266805,182.415261 L425.266805,185.875941 Z M432.15754,182.415261 L432.15754,185.875941 L436.965741,185.875941 L436.965741,182.415261 L432.15754,182.415261 Z M416.201661,181.710875 C415.099144,182.905269 413.90475,184.069037 412.618479,185.232806 L411.944718,182.905269 C415.80353,179.413963 418.406696,176.014534 419.692967,172.706982 L412.557228,172.706982 L412.557228,170.593823 L416.997924,170.593823 C416.538541,169.246302 415.987283,167.929406 415.374773,166.673761 L417.457306,166.061251 C418.100441,167.592525 418.621074,168.970672 418.98858,170.256943 L418.100441,170.593823 L421.898002,170.593823 L421.898002,172.461978 C421.16299,174.697638 419.968596,176.902673 418.345445,179.107708 L418.345445,179.168959 C419.815468,180.148975 421.193615,181.251492 422.418635,182.507137 L421.224241,184.314041 C420.274851,183.180898 419.325461,182.200882 418.345445,181.373994 L418.345445,194.359201 L416.201661,194.359201 L416.201661,181.710875 Z M443.029587,174.544511 L449.124059,174.544511 L449.124059,170.379445 C447.378406,170.685699 445.602128,170.930703 443.795225,171.053205 L443.121464,169.001298 C448.113418,168.603166 452.278484,167.745653 455.616662,166.398131 L456.688554,168.266286 C454.973527,168.940047 453.197249,169.491305 451.35972,169.920062 L451.35972,174.544511 L457.025435,174.544511 L457.025435,176.657669 L451.35972,176.657669 L451.35972,178.066442 C453.2585,179.720218 455.218531,181.588373 457.239813,183.701531 L455.922917,185.661562 C454.146639,183.395276 452.615365,181.618998 451.35972,180.332728 L451.35972,194.359201 L449.124059,194.359201 L449.124059,180.608357 C447.654036,183.579029 445.72463,186.274072 443.335842,188.693486 L442.355827,186.15157 C445.510252,183.395276 447.776538,180.240851 449.124059,176.71892 L449.124059,176.657669 L443.029587,176.657669 L443.029587,174.544511 Z M459.56735,169.154425 L461.772385,169.154425 L461.772385,188.080976 L459.56735,188.080976 L459.56735,169.154425 Z M466.15183,194.083571 L461.649883,194.083571 L461.190501,191.939787 C462.660524,192.001038 464.069297,192.062289 465.416818,192.062289 C466.304957,192.062289 466.764339,191.541656 466.764339,190.56164 L466.764339,166.367506 L469,166.367506 L469,191.112899 C469,193.07293 468.05061,194.083571 466.15183,194.083571 Z" id="path-15"></path>
        <filter x="-7.2%" y="-15.9%" width="114.4%" height="159.9%" filterUnits="objectBoundingBox" id="filter-16">
            <feMorphology radius="0.5" operator="dilate" in="SourceAlpha" result="shadowSpreadOuter1"></feMorphology>
            <feOffset dx="0" dy="4" in="shadowSpreadOuter1" result="shadowOffsetOuter1"></feOffset>
            <feGaussianBlur stdDeviation="2" in="shadowOffsetOuter1" result="shadowBlurOuter1"></feGaussianBlur>
            <feComposite in="shadowBlurOuter1" in2="SourceAlpha" operator="out" result="shadowBlurOuter1"></feComposite>
            <feColorMatrix values="0 0 0 0 0.666507228   0 0 0 0 0.383241656   0 0 0 0 0  0 0 0 1 0" type="matrix" in="shadowBlurOuter1"></feColorMatrix>
        </filter>
        <path d="M77.2823276,119.4375 L79.3706897,119.584052 C79.2974138,123.211207 78.8577586,126.655172 78.0883621,129.952586 L76,129.403017 C76.7327586,126.252155 77.1724138,122.918103 77.2823276,119.4375 Z M86.6616379,118.668103 C87.6142241,120.976293 88.4568966,123.650862 89.1896552,126.69181 L87.0280172,127.204741 C86.4051724,124.493534 85.6357759,121.855603 84.6831897,119.290948 L86.6616379,118.668103 Z M81.2025862,112.439655 L83.8771552,112.439655 L83.8771552,145.780172 L81.2025862,145.780172 L81.2025862,112.439655 Z M87.9806034,116.140086 L97.4331897,116.140086 C96.9935345,114.821121 96.4806034,113.648707 95.9310345,112.586207 L98.5689655,112.146552 C99.0818966,113.318966 99.5581897,114.637931 100.034483,116.140086 L109.340517,116.140086 L109.340517,118.594828 L87.9806034,118.594828 L87.9806034,116.140086 Z M90.8017241,121.965517 L106.62931,121.965517 L106.62931,132.1875 L99.9978448,132.1875 L99.9978448,142.775862 C99.9978448,144.75431 98.9719828,145.780172 96.9568966,145.780172 L93.4762931,145.780172 L92.8900862,143.252155 C93.9892241,143.362069 95.0517241,143.435345 96.0409483,143.435345 C96.9202586,143.435345 97.3599138,142.99569 97.3599138,142.116379 L97.3599138,132.1875 L90.8017241,132.1875 L90.8017241,121.965517 Z M104.064655,129.769397 L104.064655,124.383621 L93.3297414,124.383621 L93.3297414,129.769397 L104.064655,129.769397 Z M92.1939655,134.568966 L94.4288793,135.668103 C92.5969828,138.965517 90.4719828,141.823276 88.0538793,144.241379 L86.0021552,142.775862 C88.3836207,140.50431 90.4353448,137.793103 92.1939655,134.568966 Z M104.540948,134.49569 C106.775862,137.646552 108.497845,140.394397 109.743534,142.739224 L107.765086,144.131466 C106.482759,141.603448 104.724138,138.818966 102.525862,135.741379 L104.540948,134.49569 Z M115.862069,119.181034 L128.209052,119.181034 L128.209052,116.799569 L114.689655,116.799569 L114.689655,114.637931 L128.209052,114.637931 L128.209052,112.293103 L130.773707,112.293103 L130.773707,114.637931 L144.329741,114.637931 L144.329741,116.799569 L130.773707,116.799569 L130.773707,119.181034 L143.12069,119.181034 L143.12069,121.306034 L115.862069,121.306034 L115.862069,119.181034 Z M121.50431,129.842672 L118.023707,129.842672 L118.023707,123.247845 L140.959052,123.247845 L140.959052,129.842672 L137.881466,129.842672 L136.37931,132.517241 L145.831897,132.517241 L145.831897,134.715517 L113.150862,134.715517 L113.150862,132.517241 L122.676724,132.517241 L121.50431,129.842672 Z M135.096983,129.842672 L124.252155,129.842672 L125.424569,132.517241 L133.631466,132.517241 L135.096983,129.842672 Z M138.431034,127.900862 L138.431034,125.189655 L120.551724,125.189655 L120.551724,127.900862 L138.431034,127.900862 Z M141.508621,136.840517 L141.508621,145.926724 L138.980603,145.926724 L138.980603,144.424569 L120.038793,144.424569 L120.038793,145.926724 L117.474138,145.926724 L117.474138,136.840517 L141.508621,136.840517 Z M120.038793,142.262931 L138.980603,142.262931 L138.980603,139.002155 L120.038793,139.002155 L120.038793,142.262931 Z M156.713362,130.0625 C154.771552,131.674569 152.573276,133.286638 150.118534,134.898707 L149.349138,132.224138 C155.797414,128.047414 160.12069,124.017241 162.24569,120.060345 L150.594828,120.060345 L150.594828,117.49569 L156.896552,117.49569 C156.383621,115.883621 155.760776,114.30819 155.028017,112.806034 L157.62931,112.073276 C158.362069,113.868534 158.948276,115.517241 159.351293,117.056034 L158.215517,117.49569 L165.06681,117.49569 L165.06681,119.767241 C163.931034,122.258621 162.172414,124.75 159.75431,127.241379 C162.172414,128.596983 164.407328,130.135776 166.459052,131.894397 L164.993534,134.165948 C163.125,132.443966 161.256466,130.978448 159.387931,129.806034 L159.387931,146 L156.713362,146 L156.713362,130.0625 Z M178.146552,145.377155 L172.064655,145.377155 C169.719828,145.377155 168.547414,144.131466 168.547414,141.640086 L168.547414,112.512931 L171.221983,112.512931 L171.221983,141.273707 C171.221983,142.299569 171.698276,142.8125 172.6875,142.8125 L177.706897,142.8125 C178.549569,142.8125 179.172414,142.519397 179.538793,141.93319 C179.868534,141.310345 180.088362,139.185345 180.234914,135.55819 L182.726293,136.364224 C182.543103,140.577586 182.140086,143.142241 181.517241,144.05819 C180.894397,144.9375 179.758621,145.377155 178.146552,145.377155 Z M207.640086,123.467672 L207.640086,134.605603 L194.413793,134.605603 L194.413793,141.383621 C194.413793,142.409483 195.036638,142.959052 196.209052,142.959052 L213.685345,142.959052 C214.528017,142.922414 215.114224,142.556034 215.443966,141.859914 C215.737069,141.273707 215.956897,139.80819 216.140086,137.536638 L218.631466,138.342672 C218.411638,140.614224 218.155172,142.226293 217.825431,143.178879 C217.275862,144.644397 216.140086,145.377155 214.454741,145.450431 L195.219828,145.450431 C192.911638,145.450431 191.775862,144.387931 191.775862,142.336207 L191.775862,123.467672 L207.640086,123.467672 Z M194.413793,132.1875 L205.002155,132.1875 L205.002155,125.885776 L194.413793,125.885776 L194.413793,132.1875 Z M195.18319,112 L197.821121,112.586207 C197.30819,113.831897 196.721983,115.077586 196.135776,116.25 L216.579741,116.25 C216.579741,125.519397 216.396552,131.234914 216.030172,133.43319 C215.700431,135.778017 214.271552,136.950431 211.743534,136.950431 C211.303879,136.950431 210.534483,136.913793 209.435345,136.840517 L208.8125,134.459052 C209.801724,134.532328 210.644397,134.605603 211.377155,134.605603 C212.586207,134.605603 213.282328,133.872845 213.465517,132.407328 C213.685345,130.94181 213.831897,126.398707 213.905172,118.778017 L194.743534,118.778017 C192.911638,121.782328 190.859914,124.420259 188.551724,126.655172 L186.719828,124.456897 C190.163793,121.306034 192.984914,117.12931 195.18319,112 Z" id="path-17"></path>
        <filter x="-6.0%" y="-13.2%" width="111.9%" height="150.0%" filterUnits="objectBoundingBox" id="filter-18">
            <feMorphology radius="0.5" operator="dilate" in="SourceAlpha" result="shadowSpreadOuter1"></feMorphology>
            <feOffset dx="0" dy="4" in="shadowSpreadOuter1" result="shadowOffsetOuter1"></feOffset>
            <feGaussianBlur stdDeviation="2" in="shadowOffsetOuter1" result="shadowBlurOuter1"></feGaussianBlur>
            <feComposite in="shadowBlurOuter1" in2="SourceAlpha" operator="out" result="shadowBlurOuter1"></feComposite>
            <feColorMatrix values="0 0 0 0 0.823529412   0 0 0 0 0.482352941   0 0 0 0 0  0 0 0 1 0" type="matrix" in="shadowBlurOuter1"></feColorMatrix>
        </filter>
    </defs>
    <g id="web" stroke="none" stroke-width="1" fill="none" fill-rule="evenodd">
        <g id="web--" transform="translate(-375.000000, -132.000000)">
            <g id="banner_" transform="translate(378.000000, 132.000000)">
                <g id="100QB~10000QB">
                    <use fill="black" fill-opacity="1" filter="url(#filter-2)" xlink:href="#path-1"></use>
                    <use fill="#FEEFD0" fill-rule="evenodd" xlink:href="#path-1"></use>
                </g>
                <g id="50QB">
                    <use fill="black" fill-opacity="1" filter="url(#filter-4)" xlink:href="#path-3"></use>
                    <use fill="#FFDA77" fill-rule="evenodd" xlink:href="#path-3"></use>
                </g>
                <g id="60QB">
                    <use fill="black" fill-opacity="1" filter="url(#filter-6)" xlink:href="#path-5"></use>
                    <use fill="#FFDA77" fill-rule="evenodd" xlink:href="#path-5"></use>
                </g>
                <g id="QB">
                    <use fill="black" fill-opacity="1" filter="url(#filter-9)" xlink:href="#path-8"></use>
                    <use fill="url(#linearGradient-7)" fill-rule="evenodd" xlink:href="#path-8"></use>
                </g>
                <g id="">
                    <use fill="black" fill-opacity="1" filter="url(#filter-11)" xlink:href="#path-10"></use>
                    <use fill="url(#linearGradient-7)" fill-rule="evenodd" xlink:href="#path-10"></use>
                </g>
                <g id=":-1111~13">
                    <use fill="#000000" xlink:href="#path-12"></use>
                    <use fill="#673300" xlink:href="#path-12"></use>
                </g>
                <g id="">
                    <use fill="black" fill-opacity="1" filter="url(#filter-14)" xlink:href="#path-13"></use>
                    <use fill="#FFDA77" fill-rule="evenodd" xlink:href="#path-13"></use>
                </g>
                <g id="Combined-Shape">
                    <use fill="black" fill-opacity="1" filter="url(#filter-16)" xlink:href="#path-15"></use>
                    <use fill="#FFDA77" fill-rule="evenodd" xlink:href="#path-15"></use>
                </g>
                <g id="">
                    <use fill="black" fill-opacity="1" filter="url(#filter-18)" xlink:href="#path-17"></use>
                    <use fill="#FEEFD0" fill-rule="evenodd" xlink:href="#path-17"></use>
                </g>
            </g>
        </g>
    </g>
</svg>