<?xml version="1.0" encoding="UTF-8"?>
<svg width="905px" height="237px" viewBox="0 0 905 237" version="1.1" xmlns="http://www.w3.org/2000/svg" xmlns:xlink="http://www.w3.org/1999/xlink">
    <!-- Generator: Sketch 52.3 (67297) - http://www.bohemiancoding.com/sketch -->
    <title>banner_word_en copy</title>
    <desc>Created with Sketch.</desc>
    <defs>
        <linearGradient x1="50%" y1="0%" x2="51.2879073%" y2="86.8034982%" id="linearGradient-1">
            <stop stop-color="#FFE376" offset="0%"></stop>
            <stop stop-color="#FFC73E" offset="100%"></stop>
        </linearGradient>
        <path d="M11.1889368,34.8504643 C11.8283078,49.5559976 17.6891208,57.3348949 28.7715517,58.1873896 C40.4933536,57.5480186 46.5672871,49.7691213 46.9935345,34.8504643 C46.5672871,19.2924363 40.5999139,11.1938583 29.0912356,10.5544873 C18.0088047,11.6201056 12.0414315,19.7186836 11.1889368,34.8504643 Z M40.5998563,65.8598034 L54.6659483,78.0077919 L41.2392241,80.884947 L29.4109195,68.0975907 L28.7715517,68.0975907 C10.442916,67.245096 0.852494684,56.2693916 0,35.1701482 C1.06561835,13.0052864 10.8691602,1.28366034 29.4109195,0.00491830933 C47.7395552,1.07053666 57.3299766,12.6856025 58.1824713,34.8504643 C57.9693476,50.6216159 52.1085346,60.9579589 40.5998563,65.8598034 Z M89.8311782,39.0063551 L77.3635057,39.0063551 L77.3635057,57.8677057 L90.7902299,57.8677057 C97.823311,57.654582 101.446359,54.5643351 101.659483,48.5968723 C101.446359,42.4162859 97.5036303,39.2194788 89.8311782,39.0063551 Z M77.3635057,12.1529068 L77.3635057,28.1371022 L89.1918103,28.1371022 C95.5855205,27.9239785 98.8888878,25.0468521 99.1020115,19.5056367 C98.6757642,14.8169159 95.3723968,12.3660305 89.1918103,12.1529068 L77.3635057,12.1529068 Z M92.3886494,67.7779068 L66.174569,67.7779068 L66.174569,1.60333785 L90.7902299,1.60333785 C103.151403,2.24270886 109.651577,8.1035219 110.290948,19.1859528 C110.290948,25.1534156 108.159744,29.6289455 103.89727,32.6126769 C109.651609,36.2357793 112.635296,41.5637912 112.84842,48.5968723 C112.84842,61.3842926 106.028564,67.7779068 92.3886494,67.7779068 Z M185.736351,12.1529068 L168.793103,12.1529068 L168.793103,67.7779068 L157.284483,67.7779068 L157.284483,12.1529068 L139.701868,12.1529068 L139.701868,1.60333785 L185.736351,1.60333785 L185.736351,12.1529068 Z M219.303161,59.1464413 C231.024963,58.5070703 237.098896,50.4084923 237.525144,34.8504643 C236.885773,19.50556 230.918399,11.406982 219.622845,10.5544873 C208.32729,11.406982 202.359917,19.6121202 201.720546,35.1701482 C202.146793,50.5150525 208.007606,58.5070703 219.303161,59.1464413 Z M219.622845,0.00491830933 C237.951481,1.28366034 247.541902,12.7921659 248.394397,34.5307804 C247.968149,56.9087658 238.271168,68.4172714 219.303161,69.0566424 C200.974525,67.9910241 191.384104,56.695639 190.531609,35.1701482 C191.597228,13.0052864 201.294209,1.28366034 219.622845,0.00491830933 Z M292.510776,67.7779068 L274.288793,37.7276195 L267.575431,45.4000333 L267.575431,67.7779068 L256.386494,67.7779068 L256.386494,1.60333785 L267.575431,1.60333785 L267.575431,29.7355218 L290.912356,1.60333785 L304.978448,1.60333785 L281.321839,29.4158378 L305.617816,67.7779068 L292.510776,67.7779068 Z M322.241379,57.8677057 L352.291667,57.8677057 L352.291667,67.7779068 L311.052443,67.7779068 L311.052443,1.60333785 L350.693247,1.60333785 L350.693247,12.1529068 L322.241379,12.1529068 L322.241379,28.1371022 L348.45546,28.1371022 L348.45546,39.0063551 L322.241379,39.0063551 L322.241379,57.8677057 Z M402.801724,48.2771884 L402.801724,1.60333785 L413.990661,1.60333785 L413.990661,67.7779068 L402.801724,67.7779068 L372.112069,21.1040562 L372.112069,67.7779068 L360.923132,67.7779068 L360.923132,1.60333785 L372.431753,1.60333785 L402.801724,48.2771884 Z M472.492816,31.3339413 L500.625,31.3339413 L500.625,56.9086539 C495.296908,65.0073534 486.665529,69.0566424 474.730603,69.0566424 C455.762597,68.2041478 445.959055,56.9087626 445.319684,35.1701482 C446.385302,13.2184101 456.082284,1.49678401 474.41092,0.00491830933 C487.837711,-0.208205362 496.57565,6.50508957 500.625,20.1450045 L489.755747,24.3008953 C487.198263,14.9234538 482.083372,10.3413636 474.41092,10.5544873 C462.689118,11.6201056 456.721744,19.7186836 456.508621,34.8504643 C456.934868,50.1953686 463.008802,58.2939466 474.730603,59.1464413 C480.698066,59.1464413 485.599837,57.228357 489.436063,53.392131 L489.436063,41.8835103 L472.492816,41.8835103 L472.492816,31.3339413 Z M511.174569,1.60333785 L522.363506,1.60333785 L522.363506,67.7779068 L511.174569,67.7779068 L511.174569,1.60333785 Z M529.396552,1.60333785 L540.585489,1.60333785 L557.84842,52.4330792 L574.471983,1.60333785 L585.980603,1.60333785 L562.00431,67.7779068 L553.053161,67.7779068 L529.396552,1.60333785 Z M603.563218,57.8677057 L633.613506,57.8677057 L633.613506,67.7779068 L592.374282,67.7779068 L592.374282,1.60333785 L632.015086,1.60333785 L632.015086,12.1529068 L603.563218,12.1529068 L603.563218,28.1371022 L629.777299,28.1371022 L629.777299,39.0063551 L603.563218,39.0063551 L603.563218,57.8677057 Z M657.909483,41.2441424 L674.533046,41.2441424 L666.221264,16.9481654 L657.909483,41.2441424 Z M683.164511,67.7779068 L678.049569,52.1133953 L654.39296,52.1133953 L648.958333,67.7779068 L637.769397,67.7779068 L661.426006,1.60333785 L671.016523,1.60333785 L694.673132,67.7779068 L683.164511,67.7779068 Z M765.323276,1.60333785 L776.512213,1.60333785 L758.929598,67.7779068 L749.33908,67.7779068 L736.551724,19.8253206 L723.125,67.7779068 L713.534483,67.7779068 L696.91092,1.60333785 L708.099856,1.60333785 L718.649425,54.3511827 L731.436782,1.60333785 L741.986351,1.60333785 L754.134339,53.7118149 L765.323276,1.60333785 Z M798.570402,41.2441424 L815.193966,41.2441424 L806.882184,16.9481654 L798.570402,41.2441424 Z M823.825431,67.7779068 L818.710489,52.1133953 L795.053879,52.1133953 L789.619253,67.7779068 L778.430316,67.7779068 L802.086925,1.60333785 L811.677443,1.60333785 L835.334052,67.7779068 L823.825431,67.7779068 Z M890,1.60333785 L869.220546,39.326039 L869.220546,67.7779068 L858.031609,67.7779068 L858.031609,39.6457229 L837.252155,1.60333785 L848.760776,1.60333785 L863.466236,30.3748896 L878.171695,1.60333785 L890,1.60333785 Z" id="path-2"></path>
        <filter x="-1.2%" y="-9.9%" width="103.6%" height="139.6%" filterUnits="objectBoundingBox" id="filter-3">
            <feOffset dx="5" dy="8" in="SourceAlpha" result="shadowOffsetOuter1"></feOffset>
            <feGaussianBlur stdDeviation="4" in="shadowOffsetOuter1" result="shadowBlurOuter1"></feGaussianBlur>
            <feColorMatrix values="0 0 0 0 0.652317177   0 0 0 0 0.383221432   0 0 0 0 0.00379643243  0 0 0 1 0" type="matrix" in="shadowBlurOuter1"></feColorMatrix>
        </filter>
        <path d="M206,123.609851 L206,120.633917 C208.80343,120.360762 210.758613,119.904313 211.865609,119.264556 C212.972604,118.624799 213.799244,117.111689 214.345553,114.725179 L217.407746,114.725179 L217.407746,145.476494 L213.267316,145.476494 L213.267316,123.609851 L206,123.609851 Z M238.282412,114.595791 C242.279096,114.595791 245.168742,116.241882 246.951436,119.534115 C248.331586,122.078767 249.021651,125.565031 249.021651,129.993013 C249.021651,134.19097 248.39628,137.662858 247.145519,140.408781 C245.334072,144.34796 242.372544,146.317519 238.260847,146.317519 C234.551694,146.317519 231.791435,144.707368 229.979988,141.487018 C228.470449,138.798601 227.715691,135.190137 227.715691,130.66152 C227.715691,127.153638 228.168545,124.141794 229.074269,121.625895 C230.770703,116.939135 233.840054,114.595791 238.282412,114.595791 Z M238.239282,142.780902 C240.252001,142.780902 241.854964,141.889569 243.048219,140.106875 C244.241474,138.324181 244.838092,135.003245 244.838092,130.143966 C244.838092,126.636085 244.406802,123.750033 243.544208,121.485724 C242.681614,119.221415 241.006769,118.089278 238.519624,118.089278 C236.23375,118.089278 234.5625,119.16391 233.505822,121.313206 C232.449145,123.462502 231.920814,126.628893 231.920814,130.812473 C231.920814,133.96094 232.258658,136.491178 232.934357,138.403261 C233.96947,141.321703 235.73776,142.780902 238.239282,142.780902 Z M262.844648,114.595791 C266.841332,114.595791 269.730978,116.241882 271.513672,119.534115 C272.893822,122.078767 273.583887,125.565031 273.583887,129.993013 C273.583887,134.19097 272.958516,137.662858 271.707755,140.408781 C269.896308,144.34796 266.93478,146.317519 262.823083,146.317519 C259.11393,146.317519 256.353671,144.707368 254.542224,141.487018 C253.032685,138.798601 252.277926,135.190137 252.277926,130.66152 C252.277926,127.153638 252.730781,124.141794 253.636505,121.625895 C255.332939,116.939135 258.40229,114.595791 262.844648,114.595791 Z M262.801518,142.780902 C264.814237,142.780902 266.4172,141.889569 267.610455,140.106875 C268.803709,138.324181 269.400328,135.003245 269.400328,130.143966 C269.400328,126.636085 268.969037,123.750033 268.106444,121.485724 C267.24385,119.221415 265.569005,118.089278 263.08186,118.089278 C260.795986,118.089278 259.124736,119.16391 258.068058,121.313206 C257.011381,123.462502 256.48305,126.628893 256.48305,130.812473 C256.48305,133.96094 256.820894,136.491178 257.496593,138.403261 C258.531705,141.321703 260.299996,142.780902 262.801518,142.780902 Z M277.293022,131.179074 L288.11852,131.179074 L288.11852,135.16855 L277.293022,135.16855 L277.293022,131.179074 Z M294.393858,123.609851 L294.393858,120.633917 C297.197288,120.360762 299.152472,119.904313 300.259467,119.264556 C301.366462,118.624799 302.193102,117.111689 302.739412,114.725179 L305.801604,114.725179 L305.801604,145.476494 L301.661175,145.476494 L301.661175,123.609851 L294.393858,123.609851 Z M326.67627,114.595791 C330.672955,114.595791 333.562601,116.241882 335.345295,119.534115 C336.725445,122.078767 337.415509,125.565031 337.415509,129.993013 C337.415509,134.19097 336.790138,137.662858 335.539377,140.408781 C333.72793,144.34796 330.766403,146.317519 326.654705,146.317519 C322.945552,146.317519 320.185293,144.707368 318.373846,141.487018 C316.864307,138.798601 316.109549,135.190137 316.109549,130.66152 C316.109549,127.153638 316.562404,124.141794 317.468127,121.625895 C319.164562,116.939135 322.233912,114.595791 326.67627,114.595791 Z M326.633141,142.780902 C328.64586,142.780902 330.248822,141.889569 331.442077,140.106875 C332.635332,138.324181 333.23195,135.003245 333.23195,130.143966 C333.23195,126.636085 332.80066,123.750033 331.938066,121.485724 C331.075472,119.221415 329.400628,118.089278 326.913482,118.089278 C324.627609,118.089278 322.956358,119.16391 321.899681,121.313206 C320.843003,123.462502 320.314673,126.628893 320.314673,130.812473 C320.314673,133.96094 320.652517,136.491178 321.328215,138.403261 C322.363328,141.321703 324.131619,142.780902 326.633141,142.780902 Z M351.238506,114.595791 C355.235191,114.595791 358.124837,116.241882 359.90753,119.534115 C361.28768,122.078767 361.977745,125.565031 361.977745,129.993013 C361.977745,134.19097 361.352374,137.662858 360.101613,140.408781 C358.290166,144.34796 355.328638,146.317519 351.216941,146.317519 C347.507788,146.317519 344.747529,144.707368 342.936082,141.487018 C341.426543,138.798601 340.671785,135.190137 340.671785,130.66152 C340.671785,127.153638 341.12464,124.141794 342.030363,121.625895 C343.726798,116.939135 346.796148,114.595791 351.238506,114.595791 Z M351.195377,142.780902 C353.208095,142.780902 354.811058,141.889569 356.004313,140.106875 C357.197568,138.324181 357.794186,135.003245 357.794186,130.143966 C357.794186,126.636085 357.362896,123.750033 356.500302,121.485724 C355.637708,119.221415 353.962864,118.089278 351.475718,118.089278 C349.189845,118.089278 347.518594,119.16391 346.461917,121.313206 C345.405239,123.462502 344.876908,126.628893 344.876908,130.812473 C344.876908,133.96094 345.214753,136.491178 345.890451,138.403261 C346.925564,141.321703 348.693854,142.780902 351.195377,142.780902 Z M375.800742,114.595791 C379.797426,114.595791 382.687072,116.241882 384.469766,119.534115 C385.849916,122.078767 386.539981,125.565031 386.539981,129.993013 C386.539981,134.19097 385.91461,137.662858 384.663849,140.408781 C382.852402,144.34796 379.890874,146.317519 375.779177,146.317519 C372.070024,146.317519 369.309765,144.707368 367.498318,141.487018 C365.988779,138.798601 365.234021,135.190137 365.234021,130.66152 C365.234021,127.153638 365.686875,124.141794 366.592599,121.625895 C368.289033,116.939135 371.358384,114.595791 375.800742,114.595791 Z M375.757612,142.780902 C377.770331,142.780902 379.373294,141.889569 380.566549,140.106875 C381.759804,138.324181 382.356422,135.003245 382.356422,130.143966 C382.356422,126.636085 381.925132,123.750033 381.062538,121.485724 C380.199944,119.221415 378.525099,118.089278 376.037954,118.089278 C373.75208,118.089278 372.08083,119.16391 371.024153,121.313206 C369.967475,123.462502 369.439144,126.628893 369.439144,130.812473 C369.439144,133.96094 369.776988,136.491178 370.452687,138.403261 C371.4878,141.321703 373.25609,142.780902 375.757612,142.780902 Z M400.362978,114.595791 C404.359662,114.595791 407.249308,116.241882 409.032002,119.534115 C410.412152,122.078767 411.102217,125.565031 411.102217,129.993013 C411.102217,134.19097 410.476846,137.662858 409.226085,140.408781 C407.414638,144.34796 404.45311,146.317519 400.341413,146.317519 C396.63226,146.317519 393.872001,144.707368 392.060554,141.487018 C390.551015,138.798601 389.796256,135.190137 389.796256,130.66152 C389.796256,127.153638 390.249111,124.141794 391.154835,121.625895 C392.851269,116.939135 395.92062,114.595791 400.362978,114.595791 Z M400.319848,142.780902 C402.332567,142.780902 403.93553,141.889569 405.128785,140.106875 C406.322039,138.324181 406.918658,135.003245 406.918658,130.143966 C406.918658,126.636085 406.487367,123.750033 405.624774,121.485724 C404.76218,119.221415 403.087335,118.089278 400.60019,118.089278 C398.314316,118.089278 396.643066,119.16391 395.586388,121.313206 C394.529711,123.462502 394.00138,126.628893 394.00138,130.812473 C394.00138,133.96094 394.339224,136.491178 395.014923,138.403261 C396.050035,141.321703 397.818326,142.780902 400.319848,142.780902 Z M431.416199,135.254809 C431.516835,137.051879 431.940938,138.511079 432.688519,139.632451 C434.111799,141.731429 436.620471,142.780902 440.214612,142.780902 C441.824787,142.780902 443.291175,142.550881 444.613819,142.090831 C447.172847,141.199484 448.452342,139.603709 448.452342,137.303459 C448.452342,135.578271 447.913229,134.349094 446.834987,133.615889 C445.742368,132.897061 444.031582,132.27169 441.702579,131.739757 L437.411196,130.769344 C434.607767,130.136775 432.623831,129.439522 431.459329,128.677564 C429.44661,127.35492 428.440266,125.378172 428.440266,122.747261 C428.440266,119.900702 429.425046,117.564545 431.394635,115.738722 C433.364224,113.912898 436.153235,113 439.761753,113 C443.082739,113 445.904097,113.801481 448.225912,115.404468 C450.547727,117.007455 451.708617,119.570039 451.708617,123.092297 L447.676011,123.092297 C447.460363,121.395863 447.00032,120.094803 446.295868,119.18908 C444.987601,117.535775 442.766455,116.709135 439.632364,116.709135 C437.102089,116.709135 435.283481,117.24106 434.176486,118.304925 C433.06949,119.368791 432.516001,120.605157 432.516001,122.01406 C432.516001,123.566729 433.162937,124.702461 434.456827,125.421289 C435.305045,125.881339 437.224287,126.456393 440.214612,127.146468 L444.656948,128.16001 C446.799056,128.648814 448.452336,129.317314 449.616838,130.165531 C451.629557,131.646317 452.635901,133.795581 452.635901,136.613387 C452.635901,140.121269 451.36,142.629942 448.80816,144.139481 C446.25632,145.64902 443.291198,146.403778 439.912706,146.403778 C435.973528,146.403778 432.889801,145.397434 430.661434,143.384715 C428.433066,141.386373 427.340464,138.676431 427.383594,135.254809 L431.416199,135.254809 Z M467.299922,142.867161 C469.111369,142.867161 470.617292,142.108809 471.817735,140.592081 C473.018178,139.075354 473.61839,136.807485 473.61839,133.788407 C473.61839,131.948207 473.352428,130.366808 472.820495,129.044165 C471.814136,126.499513 469.973963,125.227206 467.299922,125.227206 C464.611505,125.227206 462.771332,126.571395 461.77935,129.259812 C461.247417,130.697468 460.981454,132.523264 460.981454,134.737255 C460.981454,136.519949 461.247417,138.036654 461.77935,139.287415 C462.785709,141.673924 464.625882,142.867161 467.299922,142.867161 Z M457.250755,122.488484 L461.024584,122.488484 L461.024584,125.550677 C461.800918,124.501188 462.649123,123.688924 463.569223,123.113862 C464.87749,122.251268 466.415759,121.819978 468.184077,121.819978 C470.800611,121.819978 473.021757,122.822728 474.84758,124.828258 C476.673404,126.833789 477.586302,129.698276 477.586302,133.421806 C477.586302,138.453603 476.270866,142.04769 473.639955,144.204175 C471.972274,145.569948 470.031467,146.252825 467.817476,146.252825 C466.077912,146.252825 464.618713,145.871852 463.439834,145.109894 C462.749759,144.678597 461.980625,143.938215 461.132407,142.888726 L461.132407,154.684637 L457.250755,154.684637 L457.250755,122.488484 Z M491.73277,121.863107 C493.371698,121.863107 494.960284,122.247674 496.498577,123.01682 C498.036869,123.785967 499.208541,124.781529 500.013629,126.003537 C500.789963,127.168038 501.307512,128.526603 501.56629,130.079272 C501.796315,131.143138 501.911326,132.839547 501.911326,135.16855 L484.983007,135.16855 C485.05489,137.51193 485.608379,139.391637 486.643492,140.807729 C487.678604,142.22382 489.281567,142.931855 491.452428,142.931855 C493.479524,142.931855 495.096863,142.263355 496.304494,140.926335 C496.994569,140.15 497.483365,139.251479 497.770896,138.230743 L501.587855,138.230743 C501.487219,139.07896 501.152969,140.024205 500.585094,141.066506 C500.01722,142.108806 499.381067,142.960605 498.676615,143.621927 C497.497737,144.772052 496.038538,145.548375 494.298974,145.950919 C493.364497,146.180944 492.307835,146.295954 491.128957,146.295954 C488.253644,146.295954 485.816853,145.250075 483.818511,143.158285 C481.820169,141.066495 480.821013,138.137314 480.821013,134.370655 C480.821013,130.661501 481.827357,127.649656 483.840076,125.33503 C485.852795,123.020403 488.483666,121.863107 491.73277,121.863107 Z M497.921849,132.084793 C497.763707,130.402735 497.39711,129.058546 496.822048,128.052187 C495.758182,126.183233 493.982703,125.248771 491.495558,125.248771 C489.712864,125.248771 488.217724,125.892112 487.010092,127.178815 C485.802461,128.465517 485.162713,130.100827 485.090831,132.084793 L497.921849,132.084793 Z M515.583369,121.712154 C518.185527,121.712154 520.302444,122.344713 521.934184,123.609851 C523.565924,124.874988 524.54711,127.053005 524.877771,130.143966 L521.103942,130.143966 C520.873917,128.720686 520.34918,127.538232 519.529716,126.596567 C518.710252,125.654902 517.394816,125.184077 515.583369,125.184077 C513.1106,125.184077 511.34231,126.39169 510.278444,128.806952 C509.588369,130.373998 509.243336,132.307617 509.243336,134.607867 C509.243336,136.922494 509.732132,138.870489 510.709739,140.451911 C511.687345,142.033333 513.225614,142.824032 515.324592,142.824032 C516.934768,142.824032 518.210668,142.331642 519.152333,141.346847 C520.093998,140.362053 520.744528,139.01427 521.103942,137.303459 L524.877771,137.303459 C524.446474,140.365667 523.368248,142.604783 521.64306,144.020875 C519.917873,145.436966 517.711103,146.145001 515.022686,146.145001 C512.003608,146.145001 509.59557,145.041617 507.798499,142.834814 C506.001429,140.628012 505.102907,137.871347 505.102907,134.564737 C505.102907,130.510546 506.087687,127.354938 508.057276,125.097818 C510.026865,122.840697 512.535538,121.712154 515.583369,121.712154 Z M528.759424,122.488484 L532.705771,122.488484 L532.705771,145.476494 L528.759424,145.476494 L528.759424,122.488484 Z M528.759424,113.797895 L532.705771,113.797895 L532.705771,118.197102 L528.759424,118.197102 L528.759424,113.797895 Z M541.547313,139.330544 C541.547313,140.451916 541.957039,141.336062 542.776503,141.983007 C543.595967,142.629952 544.566371,142.95342 545.687743,142.95342 C547.053516,142.95342 548.37614,142.637141 549.655654,142.004572 C551.812139,140.955083 552.890365,139.237109 552.890365,136.850599 L552.890365,133.723713 C552.415938,134.02562 551.804944,134.277207 551.057362,134.478478 C550.309781,134.67975 549.576587,134.823514 548.857759,134.909773 L546.507203,135.211679 C545.098299,135.398575 544.041638,135.69329 543.337186,136.095834 C542.143931,136.771532 541.547313,137.849758 541.547313,139.330544 Z M550.949539,131.48098 C551.840885,131.365967 552.437504,130.992182 552.739412,130.359614 C552.91193,130.014576 552.998189,129.518592 552.998189,128.871647 C552.998189,127.549003 552.527363,126.589382 551.585698,125.992754 C550.644033,125.396127 549.296251,125.097818 547.54231,125.097818 C545.515215,125.097818 544.07758,125.644119 543.229363,126.736738 C542.754936,127.340553 542.445844,128.239075 542.302079,129.43233 L538.679203,129.43233 C538.751086,126.58577 539.674766,124.605428 541.450272,123.491245 C543.225777,122.377061 545.285189,121.819978 547.628569,121.819978 C550.345739,121.819978 552.552509,122.337526 554.248943,123.372639 C555.931001,124.407751 556.772018,126.017902 556.772018,128.20314 L556.772018,141.508583 C556.772018,141.911127 556.854682,142.234594 557.020012,142.478996 C557.185343,142.723398 557.533969,142.845596 558.065902,142.845596 C558.238421,142.845596 558.432501,142.834814 558.64815,142.813249 C558.863798,142.791685 559.09382,142.759338 559.338221,142.716208 L559.338221,145.584318 C558.734406,145.756837 558.274363,145.864659 557.958078,145.907789 C557.641794,145.950919 557.210503,145.972483 556.664194,145.972483 C555.327174,145.972483 554.35677,145.498064 553.752954,144.549211 C553.43667,144.046031 553.213837,143.334402 553.084448,142.414302 C552.293737,143.449414 551.158005,144.347936 549.677219,145.109894 C548.196433,145.871852 546.564718,146.252825 544.782024,146.252825 C542.639916,146.252825 540.889595,145.602295 539.53101,144.301216 C538.172425,143.000137 537.493142,141.372016 537.493142,139.416803 C537.493142,137.274695 538.161643,135.614227 539.498663,134.435349 C540.835683,133.256471 542.589598,132.530465 544.760459,132.25731 L550.949539,131.48098 Z M563.241439,113.797895 L567.123092,113.797895 L567.123092,145.476494 L563.241439,145.476494 L563.241439,113.797895 Z M597.637195,127.189597 C599.448642,127.189597 600.857524,126.938011 601.863883,126.434831 C603.445305,125.64412 604.236004,124.220862 604.236004,122.165013 C604.236004,120.094788 603.394988,118.700282 601.71293,117.981454 C600.764077,117.578911 599.355195,117.377642 597.486242,117.377642 L589.83076,117.377642 L589.83076,127.189597 L597.637195,127.189597 Z M599.082032,141.810489 C601.712943,141.810489 603.589057,141.048543 604.710429,139.524627 C605.41488,138.561397 605.767101,137.396913 605.767101,136.031139 C605.767101,133.730889 604.739192,132.163867 602.683343,131.330027 C601.590725,130.884353 600.145902,130.66152 598.348831,130.66152 L589.83076,130.66152 L589.83076,141.810489 L599.082032,141.810489 Z M585.625636,113.797895 L599.232985,113.797895 C602.942139,113.797895 605.580199,114.904874 607.147244,117.118865 C608.067344,118.427132 608.527387,119.936649 608.527387,121.64746 C608.527387,123.645802 607.959521,125.284706 606.823773,126.56422 C606.234334,127.239918 605.386129,127.858101 604.279134,128.418787 C605.903686,129.036979 607.118487,129.734232 607.923575,130.510567 C609.346854,131.890717 610.058484,133.795583 610.058484,136.225222 C610.058484,138.266694 609.418736,140.114055 608.139222,141.76736 C606.227139,144.240129 603.186541,145.476494 599.017338,145.476494 L585.625636,145.476494 L585.625636,113.797895 Z M623.838351,142.974985 C626.411756,142.974985 628.176452,142.000987 629.132494,140.052963 C630.088535,138.104939 630.566549,135.937704 630.566549,133.551195 C630.566549,131.39471 630.221516,129.640796 629.531441,128.289399 C628.438823,126.161667 626.555521,125.097818 623.88148,125.097818 C621.509347,125.097818 619.784185,126.003528 618.705943,127.814975 C617.627701,129.626422 617.088588,131.811626 617.088588,134.370655 C617.088588,136.829047 617.627701,138.877677 618.705943,140.516605 C619.784185,142.155533 621.494971,142.974985 623.838351,142.974985 Z M623.989304,121.712154 C626.965253,121.712154 629.481113,122.704122 631.536962,124.688088 C633.592811,126.672053 634.620719,129.590452 634.620719,133.443371 C634.620719,137.166901 633.715009,140.243439 631.903562,142.673079 C630.092116,145.102718 627.28154,146.317519 623.47175,146.317519 C620.29453,146.317519 617.771481,145.242887 615.902527,143.093591 C614.033574,140.944295 613.099112,138.058243 613.099112,134.435349 C613.099112,130.553677 614.083891,127.462762 616.053481,125.162512 C618.02307,122.862262 620.668318,121.712154 623.989304,121.712154 Z M639.235573,122.380661 L642.923143,122.380661 L642.923143,125.658501 C644.015762,124.307104 645.173058,123.3367 646.395066,122.747261 C647.617074,122.157822 648.975639,121.863107 650.470801,121.863107 C653.748658,121.863107 655.962615,123.006027 657.11274,125.2919 C657.745309,126.542661 658.061589,128.332517 658.061589,130.66152 L658.061589,145.476494 L654.115242,145.476494 L654.115242,130.920297 C654.115242,129.511394 653.906785,128.375662 653.489865,127.513068 C652.79979,126.075412 651.549047,125.356594 649.7376,125.356594 C648.8175,125.356594 648.062742,125.450041 647.473303,125.636936 C646.409437,125.95322 645.474975,126.58578 644.669887,127.534633 C644.022942,128.296591 643.602433,129.083696 643.40835,129.895972 C643.214266,130.708248 643.117226,131.869138 643.117226,133.378677 L643.117226,145.476494 L639.235573,145.476494 L639.235573,122.380661 Z M667.679462,122.380661 L667.679462,137.713189 C667.679462,138.892067 667.866354,139.855282 668.240145,140.602864 C668.93022,141.983014 670.216903,142.673079 672.100233,142.673079 C674.803027,142.673079 676.643199,141.465465 677.620806,139.050203 C678.152739,137.756312 678.418701,135.980833 678.418701,133.723713 L678.418701,122.380661 L682.300354,122.380661 L682.300354,145.476494 L678.634348,145.476494 L678.677478,142.069266 C678.174298,142.946236 677.548927,143.686618 676.801346,144.290434 C675.32056,145.498065 673.523516,146.101872 671.410161,146.101872 C668.117928,146.101872 665.875218,145.002081 664.681963,142.802467 C664.035018,141.623589 663.71155,140.049379 663.71155,138.07979 L663.71155,122.380661 L667.679462,122.380661 Z M690.667472,138.230743 C690.782484,139.524633 691.105952,140.516601 691.637885,141.206676 C692.615491,142.457437 694.3119,143.082809 696.727163,143.082809 C698.164819,143.082809 699.429938,142.770123 700.522557,142.144743 C701.615176,141.519362 702.161477,140.552553 702.161477,139.244285 C702.161477,138.252302 701.722998,137.497544 700.846028,136.979988 C700.285342,136.663704 699.178363,136.297107 697.525058,135.880186 L694.441301,135.103856 C692.471712,134.615053 691.0197,134.068751 690.085224,133.464936 C688.417542,132.415447 687.583714,130.963435 687.583714,129.108859 C687.583714,126.923621 688.370819,125.15533 689.945053,123.803933 C691.519287,122.452536 693.636204,121.776848 696.295868,121.776848 C699.774997,121.776848 702.283669,122.797569 703.821962,124.839041 C704.785191,126.132932 705.252423,127.527437 705.223669,129.0226 L701.557664,129.0226 C701.485781,128.145629 701.17669,127.347742 700.63038,126.628914 C699.739033,125.608178 698.193576,125.097818 695.993962,125.097818 C694.527552,125.097818 693.41698,125.378156 692.66221,125.938842 C691.90744,126.499528 691.530061,127.23991 691.530061,128.16001 C691.530061,129.16637 692.026045,129.971445 693.018028,130.575261 C693.593091,130.934675 694.441295,131.250955 695.562667,131.524109 L698.128871,132.149487 C700.917924,132.825185 702.786849,133.479309 703.735703,134.111878 C705.245242,135.103861 706,136.663694 706,138.791426 C706,140.847274 705.220083,142.622753 703.660226,144.117916 C702.100369,145.613079 699.724677,146.360649 696.53308,146.360649 C693.097082,146.360649 690.663885,145.580732 689.233417,144.020875 C687.802949,142.461018 687.037408,140.530993 686.936772,138.230743 L690.667472,138.230743 Z" id="path-4"></path>
        <filter x="-1.7%" y="-10.8%" width="103.4%" height="140.8%" filterUnits="objectBoundingBox" id="filter-5">
            <feMorphology radius="0.5" operator="dilate" in="SourceAlpha" result="shadowSpreadOuter1"></feMorphology>
            <feOffset dx="0" dy="4" in="shadowSpreadOuter1" result="shadowOffsetOuter1"></feOffset>
            <feGaussianBlur stdDeviation="2" in="shadowOffsetOuter1" result="shadowBlurOuter1"></feGaussianBlur>
            <feComposite in="shadowBlurOuter1" in2="SourceAlpha" operator="out" result="shadowBlurOuter1"></feComposite>
            <feColorMatrix values="0 0 0 0 0.823529412   0 0 0 0 0.482352941   0 0 0 0 0  0 0 0 1 0" type="matrix" in="shadowBlurOuter1"></feColorMatrix>
        </filter>
        <path d="M99.5226326,183.434491 C99.6105151,185.003821 99.9808715,186.278099 100.633713,187.257361 C101.876623,189.090339 104.067375,190.006814 107.206036,190.006814 C108.612156,190.006814 109.892711,189.805943 111.047738,189.404194 C113.282464,188.625806 114.399811,187.232262 114.399811,185.223519 C114.399811,183.716961 113.929019,182.643556 112.98742,182.003269 C112.033268,181.375537 110.539287,180.829418 108.505435,180.364896 L104.757893,179.517462 C102.309737,178.965057 100.577222,178.356166 99.5602964,177.69077 C97.8026463,176.535743 96.9238344,174.809505 96.9238344,172.512006 C96.9238344,170.026186 97.7838146,167.986087 99.5038007,166.391648 C101.223787,164.797208 103.659351,164 106.810567,164 C109.710689,164 112.174501,164.699911 114.202076,166.099754 C116.229651,167.499596 117.243423,169.737428 117.243423,172.813316 L113.721863,172.813316 C113.533544,171.331868 113.131801,170.19569 112.516624,169.404747 C111.374151,167.960963 109.434488,167.239082 106.697575,167.239082 C104.487958,167.239082 102.89982,167.703597 101.933112,168.63264 C100.966405,169.561684 100.483058,170.641367 100.483058,171.871722 C100.483058,173.227624 101.048009,174.219426 102.177926,174.847158 C102.91865,175.248906 104.59467,175.751085 107.206036,176.353707 L111.085401,177.238805 C112.956043,177.665663 114.399806,178.249445 115.416732,178.990169 C117.174382,180.283298 118.053194,182.160189 118.053194,184.620899 C118.053194,187.684232 116.938986,189.874984 114.710537,191.193222 C112.482087,192.511459 109.892731,193.170568 106.94239,193.170568 C103.502418,193.170568 100.809487,192.291756 98.8635171,190.534106 C96.9175474,188.789011 95.9634088,186.422496 96.0010727,183.434491 L99.5226326,183.434491 Z M122.34686,172.286023 L125.793093,172.286023 L125.793093,192.360798 L122.34686,192.360798 L122.34686,172.286023 Z M122.34686,164.696779 L125.793093,164.696779 L125.793093,168.538481 L122.34686,168.538481 L122.34686,164.696779 Z M138.033809,171.834058 C139.615694,171.834058 140.996684,172.223246 142.176821,173.001634 C142.817107,173.441047 143.469939,174.081324 144.135335,174.922485 L144.135335,172.380183 L147.261426,172.380183 L147.261426,190.722425 C147.261426,193.283572 146.884792,195.30484 146.131514,196.786288 C144.725393,199.5232 142.070126,200.891635 138.165632,200.891635 C135.993679,200.891635 134.167006,200.40515 132.685558,199.432165 C131.20411,198.459181 130.375516,196.936953 130.199751,194.865437 L133.645983,194.865437 C133.809193,195.769371 134.135609,196.466143 134.62524,196.955774 C135.391074,197.709053 136.596301,198.085687 138.24096,198.085687 C140.839771,198.085687 142.540899,197.169211 143.344397,195.336233 C143.821473,194.256534 144.041176,192.329425 144.003512,189.554849 C143.325561,190.58433 142.509522,191.350152 141.555369,191.852337 C140.601216,192.354523 139.339493,192.605612 137.770163,192.605612 C135.585655,192.605612 133.674239,191.830375 132.035858,190.279876 C130.397477,188.729378 129.578299,186.16513 129.578299,182.587057 C129.578299,179.209858 130.403754,176.573422 132.05469,174.677671 C133.705626,172.78192 135.698645,171.834058 138.033809,171.834058 Z M144.135335,182.191587 C144.135335,179.693213 143.620603,177.841431 142.591122,176.636185 C141.561641,175.43094 140.2497,174.828326 138.655261,174.828326 C136.269878,174.828326 134.637799,175.945672 133.758974,178.180399 C133.294452,179.37309 133.062195,180.93612 133.062195,182.869535 C133.062195,185.141925 133.523571,186.871302 134.446338,188.057715 C135.369104,189.244129 136.608856,189.837327 138.165632,189.837327 C140.601233,189.837327 142.314916,188.738812 143.306733,186.54175 C143.859137,185.29884 144.135335,183.8488 144.135335,182.191587 Z M152.364863,172.191864 L155.585113,172.191864 L155.585113,175.054308 C156.539266,173.874172 157.549899,173.026746 158.617044,172.512006 C159.684189,171.997265 160.870585,171.739899 162.176268,171.739899 C165.038726,171.739899 166.972113,172.737978 167.976484,174.734167 C168.528888,175.826421 168.805086,177.38945 168.805086,179.423302 L168.805086,192.360798 L165.358854,192.360798 L165.358854,179.649285 C165.358854,178.41893 165.176814,177.427128 164.81273,176.673849 C164.210107,175.418385 163.117869,174.790662 161.535984,174.790662 C160.732487,174.790662 160.073378,174.872266 159.558638,175.035476 C158.629594,175.311679 157.813554,175.864075 157.110494,176.692681 C156.545535,177.358077 156.178318,178.045434 156.00883,178.754771 C155.839342,179.464108 155.7546,180.477881 155.7546,181.796118 L155.7546,192.360798 L152.364863,192.360798 L152.364863,172.191864 Z M189.049348,164.696779 L189.049348,181.796118 C189.049348,183.804861 189.425981,185.474604 190.17926,186.805396 C191.296623,188.814139 193.179792,189.818495 195.828821,189.818495 C199.005146,189.818495 201.164512,188.732535 202.306985,186.560582 C202.922163,185.380445 203.229747,183.792306 203.229747,181.796118 L203.229747,164.696779 L207.033785,164.696779 L207.033785,180.233073 C207.033785,183.635381 206.575547,186.252985 205.659058,188.085963 C203.976736,191.425498 200.800459,193.095241 196.130131,193.095241 C191.459804,193.095241 188.289804,191.425498 186.620036,188.085963 C185.703547,186.252985 185.24531,183.635381 185.24531,180.233073 L185.24531,164.696779 L189.049348,164.696779 Z M220.894042,190.082141 C222.475927,190.082141 223.791006,189.419894 224.839319,188.095379 C225.887631,186.770864 226.41178,184.790399 226.41178,182.153924 C226.41178,180.546929 226.179523,179.165939 225.715001,178.010912 C224.836176,175.78874 223.229205,174.677671 220.894042,174.677671 C218.546323,174.677671 216.939353,175.851512 216.073083,178.199231 C215.608561,179.454695 215.376304,181.049111 215.376304,182.982526 C215.376304,184.539302 215.608561,185.863797 216.073083,186.956051 C216.951908,189.040122 218.558878,190.082141 220.894042,190.082141 Z M212.11839,172.286023 L215.413967,172.286023 L215.413967,174.960149 C216.091918,174.04366 216.832631,173.334333 217.636128,172.832148 C218.778601,172.078869 220.121927,171.702235 221.666148,171.702235 C223.951094,171.702235 225.890757,172.577909 227.485197,174.329281 C229.079636,176.080654 229.876844,178.582129 229.876844,181.833782 C229.876844,186.227907 228.728112,189.366521 226.430612,191.249717 C224.974273,192.442409 223.279422,193.038745 221.346007,193.038745 C219.826895,193.038745 218.552618,192.706052 217.523137,192.040656 C216.920514,191.664017 216.248851,191.017462 215.508127,190.100973 L215.508127,200.402007 L212.11839,200.402007 L212.11839,172.286023 Z M245.394306,169.122269 C245.444525,167.716149 245.689337,166.686684 246.128749,166.033842 C246.919692,164.878815 248.445058,164.30131 250.704894,164.30131 C250.918323,164.30131 251.138026,164.307587 251.364009,164.320142 C251.589993,164.332696 251.847359,164.351528 252.136116,164.376637 L252.136116,167.465064 C251.784586,167.439955 251.530358,167.424262 251.373425,167.417985 C251.216492,167.411707 251.068977,167.408569 250.930876,167.408569 C249.901395,167.408569 249.286227,167.675351 249.085353,168.208923 C248.884478,168.742496 248.784043,170.101515 248.784043,172.286023 L252.136116,172.286023 L252.136116,174.960149 L248.746379,174.960149 L248.746379,192.360798 L245.394306,192.360798 L245.394306,174.960149 L242.588357,174.960149 L242.588357,172.286023 L245.394306,172.286023 L245.394306,169.122269 Z M263.265752,190.176301 C265.513033,190.176301 267.054092,189.325736 267.888976,187.624582 C268.72386,185.923428 269.141295,184.030844 269.141295,181.946773 C269.141295,180.063577 268.839989,178.531933 268.237366,177.351797 C267.283213,175.493709 265.638579,174.56468 263.303415,174.56468 C261.231899,174.56468 259.725365,175.35561 258.783766,176.937495 C257.842168,178.519381 257.371376,180.427658 257.371376,182.662384 C257.371376,184.809228 257.842168,186.598238 258.783766,188.029468 C259.725365,189.460697 261.219345,190.176301 263.265752,190.176301 Z M263.397575,171.608076 C265.996386,171.608076 268.193416,172.474333 269.98873,174.206874 C271.784044,175.939415 272.681687,178.487969 272.681687,181.852614 C272.681687,185.104266 271.890757,187.79092 270.308872,189.912655 C268.726986,192.034389 266.27259,193.095241 262.94561,193.095241 C260.171034,193.095241 257.967727,192.156795 256.335623,190.279876 C254.70352,188.402957 253.88748,185.88265 253.88748,182.71888 C253.88748,179.329126 254.74746,176.629918 256.467446,174.621175 C258.187432,172.612432 260.497452,171.608076 263.397575,171.608076 Z M276.805867,172.191864 L280.026117,172.191864 L280.026117,175.67576 C280.289764,174.997809 280.936319,174.172354 281.9658,173.199369 C282.99528,172.226384 284.181676,171.739899 285.525023,171.739899 C285.587797,171.739899 285.694509,171.746176 285.845165,171.758731 C285.995821,171.771286 286.253187,171.796394 286.617272,171.834058 L286.617272,175.412114 C286.416398,175.37445 286.231219,175.349341 286.061732,175.336786 C285.892244,175.324232 285.707066,175.317955 285.506191,175.317955 C283.79876,175.317955 282.486819,175.867212 281.57033,176.965743 C280.653841,178.064275 280.195604,179.329136 280.195604,180.760365 L280.195604,192.360798 L276.805867,192.360798 L276.805867,172.191864 Z M302.549035,185.487165 C302.775018,187.42058 303.672662,188.757629 305.241992,189.498353 C306.04549,189.874993 306.974519,190.06331 308.029109,190.06331 C310.037852,190.06331 311.525555,189.423032 312.492263,188.142459 C313.45897,186.861885 313.942317,185.443232 313.942317,183.886456 C313.942317,182.003259 313.36795,180.546943 312.219201,179.517462 C311.070451,178.487981 309.692599,177.973248 308.085605,177.973248 C306.918023,177.973248 305.916805,178.199229 305.081921,178.651196 C304.247038,179.103163 303.534572,179.730886 302.944504,180.534383 L300.006732,180.364896 L302.059406,165.845523 L316.070318,165.845523 L316.070318,169.122269 L304.601709,169.122269 L303.452965,176.617354 C304.080697,176.140277 304.677033,175.782475 305.241992,175.543937 C306.246364,175.129634 307.407651,174.922485 308.725889,174.922485 C311.199153,174.922485 313.295747,175.719693 315.015733,177.314133 C316.73572,178.908573 317.5957,180.92984 317.5957,183.377995 C317.5957,185.926588 316.807908,188.173835 315.2323,190.119805 C313.656692,192.065775 311.142663,193.038745 307.690136,193.038745 C305.493073,193.038745 303.550271,192.420438 301.861672,191.183806 C300.173072,189.947174 299.228349,188.048312 299.027475,185.487165 L302.549035,185.487165 Z M329.666929,165.393558 C333.15712,165.393558 335.680566,166.831044 337.237341,169.706057 C338.442587,171.928229 339.045201,174.972684 339.045201,178.839514 C339.045201,182.50547 338.499082,185.537371 337.406828,187.935308 C335.824943,191.37528 333.238725,193.095241 329.648097,193.095241 C326.408999,193.095241 323.998544,191.689142 322.416659,188.876902 C321.098421,186.529183 320.439312,183.378015 320.439312,179.423302 C320.439312,176.359969 320.834778,173.729811 321.62572,171.532748 C323.107168,167.439935 325.787544,165.393558 329.666929,165.393558 Z M329.629265,190.006814 C331.386916,190.006814 332.786737,189.228438 333.828773,187.671662 C334.870808,186.114886 335.391818,183.214807 335.391818,178.971338 C335.391818,175.908005 335.015184,173.387698 334.261906,171.410341 C333.508627,169.432985 332.046033,168.444322 329.87408,168.444322 C327.877891,168.444322 326.418436,169.382767 325.49567,171.259686 C324.572903,173.136606 324.111527,175.901724 324.111527,179.555126 C324.111527,182.304592 324.406557,184.514177 324.996625,186.183944 C325.900559,188.732537 327.444757,190.006814 329.629265,190.006814 Z M674.666929,165.393558 C678.15712,165.393558 680.680566,166.831044 682.237341,169.706057 C683.442587,171.928229 684.045201,174.972684 684.045201,178.839514 C684.045201,182.50547 683.499082,185.537371 682.406828,187.935308 C680.824943,191.37528 678.238725,193.095241 674.648097,193.095241 C671.408999,193.095241 668.998544,191.689142 667.416659,188.876902 C666.098421,186.529183 665.439312,183.378015 665.439312,179.423302 C665.439312,176.359969 665.834778,173.729811 666.62572,171.532748 C668.107168,167.439935 670.787544,165.393558 674.666929,165.393558 Z M674.629265,190.006814 C676.386916,190.006814 677.786737,189.228438 678.828773,187.671662 C679.870808,186.114886 680.391818,183.214807 680.391818,178.971338 C680.391818,175.908005 680.015184,173.387698 679.261906,171.410341 C678.508627,169.432985 677.046033,168.444322 674.87408,168.444322 C672.877891,168.444322 671.418436,169.382767 670.49567,171.259686 C669.572903,173.136606 669.111527,175.901724 669.111527,179.555126 C669.111527,182.304592 669.406557,184.514177 669.996625,186.183944 C670.900559,188.732537 672.444757,190.006814 674.629265,190.006814 Z M373.790003,164.696779 L373.790003,167.992357 L364.468227,167.992357 L364.468227,192.360798 L360.664189,192.360798 L360.664189,167.992357 L351.342413,167.992357 L351.342413,164.696779 L373.790003,164.696779 Z M380.494149,190.176301 C382.74143,190.176301 384.28249,189.325736 385.117374,187.624582 C385.952257,185.923428 386.369693,184.030844 386.369693,181.946773 C386.369693,180.063577 386.068386,178.531933 385.465763,177.351797 C384.51161,175.493709 382.866977,174.56468 380.531813,174.56468 C378.460297,174.56468 376.953762,175.35561 376.012164,176.937495 C375.070566,178.519381 374.599774,180.427658 374.599774,182.662384 C374.599774,184.809228 375.070566,186.598238 376.012164,188.029468 C376.953762,189.460697 378.447742,190.176301 380.494149,190.176301 Z M380.625972,171.608076 C383.224784,171.608076 385.421813,172.474333 387.217127,174.206874 C389.012441,175.939415 389.910085,178.487969 389.910085,181.852614 C389.910085,185.104266 389.119154,187.79092 387.537269,189.912655 C385.955384,192.034389 383.500988,193.095241 380.174007,193.095241 C377.399431,193.095241 375.196124,192.156795 373.564021,190.279876 C371.931917,188.402957 371.115877,185.88265 371.115877,182.71888 C371.115877,179.329126 371.975858,176.629918 373.695844,174.621175 C375.41583,172.612432 377.72585,171.608076 380.625972,171.608076 Z M393.864778,164.696779 L397.122691,164.696779 L397.122691,180.760365 L405.823016,172.191864 L410.154346,172.191864 L402.433279,179.743444 L410.587479,192.360798 L406.256149,192.360798 L399.966304,182.191587 L397.122691,184.790386 L397.122691,192.360798 L393.864778,192.360798 L393.864778,164.696779 Z M421.622956,171.739899 C423.054185,171.739899 424.441452,172.075731 425.784799,172.747404 C427.128146,173.419078 428.151334,174.288474 428.854394,175.355618 C429.532345,176.372544 429.984305,177.55894 430.210289,178.914842 C430.411163,179.843886 430.511599,181.325311 430.511599,183.359163 L415.72858,183.359163 C415.791353,185.40557 416.2747,187.047065 417.178634,188.283698 C418.082568,189.52033 419.48239,190.138637 421.378141,190.138637 C423.148346,190.138637 424.560722,189.554855 425.615312,188.387273 C426.217935,187.709322 426.644787,186.924669 426.89588,186.033289 L430.229121,186.033289 C430.141238,186.774013 429.849347,187.599469 429.353439,188.50968 C428.85753,189.419892 428.301996,190.163743 427.686818,190.741257 C426.657337,191.745628 425.38306,192.423569 423.863948,192.775099 C423.047897,192.975973 422.125144,193.076409 421.095663,193.076409 C418.584735,193.076409 416.456754,192.163072 414.711659,190.336372 C412.966564,188.509671 412.094029,185.951701 412.094029,182.662384 C412.094029,179.423286 412.972841,176.793128 414.730491,174.77183 C416.488141,172.750533 418.785606,171.739899 421.622956,171.739899 Z M427.027703,180.666206 C426.889602,179.197313 426.569463,178.023471 426.067277,177.144646 C425.138234,175.512542 423.587758,174.696503 421.415805,174.696503 C419.859029,174.696503 418.553366,175.258315 417.498776,176.381955 C416.444186,177.505596 415.885513,178.933665 415.822739,180.666206 L427.027703,180.666206 Z M434.673442,172.191864 L437.893692,172.191864 L437.893692,175.054308 C438.847845,173.874172 439.858479,173.026746 440.925624,172.512006 C441.992768,171.997265 443.179164,171.739899 444.484847,171.739899 C447.347306,171.739899 449.280692,172.737978 450.285063,174.734167 C450.837468,175.826421 451.113666,177.38945 451.113666,179.423302 L451.113666,192.360798 L447.667433,192.360798 L447.667433,179.649285 C447.667433,178.41893 447.485394,177.427128 447.121309,176.673849 C446.518686,175.418385 445.426449,174.790662 443.844564,174.790662 C443.041066,174.790662 442.381957,174.872266 441.867217,175.035476 C440.938173,175.311679 440.122134,175.864075 439.419074,176.692681 C438.854115,177.358077 438.486897,178.045434 438.317409,178.754771 C438.147922,179.464108 438.063179,180.477881 438.063179,181.796118 L438.063179,192.360798 L434.673442,192.360798 L434.673442,172.191864 Z M458.137954,186.033289 C458.238391,187.163207 458.520866,188.029464 458.985388,188.632087 C459.839104,189.724341 461.320529,190.27046 463.42971,190.27046 C464.685174,190.27046 465.789966,189.997401 466.744119,189.451274 C467.698272,188.905147 468.175341,188.06086 468.175341,186.918387 C468.175341,186.052117 467.79243,185.393008 467.026597,184.941041 C466.536966,184.664838 465.570273,184.3447 464.126489,183.980615 L461.433531,183.302668 C459.713545,182.87581 458.445545,182.398741 457.629493,181.871446 C456.173155,180.954957 455.444996,179.686957 455.444996,178.067408 C455.444996,176.159102 456.132353,174.614904 457.507086,173.434767 C458.88182,172.254631 460.730463,171.664572 463.053072,171.664572 C466.091296,171.664572 468.282048,172.555938 469.625395,174.338697 C470.466556,175.468615 470.874576,176.686397 470.849467,177.99208 L467.648049,177.99208 C467.585275,177.226247 467.315355,176.529475 466.838278,175.901743 C466.05989,175.010363 464.710286,174.56468 462.789426,174.56468 C461.508852,174.56468 460.539021,174.809492 459.879902,175.299123 C459.220783,175.788754 458.891229,176.435308 458.891229,177.238805 C458.891229,178.11763 459.324357,178.82068 460.190628,179.347975 C460.692813,179.661841 461.433526,179.938039 462.412788,180.176577 L464.653781,180.722702 C467.089382,181.31277 468.721461,181.883997 469.550068,182.436402 C470.868305,183.302672 471.527414,184.664831 471.527414,186.522918 C471.527414,188.318232 470.846335,189.868707 469.484156,191.17439 C468.121977,192.480073 466.047354,193.132905 463.260223,193.132905 C460.259663,193.132905 458.134821,192.451825 456.885634,191.089647 C455.636447,189.727468 454.967923,188.042032 454.88004,186.033289 L458.137954,186.033289 Z M487.421513,164.696779 L491.206719,164.696779 L491.206719,192.360798 L487.421513,192.360798 L487.421513,164.696779 Z M496.837449,172.191864 L500.057699,172.191864 L500.057699,175.054308 C501.011852,173.874172 502.022485,173.026746 503.08963,172.512006 C504.156775,171.997265 505.343171,171.739899 506.648854,171.739899 C509.511312,171.739899 511.444698,172.737978 512.44907,174.734167 C513.001474,175.826421 513.277672,177.38945 513.277672,179.423302 L513.277672,192.360798 L509.83144,192.360798 L509.83144,179.649285 C509.83144,178.41893 509.6494,177.427128 509.285316,176.673849 C508.682693,175.418385 507.590455,174.790662 506.00857,174.790662 C505.205073,174.790662 504.545964,174.872266 504.031224,175.035476 C503.10218,175.311679 502.28614,175.864075 501.58308,176.692681 C501.018121,177.358077 500.650904,178.045434 500.481416,178.754771 C500.311928,179.464108 500.227186,180.477881 500.227186,181.796118 L500.227186,192.360798 L496.837449,192.360798 L496.837449,172.191864 Z M519.944155,172.191864 L525.33007,188.613256 L530.960799,172.191864 L534.670678,172.191864 L527.062602,192.360798 L523.446883,192.360798 L516.008294,172.191864 L519.944155,172.191864 Z M537.570786,172.286023 L541.017018,172.286023 L541.017018,192.360798 L537.570786,192.360798 L537.570786,172.286023 Z M537.570786,164.696779 L541.017018,164.696779 L541.017018,168.538481 L537.570786,168.538481 L537.570786,164.696779 Z M546.817235,166.561134 L550.244635,166.561134 L550.244635,172.191864 L553.464885,172.191864 L553.464885,174.960149 L550.244635,174.960149 L550.244635,188.123627 C550.244635,188.826687 550.48317,189.297479 550.960246,189.536017 C551.223894,189.674118 551.6633,189.743168 552.278477,189.743168 C552.441688,189.743168 552.61745,189.740029 552.80577,189.733752 C552.994089,189.727475 553.213792,189.711781 553.464885,189.686672 L553.464885,192.360798 C553.075691,192.47379 552.67081,192.555394 552.250229,192.605612 C551.829649,192.655831 551.37455,192.68094 550.884919,192.68094 C549.303034,192.68094 548.229628,192.276058 547.664669,191.466284 C547.09971,190.656509 546.817235,189.605074 546.817235,188.311946 L546.817235,174.960149 L544.086613,174.960149 L544.086613,172.191864 L546.817235,172.191864 L546.817235,166.561134 Z M565.253636,171.739899 C566.684866,171.739899 568.072133,172.075731 569.41548,172.747404 C570.758827,173.419078 571.782015,174.288474 572.485075,175.355618 C573.163026,176.372544 573.614986,177.55894 573.84097,178.914842 C574.041844,179.843886 574.14228,181.325311 574.14228,183.359163 L559.359261,183.359163 C559.422034,185.40557 559.905381,187.047065 560.809315,188.283698 C561.713249,189.52033 563.113071,190.138637 565.008822,190.138637 C566.779027,190.138637 568.191403,189.554855 569.245993,188.387273 C569.848616,187.709322 570.275468,186.924669 570.52656,186.033289 L573.859802,186.033289 C573.771919,186.774013 573.480028,187.599469 572.98412,188.50968 C572.488211,189.419892 571.932676,190.163743 571.317499,190.741257 C570.288018,191.745628 569.013741,192.423569 567.494629,192.775099 C566.678577,192.975973 565.755825,193.076409 564.726344,193.076409 C562.215415,193.076409 560.087435,192.163072 558.34234,190.336372 C556.597244,188.509671 555.72471,185.951701 555.72471,182.662384 C555.72471,179.423286 556.603522,176.793128 558.361172,174.77183 C560.118822,172.750533 562.416287,171.739899 565.253636,171.739899 Z M570.658383,180.666206 C570.520282,179.197313 570.200144,178.023471 569.697958,177.144646 C568.768914,175.512542 567.218439,174.696503 565.046486,174.696503 C563.48971,174.696503 562.184047,175.258315 561.129457,176.381955 C560.074867,177.505596 559.516193,178.933665 559.45342,180.666206 L570.658383,180.666206 Z M589.866892,169.122269 C589.917111,167.716149 590.161922,166.686684 590.601335,166.033842 C591.392277,164.878815 592.917644,164.30131 595.17748,164.30131 C595.390909,164.30131 595.610612,164.307587 595.836595,164.320142 C596.062579,164.332696 596.319945,164.351528 596.608702,164.376637 L596.608702,167.465064 C596.257172,167.439955 596.002944,167.424262 595.846011,167.417985 C595.689078,167.411707 595.541563,167.408569 595.403462,167.408569 C594.373981,167.408569 593.758813,167.675351 593.557939,168.208923 C593.357064,168.742496 593.256629,170.101515 593.256629,172.286023 L596.608702,172.286023 L596.608702,174.960149 L593.218965,174.960149 L593.218965,192.360798 L589.866892,192.360798 L589.866892,174.960149 L587.060943,174.960149 L587.060943,172.286023 L589.866892,172.286023 L589.866892,169.122269 Z M607.738338,190.176301 C609.985619,190.176301 611.526678,189.325736 612.361562,187.624582 C613.196446,185.923428 613.613881,184.030844 613.613881,181.946773 C613.613881,180.063577 613.312575,178.531933 612.709952,177.351797 C611.755799,175.493709 610.111165,174.56468 607.776001,174.56468 C605.704485,174.56468 604.197951,175.35561 603.256352,176.937495 C602.314754,178.519381 601.843962,180.427658 601.843962,182.662384 C601.843962,184.809228 602.314754,186.598238 603.256352,188.029468 C604.197951,189.460697 605.691931,190.176301 607.738338,190.176301 Z M607.870161,171.608076 C610.468972,171.608076 612.666002,172.474333 614.461316,174.206874 C616.25663,175.939415 617.154273,178.487969 617.154273,181.852614 C617.154273,185.104266 616.363343,187.79092 614.781457,189.912655 C613.199572,192.034389 610.745176,193.095241 607.418196,193.095241 C604.64362,193.095241 602.440313,192.156795 600.808209,190.279876 C599.176105,188.402957 598.360066,185.88265 598.360066,182.71888 C598.360066,179.329126 599.220046,176.629918 600.940032,174.621175 C602.660018,172.612432 604.970038,171.608076 607.870161,171.608076 Z M621.278453,172.191864 L624.498703,172.191864 L624.498703,175.67576 C624.76235,174.997809 625.408905,174.172354 626.438386,173.199369 C627.467866,172.226384 628.654262,171.739899 629.997609,171.739899 C630.060382,171.739899 630.167095,171.746176 630.317751,171.758731 C630.468407,171.771286 630.725773,171.796394 631.089858,171.834058 L631.089858,175.412114 C630.888983,175.37445 630.703805,175.349341 630.534318,175.336786 C630.36483,175.324232 630.179652,175.317955 629.978777,175.317955 C628.271346,175.317955 626.959405,175.867212 626.042916,176.965743 C625.126427,178.064275 624.66819,179.329136 624.66819,180.760365 L624.66819,192.360798 L621.278453,192.360798 L621.278453,172.191864 Z M653.537448,165.280567 C656.550563,165.280567 658.650295,166.062082 659.836709,167.625135 C661.023123,169.188188 661.616321,170.798297 661.616321,172.45551 L658.264248,172.45551 C658.063373,171.388365 657.743235,170.553494 657.303822,169.950871 C656.487771,168.820953 655.251157,168.256003 653.593944,168.256003 C651.698193,168.256003 650.191658,169.131676 649.074295,170.883049 C647.956931,172.634422 647.335486,175.142174 647.209939,178.406381 C647.988327,177.263909 648.967575,176.410206 650.147711,175.845247 C651.227411,175.343061 652.432638,175.091972 653.763431,175.091972 C656.023266,175.091972 657.994316,175.813853 659.676638,177.257637 C661.35896,178.701421 662.200109,180.85451 662.200109,183.716969 C662.200109,186.165125 661.402901,188.333907 659.808461,190.22338 C658.214021,192.112854 655.941665,193.057577 652.991324,193.057577 C650.467841,193.057577 648.289643,192.1003 646.456665,190.185717 C644.623687,188.271134 643.707211,185.047777 643.707211,180.515551 C643.707211,177.163461 644.115231,174.319877 644.931283,171.984713 C646.500613,167.51526 649.369306,165.280567 653.537448,165.280567 Z M653.292634,190.044478 C655.075393,190.044478 656.409304,189.445002 657.294406,188.246034 C658.179509,187.047066 658.622053,185.631551 658.622053,183.999447 C658.622053,182.618436 658.226588,181.303357 657.435645,180.05417 C656.644703,178.804983 655.207218,178.180399 653.123147,178.180399 C651.666808,178.180399 650.389393,178.663745 649.290861,179.630453 C648.19233,180.597161 647.643072,182.053477 647.643072,183.999447 C647.643072,185.706879 648.142112,187.141225 649.140206,188.30253 C650.1383,189.463834 651.522429,190.044478 653.292634,190.044478 Z M718.262589,164.696779 L718.262589,167.992357 L708.940813,167.992357 L708.940813,192.360798 L705.136775,192.360798 L705.136775,167.992357 L695.814999,167.992357 L695.814999,164.696779 L718.262589,164.696779 Z M724.966735,190.176301 C727.214016,190.176301 728.755076,189.325736 729.58996,187.624582 C730.424843,185.923428 730.842279,184.030844 730.842279,181.946773 C730.842279,180.063577 730.540972,178.531933 729.938349,177.351797 C728.984196,175.493709 727.339563,174.56468 725.004399,174.56468 C722.932883,174.56468 721.426348,175.35561 720.48475,176.937495 C719.543152,178.519381 719.07236,180.427658 719.07236,182.662384 C719.07236,184.809228 719.543152,186.598238 720.48475,188.029468 C721.426348,189.460697 722.920328,190.176301 724.966735,190.176301 Z M725.098558,171.608076 C727.697369,171.608076 729.894399,172.474333 731.689713,174.206874 C733.485027,175.939415 734.382671,178.487969 734.382671,181.852614 C734.382671,185.104266 733.59174,187.79092 732.009855,189.912655 C730.42797,192.034389 727.973574,193.095241 724.646593,193.095241 C721.872017,193.095241 719.66871,192.156795 718.036607,190.279876 C716.404503,188.402957 715.588463,185.88265 715.588463,182.71888 C715.588463,179.329126 716.448444,176.629918 718.16843,174.621175 C719.888416,172.612432 722.198436,171.608076 725.098558,171.608076 Z M738.337364,164.696779 L741.595277,164.696779 L741.595277,180.760365 L750.295602,172.191864 L754.626932,172.191864 L746.905865,179.743444 L755.060065,192.360798 L750.728735,192.360798 L744.43889,182.191587 L741.595277,184.790386 L741.595277,192.360798 L738.337364,192.360798 L738.337364,164.696779 Z M766.095542,171.739899 C767.526771,171.739899 768.914038,172.075731 770.257385,172.747404 C771.600732,173.419078 772.62392,174.288474 773.32698,175.355618 C774.004931,176.372544 774.456891,177.55894 774.682875,178.914842 C774.883749,179.843886 774.984185,181.325311 774.984185,183.359163 L760.201166,183.359163 C760.263939,185.40557 760.747286,187.047065 761.65122,188.283698 C762.555154,189.52033 763.954976,190.138637 765.850727,190.138637 C767.620932,190.138637 769.033308,189.554855 770.087898,188.387273 C770.690521,187.709322 771.117373,186.924669 771.368466,186.033289 L774.701707,186.033289 C774.613824,186.774013 774.321933,187.599469 773.826025,188.50968 C773.330116,189.419892 772.774582,190.163743 772.159404,190.741257 C771.129923,191.745628 769.855646,192.423569 768.336534,192.775099 C767.520482,192.975973 766.59773,193.076409 765.568249,193.076409 C763.057321,193.076409 760.92934,192.163072 759.184245,190.336372 C757.439149,188.509671 756.566615,185.951701 756.566615,182.662384 C756.566615,179.423286 757.445427,176.793128 759.203077,174.77183 C760.960727,172.750533 763.258192,171.739899 766.095542,171.739899 Z M771.500289,180.666206 C771.362188,179.197313 771.042049,178.023471 770.539863,177.144646 C769.61082,175.512542 768.060344,174.696503 765.888391,174.696503 C764.331615,174.696503 763.025952,175.258315 761.971362,176.381955 C760.916772,177.505596 760.358099,178.933665 760.295325,180.666206 L771.500289,180.666206 Z M779.146028,172.191864 L782.366278,172.191864 L782.366278,175.054308 C783.320431,173.874172 784.331065,173.026746 785.398209,172.512006 C786.465354,171.997265 787.65175,171.739899 788.957433,171.739899 C791.819892,171.739899 793.753278,172.737978 794.757649,174.734167 C795.310054,175.826421 795.586252,177.38945 795.586252,179.423302 L795.586252,192.360798 L792.140019,192.360798 L792.140019,179.649285 C792.140019,178.41893 791.95798,177.427128 791.593895,176.673849 C790.991272,175.418385 789.899035,174.790662 788.31715,174.790662 C787.513652,174.790662 786.854543,174.872266 786.339803,175.035476 C785.410759,175.311679 784.59472,175.864075 783.89166,176.692681 C783.326701,177.358077 782.959483,178.045434 782.789995,178.754771 C782.620508,179.464108 782.535765,180.477881 782.535765,181.796118 L782.535765,192.360798 L779.146028,192.360798 L779.146028,172.191864 Z M802.61054,186.033289 C802.710977,187.163207 802.993452,188.029464 803.457974,188.632087 C804.31169,189.724341 805.793115,190.27046 807.902295,190.27046 C809.15776,190.27046 810.262552,189.997401 811.216705,189.451274 C812.170858,188.905147 812.647927,188.06086 812.647927,186.918387 C812.647927,186.052117 812.265016,185.393008 811.499183,184.941041 C811.009552,184.664838 810.042859,184.3447 808.599075,183.980615 L805.906117,183.302668 C804.186131,182.87581 802.918131,182.398741 802.102079,181.871446 C800.64574,180.954957 799.917582,179.686957 799.917582,178.067408 C799.917582,176.159102 800.604939,174.614904 801.979672,173.434767 C803.354405,172.254631 805.203049,171.664572 807.525658,171.664572 C810.563882,171.664572 812.754634,172.555938 814.097981,174.338697 C814.939142,175.468615 815.347162,176.686397 815.322053,177.99208 L812.120635,177.99208 C812.057861,177.226247 811.787941,176.529475 811.310864,175.901743 C810.532476,175.010363 809.182872,174.56468 807.262012,174.56468 C805.981438,174.56468 805.011607,174.809492 804.352488,175.299123 C803.693369,175.788754 803.363815,176.435308 803.363815,177.238805 C803.363815,178.11763 803.796943,178.82068 804.663214,179.347975 C805.165399,179.661841 805.906112,179.938039 806.885374,180.176577 L809.126367,180.722702 C811.561968,181.31277 813.194047,181.883997 814.022654,182.436402 C815.340891,183.302672 816,184.664831 816,186.522918 C816,188.318232 815.318921,189.868707 813.956742,191.17439 C812.594563,192.480073 810.519939,193.132905 807.732809,193.132905 C804.732249,193.132905 802.607407,192.451825 801.35822,191.089647 C800.109033,189.727468 799.440508,188.042032 799.352626,186.033289 L802.61054,186.033289 Z" id="path-6"></path>
        <filter x="-1.2%" y="-12.2%" width="102.4%" height="146.1%" filterUnits="objectBoundingBox" id="filter-7">
            <feMorphology radius="0.5" operator="dilate" in="SourceAlpha" result="shadowSpreadOuter1"></feMorphology>
            <feOffset dx="0" dy="4" in="shadowSpreadOuter1" result="shadowOffsetOuter1"></feOffset>
            <feGaussianBlur stdDeviation="2" in="shadowOffsetOuter1" result="shadowBlurOuter1"></feGaussianBlur>
            <feComposite in="shadowBlurOuter1" in2="SourceAlpha" operator="out" result="shadowBlurOuter1"></feComposite>
            <feColorMatrix values="0 0 0 0 0.666507228   0 0 0 0 0.383241656   0 0 0 0 0  0 0 0 1 0" type="matrix" in="shadowBlurOuter1"></feColorMatrix>
        </filter>
        <path d="M286,210.884458 L289.980075,210.884458 L302.546949,231.038879 L302.546949,210.884458 L305.747945,210.884458 L305.747945,235.764159 L301.971108,235.764159 L289.217933,215.626674 L289.217933,235.764159 L286,235.764159 L286,210.884458 Z M317.840598,233.799526 C319.861695,233.799526 321.247651,233.034569 321.998506,231.504632 C322.74936,229.974695 323.124782,228.272595 323.124782,226.398281 C323.124782,224.704624 322.853801,223.327136 322.311831,222.265778 C321.453711,220.594703 319.974606,219.759178 317.874471,219.759178 C316.011448,219.759178 314.656542,220.470503 313.809714,221.893175 C312.962885,223.315847 312.539477,225.032061 312.539477,227.041867 C312.539477,228.972637 312.962885,230.581587 313.809714,231.868767 C314.656542,233.155946 316.000157,233.799526 317.840598,233.799526 Z M317.959153,217.100149 C320.2964,217.100149 322.272304,217.87922 323.886924,219.437384 C325.501544,220.995549 326.308842,223.287597 326.308842,226.313598 C326.308842,229.23798 325.597516,231.654228 324.174844,233.562415 C322.752172,235.470603 320.544805,236.424682 317.552677,236.424682 C315.057356,236.424682 313.075806,235.580689 311.60797,233.892677 C310.140134,232.204665 309.406227,229.938021 309.406227,227.092677 C309.406227,224.044094 310.179652,221.616555 311.726526,219.809987 C313.273399,218.003419 315.350921,217.100149 317.959153,217.100149 Z M331.423661,217.62518 L336.267497,232.393798 L341.331507,217.62518 L344.667995,217.62518 L337.825654,235.764159 L334.573848,235.764159 L327.883935,217.62518 L331.423661,217.62518 Z M345.447073,232.072004 L348.9868,232.072004 L348.9868,235.764159 L345.447073,235.764159 L345.447073,232.072004 Z M355.439601,218.59056 L355.439601,216.253324 C357.641356,216.038795 359.176916,215.680309 360.046326,215.177857 C360.915737,214.675406 361.564963,213.487041 361.994022,211.612727 L364.399004,211.612727 L364.399004,235.764159 L361.147198,235.764159 L361.147198,218.59056 L355.439601,218.59056 Z M372.172852,218.59056 L372.172852,216.253324 C374.374606,216.038795 375.910166,215.680309 376.779577,215.177857 C377.648987,214.675406 378.298213,213.487041 378.727273,211.612727 L381.132254,211.612727 L381.132254,235.764159 L377.880448,235.764159 L377.880448,218.59056 L372.172852,218.59056 Z M389.583562,224.535267 L398.085679,224.535267 L398.085679,227.668517 L389.583562,227.668517 L389.583562,224.535267 Z M402.336737,210.884458 L406.316812,210.884458 L418.883686,231.038879 L418.883686,210.884458 L422.084682,210.884458 L422.084682,235.764159 L418.307846,235.764159 L405.55467,215.626674 L405.55467,235.764159 L402.336737,235.764159 L402.336737,210.884458 Z M434.177335,233.799526 C436.198433,233.799526 437.584388,233.034569 438.335243,231.504632 C439.086098,229.974695 439.461519,228.272595 439.461519,226.398281 C439.461519,224.704624 439.190538,223.327136 438.648568,222.265778 C437.790448,220.594703 436.311343,219.759178 434.211208,219.759178 C432.348185,219.759178 430.993279,220.470503 430.146451,221.893175 C429.299622,223.315847 428.876214,225.032061 428.876214,227.041867 C428.876214,228.972637 429.299622,230.581587 430.146451,231.868767 C430.993279,233.155946 432.336894,233.799526 434.177335,233.799526 Z M434.29589,217.100149 C436.633137,217.100149 438.609041,217.87922 440.223661,219.437384 C441.838281,220.995549 442.645579,223.287597 442.645579,226.313598 C442.645579,229.23798 441.934254,231.654228 440.511582,233.562415 C439.088909,235.470603 436.881543,236.424682 433.889415,236.424682 C431.394093,236.424682 429.412544,235.580689 427.944707,233.892677 C426.476871,232.204665 425.742964,229.938021 425.742964,227.092677 C425.742964,224.044094 426.516389,221.616555 428.063263,219.809987 C429.610136,218.003419 431.687658,217.100149 434.29589,217.100149 Z M447.760399,217.62518 L452.604234,232.393798 L457.668244,217.62518 L461.004732,217.62518 L454.162391,235.764159 L450.910585,235.764159 L444.220672,217.62518 L447.760399,217.62518 Z M461.783811,232.072004 L465.323537,232.072004 L465.323537,235.764159 L461.783811,235.764159 L461.783811,232.072004 Z M471.776339,218.59056 L471.776339,216.253324 C473.978093,216.038795 475.513653,215.680309 476.383064,215.177857 C477.252474,214.675406 477.9017,213.487041 478.33076,211.612727 L480.735741,211.612727 L480.735741,235.764159 L477.483935,235.764159 L477.483935,218.59056 L471.776339,218.59056 Z M496.757659,236.424682 C493.889732,236.424682 491.809388,235.637143 490.516563,234.062042 C489.223738,232.48694 488.577335,230.570314 488.577335,228.312104 L491.761395,228.312104 C491.896887,229.88156 492.19045,231.021939 492.642092,231.733275 C493.432466,233.009163 494.860762,233.647098 496.927024,233.647098 C498.530353,233.647098 499.817513,233.218044 500.788543,232.359925 C501.759573,231.501805 502.245081,230.395299 502.245081,229.040373 C502.245081,227.369298 501.734169,226.200692 500.712329,225.53452 C499.690489,224.868348 498.270661,224.535267 496.452802,224.535267 C496.249563,224.535267 496.043505,224.53809 495.83462,224.543735 C495.625736,224.549381 495.414032,224.557849 495.199502,224.56914 L495.199502,221.876239 C495.515651,221.910112 495.780987,221.932693 495.995517,221.943984 C496.210047,221.955276 496.44151,221.960921 496.689913,221.960921 C497.830309,221.960921 498.767452,221.780267 499.50137,221.418953 C500.788549,220.786655 501.43213,219.657567 501.43213,218.031656 C501.43213,216.823514 501.003076,215.892016 500.144956,215.237135 C499.286837,214.582254 498.287594,214.254819 497.147198,214.254819 C495.114809,214.254819 493.709095,214.932272 492.930012,216.287197 C492.500953,217.032407 492.258199,218.093749 492.201743,219.471257 L489.187049,219.471257 C489.187049,217.664689 489.548357,216.12913 490.270984,214.864532 C491.512999,212.606323 493.697784,211.477235 496.825405,211.477235 C499.298144,211.477235 501.211948,212.027665 502.566874,213.128542 C503.9218,214.22942 504.599253,215.824256 504.599253,217.9131 C504.599253,219.403519 504.198427,220.611643 503.396762,221.537509 C502.899956,222.113352 502.256376,222.564987 501.466002,222.892428 C502.741891,223.24245 503.738311,223.91708 504.455293,224.916338 C505.172274,225.915596 505.53076,227.137834 505.53076,228.583088 C505.53076,230.897753 504.768625,232.78333 503.244334,234.239875 C501.720042,235.69642 499.557839,236.424682 496.757659,236.424682 Z M522.975342,210.884458 L522.975342,226.262789 C522.975342,228.069357 523.314069,229.571044 523.991532,230.767895 C524.996435,232.574463 526.690067,233.477733 529.072478,233.477733 C531.929113,233.477733 533.871145,232.501072 534.89863,230.54772 C535.451892,229.486362 535.728518,228.058066 535.728518,226.262789 L535.728518,210.884458 L539.149689,210.884458 L539.149689,224.85706 C539.149689,227.916935 538.737572,230.271083 537.913325,231.919576 C536.400325,234.922995 533.543732,236.424682 529.343462,236.424682 C525.143192,236.424682 522.292245,234.922995 520.790535,231.919576 C519.966289,230.271083 519.554172,227.916935 519.554172,224.85706 L519.554172,210.884458 L522.975342,210.884458 Z M562.471233,210.884458 L562.471233,213.848343 L554.087671,213.848343 L554.087671,235.764159 L550.666501,235.764159 L550.666501,213.848343 L542.282939,213.848343 L542.282939,210.884458 L562.471233,210.884458 Z M576.03736,210.206998 C579.187562,210.206998 581.632038,211.036878 583.370859,212.696662 C585.109681,214.356446 586.075051,216.242023 586.266999,218.353449 L582.98132,218.353449 C582.608715,216.75012 581.86634,215.479896 580.754172,214.542739 C579.642004,213.605582 578.08104,213.137011 576.071233,213.137011 C573.621075,213.137011 571.642349,213.99794 570.134994,215.719825 C568.627639,217.44171 567.873973,220.080953 567.873973,223.637633 C567.873973,226.550724 568.554248,228.91334 569.914819,230.725554 C571.275391,232.537767 573.304926,233.44386 576.003487,233.44386 C578.487518,233.44386 580.37874,232.489781 581.67721,230.581593 C582.365964,229.57669 582.879699,228.255657 583.218431,226.618455 L586.50411,226.618455 C586.210542,229.237978 585.239527,231.434054 583.591034,233.206749 C581.6151,235.340757 578.950453,236.407745 575.597011,236.407745 C572.706503,236.407745 570.278964,235.532702 568.314321,233.78259 C565.728671,231.467925 564.435866,227.894361 564.435866,223.061793 C564.435866,219.392202 565.406881,216.383183 567.348941,214.034645 C569.449077,211.482868 572.345187,210.206998 576.03736,210.206998 Z M589.518804,228.345977 L589.518804,225.500647 L596.903113,225.500647 L596.903113,218.065529 L599.799253,218.065529 L599.799253,225.500647 L607.183562,225.500647 L607.183562,228.345977 L599.799253,228.345977 L599.799253,235.764159 L596.903113,235.764159 L596.903113,228.345977 L589.518804,228.345977 Z M617.650311,221.673001 C618.993946,221.673001 620.043998,221.297579 620.800498,220.546724 C621.556998,219.795869 621.935243,218.901067 621.935243,217.862291 C621.935243,216.959007 621.573935,216.129127 620.851308,215.372627 C620.12868,214.616127 619.02782,214.237882 617.548692,214.237882 C616.080856,214.237882 615.019513,214.616127 614.364633,215.372627 C613.709752,216.129127 613.382316,217.015461 613.382316,218.031656 C613.382316,219.172052 613.805724,220.064031 614.652553,220.707621 C615.499382,221.351211 616.498624,221.673001 617.650311,221.673001 Z M617.836613,233.680971 C619.247994,233.680971 620.419422,233.299904 621.350934,232.537758 C622.282446,231.775612 622.748194,230.638056 622.748194,229.125055 C622.748194,227.5556 622.268332,226.364412 621.308593,225.551456 C620.348854,224.738501 619.118148,224.332029 617.616438,224.332029 C616.159893,224.332029 614.971528,224.746969 614.051308,225.576861 C613.131087,226.406753 612.670984,227.5556 612.670984,229.023437 C612.670984,230.288034 613.091569,231.380427 613.932752,232.300647 C614.773935,233.220867 616.075209,233.680971 617.836613,233.680971 Z M613.500872,222.841618 C612.654043,222.480305 611.993527,222.056897 611.519303,221.571382 C610.62731,220.668098 610.18132,219.493846 610.18132,218.048592 C610.18132,216.242024 610.836191,214.689529 612.145953,213.391058 C613.455714,212.092587 615.313064,211.443362 617.718057,211.443362 C620.044013,211.443362 621.86749,212.055892 623.188543,213.280971 C624.509596,214.50605 625.170112,215.937168 625.170112,217.574371 C625.170112,219.087371 624.786222,220.312431 624.018431,221.249588 C623.589371,221.780268 622.923209,222.299648 622.019925,222.807745 C623.024829,223.270678 623.81519,223.80135 624.391034,224.399775 C625.463683,225.52888 626,226.996694 626,228.803262 C626,230.93727 625.283029,232.746634 623.849066,234.231407 C622.415103,235.71618 620.38839,236.458555 617.768867,236.458555 C615.409038,236.458555 613.413375,235.817797 611.781818,234.536263 C610.150262,233.254729 609.334496,231.394557 609.334496,228.955691 C609.334496,227.521727 609.684513,226.282553 610.384558,225.238131 C611.084603,224.193709 612.123364,223.39488 613.500872,222.841618 Z" id="path-8"></path>
    </defs>
    <g id="web" stroke="none" stroke-width="1" fill="none" fill-rule="evenodd">
        <g id="banner_word_en-copy" transform="translate(3.000000, 0.000000)">
            <g id="QB-TOKEN-GIVEAWAY">
                <use fill="black" fill-opacity="1" filter="url(#filter-3)" xlink:href="#path-2"></use>
                <use fill="url(#linearGradient-1)" fill-rule="evenodd" xlink:href="#path-2"></use>
            </g>
            <g id="100-10000-Special-Bonus">
                <use fill="black" fill-opacity="1" filter="url(#filter-5)" xlink:href="#path-4"></use>
                <use fill="#FEEFD0" fill-rule="evenodd" xlink:href="#path-4"></use>
            </g>
            <g id="Sign-Up-for-50-Tokens-Invite-for-66-Tokens">
                <use fill="black" fill-opacity="1" filter="url(#filter-7)" xlink:href="#path-6"></use>
                <use fill="#FFDA77" fill-rule="evenodd" xlink:href="#path-6"></use>
            </g>
            <g id="Nov.11-Nov.13-UTC+8">
                <use fill="#000000" xlink:href="#path-8"></use>
                <use fill="#673300" xlink:href="#path-8"></use>
            </g>
        </g>
    </g>
</svg>