<?xml version="1.0" encoding="UTF-8"?>
<svg width="562px" height="162px" viewBox="0 0 562 162" version="1.1" xmlns="http://www.w3.org/2000/svg" xmlns:xlink="http://www.w3.org/1999/xlink">
    <!-- Generator: Sketch 52.3 (67297) - http://www.bohemiancoding.com/sketch -->
    <title>web_word_ch</title>
    <desc>Created with Sketch.</desc>
    <g id="web-落地页" stroke="none" stroke-width="1" fill="none" fill-rule="evenodd">
        <g id="分组-4" transform="translate(0.000000, 20.000000)" fill="#000000">
            <path d="M84.356,4.152 L86.98,4.152 L86.98,18.264 C86.98,20.504 87.46,22.2 88.484,23.352 C89.54,24.536 91.204,25.144 93.476,25.144 C95.716,25.144 97.38,24.536 98.468,23.352 C99.46,22.2 99.972,20.504 99.972,18.264 L99.972,4.152 L102.596,4.152 L102.596,18.232 C102.596,21.208 101.828,23.48 100.324,25.048 C98.756,26.648 96.484,27.448 93.476,27.448 C90.468,27.448 88.196,26.648 86.66,25.08 C85.124,23.48 84.356,21.208 84.356,18.232 L84.356,4.152 Z M118.964,3.704 C121.812,3.704 124.084,4.376 125.78,5.784 C127.38,7.096 128.372,8.984 128.788,11.48 L126.164,11.48 C125.812,9.752 125.044,8.44 123.86,7.512 C122.612,6.52 120.98,6.04 118.964,6.04 C116.468,6.04 114.516,6.904 113.044,8.664 C111.572,10.392 110.868,12.728 110.868,15.672 C110.868,18.552 111.572,20.824 112.98,22.488 C114.484,24.248 116.724,25.144 119.7,25.144 C120.948,25.144 122.132,24.952 123.284,24.632 C124.404,24.312 125.364,23.864 126.164,23.352 L126.164,17.528 L118.996,17.528 L118.996,15.256 L128.756,15.256 L128.756,24.6 C127.668,25.496 126.324,26.168 124.756,26.68 C123.092,27.192 121.332,27.448 119.444,27.448 C115.828,27.448 113.012,26.296 111.028,23.992 C109.172,21.848 108.244,19.064 108.244,15.672 C108.244,12.28 109.14,9.496 110.996,7.288 C112.948,4.888 115.604,3.704 118.964,3.704 Z M141.828,4.152 L144.868,4.152 L153.86,27 L151.012,27 L148.58,20.6 L138.084,20.6 L135.652,27 L132.836,27 L141.828,4.152 Z M138.916,18.392 L147.748,18.392 L143.428,6.968 L143.3,6.968 L138.916,18.392 Z M165.844,3.704 C168.404,3.704 170.452,4.28 171.924,5.464 C173.46,6.68 174.324,8.504 174.548,10.904 L171.956,10.904 C171.668,9.24 171.028,8.024 170.036,7.224 C169.012,6.392 167.572,6.008 165.716,6.008 C164.02,6.008 162.708,6.264 161.748,6.84 C160.66,7.48 160.116,8.44 160.116,9.752 C160.116,10.904 160.756,11.832 162.068,12.536 C162.644,12.856 164.052,13.336 166.26,13.976 C169.268,14.872 171.252,15.608 172.212,16.184 C174.1,17.336 175.06,18.936 175.06,21.016 C175.06,23 174.26,24.6 172.66,25.752 C171.06,26.872 168.916,27.448 166.196,27.448 C163.508,27.448 161.396,26.872 159.86,25.72 C158.068,24.344 157.076,22.264 156.884,19.448 L159.476,19.448 C159.7,21.432 160.404,22.904 161.556,23.832 C162.612,24.664 164.148,25.112 166.196,25.112 C168.052,25.112 169.588,24.76 170.74,24.056 C171.892,23.352 172.468,22.392 172.468,21.176 C172.468,19.736 171.7,18.616 170.196,17.816 C169.556,17.432 167.924,16.888 165.364,16.152 C162.612,15.32 160.852,14.68 160.116,14.296 C158.356,13.272 157.492,11.8 157.492,9.88 C157.492,7.896 158.324,6.328 160.02,5.24 C161.524,4.216 163.476,3.704 165.844,3.704 Z M195.668,10.264 L205.556,10.264 L205.556,8.216 L193.044,8.216 L193.044,6.232 L205.556,6.232 L205.556,3.928 C202.324,4.12 198.964,4.28 195.444,4.408 L195.06,2.52 C203.38,2.264 210.74,1.784 217.108,1.08 L217.812,3 C214.74,3.32 211.412,3.576 207.86,3.8 L207.86,6.232 L220.436,6.232 L220.436,8.216 L207.86,8.216 L207.86,10.264 L217.78,10.264 L217.78,20.888 L207.86,20.888 L207.86,23.096 L219.316,23.096 L219.316,24.952 L207.86,24.952 L207.86,27.352 L220.884,27.352 L220.884,29.368 L192.596,29.368 L192.596,27.352 L205.556,27.352 L205.556,24.952 L194.196,24.952 L194.196,23.096 L205.556,23.096 L205.556,20.888 L195.668,20.888 L195.668,10.264 Z M215.54,19.032 L215.54,16.44 L207.86,16.44 L207.86,19.032 L215.54,19.032 Z M205.556,19.032 L205.556,16.44 L197.876,16.44 L197.876,19.032 L205.556,19.032 Z M197.876,14.648 L205.556,14.648 L205.556,12.12 L197.876,12.12 L197.876,14.648 Z M207.86,12.12 L207.86,14.648 L215.54,14.648 L215.54,12.12 L207.86,12.12 Z M230.084,4.888 L226.884,4.888 L226.884,2.648 L237.348,2.648 L237.348,4.888 L232.228,4.888 C231.844,7.448 231.3,9.848 230.596,12.088 L236.612,12.088 L236.612,27.224 L231.3,27.224 L231.3,29.144 L229.156,29.144 L229.156,15.768 C228.548,17.112 227.876,18.36 227.108,19.576 L225.892,17.592 C228.004,13.88 229.412,9.656 230.084,4.888 Z M231.3,25.112 L234.532,25.112 L234.532,14.2 L231.3,14.2 L231.3,25.112 Z M238.564,3.608 L245.508,3.608 C245.188,2.68 244.836,1.816 244.452,1.048 L246.724,0.664 C247.076,1.528 247.428,2.52 247.748,3.608 L254.5,3.608 L254.5,5.656 L251.46,5.656 C251.236,6.936 250.916,8.216 250.5,9.432 L254.692,9.432 L254.692,14.392 L252.484,14.392 L252.484,11.48 L240.484,11.48 L240.484,14.456 L238.244,14.456 L238.244,9.432 L242.692,9.432 C242.372,8.056 242.02,6.808 241.636,5.656 L238.564,5.656 L238.564,3.608 Z M248.292,9.432 C248.708,8.216 249.028,6.968 249.252,5.656 L243.908,5.656 C244.228,6.808 244.548,8.056 244.868,9.432 L248.292,9.432 Z M237.86,15.928 L245.636,15.928 C245.316,14.84 244.932,13.848 244.548,12.92 L246.82,12.536 C247.204,13.56 247.556,14.68 247.908,15.928 L255.108,15.928 L255.108,18.04 L244.996,18.04 C244.932,19.064 244.836,20.056 244.676,20.984 L253.06,20.984 C253.06,25.624 252.58,28.344 251.684,29.144 C251.3,29.464 250.692,29.72 249.924,29.88 C249.284,29.976 248.644,30.04 248.004,30.04 L246.468,30.04 L245.86,27.992 L248.356,27.992 C249.188,27.992 249.764,27.8 250.148,27.48 C250.532,27.128 250.788,25.624 250.852,23 L244.164,23 C243.14,26.2 241.252,28.696 238.5,30.424 L237.284,28.504 C240.804,26.392 242.66,22.904 242.852,18.04 L237.86,18.04 L237.86,15.928 Z M272.052,0.856 L274.42,0.856 L274.42,10.744 L286.292,10.744 L286.292,12.984 L274.42,12.984 L274.42,26.68 L289.012,26.68 L289.012,28.92 L260.532,28.92 L260.532,26.68 L272.052,26.68 L272.052,0.856 Z M305.476,23.832 L305.476,26.04 C302.34,27.256 298.756,28.248 294.724,28.984 L294.436,26.744 C298.66,26.04 302.34,25.048 305.476,23.832 Z M299.78,0.696 L301.988,1.56 C300.356,5.72 298.692,9.048 297.028,11.544 C298.468,11.416 299.908,11.224 301.348,11 C301.924,9.848 302.564,8.632 303.204,7.352 L305.252,8.12 C302.436,13.528 300.068,17.368 298.212,19.64 C300.516,19.192 302.82,18.584 305.124,17.816 L305.124,19.896 C301.764,20.984 298.564,21.752 295.492,22.168 L294.852,20.056 C295.268,19.864 295.62,19.64 295.908,19.384 C297.092,18.168 298.532,16.056 300.196,13.08 C298.436,13.336 296.644,13.56 294.852,13.784 L294.308,11.672 C294.66,11.544 294.98,11.256 295.268,10.84 C296.996,7.896 298.5,4.504 299.78,0.696 Z M320.996,6.52 L321.316,8.632 L313.092,9.784 C313.156,11.32 313.252,12.76 313.38,14.136 L321.86,12.792 L322.212,14.968 L313.636,16.312 C313.7,16.888 313.796,17.464 313.892,17.976 C314.212,19.64 314.596,21.08 315.044,22.36 C316.772,20.76 318.308,18.968 319.652,16.92 L321.476,18.168 C319.78,20.632 317.956,22.744 315.972,24.472 C316.1,24.664 316.196,24.888 316.324,25.08 C317.38,26.648 318.308,27.448 319.14,27.448 C319.972,27.448 320.708,25.72 321.284,22.296 L323.236,23.576 C322.34,27.8 321.06,29.944 319.396,29.944 C317.86,29.88 316.42,28.92 315.044,27 C314.756,26.616 314.5,26.232 314.308,25.816 C311.94,27.576 309.38,28.888 306.66,29.72 L305.316,27.864 C308.26,26.904 310.916,25.56 313.284,23.8 C312.676,22.392 312.196,20.856 311.812,19.128 C311.62,18.296 311.492,17.496 311.364,16.664 L305.604,17.592 L305.284,15.416 L311.076,14.488 C310.916,13.112 310.82,11.64 310.788,10.104 L306.18,10.776 L305.828,8.664 L310.724,7.96 L310.724,0.856 L313.028,0.856 L313.028,7.64 L320.996,6.52 Z M316.612,0.76 C318.244,2.296 319.492,3.608 320.388,4.728 L318.596,5.976 C317.7,4.728 316.42,3.352 314.82,1.88 L316.612,0.76 Z M339.028,3.704 C342.42,3.704 345.14,4.824 347.124,7.128 C348.98,9.304 349.94,12.12 349.94,15.608 C349.94,19.064 348.98,21.848 347.124,24.024 C347.06,24.088 346.996,24.152 346.964,24.216 C347.86,25.368 348.724,26.584 349.588,27.832 L347.86,29.336 C346.964,28.056 346.1,26.84 345.236,25.688 C343.508,26.84 341.428,27.448 338.996,27.448 C335.572,27.448 332.884,26.296 330.9,24.024 C329.012,21.848 328.084,19.032 328.084,15.608 C328.084,12.152 329.012,9.336 330.9,7.16 C332.884,4.856 335.572,3.704 339.028,3.704 Z M339.028,6.04 C336.404,6.04 334.324,6.936 332.82,8.76 C331.412,10.488 330.708,12.76 330.708,15.608 C330.708,18.424 331.412,20.696 332.82,22.424 C334.292,24.216 336.372,25.112 338.996,25.112 C340.884,25.112 342.484,24.664 343.764,23.768 C342.484,22.136 341.204,20.632 339.924,19.288 L341.492,17.784 C342.804,19.192 344.116,20.664 345.396,22.232 C346.676,20.536 347.316,18.328 347.316,15.608 C347.316,12.696 346.58,10.392 345.172,8.664 C343.7,6.904 341.652,6.04 339.028,6.04 Z M355.588,4.152 L365.796,4.152 C367.908,4.152 369.604,4.664 370.852,5.688 C372.068,6.712 372.676,8.12 372.676,9.912 C372.676,11.192 372.324,12.312 371.652,13.24 C370.948,14.072 370.02,14.68 368.868,15.064 C370.372,15.32 371.524,15.96 372.356,16.92 C373.188,17.88 373.636,19.096 373.636,20.632 C373.636,22.872 372.836,24.536 371.268,25.624 C369.924,26.52 368.068,27 365.732,27 L355.588,27 L355.588,4.152 Z M358.212,6.36 L358.212,14.136 L365.156,14.136 C366.756,14.136 367.972,13.784 368.804,13.144 C369.636,12.472 370.084,11.48 370.084,10.168 C370.084,8.888 369.668,7.928 368.836,7.288 C368.004,6.648 366.788,6.36 365.188,6.36 L358.212,6.36 Z M358.212,16.312 L358.212,24.792 L365.508,24.792 C367.108,24.792 368.356,24.472 369.316,23.896 C370.436,23.192 371.012,22.072 371.012,20.6 C371.012,19.128 370.5,18.04 369.54,17.336 C368.612,16.632 367.268,16.312 365.508,16.312 L358.212,16.312 Z M378.804,4.664 L392.02,4.664 C391.444,3.352 390.804,2.168 390.1,1.08 L392.66,0.632 C393.3,1.848 393.94,3.192 394.516,4.664 L407.124,4.664 L407.124,6.872 L378.804,6.872 L378.804,4.664 Z M398.004,7.832 C401.556,10.648 404.532,13.432 406.932,16.248 L405.236,17.944 C403.124,15.256 400.18,12.408 396.436,9.336 L398.004,7.832 Z M398.324,13.816 L400.436,14.744 C398.9,17.688 397.044,20.216 394.836,22.36 C398.292,24.856 402.484,26.712 407.476,27.992 L406.036,30.136 C400.852,28.664 396.532,26.616 393.076,23.928 C389.492,26.808 385.14,28.92 380.02,30.264 L378.612,28.152 C383.668,26.872 387.86,24.952 391.22,22.392 C388.884,20.28 386.964,17.848 385.46,15.16 L387.444,14.04 C388.852,16.664 390.708,18.936 392.98,20.888 C395.156,18.84 396.948,16.504 398.324,13.816 Z M387.7,7.864 L389.364,9.336 C386.932,12.504 383.924,15.288 380.34,17.656 L378.868,15.704 C382.356,13.464 385.3,10.872 387.7,7.864 Z M421.668,13.304 L417.22,13.304 L417.22,2.04 L436.836,2.04 L436.836,13.304 L424.26,13.304 C423.684,14.2 422.98,15.064 422.212,15.896 L439.172,15.896 C439.076,19.32 438.884,22.104 438.596,24.216 C438.276,26.296 437.796,27.768 437.124,28.6 C436.452,29.368 435.364,29.816 433.828,29.88 L429.7,29.88 L429.092,27.736 C430.372,27.8 431.588,27.832 432.74,27.832 C434.308,27.832 435.332,27.224 435.844,26.008 C436.356,24.728 436.676,22.04 436.836,17.944 L433.764,17.944 C431.012,24.088 426.628,28.12 420.58,30.104 L419.268,28.184 C424.9,26.392 428.964,23 431.428,17.944 L427.204,17.944 C424.964,21.528 421.348,24.312 416.324,26.296 L414.884,24.536 C419.492,22.84 422.788,20.632 424.804,17.944 L419.908,17.944 C418.34,19.128 416.516,20.216 414.404,21.176 L413.156,19.128 C417.028,17.592 419.876,15.672 421.668,13.304 Z M434.564,11.352 L434.564,8.6 L419.492,8.6 L419.492,11.352 L434.564,11.352 Z M419.492,6.744 L434.564,6.744 L434.564,4.024 L419.492,4.024 L419.492,6.744 Z M458.996,19.704 L450.644,19.704 C450.26,23.672 449.268,27.16 447.668,30.136 L446.068,28.472 C447.796,25.208 448.692,21.368 448.756,16.888 L448.756,3.608 C452.564,3.16 455.54,2.264 457.716,0.952 L459.252,2.712 C456.948,3.96 454.132,4.824 450.804,5.304 L450.804,9.016 L458.996,9.016 L458.996,19.704 Z M450.804,11.256 L450.804,16.888 C450.804,17.112 450.772,17.336 450.772,17.592 L456.884,17.592 L456.884,11.256 L450.804,11.256 Z M463.828,12.952 L463.828,17.72 C463.764,23.256 463.06,27.416 461.652,30.2 L459.572,29.176 C460.948,26.456 461.684,22.648 461.748,17.72 L461.748,3.256 C466.26,3.064 470.1,2.328 473.236,1.016 L474.388,3.032 C471.22,4.248 467.7,4.952 463.796,5.144 L463.828,10.744 L475.508,10.744 L475.508,12.952 L471.892,12.952 L471.892,30.2 L469.62,30.2 L469.62,12.952 L463.828,12.952 Z" id="UGAS-重磅上线QB交易所"></path>
            <path d="M201.53,122.84 L202.83,122.84 C203.89,125.22 205.71,127.3 208.31,129.1 L207.53,130.3 C205.13,128.66 203.33,126.66 202.17,124.28 C201.19,126.24 200.03,127.88 198.67,129.2 L205.83,129.2 L205.83,134.16 C205.81,135.26 205.25,135.84 204.17,135.9 C203.41,135.9 202.69,135.86 202.01,135.82 L201.65,134.5 C202.37,134.56 203.05,134.6 203.67,134.6 C204.17,134.6 204.43,134.3 204.43,133.74 L204.43,130.48 L199.95,130.48 L199.95,138.3 C199.95,138.98 200.27,139.32 200.91,139.32 L204.71,139.32 C205.57,139.32 206.11,139.14 206.33,138.78 C206.53,138.36 206.71,137.54 206.83,136.34 L208.17,136.78 C207.99,138.6 207.69,139.72 207.29,140.14 C206.91,140.48 206.17,140.66 205.09,140.66 L200.37,140.66 C199.13,140.66 198.51,140.02 198.51,138.78 L198.51,129.36 C197.97,129.84 197.43,130.28 196.91,130.66 L196.15,129.46 C198.47,127.76 200.25,125.56 201.53,122.84 Z M196.47,130.58 L196.47,132.02 C195.75,132.4 195.05,132.74 194.33,133.06 L194.33,138.98 C194.33,140.18 193.73,140.78 192.55,140.78 L190.79,140.78 L190.49,139.4 C191.03,139.44 191.55,139.48 192.05,139.48 C192.59,139.48 192.87,139.18 192.87,138.6 L192.87,133.68 C191.99,134.02 191.11,134.34 190.23,134.62 L189.87,133.26 C190.91,133 191.91,132.68 192.87,132.3 L192.87,127.88 L190.27,127.88 L190.27,126.5 L192.87,126.5 L192.87,122.72 L194.33,122.72 L194.33,126.5 L196.27,126.5 L196.27,127.88 L194.33,127.88 L194.33,131.68 C195.05,131.34 195.77,130.98 196.47,130.58 Z M213.71,122.88 C215.13,123.9 216.33,124.92 217.29,125.96 L216.27,127 C215.39,126.02 214.21,124.98 212.69,123.86 L213.71,122.88 Z M213.25,127.64 C214.59,128.64 215.71,129.66 216.63,130.68 L215.61,131.7 C214.79,130.74 213.67,129.72 212.23,128.62 L213.25,127.64 Z M215.81,133.2 L217.09,133.72 C216.19,136.24 215.19,138.62 214.09,140.84 L212.65,140.22 C213.85,137.94 214.91,135.6 215.81,133.2 Z M218.05,126.04 L223.43,126.04 C223.03,124.96 222.59,123.94 222.07,122.94 L223.43,122.56 C223.99,123.72 224.43,124.76 224.73,125.72 L223.91,126.04 L229.87,126.04 L229.87,127.46 L224.71,127.46 L224.71,132.26 L229.33,132.26 L229.33,133.64 L224.71,133.64 L224.71,138.9 L230.25,138.9 L230.25,140.32 L217.55,140.32 L217.55,138.9 L223.25,138.9 L223.25,133.64 L218.61,133.64 L218.61,132.26 L223.25,132.26 L223.25,127.46 L218.05,127.46 L218.05,126.04 Z M240.17,129.86 L240.17,132.04 L248.11,132.04 L248.11,129.86 L240.17,129.86 Z M248.11,133.3 L240.17,133.3 L240.17,135.42 L248.11,135.42 L248.11,133.3 Z M248.11,136.68 L240.17,136.68 L240.17,140.96 L238.81,140.96 L238.81,130.5 C237.69,131.9 236.39,133.2 234.95,134.36 L234.01,133.14 C236.53,131.14 238.47,128.86 239.85,126.28 L234.55,126.28 L234.55,124.88 L240.51,124.88 C240.85,124.1 241.15,123.32 241.39,122.54 L242.85,122.72 C242.61,123.46 242.37,124.18 242.09,124.88 L252.03,124.88 L252.03,126.28 L241.49,126.28 C241.09,127.08 240.67,127.86 240.19,128.6 L249.47,128.6 L249.47,139.4 C249.47,140.38 248.91,140.88 247.79,140.92 L245.55,140.92 L245.19,139.6 C245.95,139.64 246.67,139.68 247.33,139.68 C247.85,139.68 248.11,139.44 248.11,138.96 L248.11,136.68 Z M256.33,128.06 L260.31,128.06 L260.31,125.34 C259.17,125.54 258.01,125.7 256.83,125.78 L256.39,124.44 C259.65,124.18 262.37,123.62 264.55,122.74 L265.25,123.96 C264.13,124.4 262.97,124.76 261.77,125.04 L261.77,128.06 L265.47,128.06 L265.47,129.44 L261.77,129.44 L261.77,130.36 C263.01,131.44 264.29,132.66 265.61,134.04 L264.75,135.32 C263.59,133.84 262.59,132.68 261.77,131.84 L261.77,141 L260.31,141 L260.31,132 C259.35,133.94 258.09,135.7 256.53,137.3 L255.89,135.64 C257.93,133.84 259.41,131.78 260.31,129.46 L260.31,129.44 L256.33,129.44 L256.33,128.06 Z M267.13,124.54 L268.57,124.54 L268.57,136.9 L267.13,136.9 L267.13,124.54 Z M271.43,140.82 L268.49,140.82 L268.19,139.42 C269.15,139.46 270.07,139.5 270.95,139.5 C271.53,139.5 271.83,139.16 271.83,138.52 L271.83,122.72 L273.29,122.72 L273.29,138.88 C273.29,140.16 272.67,140.82 271.43,140.82 Z M288.11,122.96 C289.35,124.02 290.37,125.08 291.19,126.14 L290.21,127.12 C289.45,126.12 288.43,125.04 287.15,123.88 L288.11,122.96 Z M300.01,140.64 C298.87,140.64 297.63,140.62 296.29,140.6 C294.93,140.58 293.83,140.46 292.99,140.24 C292.17,140 291.45,139.5 290.81,138.78 C290.53,138.44 290.25,138.28 289.99,138.28 C289.59,138.28 288.89,139.18 287.91,141.02 L286.89,140.08 C287.81,138.42 288.63,137.4 289.35,137.04 L289.35,130.9 L286.91,130.9 L286.91,129.56 L290.71,129.56 L290.71,137.08 C290.87,137.2 291.05,137.34 291.23,137.54 C291.75,138.12 292.31,138.54 292.87,138.8 C293.53,139.08 294.47,139.24 295.69,139.28 C296.81,139.3 298.17,139.32 299.81,139.32 C300.75,139.32 301.71,139.3 302.69,139.28 C303.65,139.26 304.41,139.24 304.93,139.2 L304.59,140.64 L300.01,140.64 Z M292.75,124.04 L294.67,124.04 C294.81,123.54 294.91,123.02 294.99,122.48 L296.43,122.68 C296.31,123.16 296.17,123.62 296.01,124.04 L298.39,124.04 L298.39,129.06 C299.33,127.38 299.97,125.22 300.33,122.54 L301.65,122.78 C301.49,123.8 301.29,124.74 301.05,125.62 L304.87,125.62 L304.87,126.96 L303.87,126.96 C303.79,129.2 303.49,131.18 302.95,132.88 C303.63,134.04 304.31,135.34 304.95,136.8 L304.01,137.74 C303.49,136.5 302.95,135.34 302.39,134.3 C301.67,135.9 300.69,137.2 299.49,138.24 L298.75,137.08 C300.01,136.04 300.95,134.64 301.59,132.9 C300.99,131.92 300.35,131.02 299.67,130.2 L300.41,129.36 C300.97,129.96 301.51,130.64 302.03,131.44 C302.35,130.1 302.55,128.6 302.59,126.96 L300.65,126.96 C300.19,128.22 299.63,129.3 298.97,130.2 L298.39,129.48 L298.39,129.58 L295.87,129.58 L296.37,130.8 L299.09,130.8 L299.09,132.02 L295.17,132.02 C295.09,132.46 295.03,132.88 294.97,133.24 L298.47,133.24 C298.47,135.5 298.33,136.88 298.05,137.36 C297.75,137.84 297.25,138.1 296.53,138.12 L295.39,138.12 L295.03,136.94 L296.19,136.94 C296.59,136.92 296.87,136.76 296.99,136.46 C297.09,136.16 297.15,135.46 297.17,134.38 L294.71,134.38 C294.61,134.72 294.51,135.02 294.41,135.3 C294.01,136.22 293.43,137.06 292.67,137.8 L291.85,136.74 C292.47,136.14 292.95,135.46 293.27,134.72 C293.55,134.02 293.75,133.12 293.89,132.02 L292.09,132.02 L292.09,130.8 L295.01,130.8 L294.51,129.58 L292.75,129.58 L292.75,124.04 Z M297.17,128.58 L297.17,127.3 L293.97,127.3 L293.97,128.58 L297.17,128.58 Z M293.97,126.3 L297.17,126.3 L297.17,125.04 L293.97,125.04 L293.97,126.3 Z M320.11,122.66 L321.49,122.66 L321.49,123.96 L326.45,123.96 L326.45,125.14 L321.49,125.14 L321.49,126.48 L325.73,126.48 L325.73,127.64 L321.49,127.64 L321.49,129 L326.95,129 L326.95,130.2 L314.71,130.2 L314.71,129 L320.11,129 L320.11,127.64 L316.07,127.64 L316.07,126.48 L320.11,126.48 L320.11,125.14 L315.27,125.14 L315.27,123.96 L320.11,123.96 L320.11,122.66 Z M317.61,135.24 L317.61,136.7 L324.07,136.7 L324.07,135.24 L317.61,135.24 Z M324.07,134.12 L324.07,132.64 L317.61,132.64 L317.61,134.12 L324.07,134.12 Z M317.61,137.82 L317.61,141 L316.23,141 L316.23,131.46 L325.45,131.46 L325.45,139.26 C325.45,140.34 324.87,140.88 323.75,140.88 L322.07,140.88 L321.73,139.6 L323.33,139.66 C323.81,139.66 324.07,139.42 324.07,138.96 L324.07,137.82 L317.61,137.82 Z M311.09,122.88 C312.43,123.88 313.55,124.9 314.47,125.92 L313.49,126.92 C312.65,125.96 311.51,124.94 310.07,123.86 L311.09,122.88 Z M308.67,128.78 L312.91,128.78 L312.91,137.56 C313.51,137 314.13,136.38 314.81,135.68 L315.19,137.2 C314.07,138.36 312.87,139.4 311.63,140.3 L311.07,139.02 C311.37,138.74 311.53,138.44 311.53,138.1 L311.53,130.16 L308.67,130.16 L308.67,128.78 Z M336.83,129.86 L336.83,132.04 L344.77,132.04 L344.77,129.86 L336.83,129.86 Z M344.77,133.3 L336.83,133.3 L336.83,135.42 L344.77,135.42 L344.77,133.3 Z M344.77,136.68 L336.83,136.68 L336.83,140.96 L335.47,140.96 L335.47,130.5 C334.35,131.9 333.05,133.2 331.61,134.36 L330.67,133.14 C333.19,131.14 335.13,128.86 336.51,126.28 L331.21,126.28 L331.21,124.88 L337.17,124.88 C337.51,124.1 337.81,123.32 338.05,122.54 L339.51,122.72 C339.27,123.46 339.03,124.18 338.75,124.88 L348.69,124.88 L348.69,126.28 L338.15,126.28 C337.75,127.08 337.33,127.86 336.85,128.6 L346.13,128.6 L346.13,139.4 C346.13,140.38 345.57,140.88 344.45,140.92 L342.21,140.92 L341.85,139.6 C342.61,139.64 343.33,139.68 343.99,139.68 C344.51,139.68 344.77,139.44 344.77,138.96 L344.77,136.68 Z M356.69,132.34 C355.63,133.22 354.43,134.1 353.09,134.98 L352.67,133.52 C356.19,131.24 358.55,129.04 359.71,126.88 L353.35,126.88 L353.35,125.48 L356.79,125.48 C356.51,124.6 356.17,123.74 355.77,122.92 L357.19,122.52 C357.59,123.5 357.91,124.4 358.13,125.24 L357.51,125.48 L361.25,125.48 L361.25,126.72 C360.63,128.08 359.67,129.44 358.35,130.8 C359.67,131.54 360.89,132.38 362.01,133.34 L361.21,134.58 C360.19,133.64 359.17,132.84 358.15,132.2 L358.15,141.04 L356.69,141.04 L356.69,132.34 Z M368.39,140.7 L365.07,140.7 C363.79,140.7 363.15,140.02 363.15,138.66 L363.15,122.76 L364.61,122.76 L364.61,138.46 C364.61,139.02 364.87,139.3 365.41,139.3 L368.15,139.3 C368.61,139.3 368.95,139.14 369.15,138.82 C369.33,138.48 369.45,137.32 369.53,135.34 L370.89,135.78 C370.79,138.08 370.57,139.48 370.23,139.98 C369.89,140.46 369.27,140.7 368.39,140.7 Z" id="抢注有利-邀请有礼"></path>
            <path d="M20.856,47.448 C21.72,49.224 22.536,51.24 23.304,53.496 L40.776,53.496 L40.776,56.712 L18.6,56.712 C15.48,62.088 12.744,65.928 10.344,68.328 C17.4,67.896 24.408,67.224 31.416,66.36 C30.168,64.584 28.824,62.808 27.432,61.032 L30.216,59.304 C34.2,64.344 37.272,68.712 39.384,72.456 L36.552,74.424 C35.592,72.744 34.584,71.016 33.432,69.288 L26.952,70.008 L26.952,85.752 C26.952,87.096 27.528,87.768 28.776,87.768 L34.776,87.768 C35.736,87.768 36.456,87.528 37.032,87.048 C37.8,86.376 38.328,84.024 38.568,79.992 L41.832,81.048 C41.4,85.848 40.68,88.776 39.72,89.784 C38.76,90.552 37.416,90.984 35.64,91.08 L27.768,91.08 C24.888,91.08 23.496,89.496 23.496,86.328 L23.496,70.344 C21.144,70.536 18.792,70.776 16.44,70.968 C15.96,76.584 14.904,80.76 13.224,83.448 C11.208,86.616 7.896,89.304 3.192,91.608 L0.984,88.872 C5.208,86.904 8.28,84.6 10.104,81.912 C11.64,79.608 12.552,76.056 12.936,71.256 C10.536,71.448 8.04,71.592 5.544,71.784 L4.728,68.568 C5.064,68.472 5.304,68.376 5.496,68.28 C7.896,66.84 11.064,62.952 14.952,56.712 L1.224,56.712 L1.224,53.496 L19.848,53.496 C19.032,51.48 18.12,49.656 17.16,48.024 L20.856,47.448 Z M73.56,47.88 L77.016,47.88 L77.016,52.296 L89.448,52.296 L89.448,55.464 L77.016,55.464 L77.016,59.448 L86.28,59.448 L86.28,87.192 L90.936,87.192 L90.936,90.36 L59.208,90.36 L59.208,87.192 L64.152,87.192 L64.152,59.448 L73.56,59.448 L73.56,55.464 L61.272,55.464 L61.272,52.296 L73.56,52.296 L73.56,47.88 Z M67.464,87.192 L82.968,87.192 L82.968,83.16 L67.464,83.16 L67.464,87.192 Z M67.464,80.376 L82.968,80.376 L82.968,76.344 L67.464,76.344 L67.464,80.376 Z M67.464,73.56 L82.968,73.56 L82.968,69.576 L67.464,69.576 L67.464,73.56 Z M67.464,66.792 L82.968,66.792 L82.968,62.568 L67.464,62.568 L67.464,66.792 Z M53.592,63.96 C51.96,66.456 50.184,68.808 48.216,71.064 L47.112,67.368 C51.768,61.608 55.128,55.032 57.24,47.64 L60.36,49.08 C59.4,52.2 58.296,55.176 56.952,57.96 L56.952,91.896 L53.592,91.896 L53.592,63.96 Z M124.2,74.904 C126.168,79.32 127.896,84.456 129.432,90.216 L126.36,90.984 C125.928,89.304 125.448,87.672 124.968,86.088 C121.512,87.72 117.864,89.16 113.976,90.408 L112.92,87.24 C113.928,86.52 114.456,85.512 114.456,84.168 L114.456,54.84 C111.576,55.032 108.696,55.128 105.768,55.224 L105.768,67.08 C105.48,77.352 102.936,85.56 98.184,91.704 L95.88,89.256 C99.96,83.88 102.168,76.488 102.456,67.08 L102.456,52.104 C113.784,51.96 124.008,50.952 133.032,49.128 L134.76,52.2 C133.128,52.536 131.448,52.824 129.768,53.112 C129.96,67.608 132.984,79.56 138.744,89.016 L136.296,91.416 C130.2,81.24 126.984,68.664 126.696,53.592 C123.816,53.976 120.84,54.312 117.768,54.6 L117.768,85.8 C119.88,85.032 121.992,84.12 124.008,83.16 C123.144,80.664 122.232,78.216 121.224,75.864 L124.2,74.904 Z M158.28,48.84 L161.16,50.568 C158.952,54.6 156.696,57.912 154.488,60.456 C152.088,63.192 148.92,65.928 144.984,68.712 L143.112,65.688 C146.376,63.768 149.304,61.32 151.896,58.296 C154.2,55.656 156.36,52.488 158.28,48.84 Z M159.48,70.152 L149.832,70.152 L149.832,66.84 L179.4,66.84 C179.256,72.84 178.92,77.688 178.392,81.432 C177.864,85.08 177,87.672 175.752,89.112 C174.504,90.504 172.536,91.272 169.8,91.416 L161.496,91.416 L160.584,88.104 C163.224,88.2 165.72,88.248 168.072,88.248 C171.096,88.248 173.112,87.096 174.072,84.888 C175.032,82.584 175.656,77.688 175.944,70.152 L162.888,70.152 C161.736,75.432 160.152,79.608 158.136,82.68 C155.784,85.992 152.232,88.968 147.48,91.656 L145.368,88.92 C149.64,86.616 152.856,84.024 155.016,81.192 C157.032,78.408 158.52,74.76 159.48,70.152 Z M172.2,48.168 C174.888,55.512 179.784,61.32 186.84,65.544 L184.536,68.232 C177.24,63.48 172.104,57.336 169.224,49.8 L172.2,48.168 Z" id="充值瓜分"></path>
            <path d="M211.88,50.016 L215.464,50.016 L215.464,90 L210.872,90 L210.872,55.616 C208.352,58.192 205.216,59.984 201.464,61.104 L201.464,56.512 C203.256,56.008 205.16,55.224 207.064,54.104 C208.968,52.872 210.536,51.528 211.88,50.016 Z M238.256,49.232 C243.016,49.232 246.6,51.304 249.064,55.56 C251.192,59.144 252.256,63.96 252.256,70.008 C252.256,76.056 251.192,80.872 249.064,84.456 C246.6,88.656 243.016,90.784 238.256,90.784 C233.44,90.784 229.856,88.656 227.448,84.456 C225.32,80.872 224.256,76.056 224.256,70.008 C224.256,63.96 225.32,59.144 227.448,55.56 C229.856,51.304 233.44,49.232 238.256,49.232 Z M238.256,53.152 C234.672,53.152 232.096,55.056 230.528,58.92 C229.408,61.608 228.848,65.304 228.848,70.008 C228.848,74.656 229.408,78.352 230.528,81.096 C232.096,84.904 234.672,86.864 238.256,86.864 C241.84,86.864 244.416,84.904 245.984,81.096 C247.104,78.352 247.72,74.656 247.72,70.008 C247.72,65.304 247.104,61.608 245.984,58.92 C244.416,55.056 241.84,53.152 238.256,53.152 Z M271.856,49.232 C276.616,49.232 280.2,51.304 282.664,55.56 C284.792,59.144 285.856,63.96 285.856,70.008 C285.856,76.056 284.792,80.872 282.664,84.456 C280.2,88.656 276.616,90.784 271.856,90.784 C267.04,90.784 263.456,88.656 261.048,84.456 C258.92,80.872 257.856,76.056 257.856,70.008 C257.856,63.96 258.92,59.144 261.048,55.56 C263.456,51.304 267.04,49.232 271.856,49.232 Z M271.856,53.152 C268.272,53.152 265.696,55.056 264.128,58.92 C263.008,61.608 262.448,65.304 262.448,70.008 C262.448,74.656 263.008,78.352 264.128,81.096 C265.696,84.904 268.272,86.864 271.856,86.864 C275.44,86.864 278.016,84.904 279.584,81.096 C280.704,78.352 281.32,74.656 281.32,70.008 C281.32,65.304 280.704,61.608 279.584,58.92 C278.016,55.056 275.44,53.152 271.856,53.152 Z M295.824,83.392 C298.512,83.392 299.856,85.184 299.856,88.824 C299.856,93.64 297.728,97.224 293.528,99.52 L292.016,97.112 C294.928,95.208 296.552,92.8 296.776,89.888 C296.496,89.944 296.16,90 295.824,90 C294.816,90 294.032,89.664 293.416,89.104 C292.744,88.488 292.464,87.704 292.464,86.752 C292.464,85.688 292.744,84.848 293.36,84.288 C294.032,83.672 294.816,83.392 295.824,83.392 Z M320.24,49.232 C325,49.232 328.584,51.304 331.048,55.56 C333.176,59.144 334.24,63.96 334.24,70.008 C334.24,76.056 333.176,80.872 331.048,84.456 C328.584,88.656 325,90.784 320.24,90.784 C315.424,90.784 311.84,88.656 309.432,84.456 C307.304,80.872 306.24,76.056 306.24,70.008 C306.24,63.96 307.304,59.144 309.432,55.56 C311.84,51.304 315.424,49.232 320.24,49.232 Z M320.24,53.152 C316.656,53.152 314.08,55.056 312.512,58.92 C311.392,61.608 310.832,65.304 310.832,70.008 C310.832,74.656 311.392,78.352 312.512,81.096 C314.08,84.904 316.656,86.864 320.24,86.864 C323.824,86.864 326.4,84.904 327.968,81.096 C329.088,78.352 329.704,74.656 329.704,70.008 C329.704,65.304 329.088,61.608 327.968,58.92 C326.4,55.056 323.824,53.152 320.24,53.152 Z M353.84,49.232 C358.6,49.232 362.184,51.304 364.648,55.56 C366.776,59.144 367.84,63.96 367.84,70.008 C367.84,76.056 366.776,80.872 364.648,84.456 C362.184,88.656 358.6,90.784 353.84,90.784 C349.024,90.784 345.44,88.656 343.032,84.456 C340.904,80.872 339.84,76.056 339.84,70.008 C339.84,63.96 340.904,59.144 343.032,55.56 C345.44,51.304 349.024,49.232 353.84,49.232 Z M353.84,53.152 C350.256,53.152 347.68,55.056 346.112,58.92 C344.992,61.608 344.432,65.304 344.432,70.008 C344.432,74.656 344.992,78.352 346.112,81.096 C347.68,84.904 350.256,86.864 353.84,86.864 C357.424,86.864 360,84.904 361.568,81.096 C362.688,78.352 363.304,74.656 363.304,70.008 C363.304,65.304 362.688,61.608 361.568,58.92 C360,55.056 357.424,53.152 353.84,53.152 Z M387.44,49.232 C392.2,49.232 395.784,51.304 398.248,55.56 C400.376,59.144 401.44,63.96 401.44,70.008 C401.44,76.056 400.376,80.872 398.248,84.456 C395.784,88.656 392.2,90.784 387.44,90.784 C382.624,90.784 379.04,88.656 376.632,84.456 C374.504,80.872 373.44,76.056 373.44,70.008 C373.44,63.96 374.504,59.144 376.632,55.56 C379.04,51.304 382.624,49.232 387.44,49.232 Z M387.44,53.152 C383.856,53.152 381.28,55.056 379.712,58.92 C378.592,61.608 378.032,65.304 378.032,70.008 C378.032,74.656 378.592,78.352 379.712,81.096 C381.28,84.904 383.856,86.864 387.44,86.864 C391.024,86.864 393.6,84.904 395.168,81.096 C396.288,78.352 396.904,74.656 396.904,70.008 C396.904,65.304 396.288,61.608 395.168,58.92 C393.6,55.056 391.024,53.152 387.44,53.152 Z" id="100,000"></path>
            <path d="M418.888,50.444 L423.316,50.444 L423.316,74.258 C423.316,78.038 424.126,80.9 425.854,82.844 C427.636,84.842 430.444,85.868 434.278,85.868 C438.058,85.868 440.866,84.842 442.702,82.844 C444.376,80.9 445.24,78.038 445.24,74.258 L445.24,50.444 L449.668,50.444 L449.668,74.204 C449.668,79.226 448.372,83.06 445.834,85.706 C443.188,88.406 439.354,89.756 434.278,89.756 C429.202,89.756 425.368,88.406 422.776,85.76 C420.184,83.06 418.888,79.226 418.888,74.204 L418.888,50.444 Z M473.914,49.688 C478.72,49.688 482.554,50.822 485.416,53.198 C488.116,55.412 489.79,58.598 490.492,62.81 L486.064,62.81 C485.47,59.894 484.174,57.68 482.176,56.114 C480.07,54.44 477.316,53.63 473.914,53.63 C469.702,53.63 466.408,55.088 463.924,58.058 C461.44,60.974 460.252,64.916 460.252,69.884 C460.252,74.744 461.44,78.578 463.816,81.386 C466.354,84.356 470.134,85.868 475.156,85.868 C477.262,85.868 479.26,85.544 481.204,85.004 C483.094,84.464 484.714,83.708 486.064,82.844 L486.064,73.016 L473.968,73.016 L473.968,69.182 L490.438,69.182 L490.438,84.95 C488.602,86.462 486.334,87.596 483.688,88.46 C480.88,89.324 477.91,89.756 474.724,89.756 C468.622,89.756 463.87,87.812 460.522,83.924 C457.39,80.306 455.824,75.608 455.824,69.884 C455.824,64.16 457.336,59.462 460.468,55.736 C463.762,51.686 468.244,49.688 473.914,49.688 Z M509.122,50.444 L514.252,50.444 L529.426,89 L524.62,89 L520.516,78.2 L502.804,78.2 L498.7,89 L493.948,89 L509.122,50.444 Z M504.208,74.474 L519.112,74.474 L511.822,55.196 L511.606,55.196 L504.208,74.474 Z M546.274,49.688 C550.594,49.688 554.05,50.66 556.534,52.658 C559.126,54.71 560.584,57.788 560.962,61.838 L556.588,61.838 C556.102,59.03 555.022,56.978 553.348,55.628 C551.62,54.224 549.19,53.576 546.058,53.576 C543.196,53.576 540.982,54.008 539.362,54.98 C537.526,56.06 536.608,57.68 536.608,59.894 C536.608,61.838 537.688,63.404 539.902,64.592 C540.874,65.132 543.25,65.942 546.976,67.022 C552.052,68.534 555.4,69.776 557.02,70.748 C560.206,72.692 561.826,75.392 561.826,78.902 C561.826,82.25 560.476,84.95 557.776,86.894 C555.076,88.784 551.458,89.756 546.868,89.756 C542.332,89.756 538.768,88.784 536.176,86.84 C533.152,84.518 531.478,81.008 531.154,76.256 L535.528,76.256 C535.906,79.604 537.094,82.088 539.038,83.654 C540.82,85.058 543.412,85.814 546.868,85.814 C550,85.814 552.592,85.22 554.536,84.032 C556.48,82.844 557.452,81.224 557.452,79.172 C557.452,76.742 556.156,74.852 553.618,73.502 C552.538,72.854 549.784,71.936 545.464,70.694 C540.82,69.29 537.85,68.21 536.608,67.562 C533.638,65.834 532.18,63.35 532.18,60.11 C532.18,56.762 533.584,54.116 536.446,52.28 C538.984,50.552 542.278,49.688 546.274,49.688 Z" id="UGAS"></path>
        </g>
    </g>
</svg>