<?xml version="1.0" encoding="UTF-8"?>
<svg width="690px" height="186px" viewBox="0 0 690 186" version="1.1" xmlns="http://www.w3.org/2000/svg" xmlns:xlink="http://www.w3.org/1999/xlink">
    <!-- Generator: Sketch 52.3 (67297) - http://www.bohemiancoding.com/sketch -->
    <title>web_word_en</title>
    <desc>Created with Sketch.</desc>
    <g id="web-落地页" stroke="none" stroke-width="1" fill="none" fill-rule="evenodd">
        <g id="分组-7" transform="translate(1.000000, 0.000000)" fill="#000000">
            <path d="M243.8,1.15 L245.85,1.15 L245.85,12.175 C245.85,13.925 246.225,15.25 247.025,16.15 C247.85,17.075 249.15,17.55 250.925,17.55 C252.675,17.55 253.975,17.075 254.825,16.15 C255.6,15.25 256,13.925 256,12.175 L256,1.15 L258.05,1.15 L258.05,12.15 C258.05,14.475 257.45,16.25 256.275,17.475 C255.05,18.725 253.275,19.35 250.925,19.35 C248.575,19.35 246.8,18.725 245.6,17.5 C244.4,16.25 243.8,14.475 243.8,12.15 L243.8,1.15 Z M269.275,0.8 C271.5,0.8 273.275,1.325 274.6,2.425 C275.85,3.45 276.625,4.925 276.95,6.875 L274.9,6.875 C274.625,5.525 274.025,4.5 273.1,3.775 C272.125,3 270.85,2.625 269.275,2.625 C267.325,2.625 265.8,3.3 264.65,4.675 C263.5,6.025 262.95,7.85 262.95,10.15 C262.95,12.4 263.5,14.175 264.6,15.475 C265.775,16.85 267.525,17.55 269.85,17.55 C270.825,17.55 271.75,17.4 272.65,17.15 C273.525,16.9 274.275,16.55 274.9,16.15 L274.9,11.6 L269.3,11.6 L269.3,9.825 L276.925,9.825 L276.925,17.125 C276.075,17.825 275.025,18.35 273.8,18.75 C272.5,19.15 271.125,19.35 269.65,19.35 C266.825,19.35 264.625,18.45 263.075,16.65 C261.625,14.975 260.9,12.8 260.9,10.15 C260.9,7.5 261.6,5.325 263.05,3.6 C264.575,1.725 266.65,0.8 269.275,0.8 Z M285.575,1.15 L287.95,1.15 L294.975,19 L292.75,19 L290.85,14 L282.65,14 L280.75,19 L278.55,19 L285.575,1.15 Z M283.3,12.275 L290.2,12.275 L286.825,3.35 L286.725,3.35 L283.3,12.275 Z M302.775,0.8 C304.775,0.8 306.375,1.25 307.525,2.175 C308.725,3.125 309.4,4.55 309.575,6.425 L307.55,6.425 C307.325,5.125 306.825,4.175 306.05,3.55 C305.25,2.9 304.125,2.6 302.675,2.6 C301.35,2.6 300.325,2.8 299.575,3.25 C298.725,3.75 298.3,4.5 298.3,5.525 C298.3,6.425 298.8,7.15 299.825,7.7 C300.275,7.95 301.375,8.325 303.1,8.825 C305.45,9.525 307,10.1 307.75,10.55 C309.225,11.45 309.975,12.7 309.975,14.325 C309.975,15.875 309.35,17.125 308.1,18.025 C306.85,18.9 305.175,19.35 303.05,19.35 C300.95,19.35 299.3,18.9 298.1,18 C296.7,16.925 295.925,15.3 295.775,13.1 L297.8,13.1 C297.975,14.65 298.525,15.8 299.425,16.525 C300.25,17.175 301.45,17.525 303.05,17.525 C304.5,17.525 305.7,17.25 306.6,16.7 C307.5,16.15 307.95,15.4 307.95,14.45 C307.95,13.325 307.35,12.45 306.175,11.825 C305.675,11.525 304.4,11.1 302.4,10.525 C300.25,9.875 298.875,9.375 298.3,9.075 C296.925,8.275 296.25,7.125 296.25,5.625 C296.25,4.075 296.9,2.85 298.225,2 C299.4,1.2 300.925,0.8 302.775,0.8 Z M319.7,1.15 L322.225,1.15 L327.05,8.1 L331.9,1.15 L334.425,1.15 L328.275,9.725 L334.9,19 L332.375,19 L327.05,11.35 L321.75,19 L319.225,19 L325.8,9.725 L319.7,1.15 Z M352.95,0.8 C355.6,0.8 357.725,1.675 359.275,3.475 C360.725,5.175 361.475,7.375 361.475,10.1 C361.475,12.8 360.725,14.975 359.275,16.675 C359.225,16.725 359.175,16.775 359.15,16.825 C359.85,17.725 360.525,18.675 361.2,19.65 L359.85,20.825 C359.15,19.825 358.475,18.875 357.8,17.975 C356.45,18.875 354.825,19.35 352.925,19.35 C350.25,19.35 348.15,18.45 346.6,16.675 C345.125,14.975 344.4,12.775 344.4,10.1 C344.4,7.4 345.125,5.2 346.6,3.5 C348.15,1.7 350.25,0.8 352.95,0.8 Z M352.95,2.625 C350.9,2.625 349.275,3.325 348.1,4.75 C347,6.1 346.45,7.875 346.45,10.1 C346.45,12.3 347,14.075 348.1,15.425 C349.25,16.825 350.875,17.525 352.925,17.525 C354.4,17.525 355.65,17.175 356.65,16.475 C355.65,15.2 354.65,14.025 353.65,12.975 L354.875,11.8 C355.9,12.9 356.925,14.05 357.925,15.275 C358.925,13.95 359.425,12.225 359.425,10.1 C359.425,7.825 358.85,6.025 357.75,4.675 C356.6,3.3 355,2.625 352.95,2.625 Z M364.325,1.15 L372.3,1.15 C373.95,1.15 375.275,1.55 376.25,2.35 C377.2,3.15 377.675,4.25 377.675,5.65 C377.675,6.65 377.4,7.525 376.875,8.25 C376.325,8.9 375.6,9.375 374.7,9.675 C375.875,9.875 376.775,10.375 377.425,11.125 C378.075,11.875 378.425,12.825 378.425,14.025 C378.425,15.775 377.8,17.075 376.575,17.925 C375.525,18.625 374.075,19 372.25,19 L364.325,19 L364.325,1.15 Z M366.375,2.875 L366.375,8.95 L371.8,8.95 C373.05,8.95 374,8.675 374.65,8.175 C375.3,7.65 375.65,6.875 375.65,5.85 C375.65,4.85 375.325,4.1 374.675,3.6 C374.025,3.1 373.075,2.875 371.825,2.875 L366.375,2.875 Z M366.375,10.65 L366.375,17.275 L372.075,17.275 C373.325,17.275 374.3,17.025 375.05,16.575 C375.925,16.025 376.375,15.15 376.375,14 C376.375,12.85 375.975,12 375.225,11.45 C374.5,10.9 373.45,10.65 372.075,10.65 L366.375,10.65 Z M382.75,16.025 C383.175,16.025 383.525,16.15 383.825,16.45 C384.125,16.725 384.275,17.075 384.275,17.5 C384.275,17.95 384.125,18.3 383.825,18.575 C383.525,18.85 383.15,19 382.75,19 C382.325,19 381.975,18.85 381.675,18.575 C381.375,18.275 381.225,17.925 381.225,17.5 C381.225,17.075 381.375,16.725 381.675,16.45 C381.975,16.15 382.325,16.025 382.75,16.025 Z M395.55,0.8 C397.525,0.8 399.2,1.325 400.55,2.375 C401.9,3.425 402.7,4.85 402.95,6.625 L400.975,6.625 C400.725,5.325 400.075,4.325 399.075,3.625 C398.1,2.95 396.925,2.625 395.525,2.625 C393.45,2.625 391.85,3.35 390.725,4.8 C389.675,6.15 389.15,7.925 389.15,10.15 C389.15,12.375 389.65,14.15 390.7,15.45 C391.8,16.825 393.375,17.525 395.475,17.525 C396.9,17.525 398.1,17.15 399.1,16.4 C400.15,15.6 400.875,14.425 401.225,12.875 L403.2,12.875 C402.8,14.95 401.875,16.575 400.4,17.725 C399.025,18.8 397.375,19.35 395.475,19.35 C392.7,19.35 390.575,18.425 389.1,16.6 C387.75,14.95 387.1,12.8 387.1,10.15 C387.1,7.5 387.775,5.325 389.15,3.625 C390.65,1.725 392.8,0.8 395.55,0.8 Z M413.85,0.8 C416.5,0.8 418.625,1.675 420.175,3.475 C421.625,5.175 422.375,7.375 422.375,10.1 C422.375,12.8 421.625,14.975 420.175,16.675 C418.625,18.45 416.5,19.35 413.825,19.35 C411.15,19.35 409.05,18.45 407.5,16.675 C406.025,14.975 405.3,12.775 405.3,10.1 C405.3,7.4 406.025,5.2 407.5,3.5 C409.05,1.7 411.15,0.8 413.85,0.8 Z M413.85,2.625 C411.8,2.625 410.175,3.325 409,4.75 C407.9,6.1 407.35,7.875 407.35,10.1 C407.35,12.3 407.9,14.075 409,15.425 C410.15,16.825 411.775,17.525 413.825,17.525 C415.875,17.525 417.5,16.825 418.65,15.475 C419.75,14.125 420.325,12.35 420.325,10.1 C420.325,7.825 419.75,6.025 418.65,4.675 C417.5,3.3 415.9,2.625 413.85,2.625 Z M425.225,1.15 L427.775,1.15 L434.425,16.375 L434.5,16.375 L441.125,1.15 L443.675,1.15 L443.675,19 L441.625,19 L441.625,4.8 L441.55,4.8 L435.375,19 L433.525,19 L427.35,4.8 L427.275,4.8 L427.275,19 L425.225,19 L425.225,1.15 Z" id="UGAS-X-QB.COM"></path>
            <path d="M168.85,91.16 L172.69,91.16 L172.69,134 L167.77,134 L167.77,97.16 C165.07,99.92 161.71,101.84 157.69,103.04 L157.69,98.12 C159.61,97.58 161.65,96.74 163.69,95.54 C165.73,94.22 167.41,92.78 168.85,91.16 Z M197.11,90.32 C202.21,90.32 206.05,92.54 208.69,97.1 C210.97,100.94 212.11,106.1 212.11,112.58 C212.11,119.06 210.97,124.22 208.69,128.06 C206.05,132.56 202.21,134.84 197.11,134.84 C191.95,134.84 188.11,132.56 185.53,128.06 C183.25,124.22 182.11,119.06 182.11,112.58 C182.11,106.1 183.25,100.94 185.53,97.1 C188.11,92.54 191.95,90.32 197.11,90.32 Z M197.11,94.52 C193.27,94.52 190.51,96.56 188.83,100.7 C187.63,103.58 187.03,107.54 187.03,112.58 C187.03,117.56 187.63,121.52 188.83,124.46 C190.51,128.54 193.27,130.64 197.11,130.64 C200.95,130.64 203.71,128.54 205.39,124.46 C206.59,121.52 207.25,117.56 207.25,112.58 C207.25,107.54 206.59,103.58 205.39,100.7 C203.71,96.56 200.95,94.52 197.11,94.52 Z M233.11,90.32 C238.21,90.32 242.05,92.54 244.69,97.1 C246.97,100.94 248.11,106.1 248.11,112.58 C248.11,119.06 246.97,124.22 244.69,128.06 C242.05,132.56 238.21,134.84 233.11,134.84 C227.95,134.84 224.11,132.56 221.53,128.06 C219.25,124.22 218.11,119.06 218.11,112.58 C218.11,106.1 219.25,100.94 221.53,97.1 C224.11,92.54 227.95,90.32 233.11,90.32 Z M233.11,94.52 C229.27,94.52 226.51,96.56 224.83,100.7 C223.63,103.58 223.03,107.54 223.03,112.58 C223.03,117.56 223.63,121.52 224.83,124.46 C226.51,128.54 229.27,130.64 233.11,130.64 C236.95,130.64 239.71,128.54 241.39,124.46 C242.59,121.52 243.25,117.56 243.25,112.58 C243.25,107.54 242.59,103.58 241.39,100.7 C239.71,96.56 236.95,94.52 233.11,94.52 Z M258.79,126.92 C261.67,126.92 263.11,128.84 263.11,132.74 C263.11,137.9 260.83,141.74 256.33,144.2 L254.71,141.62 C257.83,139.58 259.57,137 259.81,133.88 C259.51,133.94 259.15,134 258.79,134 C257.71,134 256.87,133.64 256.21,133.04 C255.49,132.38 255.19,131.54 255.19,130.52 C255.19,129.38 255.49,128.48 256.15,127.88 C256.87,127.22 257.71,126.92 258.79,126.92 Z M284.95,90.32 C290.05,90.32 293.89,92.54 296.53,97.1 C298.81,100.94 299.95,106.1 299.95,112.58 C299.95,119.06 298.81,124.22 296.53,128.06 C293.89,132.56 290.05,134.84 284.95,134.84 C279.79,134.84 275.95,132.56 273.37,128.06 C271.09,124.22 269.95,119.06 269.95,112.58 C269.95,106.1 271.09,100.94 273.37,97.1 C275.95,92.54 279.79,90.32 284.95,90.32 Z M284.95,94.52 C281.11,94.52 278.35,96.56 276.67,100.7 C275.47,103.58 274.87,107.54 274.87,112.58 C274.87,117.56 275.47,121.52 276.67,124.46 C278.35,128.54 281.11,130.64 284.95,130.64 C288.79,130.64 291.55,128.54 293.23,124.46 C294.43,121.52 295.09,117.56 295.09,112.58 C295.09,107.54 294.43,103.58 293.23,100.7 C291.55,96.56 288.79,94.52 284.95,94.52 Z M320.95,90.32 C326.05,90.32 329.89,92.54 332.53,97.1 C334.81,100.94 335.95,106.1 335.95,112.58 C335.95,119.06 334.81,124.22 332.53,128.06 C329.89,132.56 326.05,134.84 320.95,134.84 C315.79,134.84 311.95,132.56 309.37,128.06 C307.09,124.22 305.95,119.06 305.95,112.58 C305.95,106.1 307.09,100.94 309.37,97.1 C311.95,92.54 315.79,90.32 320.95,90.32 Z M320.95,94.52 C317.11,94.52 314.35,96.56 312.67,100.7 C311.47,103.58 310.87,107.54 310.87,112.58 C310.87,117.56 311.47,121.52 312.67,124.46 C314.35,128.54 317.11,130.64 320.95,130.64 C324.79,130.64 327.55,128.54 329.23,124.46 C330.43,121.52 331.09,117.56 331.09,112.58 C331.09,107.54 330.43,103.58 329.23,100.7 C327.55,96.56 324.79,94.52 320.95,94.52 Z M356.95,90.32 C362.05,90.32 365.89,92.54 368.53,97.1 C370.81,100.94 371.95,106.1 371.95,112.58 C371.95,119.06 370.81,124.22 368.53,128.06 C365.89,132.56 362.05,134.84 356.95,134.84 C351.79,134.84 347.95,132.56 345.37,128.06 C343.09,124.22 341.95,119.06 341.95,112.58 C341.95,106.1 343.09,100.94 345.37,97.1 C347.95,92.54 351.79,90.32 356.95,90.32 Z M356.95,94.52 C353.11,94.52 350.35,96.56 348.67,100.7 C347.47,103.58 346.87,107.54 346.87,112.58 C346.87,117.56 347.47,121.52 348.67,124.46 C350.35,128.54 353.11,130.64 356.95,130.64 C360.79,130.64 363.55,128.54 365.23,124.46 C366.43,121.52 367.09,117.56 367.09,112.58 C367.09,107.54 366.43,103.58 365.23,100.7 C363.55,96.56 360.79,94.52 356.95,94.52 Z" id="100,000"></path>
            <path d="M388.888,93.444 L393.316,93.444 L393.316,117.258 C393.316,121.038 394.126,123.9 395.854,125.844 C397.636,127.842 400.444,128.868 404.278,128.868 C408.058,128.868 410.866,127.842 412.702,125.844 C414.376,123.9 415.24,121.038 415.24,117.258 L415.24,93.444 L419.668,93.444 L419.668,117.204 C419.668,122.226 418.372,126.06 415.834,128.706 C413.188,131.406 409.354,132.756 404.278,132.756 C399.202,132.756 395.368,131.406 392.776,128.76 C390.184,126.06 388.888,122.226 388.888,117.204 L388.888,93.444 Z M443.914,92.688 C448.72,92.688 452.554,93.822 455.416,96.198 C458.116,98.412 459.79,101.598 460.492,105.81 L456.064,105.81 C455.47,102.894 454.174,100.68 452.176,99.114 C450.07,97.44 447.316,96.63 443.914,96.63 C439.702,96.63 436.408,98.088 433.924,101.058 C431.44,103.974 430.252,107.916 430.252,112.884 C430.252,117.744 431.44,121.578 433.816,124.386 C436.354,127.356 440.134,128.868 445.156,128.868 C447.262,128.868 449.26,128.544 451.204,128.004 C453.094,127.464 454.714,126.708 456.064,125.844 L456.064,116.016 L443.968,116.016 L443.968,112.182 L460.438,112.182 L460.438,127.95 C458.602,129.462 456.334,130.596 453.688,131.46 C450.88,132.324 447.91,132.756 444.724,132.756 C438.622,132.756 433.87,130.812 430.522,126.924 C427.39,123.306 425.824,118.608 425.824,112.884 C425.824,107.16 427.336,102.462 430.468,98.736 C433.762,94.686 438.244,92.688 443.914,92.688 Z M479.122,93.444 L484.252,93.444 L499.426,132 L494.62,132 L490.516,121.2 L472.804,121.2 L468.7,132 L463.948,132 L479.122,93.444 Z M474.208,117.474 L489.112,117.474 L481.822,98.196 L481.606,98.196 L474.208,117.474 Z M516.274,92.688 C520.594,92.688 524.05,93.66 526.534,95.658 C529.126,97.71 530.584,100.788 530.962,104.838 L526.588,104.838 C526.102,102.03 525.022,99.978 523.348,98.628 C521.62,97.224 519.19,96.576 516.058,96.576 C513.196,96.576 510.982,97.008 509.362,97.98 C507.526,99.06 506.608,100.68 506.608,102.894 C506.608,104.838 507.688,106.404 509.902,107.592 C510.874,108.132 513.25,108.942 516.976,110.022 C522.052,111.534 525.4,112.776 527.02,113.748 C530.206,115.692 531.826,118.392 531.826,121.902 C531.826,125.25 530.476,127.95 527.776,129.894 C525.076,131.784 521.458,132.756 516.868,132.756 C512.332,132.756 508.768,131.784 506.176,129.84 C503.152,127.518 501.478,124.008 501.154,119.256 L505.528,119.256 C505.906,122.604 507.094,125.088 509.038,126.654 C510.82,128.058 513.412,128.814 516.868,128.814 C520,128.814 522.592,128.22 524.536,127.032 C526.48,125.844 527.452,124.224 527.452,122.172 C527.452,119.742 526.156,117.852 523.618,116.502 C522.538,115.854 519.784,114.936 515.464,113.694 C510.82,112.29 507.85,111.21 506.608,110.562 C503.638,108.834 502.18,106.35 502.18,103.11 C502.18,99.762 503.584,97.116 506.446,95.28 C508.984,93.552 512.278,92.688 516.274,92.688 Z" id="UGAS"></path>
            <path d="M0.9,45.44 L11.14,45.44 C15.66,45.44 19.06,46.72 21.38,49.36 C23.5,51.76 24.58,55.24 24.58,59.72 C24.58,64.12 23.42,67.6 21.14,70.08 C18.74,72.68 15.3,74 10.82,74 L0.9,74 L0.9,45.44 Z M4.18,48.28 L4.18,71.16 L10.26,71.16 C13.98,71.16 16.78,70.16 18.66,68.2 C20.42,66.28 21.34,63.44 21.34,59.72 C21.34,55.88 20.5,53.04 18.86,51.2 C17.1,49.24 14.38,48.28 10.62,48.28 L4.18,48.28 Z M37.26,52.76 C40.58,52.76 43.1,53.88 44.78,56.12 C46.3,58.12 47.1,60.96 47.18,64.56 L30.86,64.56 C31.02,66.88 31.62,68.68 32.74,69.96 C33.86,71.24 35.42,71.88 37.38,71.88 C39.06,71.88 40.46,71.44 41.5,70.6 C42.38,69.88 43.06,68.8 43.58,67.36 L46.78,67.36 C46.3,69.36 45.38,70.96 43.98,72.24 C42.26,73.76 40.06,74.56 37.38,74.56 C34.42,74.56 32.02,73.56 30.26,71.64 C28.42,69.64 27.54,67 27.54,63.64 C27.54,60.6 28.38,58.04 30.14,56 C31.9,53.84 34.26,52.76 37.26,52.76 Z M37.34,55.44 C35.5,55.44 34.02,56.04 32.9,57.24 C31.78,58.44 31.14,60.04 30.94,62.08 L43.86,62.08 C43.46,57.64 41.26,55.44 37.34,55.44 Z M60.82,52.76 C63.78,52.76 66.14,53.84 67.86,56.08 C69.42,58.08 70.22,60.6 70.22,63.72 C70.22,66.76 69.42,69.28 67.9,71.28 C66.22,73.44 63.94,74.56 60.98,74.56 C58.02,74.56 55.74,73.12 54.14,70.24 L54.14,81.92 L50.94,81.92 L50.94,53.32 L53.94,53.32 L53.94,56.72 C55.42,54.08 57.7,52.76 60.82,52.76 Z M60.42,55.4 C58.34,55.4 56.7,56.2 55.58,57.84 C54.54,59.28 54.02,61.2 54.02,63.52 L54.02,63.92 C54.02,66.32 54.58,68.24 55.78,69.72 C56.9,71.16 58.38,71.92 60.3,71.92 C62.54,71.92 64.22,71.12 65.38,69.6 C66.42,68.16 66.94,66.2 66.94,63.72 C66.94,61.28 66.42,59.32 65.46,57.88 C64.3,56.2 62.62,55.4 60.42,55.4 Z M83.62,52.76 C86.7,52.76 89.18,53.8 91.02,55.96 C92.78,58 93.66,60.56 93.66,63.68 C93.66,66.76 92.78,69.32 91.06,71.32 C89.18,73.48 86.7,74.56 83.62,74.56 C80.5,74.56 78.06,73.48 76.22,71.32 C74.46,69.32 73.58,66.76 73.58,63.68 C73.58,60.56 74.46,58 76.22,55.96 C78.06,53.8 80.5,52.76 83.62,52.76 Z M83.62,55.44 C81.42,55.44 79.7,56.28 78.5,57.96 C77.38,59.48 76.86,61.36 76.86,63.68 C76.86,65.96 77.38,67.84 78.5,69.36 C79.7,71.04 81.42,71.88 83.62,71.88 C85.78,71.88 87.5,71.04 88.78,69.36 C89.86,67.84 90.42,65.92 90.42,63.68 C90.42,61.36 89.86,59.48 88.78,57.96 C87.5,56.28 85.78,55.44 83.62,55.44 Z M105.14,52.76 C110.26,52.76 113.06,54.88 113.62,59.2 L110.5,59.2 C110.22,57.92 109.7,56.96 108.9,56.4 C108.02,55.76 106.74,55.44 105.1,55.44 C103.66,55.44 102.54,55.68 101.74,56.24 C100.86,56.76 100.42,57.48 100.42,58.4 C100.42,59.28 100.98,60.04 102.18,60.64 C102.94,61 104.38,61.44 106.46,62 C108.94,62.6 110.7,63.24 111.78,63.92 C113.42,64.96 114.26,66.36 114.26,68.16 C114.26,72.4 111.34,74.56 105.5,74.56 C100.06,74.56 97.1,72.16 96.62,67.4 L99.74,67.4 C99.98,69.04 100.58,70.2 101.46,70.92 C102.34,71.56 103.66,71.88 105.42,71.88 C109.1,71.88 110.98,70.68 110.98,68.36 C110.98,67.2 110.3,66.32 109.02,65.68 C108.34,65.36 106.86,64.92 104.62,64.36 C102.18,63.76 100.46,63.16 99.5,62.52 C97.9,61.56 97.14,60.24 97.14,58.48 C97.14,56.72 97.9,55.36 99.46,54.32 C100.9,53.28 102.82,52.76 105.14,52.76 Z M120.66,45.52 C121.34,45.52 121.9,45.72 122.38,46.2 C122.86,46.6 123.1,47.16 123.1,47.88 C123.1,48.56 122.86,49.12 122.38,49.6 C121.9,50.04 121.34,50.28 120.66,50.28 C119.98,50.28 119.42,50.04 118.94,49.6 C118.46,49.12 118.26,48.56 118.26,47.88 C118.26,47.16 118.46,46.6 118.94,46.2 C119.42,45.72 119.98,45.52 120.66,45.52 Z M119.06,53.32 L122.26,53.32 L122.26,74 L119.06,74 L119.06,53.32 Z M133.78,46.64 L133.78,53.32 L138.9,53.32 L138.9,56 L133.78,56 L133.78,69.16 C133.78,69.92 133.9,70.48 134.22,70.8 C134.5,71.12 135.02,71.32 135.74,71.32 L138.38,71.32 L138.38,74 L135.26,74 C133.58,74 132.34,73.56 131.62,72.68 C130.94,71.88 130.62,70.72 130.62,69.16 L130.62,56 L126.46,56 L126.46,53.32 L130.62,53.32 L130.62,47.96 L133.78,46.64 Z M156.18,45.44 L159.46,45.44 L159.46,63.08 C159.46,65.88 160.06,68 161.34,69.44 C162.66,70.92 164.74,71.68 167.58,71.68 C170.38,71.68 172.46,70.92 173.82,69.44 C175.06,68 175.7,65.88 175.7,63.08 L175.7,45.44 L178.98,45.44 L178.98,63.04 C178.98,66.76 178.02,69.6 176.14,71.56 C174.18,73.56 171.34,74.56 167.58,74.56 C163.82,74.56 160.98,73.56 159.06,71.6 C157.14,69.6 156.18,66.76 156.18,63.04 L156.18,45.44 Z M196.94,44.88 C200.5,44.88 203.34,45.72 205.46,47.48 C207.46,49.12 208.7,51.48 209.22,54.6 L205.94,54.6 C205.5,52.44 204.54,50.8 203.06,49.64 C201.5,48.4 199.46,47.8 196.94,47.8 C193.82,47.8 191.38,48.88 189.54,51.08 C187.7,53.24 186.82,56.16 186.82,59.84 C186.82,63.44 187.7,66.28 189.46,68.36 C191.34,70.56 194.14,71.68 197.86,71.68 C199.42,71.68 200.9,71.44 202.34,71.04 C203.74,70.64 204.94,70.08 205.94,69.44 L205.94,62.16 L196.98,62.16 L196.98,59.32 L209.18,59.32 L209.18,71 C207.82,72.12 206.14,72.96 204.18,73.6 C202.1,74.24 199.9,74.56 197.54,74.56 C193.02,74.56 189.5,73.12 187.02,70.24 C184.7,67.56 183.54,64.08 183.54,59.84 C183.54,55.6 184.66,52.12 186.98,49.36 C189.42,46.36 192.74,44.88 196.94,44.88 Z M223.02,45.44 L226.82,45.44 L238.06,74 L234.5,74 L231.46,66 L218.34,66 L215.3,74 L211.78,74 L223.02,45.44 Z M219.38,63.24 L230.42,63.24 L225.02,48.96 L224.86,48.96 L219.38,63.24 Z M250.54,44.88 C253.74,44.88 256.3,45.6 258.14,47.08 C260.06,48.6 261.14,50.88 261.42,53.88 L258.18,53.88 C257.82,51.8 257.02,50.28 255.78,49.28 C254.5,48.24 252.7,47.76 250.38,47.76 C248.26,47.76 246.62,48.08 245.42,48.8 C244.06,49.6 243.38,50.8 243.38,52.44 C243.38,53.88 244.18,55.04 245.82,55.92 C246.54,56.32 248.3,56.92 251.06,57.72 C254.82,58.84 257.3,59.76 258.5,60.48 C260.86,61.92 262.06,63.92 262.06,66.52 C262.06,69 261.06,71 259.06,72.44 C257.06,73.84 254.38,74.56 250.98,74.56 C247.62,74.56 244.98,73.84 243.06,72.4 C240.82,70.68 239.58,68.08 239.34,64.56 L242.58,64.56 C242.86,67.04 243.74,68.88 245.18,70.04 C246.5,71.08 248.42,71.64 250.98,71.64 C253.3,71.64 255.22,71.2 256.66,70.32 C258.1,69.44 258.82,68.24 258.82,66.72 C258.82,64.92 257.86,63.52 255.98,62.52 C255.18,62.04 253.14,61.36 249.94,60.44 C246.5,59.4 244.3,58.6 243.38,58.12 C241.18,56.84 240.1,55 240.1,52.6 C240.1,50.12 241.14,48.16 243.26,46.8 C245.14,45.52 247.58,44.88 250.54,44.88 Z M288.86,47.44 C287.62,47.44 286.66,47.76 286.02,48.4 C285.3,48.96 284.98,49.8 284.98,50.92 C284.98,51.68 285.38,52.64 286.26,53.84 C286.66,54.4 287.3,55.16 288.14,56.12 C288.38,55.96 288.66,55.8 288.98,55.64 C291.46,54.2 292.7,52.64 292.7,50.96 C292.7,49.92 292.38,49.12 291.74,48.48 C291.02,47.76 290.06,47.44 288.86,47.44 Z M285.5,57.6 C284.22,56.24 283.38,55.2 282.9,54.44 C282.1,53.24 281.74,52.08 281.74,50.96 C281.74,49.04 282.46,47.56 283.9,46.44 C285.22,45.4 286.9,44.88 288.94,44.88 C290.94,44.88 292.62,45.4 293.9,46.44 C295.26,47.48 295.98,48.92 295.98,50.76 C295.98,52.68 295.06,54.32 293.3,55.76 C292.18,56.48 291.06,57.24 289.9,57.96 L297.06,65.52 C298.1,63.28 298.7,60.52 298.9,57.28 L302.14,57.28 C301.98,61.52 301.06,65.08 299.42,68 L305.1,74 L300.94,74 L297.62,70.48 C295.22,73.2 292.14,74.56 288.34,74.56 C285.42,74.56 283.06,73.84 281.26,72.48 C279.3,70.96 278.34,68.88 278.34,66.2 C278.34,63.56 279.58,61.32 282.06,59.52 L285.5,57.6 Z M288.22,71.64 C291.22,71.64 293.62,70.48 295.46,68.2 L287.3,59.52 C286.02,60.32 284.82,61.16 283.74,62 C282.3,63.2 281.62,64.64 281.62,66.24 C281.62,67.84 282.26,69.16 283.54,70.2 C284.74,71.16 286.3,71.64 288.22,71.64 Z M319.22,45.44 L322.9,45.44 L329.18,69.4 L329.34,69.4 L335.86,45.44 L339.42,45.44 L345.9,69.4 L346.06,69.4 L352.34,45.44 L356.02,45.44 L347.82,74 L344.18,74 L337.7,50.2 L337.58,50.2 L331.06,74 L327.42,74 L319.22,45.44 Z M361.34,45.52 C362.02,45.52 362.58,45.72 363.06,46.2 C363.54,46.6 363.78,47.16 363.78,47.88 C363.78,48.56 363.54,49.12 363.06,49.6 C362.58,50.04 362.02,50.28 361.34,50.28 C360.66,50.28 360.1,50.04 359.62,49.6 C359.14,49.12 358.94,48.56 358.94,47.88 C358.94,47.16 359.14,46.6 359.62,46.2 C360.1,45.72 360.66,45.52 361.34,45.52 Z M359.74,53.32 L362.94,53.32 L362.94,74 L359.74,74 L359.74,53.32 Z M378.62,52.76 C383.74,52.76 386.34,55.6 386.34,61.28 L386.34,74 L383.14,74 L383.14,61.52 C383.14,57.48 381.3,55.48 377.7,55.48 C376.26,55.48 375.02,56 373.98,57.04 C372.86,58.16 372.26,59.64 372.14,61.52 L372.14,74 L368.94,74 L368.94,53.32 L372.14,53.32 L372.14,56.36 C372.86,55.2 373.78,54.32 374.9,53.72 C376.02,53.08 377.26,52.76 378.62,52.76 Z M405.02,45.44 L417.78,45.44 C420.42,45.44 422.54,46.08 424.1,47.36 C425.62,48.64 426.38,50.4 426.38,52.64 C426.38,54.24 425.94,55.64 425.1,56.8 C424.22,57.84 423.06,58.6 421.62,59.08 C423.5,59.4 424.94,60.2 425.98,61.4 C427.02,62.6 427.58,64.12 427.58,66.04 C427.58,68.84 426.58,70.92 424.62,72.28 C422.94,73.4 420.62,74 417.7,74 L405.02,74 L405.02,45.44 Z M408.3,48.2 L408.3,57.92 L416.98,57.92 C418.98,57.92 420.5,57.48 421.54,56.68 C422.58,55.84 423.14,54.6 423.14,52.96 C423.14,51.36 422.62,50.16 421.58,49.36 C420.54,48.56 419.02,48.2 417.02,48.2 L408.3,48.2 Z M408.3,60.64 L408.3,71.24 L417.42,71.24 C419.42,71.24 420.98,70.84 422.18,70.12 C423.58,69.24 424.3,67.84 424.3,66 C424.3,64.16 423.66,62.8 422.46,61.92 C421.3,61.04 419.62,60.64 417.42,60.64 L408.3,60.64 Z M440.94,52.76 C444.02,52.76 446.5,53.8 448.34,55.96 C450.1,58 450.98,60.56 450.98,63.68 C450.98,66.76 450.1,69.32 448.38,71.32 C446.5,73.48 444.02,74.56 440.94,74.56 C437.82,74.56 435.38,73.48 433.54,71.32 C431.78,69.32 430.9,66.76 430.9,63.68 C430.9,60.56 431.78,58 433.54,55.96 C435.38,53.8 437.82,52.76 440.94,52.76 Z M440.94,55.44 C438.74,55.44 437.02,56.28 435.82,57.96 C434.7,59.48 434.18,61.36 434.18,63.68 C434.18,65.96 434.7,67.84 435.82,69.36 C437.02,71.04 438.74,71.88 440.94,71.88 C443.1,71.88 444.82,71.04 446.1,69.36 C447.18,67.84 447.74,65.92 447.74,63.68 C447.74,61.36 447.18,59.48 446.1,57.96 C444.82,56.28 443.1,55.44 440.94,55.44 Z M464.82,52.76 C469.94,52.76 472.54,55.6 472.54,61.28 L472.54,74 L469.34,74 L469.34,61.52 C469.34,57.48 467.5,55.48 463.9,55.48 C462.46,55.48 461.22,56 460.18,57.04 C459.06,58.16 458.46,59.64 458.34,61.52 L458.34,74 L455.14,74 L455.14,53.32 L458.34,53.32 L458.34,56.36 C459.06,55.2 459.98,54.32 461.1,53.72 C462.22,53.08 463.46,52.76 464.82,52.76 Z M477.5,53.32 L480.7,53.32 L480.7,65.96 C480.7,67.92 481.1,69.4 481.94,70.36 C482.78,71.32 484.14,71.84 486.02,71.84 C487.38,71.84 488.62,71.28 489.7,70.24 C490.82,69.12 491.5,67.68 491.74,65.92 L491.74,53.32 L494.94,53.32 L494.94,74 L491.74,74 L491.74,70.8 C490.06,73.28 487.82,74.56 485.02,74.56 C479.98,74.56 477.5,71.72 477.5,66.12 L477.5,53.32 Z M507.22,52.76 C512.34,52.76 515.14,54.88 515.7,59.2 L512.58,59.2 C512.3,57.92 511.78,56.96 510.98,56.4 C510.1,55.76 508.82,55.44 507.18,55.44 C505.74,55.44 504.62,55.68 503.82,56.24 C502.94,56.76 502.5,57.48 502.5,58.4 C502.5,59.28 503.06,60.04 504.26,60.64 C505.02,61 506.46,61.44 508.54,62 C511.02,62.6 512.78,63.24 513.86,63.92 C515.5,64.96 516.34,66.36 516.34,68.16 C516.34,72.4 513.42,74.56 507.58,74.56 C502.14,74.56 499.18,72.16 498.7,67.4 L501.82,67.4 C502.06,69.04 502.66,70.2 503.54,70.92 C504.42,71.56 505.74,71.88 507.5,71.88 C511.18,71.88 513.06,70.68 513.06,68.36 C513.06,67.2 512.38,66.32 511.1,65.68 C510.42,65.36 508.94,64.92 506.7,64.36 C504.26,63.76 502.54,63.16 501.58,62.52 C499.98,61.56 499.22,60.24 499.22,58.48 C499.22,56.72 499.98,55.36 501.54,54.32 C502.98,53.28 504.9,52.76 507.22,52.76 Z M533.82,45.44 L546.14,45.44 C548.98,45.44 551.22,46.08 552.86,47.4 C554.54,48.76 555.42,50.76 555.42,53.4 C555.42,55 554.98,56.4 554.1,57.64 C553.14,58.92 551.86,59.72 550.22,60.12 L550.22,60.2 C552.94,60.8 554.46,62.52 554.78,65.4 L555.22,69.8 C555.38,71.56 555.9,72.96 556.74,74 L553.18,74 C552.54,73.04 552.14,71.8 552.02,70.2 L551.66,66.4 C551.5,64.72 550.9,63.48 549.86,62.76 C548.9,62.04 547.54,61.72 545.74,61.72 L537.1,61.72 L537.1,74 L533.82,74 L533.82,45.44 Z M537.1,48.28 L537.1,58.88 L545.74,58.88 C547.82,58.88 549.46,58.36 550.58,57.4 C551.58,56.48 552.1,55.2 552.1,53.52 C552.1,51.76 551.58,50.44 550.62,49.6 C549.58,48.72 547.94,48.28 545.74,48.28 L537.1,48.28 Z M568.98,52.76 C572.3,52.76 574.82,53.88 576.5,56.12 C578.02,58.12 578.82,60.96 578.9,64.56 L562.58,64.56 C562.74,66.88 563.34,68.68 564.46,69.96 C565.58,71.24 567.14,71.88 569.1,71.88 C570.78,71.88 572.18,71.44 573.22,70.6 C574.1,69.88 574.78,68.8 575.3,67.36 L578.5,67.36 C578.02,69.36 577.1,70.96 575.7,72.24 C573.98,73.76 571.78,74.56 569.1,74.56 C566.14,74.56 563.74,73.56 561.98,71.64 C560.14,69.64 559.26,67 559.26,63.64 C559.26,60.6 560.1,58.04 561.86,56 C563.62,53.84 565.98,52.76 568.98,52.76 Z M569.06,55.44 C567.22,55.44 565.74,56.04 564.62,57.24 C563.5,58.44 562.86,60.04 562.66,62.08 L575.58,62.08 C575.18,57.64 572.98,55.44 569.06,55.44 Z M580.38,53.32 L583.9,53.32 L588.98,70.08 L593.78,53.32 L596.78,53.32 L601.58,70.08 L606.66,53.32 L610.18,53.32 L603.14,74 L600.1,74 L595.3,57.36 L590.42,74 L587.42,74 L580.38,53.32 Z M621.86,52.76 C624.82,52.76 626.98,53.52 628.42,55.08 C629.62,56.44 630.26,58.32 630.26,60.72 L630.26,74 L627.26,74 L627.26,70.52 C626.46,71.64 625.38,72.56 624.1,73.28 C622.58,74.12 620.86,74.56 618.94,74.56 C616.86,74.56 615.22,74.04 613.98,73 C612.7,71.92 612.06,70.52 612.06,68.84 C612.06,66.48 612.98,64.72 614.9,63.52 C616.58,62.4 618.98,61.8 622.1,61.76 L627.06,61.68 L627.06,60.6 C627.06,57.12 625.26,55.4 621.66,55.4 C620.14,55.4 618.9,55.68 617.94,56.32 C616.86,56.96 616.18,57.96 615.86,59.28 L612.7,59.04 C613.14,56.88 614.22,55.24 615.9,54.2 C617.42,53.24 619.38,52.76 621.86,52.76 Z M627.06,64.08 L622.3,64.16 C617.66,64.24 615.34,65.76 615.34,68.76 C615.34,69.72 615.7,70.48 616.5,71.12 C617.3,71.72 618.34,72.04 619.62,72.04 C621.58,72.04 623.3,71.4 624.82,70.12 C626.3,68.88 627.06,67.44 627.06,65.84 L627.06,64.08 Z M644.3,52.76 C645.42,52.76 646.38,52.92 647.14,53.24 L647.14,56.44 C646.1,56.12 645.06,56 644.06,56 C642.46,56 641.1,56.68 640.02,58.12 C638.9,59.48 638.38,61.12 638.38,63.04 L638.38,74 L635.22,74 L635.22,53.32 L638.38,53.32 L638.38,56.92 C638.94,55.72 639.66,54.76 640.54,54.08 C641.62,53.2 642.86,52.76 644.3,52.76 Z M665.1,44.88 L668.3,44.88 L668.3,74 L665.3,74 L665.3,70.6 C663.86,73.24 661.54,74.56 658.42,74.56 C655.38,74.56 653.02,73.44 651.34,71.28 C649.78,69.28 649.02,66.72 649.02,63.6 C649.02,60.56 649.78,58.08 651.34,56.08 C653.02,53.84 655.3,52.76 658.26,52.76 C661.22,52.76 663.5,54.2 665.1,57.12 L665.1,44.88 Z M658.94,55.4 C656.66,55.4 654.94,56.2 653.82,57.8 C652.78,59.2 652.3,61.12 652.3,63.6 C652.3,66.08 652.78,68.04 653.78,69.48 C654.9,71.08 656.58,71.92 658.82,71.92 C660.9,71.92 662.5,71.12 663.66,69.52 C664.66,68.08 665.18,66.2 665.18,63.88 L665.18,63.48 C665.18,61.08 664.58,59.12 663.46,57.64 C662.3,56.12 660.78,55.4 658.94,55.4 Z M680.58,52.76 C685.7,52.76 688.5,54.88 689.06,59.2 L685.94,59.2 C685.66,57.92 685.14,56.96 684.34,56.4 C683.46,55.76 682.18,55.44 680.54,55.44 C679.1,55.44 677.98,55.68 677.18,56.24 C676.3,56.76 675.86,57.48 675.86,58.4 C675.86,59.28 676.42,60.04 677.62,60.64 C678.38,61 679.82,61.44 681.9,62 C684.38,62.6 686.14,63.24 687.22,63.92 C688.86,64.96 689.7,66.36 689.7,68.16 C689.7,72.4 686.78,74.56 680.94,74.56 C675.5,74.56 672.54,72.16 672.06,67.4 L675.18,67.4 C675.42,69.04 676.02,70.2 676.9,70.92 C677.78,71.56 679.1,71.88 680.86,71.88 C684.54,71.88 686.42,70.68 686.42,68.36 C686.42,67.2 685.74,66.32 684.46,65.68 C683.78,65.36 682.3,64.92 680.06,64.36 C677.62,63.76 675.9,63.16 674.94,62.52 C673.34,61.56 672.58,60.24 672.58,58.48 C672.58,56.72 673.34,55.36 674.9,54.32 C676.34,53.28 678.26,52.76 680.58,52.76 Z" id="Deposit-UGAS-&amp;-Win-B"></path>
            <path d="M159.8,162.15 L167.5,162.15 C169.275,162.15 170.675,162.55 171.7,163.375 C172.75,164.225 173.3,165.475 173.3,167.125 C173.3,168.125 173.025,169 172.475,169.775 C171.875,170.575 171.075,171.075 170.05,171.325 L170.05,171.375 C171.75,171.75 172.7,172.825 172.9,174.625 L173.175,177.375 C173.275,178.475 173.6,179.35 174.125,180 L171.9,180 C171.5,179.4 171.25,178.625 171.175,177.625 L170.95,175.25 C170.85,174.2 170.475,173.425 169.825,172.975 C169.225,172.525 168.375,172.325 167.25,172.325 L161.85,172.325 L161.85,180 L159.8,180 L159.8,162.15 Z M161.85,163.925 L161.85,170.55 L167.25,170.55 C168.55,170.55 169.575,170.225 170.275,169.625 C170.9,169.05 171.225,168.25 171.225,167.2 C171.225,166.1 170.9,165.275 170.3,164.75 C169.65,164.2 168.625,163.925 167.25,163.925 L161.85,163.925 Z M181.775,166.725 C183.85,166.725 185.425,167.425 186.475,168.825 C187.425,170.075 187.925,171.85 187.975,174.1 L177.775,174.1 C177.875,175.55 178.25,176.675 178.95,177.475 C179.65,178.275 180.625,178.675 181.85,178.675 C182.9,178.675 183.775,178.4 184.425,177.875 C184.975,177.425 185.4,176.75 185.725,175.85 L187.725,175.85 C187.425,177.1 186.85,178.1 185.975,178.9 C184.9,179.85 183.525,180.35 181.85,180.35 C180,180.35 178.5,179.725 177.4,178.525 C176.25,177.275 175.7,175.625 175.7,173.525 C175.7,171.625 176.225,170.025 177.325,168.75 C178.425,167.4 179.9,166.725 181.775,166.725 Z M181.825,168.4 C180.675,168.4 179.75,168.775 179.05,169.525 C178.35,170.275 177.95,171.275 177.825,172.55 L185.9,172.55 C185.65,169.775 184.275,168.4 181.825,168.4 Z M195.65,166.725 C197.6,166.725 199.05,167.575 200,169.3 L200,167.075 L202,167.075 L202,179.1 C202,183.225 200.025,185.3 196.1,185.3 C194.35,185.3 193,184.95 192.1,184.25 C191.175,183.55 190.6,182.5 190.375,181.1 L192.375,181.1 C192.525,181.975 192.9,182.625 193.475,183.025 C194.05,183.45 194.925,183.675 196.1,183.675 C198.7,183.675 200,182.225 200,179.375 L200,177.1 C199.05,178.825 197.6,179.7 195.65,179.7 C193.85,179.7 192.425,179.075 191.375,177.85 C190.325,176.65 189.825,175.125 189.825,173.25 C189.825,171.35 190.325,169.825 191.375,168.625 C192.425,167.35 193.85,166.725 195.65,166.725 Z M195.95,168.375 C194.65,168.375 193.65,168.825 192.925,169.775 C192.225,170.625 191.875,171.8 191.875,173.25 C191.875,174.6 192.175,175.725 192.8,176.575 C193.5,177.525 194.525,178.025 195.925,178.025 C197.225,178.025 198.225,177.575 198.975,176.675 C199.675,175.8 200.025,174.65 200.025,173.25 C200.025,171.8 199.675,170.625 198.975,169.775 C198.225,168.825 197.225,168.375 195.95,168.375 Z M206.75,162.2 C207.175,162.2 207.525,162.325 207.825,162.625 C208.125,162.875 208.275,163.225 208.275,163.675 C208.275,164.1 208.125,164.45 207.825,164.75 C207.525,165.025 207.175,165.175 206.75,165.175 C206.325,165.175 205.975,165.025 205.675,164.75 C205.375,164.45 205.25,164.1 205.25,163.675 C205.25,163.225 205.375,162.875 205.675,162.625 C205.975,162.325 206.325,162.2 206.75,162.2 Z M205.75,167.075 L207.75,167.075 L207.75,180 L205.75,180 L205.75,167.075 Z M216.075,166.725 C219.275,166.725 221.025,168.05 221.375,170.75 L219.425,170.75 C219.25,169.95 218.925,169.35 218.425,169 C217.875,168.6 217.075,168.4 216.05,168.4 C215.15,168.4 214.45,168.55 213.95,168.9 C213.4,169.225 213.125,169.675 213.125,170.25 C213.125,170.8 213.475,171.275 214.225,171.65 C214.7,171.875 215.6,172.15 216.9,172.5 C218.45,172.875 219.55,173.275 220.225,173.7 C221.25,174.35 221.775,175.225 221.775,176.35 C221.775,179 219.95,180.35 216.3,180.35 C212.9,180.35 211.05,178.85 210.75,175.875 L212.7,175.875 C212.85,176.9 213.225,177.625 213.775,178.075 C214.325,178.475 215.15,178.675 216.25,178.675 C218.55,178.675 219.725,177.925 219.725,176.475 C219.725,175.75 219.3,175.2 218.5,174.8 C218.075,174.6 217.15,174.325 215.75,173.975 C214.225,173.6 213.15,173.225 212.55,172.825 C211.55,172.225 211.075,171.4 211.075,170.3 C211.075,169.2 211.55,168.35 212.525,167.7 C213.425,167.05 214.625,166.725 216.075,166.725 Z M227.575,162.9 L227.575,167.075 L230.775,167.075 L230.775,168.75 L227.575,168.75 L227.575,176.975 C227.575,177.45 227.65,177.8 227.85,178 C228.025,178.2 228.35,178.325 228.8,178.325 L230.45,178.325 L230.45,180 L228.5,180 C227.45,180 226.675,179.725 226.225,179.175 C225.8,178.675 225.6,177.95 225.6,176.975 L225.6,168.75 L223,168.75 L223,167.075 L225.6,167.075 L225.6,163.725 L227.575,162.9 Z M238.325,166.725 C240.4,166.725 241.975,167.425 243.025,168.825 C243.975,170.075 244.475,171.85 244.525,174.1 L234.325,174.1 C234.425,175.55 234.8,176.675 235.5,177.475 C236.2,178.275 237.175,178.675 238.4,178.675 C239.45,178.675 240.325,178.4 240.975,177.875 C241.525,177.425 241.95,176.75 242.275,175.85 L244.275,175.85 C243.975,177.1 243.4,178.1 242.525,178.9 C241.45,179.85 240.075,180.35 238.4,180.35 C236.55,180.35 235.05,179.725 233.95,178.525 C232.8,177.275 232.25,175.625 232.25,173.525 C232.25,171.625 232.775,170.025 233.875,168.75 C234.975,167.4 236.45,166.725 238.325,166.725 Z M238.375,168.4 C237.225,168.4 236.3,168.775 235.6,169.525 C234.9,170.275 234.5,171.275 234.375,172.55 L242.45,172.55 C242.2,169.775 240.825,168.4 238.375,168.4 Z M252.55,166.725 C253.25,166.725 253.85,166.825 254.325,167.025 L254.325,169.025 C253.675,168.825 253.025,168.75 252.4,168.75 C251.4,168.75 250.55,169.175 249.875,170.075 C249.175,170.925 248.85,171.95 248.85,173.15 L248.85,180 L246.875,180 L246.875,167.075 L248.85,167.075 L248.85,169.325 C249.2,168.575 249.65,167.975 250.2,167.55 C250.875,167 251.65,166.725 252.55,166.725 Z M264.575,162.15 L266.725,162.15 L276.825,176.675 L276.9,176.675 L276.9,162.15 L278.95,162.15 L278.95,180 L276.85,180 L266.7,165.325 L266.625,165.325 L266.625,180 L264.575,180 L264.575,162.15 Z M288.075,166.725 C290,166.725 291.55,167.375 292.7,168.725 C293.8,170 294.35,171.6 294.35,173.55 C294.35,175.475 293.8,177.075 292.725,178.325 C291.55,179.675 290,180.35 288.075,180.35 C286.125,180.35 284.6,179.675 283.45,178.325 C282.35,177.075 281.8,175.475 281.8,173.55 C281.8,171.6 282.35,170 283.45,168.725 C284.6,167.375 286.125,166.725 288.075,166.725 Z M288.075,168.4 C286.7,168.4 285.625,168.925 284.875,169.975 C284.175,170.925 283.85,172.1 283.85,173.55 C283.85,174.975 284.175,176.15 284.875,177.1 C285.625,178.15 286.7,178.675 288.075,178.675 C289.425,178.675 290.5,178.15 291.3,177.1 C291.975,176.15 292.325,174.95 292.325,173.55 C292.325,172.1 291.975,170.925 291.3,169.975 C290.5,168.925 289.425,168.4 288.075,168.4 Z M295.525,167.075 L297.725,167.075 L300.9,177.55 L303.9,167.075 L305.775,167.075 L308.775,177.55 L311.95,167.075 L314.15,167.075 L309.75,180 L307.85,180 L304.85,169.6 L301.8,180 L299.925,180 L295.525,167.075 Z M330.225,163.4 C329.45,163.4 328.85,163.6 328.45,164 C328,164.35 327.8,164.875 327.8,165.575 C327.8,166.05 328.05,166.65 328.6,167.4 C328.85,167.75 329.25,168.225 329.775,168.825 C329.925,168.725 330.1,168.625 330.3,168.525 C331.85,167.625 332.625,166.65 332.625,165.6 C332.625,164.95 332.425,164.45 332.025,164.05 C331.575,163.6 330.975,163.4 330.225,163.4 Z M328.125,169.75 C327.325,168.9 326.8,168.25 326.5,167.775 C326,167.025 325.775,166.3 325.775,165.6 C325.775,164.4 326.225,163.475 327.125,162.775 C327.95,162.125 329,161.8 330.275,161.8 C331.525,161.8 332.575,162.125 333.375,162.775 C334.225,163.425 334.675,164.325 334.675,165.475 C334.675,166.675 334.1,167.7 333,168.6 C332.3,169.05 331.6,169.525 330.875,169.975 L335.35,174.7 C336,173.3 336.375,171.575 336.5,169.55 L338.525,169.55 C338.425,172.2 337.85,174.425 336.825,176.25 L340.375,180 L337.775,180 L335.7,177.8 C334.2,179.5 332.275,180.35 329.9,180.35 C328.075,180.35 326.6,179.9 325.475,179.05 C324.25,178.1 323.65,176.8 323.65,175.125 C323.65,173.475 324.425,172.075 325.975,170.95 L328.125,169.75 Z M329.825,178.525 C331.7,178.525 333.2,177.8 334.35,176.375 L329.25,170.95 C328.45,171.45 327.7,171.975 327.025,172.5 C326.125,173.25 325.7,174.15 325.7,175.15 C325.7,176.15 326.1,176.975 326.9,177.625 C327.65,178.225 328.625,178.525 329.825,178.525 Z M349.2,162.15 L351.5,162.15 L355.425,177.125 L355.525,177.125 L359.6,162.15 L361.825,162.15 L365.875,177.125 L365.975,177.125 L369.9,162.15 L372.2,162.15 L367.075,180 L364.8,180 L360.75,165.125 L360.675,165.125 L356.6,180 L354.325,180 L349.2,162.15 Z M375.525,162.2 C375.95,162.2 376.3,162.325 376.6,162.625 C376.9,162.875 377.05,163.225 377.05,163.675 C377.05,164.1 376.9,164.45 376.6,164.75 C376.3,165.025 375.95,165.175 375.525,165.175 C375.1,165.175 374.75,165.025 374.45,164.75 C374.15,164.45 374.025,164.1 374.025,163.675 C374.025,163.225 374.15,162.875 374.45,162.625 C374.75,162.325 375.1,162.2 375.525,162.2 Z M374.525,167.075 L376.525,167.075 L376.525,180 L374.525,180 L374.525,167.075 Z M386.325,166.725 C389.525,166.725 391.15,168.5 391.15,172.05 L391.15,180 L389.15,180 L389.15,172.2 C389.15,169.675 388,168.425 385.75,168.425 C384.85,168.425 384.075,168.75 383.425,169.4 C382.725,170.1 382.35,171.025 382.275,172.2 L382.275,180 L380.275,180 L380.275,167.075 L382.275,167.075 L382.275,168.975 C382.725,168.25 383.3,167.7 384,167.325 C384.7,166.925 385.475,166.725 386.325,166.725 Z M410.625,161.8 C413.275,161.8 415.4,162.675 416.95,164.475 C418.4,166.175 419.15,168.375 419.15,171.1 C419.15,173.8 418.4,175.975 416.95,177.675 C416.9,177.725 416.85,177.775 416.825,177.825 C417.525,178.725 418.2,179.675 418.875,180.65 L417.525,181.825 C416.825,180.825 416.15,179.875 415.475,178.975 C414.125,179.875 412.5,180.35 410.6,180.35 C407.925,180.35 405.825,179.45 404.275,177.675 C402.8,175.975 402.075,173.775 402.075,171.1 C402.075,168.4 402.8,166.2 404.275,164.5 C405.825,162.7 407.925,161.8 410.625,161.8 Z M410.625,163.625 C408.575,163.625 406.95,164.325 405.775,165.75 C404.675,167.1 404.125,168.875 404.125,171.1 C404.125,173.3 404.675,175.075 405.775,176.425 C406.925,177.825 408.55,178.525 410.6,178.525 C412.075,178.525 413.325,178.175 414.325,177.475 C413.325,176.2 412.325,175.025 411.325,173.975 L412.55,172.8 C413.575,173.9 414.6,175.05 415.6,176.275 C416.6,174.95 417.1,173.225 417.1,171.1 C417.1,168.825 416.525,167.025 415.425,165.675 C414.275,164.3 412.675,163.625 410.625,163.625 Z M422,162.15 L429.975,162.15 C431.625,162.15 432.95,162.55 433.925,163.35 C434.875,164.15 435.35,165.25 435.35,166.65 C435.35,167.65 435.075,168.525 434.55,169.25 C434,169.9 433.275,170.375 432.375,170.675 C433.55,170.875 434.45,171.375 435.1,172.125 C435.75,172.875 436.1,173.825 436.1,175.025 C436.1,176.775 435.475,178.075 434.25,178.925 C433.2,179.625 431.75,180 429.925,180 L422,180 L422,162.15 Z M424.05,163.875 L424.05,169.95 L429.475,169.95 C430.725,169.95 431.675,169.675 432.325,169.175 C432.975,168.65 433.325,167.875 433.325,166.85 C433.325,165.85 433,165.1 432.35,164.6 C431.7,164.1 430.75,163.875 429.5,163.875 L424.05,163.875 Z M424.05,171.65 L424.05,178.275 L429.75,178.275 C431,178.275 431.975,178.025 432.725,177.575 C433.6,177.025 434.05,176.15 434.05,175 C434.05,173.85 433.65,173 432.9,172.45 C432.175,171.9 431.125,171.65 429.75,171.65 L424.05,171.65 Z M445.875,162.15 L460.5,162.15 L460.5,163.925 L454.2,163.925 L454.2,180 L452.175,180 L452.175,163.925 L445.875,163.925 L445.875,162.15 Z M468.25,166.725 C470.175,166.725 471.725,167.375 472.875,168.725 C473.975,170 474.525,171.6 474.525,173.55 C474.525,175.475 473.975,177.075 472.9,178.325 C471.725,179.675 470.175,180.35 468.25,180.35 C466.3,180.35 464.775,179.675 463.625,178.325 C462.525,177.075 461.975,175.475 461.975,173.55 C461.975,171.6 462.525,170 463.625,168.725 C464.775,167.375 466.3,166.725 468.25,166.725 Z M468.25,168.4 C466.875,168.4 465.8,168.925 465.05,169.975 C464.35,170.925 464.025,172.1 464.025,173.55 C464.025,174.975 464.35,176.15 465.05,177.1 C465.8,178.15 466.875,178.675 468.25,178.675 C469.6,178.675 470.675,178.15 471.475,177.1 C472.15,176.15 472.5,174.95 472.5,173.55 C472.5,172.1 472.15,170.925 471.475,169.975 C470.675,168.925 469.6,168.4 468.25,168.4 Z M477.125,161.8 L479.125,161.8 L479.125,173.075 L485.6,167.075 L488.25,167.075 L482.55,172.275 L488.8,180 L486.225,180 L481.175,173.575 L479.125,175.425 L479.125,180 L477.125,180 L477.125,161.8 Z M495.675,166.725 C497.75,166.725 499.325,167.425 500.375,168.825 C501.325,170.075 501.825,171.85 501.875,174.1 L491.675,174.1 C491.775,175.55 492.15,176.675 492.85,177.475 C493.55,178.275 494.525,178.675 495.75,178.675 C496.8,178.675 497.675,178.4 498.325,177.875 C498.875,177.425 499.3,176.75 499.625,175.85 L501.625,175.85 C501.325,177.1 500.75,178.1 499.875,178.9 C498.8,179.85 497.425,180.35 495.75,180.35 C493.9,180.35 492.4,179.725 491.3,178.525 C490.15,177.275 489.6,175.625 489.6,173.525 C489.6,171.625 490.125,170.025 491.225,168.75 C492.325,167.4 493.8,166.725 495.675,166.725 Z M495.725,168.4 C494.575,168.4 493.65,168.775 492.95,169.525 C492.25,170.275 491.85,171.275 491.725,172.55 L499.8,172.55 C499.55,169.775 498.175,168.4 495.725,168.4 Z M510.275,166.725 C513.475,166.725 515.1,168.5 515.1,172.05 L515.1,180 L513.1,180 L513.1,172.2 C513.1,169.675 511.95,168.425 509.7,168.425 C508.8,168.425 508.025,168.75 507.375,169.4 C506.675,170.1 506.3,171.025 506.225,172.2 L506.225,180 L504.225,180 L504.225,167.075 L506.225,167.075 L506.225,168.975 C506.675,168.25 507.25,167.7 507.95,167.325 C508.65,166.925 509.425,166.725 510.275,166.725 Z M522.775,166.725 C525.975,166.725 527.725,168.05 528.075,170.75 L526.125,170.75 C525.95,169.95 525.625,169.35 525.125,169 C524.575,168.6 523.775,168.4 522.75,168.4 C521.85,168.4 521.15,168.55 520.65,168.9 C520.1,169.225 519.825,169.675 519.825,170.25 C519.825,170.8 520.175,171.275 520.925,171.65 C521.4,171.875 522.3,172.15 523.6,172.5 C525.15,172.875 526.25,173.275 526.925,173.7 C527.95,174.35 528.475,175.225 528.475,176.35 C528.475,179 526.65,180.35 523,180.35 C519.6,180.35 517.75,178.85 517.45,175.875 L519.4,175.875 C519.55,176.9 519.925,177.625 520.475,178.075 C521.025,178.475 521.85,178.675 522.95,178.675 C525.25,178.675 526.425,177.925 526.425,176.475 C526.425,175.75 526,175.2 525.2,174.8 C524.775,174.6 523.85,174.325 522.45,173.975 C520.925,173.6 519.85,173.225 519.25,172.825 C518.25,172.225 517.775,171.4 517.775,170.3 C517.775,169.2 518.25,168.35 519.225,167.7 C520.125,167.05 521.325,166.725 522.775,166.725 Z" id="Register-Now-&amp;-Win-Q"></path>
        </g>
    </g>
</svg>