<?xml version="1.0" encoding="UTF-8"?>
<svg width="1113px" height="660px" viewBox="0 0 1113 660" version="1.1" xmlns="http://www.w3.org/2000/svg" xmlns:xlink="http://www.w3.org/1999/xlink">
    <!-- Generator: Sketch 50.2 (55047) - http://www.bohemiancoding.com/sketch -->
    <title>404</title>
    <desc>Created with Sketch.</desc>
    <defs>
        <linearGradient x1="0%" y1="100%" x2="100%" y2="100%" id="linearGradient-1">
            <stop stop-color="#607DD0" offset="0%"></stop>
            <stop stop-color="#607DD0" stop-opacity="0" offset="100%"></stop>
        </linearGradient>
        <linearGradient x1="129.955496%" y1="165.121616%" x2="30.4588405%" y2="14.0117902%" id="linearGradient-2">
            <stop stop-color="#191F2E" offset="0%"></stop>
            <stop stop-color="#34436D" offset="100%"></stop>
        </linearGradient>
        <circle id="path-3" cx="1050" cy="183" r="25"></circle>
        <filter x="-32.0%" y="-28.0%" width="164.0%" height="164.0%" filterUnits="objectBoundingBox" id="filter-4">
            <feOffset dx="0" dy="2" in="SourceAlpha" result="shadowOffsetOuter1"></feOffset>
            <feGaussianBlur stdDeviation="5" in="shadowOffsetOuter1" result="shadowBlurOuter1"></feGaussianBlur>
            <feColorMatrix values="0 0 0 0 0.0980392157   0 0 0 0 0.121568627   0 0 0 0 0.184313725  0 0 0 0.436650815 0" type="matrix" in="shadowBlurOuter1"></feColorMatrix>
        </filter>
        <linearGradient x1="161.06794%" y1="130.125013%" x2="-0.653603684%" y2="49.008393%" id="linearGradient-5">
            <stop stop-color="#191F2E" offset="0%"></stop>
            <stop stop-color="#34436D" offset="100%"></stop>
        </linearGradient>
        <path d="M1031.13376,178.887717 C1030.72515,180.469527 1030.41828,181.958736 1030.21315,183.355344 C1019.59105,191.193352 1013.31681,198.339566 1015.07931,201.392305 C1017.56459,205.696938 1035.08862,200.232228 1054.22032,189.186533 C1073.35203,178.140838 1086.84662,165.696938 1084.36134,161.392305 C1082.83769,158.75327 1075.66169,159.786071 1065.92816,163.525612 C1064.59225,162.754773 1063.17721,162.179943 1061.68304,161.801122 C1077.83432,154.624168 1090.56844,152.143325 1093.02159,156.392305 C1096.3353,162.131816 1079.63495,177.977491 1055.72032,191.78461 C1031.80569,205.591728 1009.73276,212.131816 1006.41905,206.392305 C1003.72559,201.727095 1014.25506,190.384923 1031.13375,178.887723 Z" id="path-6"></path>
        <filter x="-18.3%" y="-25.8%" width="136.6%" height="159.1%" filterUnits="objectBoundingBox" id="filter-7">
            <feOffset dx="0" dy="2" in="SourceAlpha" result="shadowOffsetOuter1"></feOffset>
            <feGaussianBlur stdDeviation="5" in="shadowOffsetOuter1" result="shadowBlurOuter1"></feGaussianBlur>
            <feColorMatrix values="0 0 0 0 0.0980392157   0 0 0 0 0.121568627   0 0 0 0 0.184313725  0 0 0 0.2 0" type="matrix" in="shadowBlurOuter1"></feColorMatrix>
        </filter>
        <circle id="path-8" cx="29.8422047" cy="29.8422047" r="29.8422047"></circle>
        <filter x="-26.8%" y="-23.5%" width="153.6%" height="153.6%" filterUnits="objectBoundingBox" id="filter-10">
            <feOffset dx="0" dy="2" in="SourceAlpha" result="shadowOffsetOuter1"></feOffset>
            <feGaussianBlur stdDeviation="5" in="shadowOffsetOuter1" result="shadowBlurOuter1"></feGaussianBlur>
            <feColorMatrix values="0 0 0 0 0.0980392157   0 0 0 0 0.121568627   0 0 0 0 0.184313725  0 0 0 0.436650815 0" type="matrix" in="shadowBlurOuter1"></feColorMatrix>
        </filter>
        <circle id="path-11" cx="197" cy="55" r="20"></circle>
        <filter x="-40.0%" y="-35.0%" width="180.0%" height="180.0%" filterUnits="objectBoundingBox" id="filter-12">
            <feOffset dx="0" dy="2" in="SourceAlpha" result="shadowOffsetOuter1"></feOffset>
            <feGaussianBlur stdDeviation="5" in="shadowOffsetOuter1" result="shadowBlurOuter1"></feGaussianBlur>
            <feColorMatrix values="0 0 0 0 0.0980392157   0 0 0 0 0.121568627   0 0 0 0 0.184313725  0 0 0 0.115177763 0" type="matrix" in="shadowBlurOuter1"></feColorMatrix>
        </filter>
        <path d="M79.4112463,143.74689 L0,143.74689 L0,107.507951 L79.4112463,12.0967742 L117.404497,12.0967742 L117.404497,109.563294 L137.096774,109.563294 L137.096774,143.74689 L117.404497,143.74689 L117.404497,173.387097 L79.4112463,173.387097 L79.4112463,143.74689 Z M79.4112463,109.563294 L79.4112463,59.6941866 L37.458135,109.563294 L79.4112463,109.563294 Z" id="path-13"></path>
        <filter x="-76.6%" y="-40.3%" width="224.0%" height="205.4%" filterUnits="objectBoundingBox" id="filter-14">
            <feOffset dx="-20" dy="20" in="SourceAlpha" result="shadowOffsetOuter1"></feOffset>
            <feGaussianBlur stdDeviation="25" in="shadowOffsetOuter1" result="shadowBlurOuter1"></feGaussianBlur>
            <feColorMatrix values="0 0 0 0 0.0784313725   0 0 0 0 0.0862745098   0 0 0 0 0.109803922  0 0 0 0.5 0" type="matrix" in="shadowBlurOuter1"></feColorMatrix>
        </filter>
        <path d="M442.314472,143.74689 L362.903226,143.74689 L362.903226,107.507951 L442.314472,12.0967742 L480.307723,12.0967742 L480.307723,109.563294 L500,109.563294 L500,143.74689 L480.307723,143.74689 L480.307723,173.387097 L442.314472,173.387097 L442.314472,143.74689 Z M442.314472,109.563294 L442.314472,59.6941866 L400.361361,109.563294 L442.314472,109.563294 Z" id="path-15"></path>
        <filter x="-76.6%" y="-40.3%" width="224.0%" height="205.4%" filterUnits="objectBoundingBox" id="filter-16">
            <feOffset dx="-20" dy="20" in="SourceAlpha" result="shadowOffsetOuter1"></feOffset>
            <feGaussianBlur stdDeviation="25" in="shadowOffsetOuter1" result="shadowBlurOuter1"></feGaussianBlur>
            <feColorMatrix values="0 0 0 0 0.0784313725   0 0 0 0 0.0862745098   0 0 0 0 0.109803922  0 0 0 0.5 0" type="matrix" in="shadowBlurOuter1"></feColorMatrix>
        </filter>
        <circle id="path-17" cx="72.5806452" cy="72.5806452" r="72.5806452"></circle>
        <filter x="-42.0%" y="-35.1%" width="170.3%" height="170.3%" filterUnits="objectBoundingBox" id="filter-18">
            <feOffset dx="-10" dy="10" in="SourceAlpha" result="shadowOffsetOuter1"></feOffset>
            <feGaussianBlur stdDeviation="10" in="shadowOffsetOuter1" result="shadowBlurOuter1"></feGaussianBlur>
            <feColorMatrix values="0 0 0 0 0.249093889   0 0 0 0 0.322653197   0 0 0 0 0.52861926  0 0 0 1 0" type="matrix" in="shadowBlurOuter1" result="shadowMatrixOuter1"></feColorMatrix>
            <feOffset dx="0" dy="-10" in="SourceAlpha" result="shadowOffsetOuter2"></feOffset>
            <feGaussianBlur stdDeviation="8" in="shadowOffsetOuter2" result="shadowBlurOuter2"></feGaussianBlur>
            <feColorMatrix values="0 0 0 0 1   0 0 0 0 1   0 0 0 0 1  0 0 0 0.338994565 0" type="matrix" in="shadowBlurOuter2" result="shadowMatrixOuter2"></feColorMatrix>
            <feMerge>
                <feMergeNode in="shadowMatrixOuter1"></feMergeNode>
                <feMergeNode in="shadowMatrixOuter2"></feMergeNode>
            </feMerge>
        </filter>
        <circle id="path-19" cx="72.5806452" cy="72.5806452" r="72.5806452"></circle>
        <path d="M0.627168447,46.232316 C10.0725721,19.3135711 35.8321492,0 66.1290323,0 C100.407159,0 128.877156,24.7229816 134.48263,57.2117173 C122.522228,30.6226023 95.6940951,12.0967742 64.516129,12.0967742 C37.838917,12.0967742 14.346327,25.6599986 0.627168447,46.232316 Z" id="path-21"></path>
        <linearGradient x1="85.7166783%" y1="0%" x2="50%" y2="100%" id="linearGradient-23">
            <stop stop-color="#DFE7F0" offset="0%"></stop>
            <stop stop-color="#D0D8DE" offset="100%"></stop>
        </linearGradient>
        <radialGradient cx="50%" cy="39.4637406%" fx="50%" fy="39.4637406%" r="261.190604%" gradientTransform="translate(0.500000,0.394637),scale(0.255593,1.000000),scale(1.000000,0.204221),translate(-0.500000,-0.394637)" id="radialGradient-24">
            <stop stop-color="#182A60" stop-opacity="0" offset="0%"></stop>
            <stop stop-color="#607DD0" offset="100%"></stop>
        </radialGradient>
        <filter x="-3.2%" y="-12.3%" width="106.3%" height="124.7%" filterUnits="objectBoundingBox" id="filter-25">
            <feGaussianBlur stdDeviation="2" in="SourceGraphic"></feGaussianBlur>
        </filter>
    </defs>
    <g id="切图" stroke="none" stroke-width="1" fill="none" fill-rule="evenodd">
        <g id="404" transform="translate(10.000000, 0.000000)">
            <rect id="Rectangle-35" fill="url(#linearGradient-1)" transform="translate(109.633341, 139.474599) rotate(-43.000000) translate(-109.633341, -139.474599) " x="43.633341" y="137.474599" width="132" height="4" rx="2"></rect>
            <rect id="Rectangle-35-Copy" fill="url(#linearGradient-1)" transform="translate(1049.633341, 46.474599) rotate(-43.000000) translate(-1049.633341, -46.474599) " x="983.633341" y="44.4745992" width="132" height="4" rx="2"></rect>
            <g id="Oval-8">
                <use fill="black" fill-opacity="1" filter="url(#filter-4)" xlink:href="#path-3"></use>
                <use fill="url(#linearGradient-2)" fill-rule="evenodd" xlink:href="#path-3"></use>
            </g>
            <g id="Combined-Shape">
                <use fill="black" fill-opacity="1" filter="url(#filter-7)" xlink:href="#path-6"></use>
                <use fill="url(#linearGradient-5)" fill-rule="evenodd" xlink:href="#path-6"></use>
            </g>
            <g id="Group-22" transform="translate(0.000000, 448.000000)">
                <mask id="mask-9" fill="white">
                    <use xlink:href="#path-8"></use>
                </mask>
                <g id="Mask" opacity="0.996651786">
                    <use fill="black" fill-opacity="1" filter="url(#filter-10)" xlink:href="#path-8"></use>
                    <use fill="url(#linearGradient-2)" fill-rule="evenodd" xlink:href="#path-8"></use>
                </g>
                <g opacity="0.387723214" mask="url(#mask-9)" fill="#1D2538" fill-rule="nonzero" id="Shape">
                    <g transform="translate(12.000000, -4.000000)">
                        <path d="M21.515136,6.55577325e-16 C21.515136,6.55577325e-16 13.2328164,11.1879698 19.1029954,9.17291731 C24.9735417,7.15749581 27.3287403,7.05157639 25.8118763,10.2033251 C24.2950124,13.3547047 24.1175735,14.9988547 24.4540829,16.1894333 C24.951867,17.9531577 27.4047855,13.3487998 29.2754252,16.0351673 C31.4447353,19.1503794 28.2016075,20.6638831 28.2016075,20.6638831 C28.2016075,20.6638831 28.3636169,22.8361539 30.1736408,21.5621683 C31.9836647,20.2878137 35.2877757,18.3177863 32.6812972,23.5181716 C30.0748187,28.718557 30.3091997,25.4147567 29.5502167,27.2832934 C28.7912337,29.1518302 26.2082668,27.9457512 28.0399654,29.8644797 C29.871664,31.7835772 33.3263961,29.3263942 33.3058234,30.5166038 C33.2852508,31.7068133 32.944333,32.6947795 31.5711101,34.5832453 C30.1975198,36.4713421 30.4260229,36.9012938 31.0314459,37.9007007 C31.6365016,38.9001077 31.8385542,39.2776532 31.2485606,41.0258773 C30.6581997,42.7741014 27.0943593,43.9624656 27.0943593,43.9624656 C27.0943593,43.9624656 22.9603631,42.8855567 23.7502051,46.8115874 C24.5404144,50.7372491 17.8352072,50.3537986 19.5320816,53.4808205 C21.2289561,56.6082114 26.0815247,61.6569143 26.8496919,62.3894929 C27.6182265,63.1220714 27.0579898,73.2763119 31.8466363,69.5886921 C36.6352829,65.9014414 36.5970765,61.5151963 38.1859447,65.5242649 C39.7748128,69.5333335 39.2189845,71.657996 38.8960677,73.0858784 C38.5731509,74.5141298 34.3197601,75.8379381 39.0966508,77.0787085 C43.8731742,78.3194789 41.6116546,82.3813227 47.4928546,76.907835 C53.3740547,71.4343473 56.3225531,69.239564 55.880609,75.9486553 C55.4382974,82.6573775 54.3424376,85.6223832 53.8824925,87.0879095 C53.4225473,88.5538048 54.0051935,89.529223 57.3677161,87.6020062 C60.7298713,85.6744203 65.0405716,80.8859028 65.4222673,80.0754532 C65.8043304,79.2650035 65.0622463,75.6552548 67.4244248,76.5317657 C69.7869707,77.4079075 73.8081848,72.7603699 71.9232177,81.2132566 C70.0378833,89.6661433 67.6455806,90.6740385 70.7829063,91.8439499 C73.9202321,93.0142304 75.0256435,87.2945815 76.9870231,84.9425798 C78.9476681,82.5902091 82.6713137,78.7021912 82.69556,75.785901 C82.7198064,72.8696109 84.0691503,70.1186583 80.8855361,68.1312852 C77.701922,66.143912 74.4529162,66.3605486 70.9783463,66.505219 C67.5041438,66.6498895 63.1320929,62.2267386 62.3194741,59.346247 C61.5068553,56.4653863 61.3595406,38.7026621 60.8643281,36.180525 C60.3687482,33.6583879 58.8375569,26.8898784 55.475769,24.2282377 C52.1139812,21.5669661 52.6947906,21.3721039 48.6676986,18.8887178 C44.6406067,16.4053317 45.7394055,16.9013447 42.8162555,14.9054832 C39.8934728,12.9092527 39.7303613,14.0894977 37.8619258,9.20354906 C35.9934903,4.31796953 37.5404785,3.95518627 35.3660252,3.4226367 C33.1915719,2.89008712 31.5347406,2.6280565 30.122944,2.42876559 C28.71078,2.22947469 23.2788715,1.00568094 23.2788715,1.00568094 L21.515136,6.55577325e-16 Z"></path>
                        <path d="M25.054736,31.0317209 C25.9338804,31.3157943 26.430369,30.7056864 27.559797,31.4498472 C28.689225,32.194008 29.5616951,33.7161213 28.561673,34.9619594 C27.5620217,36.2077974 26.5137968,39.6534402 24.7210246,37.0525908 C22.9278815,34.4517413 22.7562055,33.9667743 23.2178397,33.2059033 C23.6794739,32.4446609 24.1759625,30.7476475 25.054736,31.0317209 Z"></path>
                        <path d="M24.0000741,41.613902 C24.012406,40.6379543 24.2963823,38.0653992 25.3113661,38.4783767 C26.3266925,38.8909562 25.9546802,40.170868 27.2399382,38.9263657 C28.5251961,37.6814655 29.6576756,36.1393647 29.5542246,37.5823986 C29.4507737,39.0254325 30.6603275,40.3053443 29.4771503,41.0763947 C28.2936305,41.8474451 27.4204635,43.2618332 26.4685094,42.957869 C25.5165552,42.6539049 23.9877422,42.5898496 24.0000741,41.613902 Z"></path>
                        <path d="M24.1393821,24.5672043 C24.7430588,23.852275 25.4175279,24.0162047 25.4175279,24.0162047 C25.4175279,24.0162047 26.4617901,25.998531 25.7538664,25.999999 C25.0456439,26.0009777 23.5357054,25.282623 24.1393821,24.5672043 Z"></path>
                        <path d="M31,21.8182185 L31.6857192,21 C31.6857192,21 32.2587591,22.0446717 31.8572758,22.818084 C31.4555388,23.5914962 31,24 31,24 L31,21.8182185 Z"></path>
                        <path d="M13.2400777,14 C13.2400777,14 11.307492,17.6722415 12.2675025,18.0441747 C13.2271205,18.4161079 14.6229641,19.8292145 15.4502615,18.3135469 C16.2779516,16.7982784 16.0820231,15.9199254 15.4502615,15.3480582 C14.8188926,14.776191 13.2400777,14 13.2400777,14 Z"></path>
                        <path d="M0,6.57023533 C0,6.57023533 7.46920133,13.6891894 9.55236726,12.9455477 C11.6355332,12.201906 15.8072572,9.82111994 16.0283352,7.50526101 C16.2497727,5.1890246 17,3 17,3 L0,6.57023533 Z"></path>
                    </g>
                </g>
            </g>
            <circle id="Oval-10" fill-opacity="0.6" fill="#FFFFFF" cx="928" cy="157" r="3"></circle>
            <circle id="Oval-10-Copy-4" fill-opacity="0.6" fill="#8DA0C9" cx="259" cy="605" r="3"></circle>
            <circle id="Oval-10-Copy-5" fill-opacity="0.6" fill="#8DA0C9" cx="669" cy="524" r="3"></circle>
            <circle id="Oval-10-Copy" fill-opacity="0.6" fill="#8DA0C9" cx="294" cy="32" r="3"></circle>
            <circle id="Oval-10-Copy-2" fill-opacity="0.6" fill="#8DA0C9" cx="57" cy="58" r="3"></circle>
            <circle id="Oval-10-Copy-3" fill-opacity="0.6" fill="#8DA0C9" cx="156" cy="320" r="3"></circle>
            <g id="Oval-13" opacity="0.996651786">
                <use fill="black" fill-opacity="1" filter="url(#filter-12)" xlink:href="#path-11"></use>
                <use fill="url(#linearGradient-2)" fill-rule="evenodd" xlink:href="#path-11"></use>
            </g>
            <g id="Group" transform="translate(276.000000, 213.000000)">
                <g id="4">
                    <use fill="black" fill-opacity="1" filter="url(#filter-14)" xlink:href="#path-13"></use>
                    <use fill="#FFFFFF" fill-rule="evenodd" xlink:href="#path-13"></use>
                </g>
                <g id="4-copy">
                    <use fill="black" fill-opacity="1" filter="url(#filter-16)" xlink:href="#path-15"></use>
                    <use fill="#FFFFFF" fill-rule="evenodd" xlink:href="#path-15"></use>
                </g>
                <g id="Group-24" transform="translate(177.419355, 0.000000)">
                    <g id="Combined-Shape-Copy">
                        <use fill="black" fill-opacity="1" filter="url(#filter-18)" xlink:href="#path-17"></use>
                        <use fill="#FFFFFF" fill-rule="evenodd" xlink:href="#path-17"></use>
                    </g>
                    <g id="Oval-11">
                        <mask id="mask-20" fill="white">
                            <use xlink:href="#path-19"></use>
                        </mask>
                        <use id="Mask" fill="#FFFFFF" xlink:href="#path-19"></use>
                        <circle fill="#E9EEF2" mask="url(#mask-20)" cx="72.983871" cy="86.6935484" r="80.2419355"></circle>
                    </g>
                    <g id="Oval-11-Copy" transform="translate(73.790323, 113.306452) scale(1, -1) translate(-73.790323, -113.306452) translate(6.451613, 84.677419)">
                        <mask id="mask-22" fill="white">
                            <use xlink:href="#path-21"></use>
                        </mask>
                        <use id="Combined-Shape" fill="#C2CBD6" xlink:href="#path-21"></use>
                    </g>
                    <path d="M103.225806,42.7419355 C97.4357244,42.7419355 92.7419355,38.0481466 92.7419355,32.2580645 C92.7419355,26.4679825 97.4357244,21.7741935 103.225806,21.7741935 C109.015889,21.7741935 113.709677,26.4679825 113.709677,32.2580645 C113.709677,38.0481466 109.015889,42.7419355 103.225806,42.7419355 Z M58.8709677,58.0645161 C51.7447129,58.0645161 45.9677419,52.2875452 45.9677419,45.1612903 C45.9677419,38.0350355 51.7447129,32.2580645 58.8709677,32.2580645 C65.9972226,32.2580645 71.7741935,38.0350355 71.7741935,45.1612903 C71.7741935,52.2875452 65.9972226,58.0645161 58.8709677,58.0645161 Z M95.5645161,73.3870968 C91.3333023,73.3870968 87.9032258,69.9570203 87.9032258,65.7258065 C87.9032258,61.4945926 91.3333023,58.0645161 95.5645161,58.0645161 C99.7957299,58.0645161 103.225806,61.4945926 103.225806,65.7258065 C103.225806,69.9570203 99.7957299,73.3870968 95.5645161,73.3870968 Z M46.3709677,81.4516129 C42.1397539,81.4516129 38.7096774,78.0215364 38.7096774,73.7903226 C38.7096774,69.5591088 42.1397539,66.1290323 46.3709677,66.1290323 C50.6021816,66.1290323 54.0322581,69.5591088 54.0322581,73.7903226 C54.0322581,78.0215364 50.6021816,81.4516129 46.3709677,81.4516129 Z M80.2419355,116.129032 C71.5568124,116.129032 64.516129,109.088349 64.516129,100.403226 C64.516129,91.7181027 71.5568124,84.6774194 80.2419355,84.6774194 C88.9270586,84.6774194 95.9677419,91.7181027 95.9677419,100.403226 C95.9677419,109.088349 88.9270586,116.129032 80.2419355,116.129032 Z M16.1290323,87.9032258 C14.3474685,87.9032258 12.9032258,86.4589831 12.9032258,84.6774194 C12.9032258,82.8958556 14.3474685,81.4516129 16.1290323,81.4516129 C17.910596,81.4516129 19.3548387,82.8958556 19.3548387,84.6774194 C19.3548387,86.4589831 17.910596,87.9032258 16.1290323,87.9032258 Z" id="Combined-Shape" fill="url(#linearGradient-23)"></path>
                </g>
                <path d="M180.309722,139.963842 C171.750195,144.026113 166.774481,148.880353 166.774481,154.094955 C166.774481,168.382092 204.125578,179.964105 250.200492,179.964105 C296.275405,179.964105 333.626502,168.382092 333.626502,154.094955 C333.626502,148.014921 326.862168,142.424788 315.539789,138.008694 C334.514132,143.129809 346.40952,150.485812 346.40952,158.659384 C346.40952,174.131211 303.787099,186.673606 251.209677,186.673606 C198.632256,186.673606 156.009835,174.131211 156.009835,158.659384 C156.009835,151.475071 165.200043,144.9224 180.309722,139.963842 Z" id="Combined-Shape" fill="url(#radialGradient-24)" opacity="0.4" filter="url(#filter-25)" transform="translate(251.209677, 162.341150) rotate(-1.000000) translate(-251.209677, -162.341150) "></path>
            </g>
            <circle id="Oval-15" fill="#FFFFFF" opacity="0.3" cx="972" cy="306" r="2"></circle>
            <circle id="Oval-15-Copy-10" fill="#FFFFFF" opacity="0.3" cx="586" cy="658" r="2"></circle>
            <circle id="Oval-15-Copy-11" fill="#FFFFFF" opacity="0.3" cx="753" cy="48" r="2"></circle>
            <circle id="Oval-15-Copy" fill="#FFFFFF" opacity="0.3" cx="905" cy="465" r="2"></circle>
            <circle id="Oval-15-Copy-2" fill="#FFFFFF" opacity="0.3" cx="601" cy="137" r="2"></circle>
            <circle id="Oval-15-Copy-7" fill="#3388FF" opacity="0.3" cx="972" cy="607" r="2"></circle>
            <circle id="Oval-15-Copy-3" fill="#FFFFFF" opacity="0.5" cx="2" cy="302" r="2"></circle>
            <circle id="Oval-15-Copy-4" fill="#FFFFFF" opacity="0.2" cx="411" cy="628" r="2"></circle>
            <circle id="Oval-15-Copy-8" fill="#FFFFFF" opacity="0.2" cx="460" cy="63" r="2"></circle>
            <circle id="Oval-15-Copy-9" fill="#FFFFFF" opacity="0.2" cx="1055" cy="492" r="2"></circle>
            <circle id="Oval-15-Copy-5" fill="#FFFFFF" opacity="0.2" cx="885" cy="63" r="2"></circle>
            <circle id="Oval-15-Copy-6" fill="#FFFFFF" opacity="0.2" cx="732" cy="608" r="2"></circle>
        </g>
    </g>
</svg>