<?xml version="1.0" encoding="UTF-8"?>
<svg width="22px" height="26px" viewBox="0 0 22 26" version="1.1" xmlns="http://www.w3.org/2000/svg" xmlns:xlink="http://www.w3.org/1999/xlink">
    <!-- Generator: Sketch 50.2 (55047) - http://www.bohemiancoding.com/sketch -->
    <title>download_ios</title>
    <desc>Created with Sketch.</desc>
    <defs></defs>
    <g id="***切图" stroke="none" stroke-width="1" fill="none" fill-rule="evenodd">
        <g id="其他" transform="translate(-358.000000, -395.000000)" fill="#FFFFFF">
            <path d="M376.374046,408.816307 C376.411561,412.747872 379.958671,414.056296 380,414.074485 C379.967755,414.16452 379.431554,415.939283 378.128237,417.77295 C377.001954,419.357533 375.835418,420.93309 373.994686,420.965621 C372.183633,420.998256 371.603676,419.933461 369.534491,419.933461 C367.466208,419.933461 366.81923,420.93323 365.107582,420.998256 C363.33283,421.063457 361.979135,419.288379 360.84363,417.710233 C358.520993,414.481115 356.748808,408.58674 359.130733,404.608162 C360.312699,402.631151 362.427269,401.381492 364.720088,401.347738 C366.465334,401.317691 368.113463,402.480182 369.177752,402.480182 C370.246063,402.480182 372.246875,401.083227 374.351183,401.287749 C375.230844,401.323008 377.704581,401.629214 379.292069,403.862935 C379.165412,403.942338 376.340484,405.521848 376.374046,408.816167 L376.374046,408.816307 Z M368.964693,400.991932 C368.76058,399.497281 369.525269,397.943865 370.398585,396.967847 C371.373871,395.869157 373.019435,395.052224 374.3784,395 C374.552835,396.522145 373.914802,398.05069 372.972974,399.151863 C372.028685,400.249328 370.481173,401.105334 368.964693,400.991932 Z" id="download_ios"></path>
        </g>
    </g>
</svg>