<?xml version="1.0" encoding="UTF-8"?>
<svg width="22px" height="26px" viewBox="0 0 22 26" version="1.1" xmlns="http://www.w3.org/2000/svg" xmlns:xlink="http://www.w3.org/1999/xlink">
    <!-- Generator: Sketch 50.2 (55047) - http://www.bohemiancoding.com/sketch -->
    <title>app_download_android@3x</title>
    <desc>Created with Sketch.</desc>
    <defs></defs>
    <g id="***切图" stroke="none" stroke-width="1" fill="none" fill-rule="evenodd">
        <g id="其他" transform="translate(-392.000000, -395.000000)" fill="#FFFFFF">
            <path d="M405.221129,400.454485 L406.305305,400.454485 L406.305305,399.338691 L405.221129,399.338691 L405.221129,400.454485 Z M399.69466,400.454485 L400.778836,400.454485 L400.778836,399.338691 L399.69466,399.338691 L399.69466,400.454485 Z M406.873775,397.359264 C408.698311,398.644287 409.610563,400.38593 409.610563,402.584446 L396.389434,402.584446 C396.389434,400.352097 397.284755,398.610327 399.075463,397.359264 L397.628958,395.93821 C397.353447,395.667704 397.353447,395.414051 397.628958,395.177505 C397.90434,394.940832 398.162468,394.940832 398.403407,395.177505 L400.056019,396.800859 C400.951373,396.327513 401.932673,396.09084 402.999918,396.09084 C404.03272,396.09084 404.996734,396.327513 405.892087,396.800859 L407.5447,395.177505 C407.820244,394.940832 408.078339,394.940832 408.319278,395.177505 C408.560217,395.414051 408.560217,395.667704 408.319278,395.93821 L406.873775,397.359264 Z M412.347352,403.701224 C412.794658,403.701224 413.182124,403.861789 413.509655,404.182886 C413.837282,404.503983 414.000741,404.88459 413.999997,405.324737 L413.999997,412.883166 C413.999997,413.356385 413.836539,413.745307 413.509655,414.049805 C413.18277,414.354303 412.795401,414.50652 412.347352,414.50652 C411.899304,414.50652 411.511837,414.354303 411.184953,414.049805 C410.858036,413.745307 410.694739,413.356385 410.694739,412.883166 L410.694739,405.324737 C410.694739,404.885224 410.858036,404.504745 411.184953,404.182886 C411.511837,403.861027 411.899304,403.700621 412.347352,403.701224 Z M393.652613,403.701224 C394.099918,403.701224 394.487385,403.861789 394.815045,404.182886 C395.142575,404.503983 395.306001,404.88459 395.305258,405.324737 L395.305258,412.883166 C395.305258,413.356385 395.1418,413.745307 394.815045,414.049805 C394.48816,414.354303 394.100694,414.50652 393.652613,414.50652 C393.204564,414.50652 392.817098,414.354303 392.490343,414.049805 C392.163458,413.745307 392,413.356385 392,412.883166 L392,405.324737 C392,404.885224 392.163458,404.504745 392.490343,404.182886 C392.817098,403.861027 393.204564,403.700621 393.652613,403.701224 Z M396.389434,414.50652 L396.389434,403.701224 L409.610563,403.701224 L409.610563,414.50652 C409.610563,414.811018 409.507332,415.064544 409.300965,415.267384 C409.094599,415.470097 408.836374,415.571501 408.526388,415.571501 L407.390483,415.571501 L407.390483,419.376646 C407.390483,419.849992 407.227024,420.238914 406.90014,420.543285 C406.573385,420.847751 406.185918,421 405.73787,421 C405.289789,421 404.902323,420.847751 404.575438,420.543285 C404.248683,420.238914 404.085225,419.849992 404.085225,419.376646 L404.085225,415.571501 L401.915904,415.571501 L401.915904,419.376646 C401.915904,419.849992 401.752445,420.238914 401.425561,420.543285 C401.098676,420.847751 400.711178,421 400.263258,421 C399.81521,421 399.427744,420.847751 399.100859,420.543285 C398.773942,420.238914 398.610516,419.849992 398.610516,419.376646 L398.610516,415.571501 L397.474611,415.571501 C397.164755,415.571501 396.906498,415.470097 396.700163,415.267384 C396.493667,415.064544 396.390565,414.811018 396.390565,414.50652 L396.389434,414.50652 Z" id="app_download_android"></path>
        </g>
    </g>
</svg>