<?xml version="1.0" encoding="UTF-8"?>
<svg width="13px" height="14px" viewBox="0 0 13 14" version="1.1" xmlns="http://www.w3.org/2000/svg" xmlns:xlink="http://www.w3.org/1999/xlink">
    <!-- Generator: Sketch 50.2 (55047) - http://www.bohemiancoding.com/sketch -->
    <title>date</title>
    <desc>Created with Sketch.</desc>
    <defs></defs>
    <g id="切图" stroke="none" stroke-width="1" fill="none" fill-rule="evenodd">
        <g id="Artboard" transform="translate(-228.000000, -101.000000)" fill="#999999">
            <path d="M229,104 L240,104 L240,102 L241,102 L241,114 L241,115 L228,115 L228,114 L228,102 L229,102 L229,104 Z M229,105 L229,114 L240,114 L240,105 L229,105 Z M230,101 L231,101 L231,103 L230,103 L230,101 Z M238,101 L239,101 L239,103 L238,103 L238,101 Z M232,102 L237,102 L237,103 L232,103 L232,102 Z M231,108 L232,108 L232,109 L231,109 L231,108 Z M231,106 L232,106 L232,107 L231,107 L231,106 Z M231,110 L232,110 L232,111 L231,111 L231,110 Z M231,112 L232,112 L232,113 L231,113 L231,112 Z M234,108 L235,108 L235,109 L234,109 L234,108 Z M234,106 L235,106 L235,107 L234,107 L234,106 Z M234,110 L235,110 L235,111 L234,111 L234,110 Z M234,112 L235,112 L235,113 L234,113 L234,112 Z M237,108 L238,108 L238,109 L237,109 L237,108 Z M237,106 L238,106 L238,107 L237,107 L237,106 Z M237,110 L238,110 L238,111 L237,111 L237,110 Z M237,112 L238,112 L238,113 L237,113 L237,112 Z" id="date"></path>
        </g>
    </g>
</svg>