<?xml version="1.0" encoding="UTF-8"?>
<svg width="20px" height="20px" viewBox="0 0 20 20" version="1.1" xmlns="http://www.w3.org/2000/svg" xmlns:xlink="http://www.w3.org/1999/xlink">
    <!-- Generator: Sketch 49 (51002) - http://www.bohemiancoding.com/sketch -->
    <title>icon_footer_twitter</title>
    <desc>Created with Sketch.</desc>
    <defs></defs>
    <g id="切图" stroke="none" stroke-width="1" fill="none" fill-rule="evenodd">
        <g id="Artboard" transform="translate(-688.000000, -150.000000)" fill="#8E8F97">
            <g id="首页" transform="translate(31.000000, 65.000000)">
                <path d="M675.899558,89.7626908 C675.401069,90.5003707 674.777825,91.1455254 674.057802,91.6691951 L674.057802,92.1440226 C674.05617,93.1428683 673.910792,94.1362801 673.626141,95.0937086 C673.329644,96.0926302 672.888509,97.0427664 672.316768,97.9138961 C671.739454,98.8060031 671.036802,99.6104177 670.230405,100.302422 C669.362938,101.028954 668.370832,101.592041 667.302302,101.964318 C666.124681,102.38287 664.882938,102.592262 663.633181,102.583033 C661.634491,102.598375 659.675446,102.025423 658,100.935526 C658.293931,100.966427 658.589363,100.980838 658.884906,100.978692 C660.538025,100.994667 662.146211,100.440821 663.438933,99.4103221 C661.868411,99.3816999 660.489573,98.3584114 660.007225,96.8635201 C660.245193,96.9012386 660.485723,96.920481 660.726661,96.921075 C661.051925,96.9218282 661.375933,96.8807226 661.690705,96.7987709 C660.861131,96.6374261 660.11485,96.1891484 659.582758,95.5325643 C659.033046,94.8813699 658.736723,94.0537115 658.748213,93.2015929 L658.748213,93.1584268 C659.256004,93.4468999 659.826397,93.6073999 660.410109,93.6260599 C659.911701,93.2959865 659.501679,92.8489137 659.215846,92.3238815 C658.605528,91.1970478 658.627346,89.8334353 659.273401,88.7267035 C660.182747,89.8443962 661.314655,90.760703 662.597193,91.4173927 C663.904799,92.0929867 665.342865,92.4782707 666.813086,92.5469065 C666.752895,92.2582819 666.723951,91.964016 666.726754,91.6691951 C666.709596,90.6924957 667.097657,89.7522949 667.798713,89.0720326 C668.502548,88.3707593 669.460263,87.9842297 670.453693,88.0004932 C671.447124,88.0167568 672.391672,88.4344285 673.072176,89.1583649 C673.892461,89.0124926 674.681174,88.7252452 675.403147,88.3094309 C675.135058,89.1597261 674.560756,89.8801672 673.791611,90.3310449 C674.521283,90.2493298 675.234397,90.0577108 675.906752,89.7626908 L675.899558,89.7626908 Z" id="icon_footer_twitter"></path>
            </g>
        </g>
    </g>
</svg>