<?xml version="1.0" encoding="UTF-8"?>
<svg width="20px" height="20px" viewBox="0 0 20 20" version="1.1" xmlns="http://www.w3.org/2000/svg" xmlns:xlink="http://www.w3.org/1999/xlink">
    <!-- Generator: Sketch 49 (51002) - http://www.bohemiancoding.com/sketch -->
    <title>icon_footer_in</title>
    <desc>Created with Sketch.</desc>
    <defs></defs>
    <g id="切图" stroke="none" stroke-width="1" fill="none" fill-rule="evenodd">
        <g id="Artboard" transform="translate(-829.000000, -150.000000)" fill="#8E8F97" fill-rule="nonzero">
            <g id="首页" transform="translate(31.000000, 65.000000)">
                <path d="M803.697493,88.7531876 C803.697493,89.7174408 802.993209,90.5063752 801.848747,90.5063752 C800.704284,90.5063752 800,89.7174408 800,88.7531876 C800,87.7889345 800.704284,87 801.848747,87 C802.993209,87 803.697493,87.7889344 803.697493,88.7531876 Z M800.088036,103.041667 L800.088036,91.8212659 L803.609458,91.8212659 L803.609458,102.954007 L800.088036,102.954007 L800.088036,103.041667 Z M805.634276,95.4153005 C805.634276,94.0127505 805.54624,92.8731785 805.54624,91.8212659 L808.539449,91.8212659 L808.803555,93.3991348 C809.243733,92.6978597 810.388195,91.5582878 812.236942,91.5582878 C814.525867,91.5582878 816.286578,93.0484973 816.286578,96.3795537 L816.286578,102.954007 L812.765155,102.954007 L812.765155,96.7301913 C812.765155,95.3276412 812.236942,94.2757286 811.004444,94.2757286 C810.036053,94.2757286 809.50784,94.9770037 809.243733,95.5906193 C809.155698,95.8535975 809.155698,96.1165756 809.155698,96.4672131 L809.155698,102.954007 L805.634276,102.954007 L805.634276,95.4153005 Z" id="icon_footer_in"></path>
            </g>
        </g>
    </g>
</svg>