<?xml version="1.0" encoding="UTF-8"?>
<svg width="20px" height="20px" viewBox="0 0 20 20" version="1.1" xmlns="http://www.w3.org/2000/svg" xmlns:xlink="http://www.w3.org/1999/xlink">
    <!-- Generator: Sketch 49 (51002) - http://www.bohemiancoding.com/sketch -->
    <title>icon_footer_weibo</title>
    <desc>Created with Sketch.</desc>
    <defs></defs>
    <g id="切图" stroke="none" stroke-width="1" fill="none" fill-rule="evenodd">
        <g id="Artboard" transform="translate(-970.000000, -151.000000)" fill="#A4A4AC" fill-rule="nonzero">
            <g id="首页" transform="translate(31.000000, 65.000000)">
                <g id="icon_footer_weibo" transform="translate(939.000000, 88.000000)">
                    <path d="M14.0188626,7.34288295 C13.3198903,7.20544947 13.6597021,6.82644009 13.6597021,6.82644009 C13.6597021,6.82644009 14.3446555,5.68655062 13.5247986,4.8566813 C12.5146344,3.8308807 10.052421,4.98789257 10.052421,4.98789257 C9.11221676,5.28228908 9.36500413,4.8540925 9.49681724,4.12114421 C9.49681724,3.25743881 9.2078854,1.79562981 6.70374971,2.65965313 C4.19997233,3.52472105 2.05262335,6.56796886 2.05262335,6.56796886 C0.562145301,8.58882238 0.758543709,10.146962 0.758543709,10.146962 C1.13490308,13.5966968 4.74437886,14.5407912 7.5516892,14.7640639 C10.5101614,14.9988272 14.4960413,13.731814 15.7060526,11.1263459 L15.7060078,11.1263004 C16.9157951,8.51588181 14.7151476,7.48263273 14.0188626,7.34288295 Z M7.77339322,13.7933093 C4.84013708,13.9311516 2.46830718,12.4411837 2.46830718,10.4557104 C2.46830718,8.46619502 4.84009229,6.87353808 7.77339322,6.73837547 C10.7066046,6.60035156 13.0840778,7.82585309 13.0840778,9.81005466 C13.0840331,11.7938021 10.7066494,13.6580105 7.77339322,13.7933093 Z" id="Shape"></path>
                    <path d="M7.0790367,8.31399318 C4.06052412,8.66756946 4.4080032,11.5003092 4.4080032,11.5003092 C4.4080032,11.5003092 4.37922229,12.3974643 5.21813084,12.8533143 C6.98742357,13.8109435 8.80520389,13.2298322 9.72165591,12.0424197 L9.72161008,12.0424197 C10.643745,10.8533555 10.1037362,7.96165574 7.0790367,8.31399318 Z M6.31822157,12.2897304 C5.75511481,12.35594 5.29865323,12.0292971 5.29865323,11.5579845 C5.29865323,11.0877271 5.70319001,10.5948034 6.26941318,10.5355222 L6.26945901,10.5355222 C6.91556296,10.4723869 7.33778991,10.8461059 7.33778991,11.320814 C7.33778991,11.7890066 6.87812028,12.2248515 6.31822157,12.2897304 Z M8.09617607,10.7712703 C7.90364645,10.9137378 7.67092437,10.8922645 7.57032867,10.7227259 C7.46716652,10.5541967 7.50415091,10.2883492 7.69965945,10.14579 L7.69970528,10.14579 C7.92371976,9.98047262 8.15644184,10.0279159 8.25685422,10.1946097 C8.35740409,10.3654789 8.2827937,10.6232051 8.09617607,10.7712703 Z M15.5438325,6.3786838 C15.7851705,6.3786838 15.9861786,6.1973991 16.0263252,5.96169688 C16.029075,5.94618834 16.0320539,5.93159747 16.0320539,5.91007823 C16.3997896,2.59180198 13.3149159,3.16236012 13.3149159,3.16236012 C13.0420472,3.16236012 12.8210117,3.38526093 12.8210117,3.66124864 C12.8210117,3.9335657 13.0420472,4.15453941 13.3149159,4.15453941 L13.3149159,4.15444764 C15.5324209,3.66390987 15.0440162,5.88539304 15.0440162,5.88530127 C15.0439704,6.15725127 15.2650518,6.3786838 15.5438325,6.3786838 Z" id="Shape"></path>
                    <path d="M15.4242472,0.282160291 C14.3813795,0.0472687372 13.3107385,0.443181965 13.0134599,0.497301462 C12.9883699,0.499845725 12.9658292,0.504158036 12.9462402,0.507909746 C12.9348804,0.51101461 12.9266959,0.511877072 12.9266959,0.511877072 C12.6295068,0.593121002 12.4166667,0.8497466 12.4166667,1.16351031 C12.4166667,1.53367905 12.7305824,1.83377274 13.1173084,1.83377273 C13.1173084,1.83377273 13.5013957,1.7765915 13.7535927,1.68094445 C14.0087863,1.58085572 16.166795,1.59202461 17.2378386,3.32540094 C17.8234062,4.59149531 17.4925402,5.41061869 17.4533622,5.54589587 C17.4533622,5.54589587 17.3162393,5.81847701 17.3162393,6.14142595 C17.3162393,6.51750255 17.6246093,6.70375124 18.0113353,6.70375124 C18.3365662,6.70375124 18.6083969,7.09884513 18.6896599,5.97134842 L18.692388,5.97134842 L18.692388,5.97143467 C19.8417876,2.60222647 17.2878844,0.69989381 15.4242472,0.282160291 Z" id="Shape"></path>
                </g>
            </g>
        </g>
    </g>
</svg>