<?xml version="1.0" encoding="UTF-8"?>
<svg width="85px" height="20px" viewBox="0 0 85 20" version="1.1" xmlns="http://www.w3.org/2000/svg" xmlns:xlink="http://www.w3.org/1999/xlink">
    <!-- Generator: Sketch 49 (51002) - http://www.bohemiancoding.com/sketch -->
    <title>logo_header</title>
    <desc>Created with Sketch.</desc>
    <defs></defs>
    <g id="切图" stroke="none" stroke-width="1" fill="none" fill-rule="evenodd">
        <g id="Artboard" transform="translate(-31.000000, -140.000000)" fill-rule="nonzero">
            <g id="首页" transform="translate(31.000000, 65.000000)">
                <g id="logo_header" transform="translate(0.000000, 75.000000)">
                    <g id="q" fill="#FFFFFF">
                        <path d="M12.9251411,16.9339123 C9.39262278,18.4422153 5.28675092,17.2233482 3.14940105,14.031891 C1.01205119,10.8404337 1.44820153,6.57973034 4.18783883,3.88750984 C6.92747612,1.19528935 11.1951443,0.83358647 14.3488025,3.02632532 C17.5024607,5.21906417 18.649464,9.34558863 17.0797221,12.8512375 C16.9406522,13.1542398 17.00435,13.511744 17.2395137,13.7480677 C17.4263457,13.9353446 17.6937624,14.0180029 17.9536847,13.9688176 C18.213607,13.9196323 18.4323328,13.7449808 18.5378202,13.5023882 C20.419119,9.29441013 19.0397212,4.34325227 15.2536232,1.71421698 C11.4675252,-0.914818316 6.34644223,-0.477540886 3.06087863,2.75532723 C-0.224684976,5.98819534 -0.744698277,11.1015395 1.82278322,14.9296465 C4.39026471,18.7577535 9.31847462,20.2170169 13.5563178,18.4039948 C13.8019914,18.3010409 13.9801972,18.082422 14.031512,17.8210377 C14.0828267,17.5596533 14.0005001,17.289887 13.8119844,17.1016934 C13.5792972,16.8681546 13.2270595,16.801515 12.9251411,16.9339123 Z" id="Shape"></path>
                    </g>
                    <g id="b" transform="translate(22.570560, 0.000000)" fill="#FFFFFF">
                        <rect id="Rectangle-path" x="0" y="0" width="1.59791576" height="19.1749891" rx="0.798957881"></rect>
                        <path d="M10.3864525,7.98957881 L3.99478941,7.98957881 C3.55353715,7.98957881 3.19583152,8.34728444 3.19583152,8.78853669 C3.19583152,9.22978894 3.55353715,9.58749457 3.99478941,9.58749457 L10.6441164,9.58749457 C12.7080738,9.58749457 14.3812419,11.2606626 14.3812419,13.3246201 L14.3812419,13.8399479 C14.3812419,14.8310952 13.9875101,15.7816477 13.2866631,16.4824947 C12.5858162,17.1833416 11.6352637,17.5770734 10.6441164,17.5770734 L3.99478941,17.5770734 C3.55353715,17.5770734 3.19583152,17.934779 3.19583152,18.3760313 C3.19583152,18.8172835 3.55353715,19.1749891 3.99478941,19.1749891 L10.3864525,19.1749891 C13.4752182,19.1749891 15.9791576,16.6710498 15.9791576,13.582284 C15.9791576,10.4935182 13.4752182,7.98957881 10.3864525,7.98957881 Z" id="Shape"></path>
                        <path d="M9.58749457,0 L3.99478941,0 C3.55353715,-2.7018908e-17 3.19583152,0.357705628 3.19583152,0.798957881 C3.19583152,1.24021013 3.55353715,1.59791576 3.99478941,1.59791576 L9.49761181,1.59791576 C11.219366,1.59791576 12.6934433,2.92019106 12.7793313,4.63994789 C12.8214035,5.51316149 12.5039194,6.36549003 11.9008349,6.99838905 C11.2977504,7.63128808 10.4617211,7.98949898 9.58749457,7.98957881 L3.99478941,7.98957881 C3.55353715,7.98957881 3.19583152,8.34728444 3.19583152,8.78853669 C3.19583152,9.22978894 3.55353715,9.58749457 3.99478941,9.58749457 L9.58749457,9.58749457 C12.2350081,9.58749457 14.3812419,7.44126081 14.3812419,4.79374729 C14.3812419,2.14623377 12.2350081,1.62113448e-16 9.58749457,0 Z" id="Shape"></path>
                    </g>
                    <circle id="Oval" fill="#FFFFFF" cx="41.1463309" cy="18.2202345" r="1"></circle>
                    <path d="M54.0634824,16.1788971 C52.6528817,17.8139073 50.3776997,18.4053996 48.3493992,17.6644205 C46.3210988,16.9234414 44.9629809,15.0046313 44.9385079,12.8453597 C44.9140349,10.6860881 46.2283142,8.73698937 48.2392994,7.95022936 C50.2502846,7.16346935 52.5382883,7.70324287 53.985584,9.30586192 C54.1498915,9.48614388 54.3828264,9.5884611 54.6267477,9.58749457 C54.8395003,9.58672398 55.0323765,9.46228468 55.1207702,9.26876256 C55.2091639,9.07524045 55.1769311,8.84797978 55.038211,8.68666956 C53.3203632,6.63211155 50.5038085,5.86634609 47.9821526,6.76826699 C45.4604967,7.6701879 43.768495,10.0485292 43.7433345,12.7265092 C43.718174,15.4044891 45.3651904,17.8142016 47.869455,18.7633426 C50.3737195,19.7124837 53.204165,18.9997737 54.9603126,16.977855 C55.1184382,16.8010805 55.1574179,16.5476756 55.0597295,16.3315509 C54.9620411,16.1154262 54.7460708,15.9772588 54.5089014,15.9791576 C54.3384227,15.9776818 54.1757751,16.050618 54.0634824,16.1788971 Z" id="Shape" fill="#FFFFFF"></path>
                    <path d="M63.1176726,6.39166305 C59.5876546,6.39166305 56.7260096,9.25330807 56.7260096,12.7833261 C56.7260096,16.3133441 59.5876546,19.1749891 63.1176726,19.1749891 C66.6476906,19.1749891 69.5093356,16.3133441 69.5093356,12.7833261 C69.5093356,11.0881517 68.8359302,9.46240715 67.6372609,8.26373781 C66.4385915,7.06506847 64.812847,6.39166305 63.1176726,6.39166305 Z M63.1176726,17.9765523 C60.249533,17.9765523 57.9244464,15.6514657 57.9244464,12.7833261 C57.9244464,9.91518645 60.249533,7.59009987 63.1176726,7.59009987 C65.9858122,7.59009987 68.3108988,9.91518645 68.3108988,12.7833261 C68.3108988,14.1606553 67.7637569,15.4815727 66.7898381,16.4554916 C65.8159192,17.4294104 64.4950018,17.9765523 63.1176726,17.9765523 Z" id="Shape" fill="#FFFFFF"></path>
                    <g id="m" transform="translate(71.532783, 6.391663)" fill="#FFFFFF">
                        <rect id="Rectangle-path" x="0" y="0" width="1.19843682" height="12.7833261" rx="0.599218411"></rect>
                        <rect id="Rectangle-path" x="11.5848893" y="0" width="1.19843682" height="12.7833261" rx="0.599218411"></rect>
                        <path d="M6.88302215,8.47294833 L1.18245766,0.331567521 C1.00280077,0.0570821956 0.640676442,-0.0303874486 0.355536257,0.13182805 C0.215771163,0.218850128 0.117969349,0.35954611 0.0850992678,0.520873979 C0.0522291867,0.682201848 0.08718698,0.849947211 0.181762918,0.984715588 L5.90030395,9.15206253 C6.01249506,9.31180276 6.19546244,9.40688381 6.39066435,9.40688381 C6.58586626,9.40688381 6.76883364,9.31180276 6.88102475,9.15206253 C7.02228584,8.94795511 7.02308017,8.67788316 6.88302215,8.47294833 Z" id="Shape"></path>
                        <path d="M12.4277898,0.139817629 C12.1426497,-0.0223978698 11.7805253,0.0650717745 11.6008684,0.339557099 L5.90230135,8.47095093 C5.7579474,8.67723999 5.7579474,8.95176566 5.90230135,9.15805471 C6.01449245,9.31779494 6.19745984,9.41287599 6.39266175,9.41287599 C6.58786365,9.41287599 6.77083104,9.31779494 6.88302215,9.15805471 L12.6015632,0.998697351 C12.6981505,0.863527011 12.7342857,0.694324111 12.7013403,0.531490628 C12.6683949,0.368657145 12.5693263,0.226809428 12.4277898,0.139817629 Z" id="Shape"></path>
                    </g>
                    <rect id="Rectangle-path" fill="#FF9E2F" transform="translate(15.869533, 15.444001) rotate(-45.000000) translate(-15.869533, -15.444001) " x="15.0705755" y="10.6502542" width="1.59791576" height="9.58749457" rx="0.798957881"></rect>
                </g>
            </g>
        </g>
    </g>
</svg>