<?xml version="1.0" encoding="UTF-8"?>
<svg width="30px" height="30px" viewBox="0 0 30 30" version="1.1" xmlns="http://www.w3.org/2000/svg" xmlns:xlink="http://www.w3.org/1999/xlink">
    <!-- Generator: Sketch 50.2 (55047) - http://www.bohemiancoding.com/sketch -->
    <title>pop_error</title>
    <desc>Created with Sketch.</desc>
    <defs></defs>
    <g id="切图" stroke="none" stroke-width="1" fill="none" fill-rule="evenodd">
        <g id="Artboard" transform="translate(-44.000000, -141.000000)">
            <g id="pop_error" transform="translate(44.000000, 141.000000)">
                <circle id="Oval-9" fill="#F25C48" cx="15" cy="15" r="15"></circle>
                <path d="M14.9497475,12.1213203 L11.4142136,8.58578644 C10.633165,7.80473785 9.36683502,7.80473785 8.58578644,8.58578644 C7.80473785,9.36683502 7.80473785,10.633165 8.58578644,11.4142136 L12.1213203,14.9497475 L8.58578644,18.4852814 C7.80473785,19.26633 7.80473785,20.5326599 8.58578644,21.3137085 C9.36683502,22.0947571 10.633165,22.0947571 11.4142136,21.3137085 L14.9497475,17.7781746 L18.4852814,21.3137085 C19.26633,22.0947571 20.5326599,22.0947571 21.3137085,21.3137085 C22.0947571,20.5326599 22.0947571,19.26633 21.3137085,18.4852814 L17.7781746,14.9497475 L21.3137085,11.4142136 C22.0947571,10.633165 22.0947571,9.36683502 21.3137085,8.58578644 C20.5326599,7.80473785 19.26633,7.80473785 18.4852814,8.58578644 L14.9497475,12.1213203 Z" id="Combined-Shape" fill="#FFFFFF"></path>
            </g>
        </g>
    </g>
</svg>